<svg viewBox="0 0 88 89" fill="none" xmlns="http://www.w3.org/2000/svg">
<path fill-rule="evenodd" clip-rule="evenodd" d="M44 87.6071C20.2638 87.6071 1.01477 68.4691 0.792793 44.7963H87.2072C87.0011 68.4691 67.7362 87.6071 44 87.6071ZM0.792793 44.0035H87.2072C87.0011 20.3307 67.7362 1.1927 44 1.1927C20.2638 1.1927 1.01477 20.3307 0.792793 44.0035ZM44 0.399902C19.693 0.399902 0 20.0929 0 44.3999C0 68.7069 19.693 88.3999 44 88.3999C68.307 88.3999 88 68.7069 88 44.3999C88 20.0929 68.307 0.399902 44 0.399902Z" fill="#F4EBE8"/>
<path d="M61.4783 33.513H59.9104L64.2795 21.1807H66.1646L70.5514 33.513H68.913L67.7326 30.1833H62.6763L61.4783 33.513ZM65.178 22.8543L63.1168 28.7915H67.2745L65.178 22.8543Z" fill="#F4EBE8"/>
<path d="M52.2116 33.513H50.6789V21.1807H55.189C57.6907 21.1807 59.3467 22.6605 59.3467 24.9685C59.3467 27.2764 57.6907 28.7739 55.189 28.7739H52.2116V33.513ZM52.2116 22.5901V27.3644H55.048C56.7041 27.3644 57.7788 26.4307 57.7788 24.9685C57.7788 23.5062 56.7217 22.5901 55.0656 22.5901H52.2116Z" fill="#F4EBE8"/>
<path d="M42.9793 33.6189C39.6848 33.6189 37.7821 31.2934 37.7821 27.3471C37.7821 23.3831 39.7024 21.0752 43.0498 21.0752C45.4986 21.0752 47.2251 22.5903 47.7008 25.2153H46.08C45.6572 23.4007 44.6177 22.4846 43.0321 22.4846C40.6714 22.4846 39.3501 24.264 39.3501 27.3471C39.3501 30.4654 40.6185 32.2095 42.9793 32.2095C44.5825 32.2095 45.6219 31.311 46.0624 29.4788H47.6832C47.2075 32.1214 45.4986 33.6189 42.9793 33.6189Z" fill="#F4EBE8"/>
<path d="M35.6966 21.1807V22.4491H33.0011V32.2445H35.6966V33.513H28.7552V32.2445H31.4684V22.4491H28.7552V21.1807H35.6966Z" fill="#F4EBE8"/>
<path d="M17.437 33.513H15.8691L20.2382 21.1807H22.1233L26.5101 33.513H24.8717L23.6913 30.1833H18.635L17.437 33.513ZM21.1367 22.8543L19.0755 28.7915H23.2332L21.1367 22.8543Z" fill="#F4EBE8"/>
<path d="M55.9571 68.8543C52.6627 68.8543 50.7599 66.5288 50.7599 62.5824C50.7599 58.6185 52.6803 56.3105 56.0276 56.3105C58.4765 56.3105 60.203 57.8257 60.6787 60.4507H59.0578C58.635 58.6361 57.5956 57.72 56.01 57.72C53.6492 57.72 52.3279 59.4993 52.3279 62.5824C52.3279 65.7007 53.5964 67.4449 55.9571 67.4449C57.5603 67.4449 58.5998 66.5464 59.0402 64.7142H60.661C60.1854 67.3568 58.4765 68.8543 55.9571 68.8543Z" fill="#F4EBE8"/>
<path d="M43.0858 68.8543C40.038 68.8543 38.0119 66.4231 38.0119 62.5824C38.0119 58.7418 40.038 56.3105 43.0858 56.3105C46.1513 56.3105 48.1949 58.7594 48.1949 62.5824C48.1949 66.4054 46.1513 68.8543 43.0858 68.8543ZM43.0858 67.4449C45.288 67.4449 46.6269 65.6479 46.6269 62.5824C46.6269 59.517 45.288 57.72 43.0858 57.72C40.9188 57.72 39.5799 59.4817 39.5799 62.5824C39.5799 65.6831 40.9188 67.4449 43.0858 67.4449Z" fill="#F4EBE8"/>
<path d="M31.0731 68.8543C28.1838 68.8543 26.3339 67.2159 26.2458 64.7142H27.8314C27.9548 66.3878 29.2585 67.4625 31.0907 67.4625C32.7468 67.4625 33.8567 66.6697 33.8567 65.366C33.8567 64.0799 32.8701 63.5866 30.5445 63.199C27.99 62.7762 26.5453 61.8249 26.5453 59.8165C26.5453 57.72 28.2366 56.3105 30.7207 56.3105C33.3457 56.3105 35.0899 57.7904 35.2308 60.0631H33.6452C33.4867 58.6185 32.3239 57.7023 30.7207 57.7023C29.0823 57.7023 28.0781 58.4423 28.0781 59.7284C28.0781 60.9968 29.0471 61.4373 31.4078 61.8249C33.9271 62.2301 35.3894 63.2519 35.3894 65.2251C35.3894 67.3568 33.61 68.8543 31.0731 68.8543Z" fill="#F4EBE8"/>
</svg>
