<svg width="20" height="21" viewBox="0 0 20 21" fill="none" xmlns="http://www.w3.org/2000/svg">
<path d="M15 8.53312C16.841 8.53312 18.3334 7.04074 18.3334 5.19979C18.3334 3.35884 16.841 1.86646 15 1.86646C13.1591 1.86646 11.6667 3.35884 11.6667 5.19979C11.6667 7.04074 13.1591 8.53312 15 8.53312Z" stroke="#AD9E95" stroke-width="1.5" stroke-miterlimit="10" stroke-linecap="square"/>
<path d="M5.00002 8.53312C6.84097 8.53312 8.33335 7.04074 8.33335 5.19979C8.33335 3.35884 6.84097 1.86646 5.00002 1.86646C3.15907 1.86646 1.66669 3.35884 1.66669 5.19979C1.66669 7.04074 3.15907 8.53312 5.00002 8.53312Z" stroke="#AD9E95" stroke-width="1.5" stroke-miterlimit="10" stroke-linecap="square"/>
<path d="M15 18.5331C16.841 18.5331 18.3334 17.0407 18.3334 15.1998C18.3334 13.3588 16.841 11.8665 15 11.8665C13.1591 11.8665 11.6667 13.3588 11.6667 15.1998C11.6667 17.0407 13.1591 18.5331 15 18.5331Z" stroke="#AD9E95" stroke-width="1.5" stroke-miterlimit="10" stroke-linecap="square"/>
<path d="M5.00002 18.5331C6.84097 18.5331 8.33335 17.0407 8.33335 15.1998C8.33335 13.3588 6.84097 11.8665 5.00002 11.8665C3.15907 11.8665 1.66669 13.3588 1.66669 15.1998C1.66669 17.0407 3.15907 18.5331 5.00002 18.5331Z" stroke="#AD9E95" stroke-width="1.5" stroke-miterlimit="10" stroke-linecap="square"/>
</svg>
