<svg width="21" height="21" viewBox="0 0 21 21" fill="none" xmlns="http://www.w3.org/2000/svg">
<path d="M3.83332 2.69971C3.37332 2.69971 2.99999 3.07304 2.99999 3.53304V8.67637C2.99999 9.11804 2.82416 9.54221 2.51166 9.85471L2.16666 10.1997L2.51166 10.5447C2.82416 10.8572 2.99999 11.2814 2.99999 11.723V16.8664C2.99999 17.3264 3.37332 17.6997 3.83332 17.6997" stroke="#AD9E95" stroke-width="1.5" stroke-miterlimit="10" stroke-linecap="square"/>
<path d="M17.1667 2.69971C17.6267 2.69971 18 3.07304 18 3.53304V8.67637C18 9.11804 18.1758 9.54221 18.4883 9.85471L18.8333 10.1997L18.4883 10.5447C18.1758 10.8572 18 11.2814 18 11.723V16.8664C18 17.3264 17.6267 17.6997 17.1667 17.6997" stroke="#AD9E95" stroke-width="1.5" stroke-miterlimit="10" stroke-linecap="square"/>
<path d="M6.33331 4.36646H7.16665V8.53312" stroke="#AD9E95" stroke-width="1.5" stroke-miterlimit="10" stroke-linecap="square"/>
<path d="M13.8333 11.8665H14.6666V16.0331" stroke="#AD9E95" stroke-width="1.5" stroke-miterlimit="10" stroke-linecap="square"/>
<path d="M13.8333 4.36646H12.1666C11.7064 4.36646 11.3333 4.73955 11.3333 5.19979V7.69979C11.3333 8.16003 11.7064 8.53312 12.1666 8.53312H13.8333C14.2936 8.53312 14.6666 8.16003 14.6666 7.69979V5.19979C14.6666 4.73955 14.2936 4.36646 13.8333 4.36646Z" stroke="#AD9E95" stroke-width="1.5" stroke-miterlimit="10" stroke-linecap="square"/>
<path d="M8.83331 11.8665H7.16665C6.70641 11.8665 6.33331 12.2396 6.33331 12.6998V15.1998C6.33331 15.66 6.70641 16.0331 7.16665 16.0331H8.83331C9.29355 16.0331 9.66665 15.66 9.66665 15.1998V12.6998C9.66665 12.2396 9.29355 11.8665 8.83331 11.8665Z" stroke="#AD9E95" stroke-width="1.5" stroke-miterlimit="10" stroke-linecap="square"/>
</svg>
