<svg width="32" height="32" viewBox="0 0 32 32" fill="none" xmlns="http://www.w3.org/2000/svg">
<path d="M14.6667 17.3333V22.6667M20 6.66667V12M4 4V25.3333C4 26.0406 4.28095 26.7189 4.78105 27.219C5.28115 27.719 5.95942 28 6.66667 28H28M10.6667 17.3333H20C20.7364 17.3333 21.3333 17.9303 21.3333 18.6667V21.3333C21.3333 22.0697 20.7364 22.6667 20 22.6667H10.6667C9.93029 22.6667 9.33333 22.0697 9.33333 21.3333V18.6667C9.33333 17.9303 9.93029 17.3333 10.6667 17.3333ZM10.6667 6.66667H24C24.7364 6.66667 25.3333 7.26362 25.3333 8V10.6667C25.3333 11.403 24.7364 12 24 12H10.6667C9.93029 12 9.33333 11.403 9.33333 10.6667V8C9.33333 7.26362 9.93029 6.66667 10.6667 6.66667Z" stroke="url(#paint0_linear_13_416)" stroke-width="2.33" stroke-linecap="round" stroke-linejoin="round"/>
<defs>
<linearGradient id="paint0_linear_13_416" x1="6.04276" y1="20.9786" x2="24.0424" y2="9.4895" gradientUnits="userSpaceOnUse">
<stop stop-color="#E7D2F6"/>
<stop offset="1" stop-color="#FF734A"/>
</linearGradient>
</defs>
</svg>
