<svg width="30" height="27" viewBox="0 0 30 27" fill="none" xmlns="http://www.w3.org/2000/svg">
<path d="M5.08105 2.3999H4.08105C3.89745 2.3999 3.74725 2.54934 3.74707 2.73291V10.9624C3.74707 11.8635 3.41424 12.7306 2.81836 13.3999C3.41424 14.0692 3.74707 14.9363 3.74707 15.8374V24.0669C3.74725 24.2505 3.89745 24.3999 4.08105 24.3999H5.08105V26.3999H4.08105C2.79288 26.3999 1.74725 25.355 1.74707 24.0669V15.8374C1.74707 15.4517 1.61291 15.0784 1.37012 14.7817L1.25879 14.6587L0 13.3999L1.25879 12.1411L1.37012 12.0181C1.61291 11.7214 1.74707 11.3481 1.74707 10.9624V2.73291C1.74725 1.44477 2.79288 0.399902 4.08105 0.399902H5.08105V2.3999ZM25.4141 0.399902C26.7021 0.400078 27.7469 1.44488 27.7471 2.73291V10.9624C27.7471 11.4035 27.9227 11.8284 28.2354 12.1411L28.7881 12.6929L29.4951 13.3999L28.7881 14.1069L28.2354 14.6587C27.9227 14.9714 27.7471 15.3963 27.7471 15.8374V24.0669C27.7469 25.3549 26.7021 26.3997 25.4141 26.3999H24.4141V24.3999H25.4141C25.5975 24.3997 25.7469 24.2504 25.7471 24.0669V15.8374C25.7471 14.9364 26.08 14.0692 26.6758 13.3999C26.08 12.7306 25.7471 11.8634 25.7471 10.9624V2.73291C25.7469 2.54945 25.5975 2.40008 25.4141 2.3999H24.4141V0.399902H25.4141ZM12.0801 15.0669C13.3686 15.0669 14.4129 16.1114 14.4131 17.3999V21.3999C14.4129 22.6884 13.3686 23.7339 12.0801 23.7339H9.41309C8.12483 23.7335 7.08025 22.6882 7.08008 21.3999V17.3999C7.08025 16.1116 8.12483 15.0672 9.41309 15.0669H12.0801ZM22.4131 23.7339H20.4131V17.0669H19.0801V15.0669H22.4131V23.7339ZM9.41309 17.0669C9.2294 17.0672 9.08025 17.2162 9.08008 17.3999V21.3999C9.08025 21.5836 9.2294 21.7335 9.41309 21.7339H12.0801C12.2641 21.7339 12.4129 21.5838 12.4131 21.3999V17.3999C12.4129 17.216 12.2641 17.0669 12.0801 17.0669H9.41309ZM10.4131 11.7339H8.41309V5.06689H7.08008V3.06689H10.4131V11.7339ZM20.0801 3.06689C21.3686 3.06689 22.4129 4.11139 22.4131 5.3999V9.3999C22.4129 10.6884 21.3686 11.7339 20.0801 11.7339H17.4131C16.1248 11.7335 15.0803 10.6882 15.0801 9.3999V5.3999C15.0803 4.1116 16.1248 3.06725 17.4131 3.06689H20.0801ZM17.4131 5.06689C17.2294 5.06725 17.0803 5.21617 17.0801 5.3999V9.3999C17.0803 9.58363 17.2294 9.73353 17.4131 9.73389H20.0801C20.2641 9.73389 20.4129 9.58385 20.4131 9.3999V5.3999C20.4129 5.21596 20.2641 5.06689 20.0801 5.06689H17.4131Z" fill="url(#paint0_linear_1688_5009)"/>
<defs>
<linearGradient id="paint0_linear_1688_5009" x1="4.24707" y1="20.8999" x2="23.7471" y2="6.3999" gradientUnits="userSpaceOnUse">
<stop stop-color="#E7D2F6"/>
<stop offset="1" stop-color="#FF734A"/>
</linearGradient>
</defs>
</svg>
