<svg width="34" height="30" viewBox="0 0 34 30" fill="none" xmlns="http://www.w3.org/2000/svg">
<path d="M32.4435 11.584H26.767C26.433 11.584 26.2104 11.808 26.2104 12.144V14.44H23.2609V12.144C23.2609 11.808 23.0383 11.584 22.7043 11.584H20.4226V7.832H22.7043C23.0383 7.832 23.2609 7.608 23.2609 7.272V1.56C23.2609 1.224 23.0383 1 22.7043 1H17.0278C16.6939 1 16.4713 1.224 16.4713 1.56V7.272C16.4713 7.608 16.6939 7.832 17.0278 7.832H19.3096V11.584H17.0278C16.6939 11.584 16.4713 11.808 16.4713 12.144V14.44H13.5217V12.144C13.5217 11.808 13.2991 11.584 12.9652 11.584H7.2887C6.95478 11.584 6.73217 11.808 6.73217 12.144V17.856C6.73217 18.192 6.95478 18.416 7.2887 18.416H9.57043V25.024H7.78956V22.728C7.78956 22.392 7.56696 22.168 7.23304 22.168H1.55652C1.22261 22.168 1 22.392 1 22.728V28.44C1 28.776 1.22261 29 1.55652 29H7.23304C7.56696 29 7.78956 28.776 7.78956 28.44V26.144H10.127C10.4609 26.144 10.6835 25.92 10.6835 25.584V18.416H12.9652C13.2991 18.416 13.5217 18.192 13.5217 17.856V15.56H16.4713V17.856C16.4713 18.192 16.6939 18.416 17.0278 18.416H19.3096V22.168H17.0278C16.6939 22.168 16.4713 22.392 16.4713 22.728V28.44C16.4713 28.776 16.6939 29 17.0278 29H22.7043C23.0383 29 23.2609 28.776 23.2609 28.44V22.728C23.2609 22.392 23.0383 22.168 22.7043 22.168H20.4226V18.416H22.7043C23.0383 18.416 23.2609 18.192 23.2609 17.856V15.56H26.2104V17.856C26.2104 18.192 26.433 18.416 26.767 18.416H32.4435C32.7774 18.416 33 18.192 33 17.856V12.144C33 11.808 32.7774 11.584 32.4435 11.584ZM17.5843 2.12H22.1478V6.712H17.5843V2.12ZM6.67652 27.88H2.11304V23.288H6.67652V27.88ZM12.4087 17.296H7.84522V12.704H12.4087V17.296ZM22.1478 27.88H17.5843V23.288H22.1478V27.88ZM22.1478 17.296H17.5843V12.704H22.1478V17.296ZM31.887 17.296H27.3235V12.704H31.887V17.296Z" fill="url(#paint0_linear_13_2714)" stroke="url(#paint1_linear_13_2714)" stroke-width="0.66"/>
<defs>
<linearGradient id="paint0_linear_13_2714" x1="3.72368" y1="20.8084" x2="25.7695" y2="4.7263" gradientUnits="userSpaceOnUse">
<stop stop-color="#E7D2F6"/>
<stop offset="1" stop-color="#FF734A"/>
</linearGradient>
<linearGradient id="paint1_linear_13_2714" x1="3.72368" y1="20.8084" x2="25.7695" y2="4.7263" gradientUnits="userSpaceOnUse">
<stop stop-color="#E7D2F6"/>
<stop offset="1" stop-color="#FF734A"/>
</linearGradient>
</defs>
</svg>
