<svg width="28" height="32" viewBox="0 0 28 32" fill="none" xmlns="http://www.w3.org/2000/svg">
<path d="M0.977051 13.5195C0.977051 12.2187 2.03117 11.1631 3.3335 11.1631H8.29541C9.59772 11.1631 10.6519 12.2187 10.6519 13.5195V14.8838H12.8833V5.58203C12.8833 4.14432 14.0471 2.97665 15.4878 2.97656H17.3481V2.35645C17.3481 1.05561 18.4023 0 19.7046 0H24.6665C25.9688 1.90735e-05 27.0229 1.05562 27.0229 2.35645L27.0229 7.31836C27.0229 8.61912 25.9688 9.67381 24.6665 9.67383H19.7046C18.4023 9.67383 17.3482 8.61913 17.3481 7.31836V5.20996H15.4878C15.2825 5.21005 15.1157 5.37669 15.1157 5.58203V14.8838H17.3481V13.5195C17.3481 12.2187 18.4023 11.1631 19.7046 11.1631H24.6665C25.9688 11.1631 27.0229 12.2187 27.0229 13.5195V18.4814C27.0229 19.7822 25.9688 20.8369 24.6665 20.8369H19.7046C18.4023 20.8369 17.3482 19.7822 17.3481 18.4814V17.1162H15.1157L15.1157 26.4189C15.1158 26.6242 15.2825 26.7909 15.4878 26.791H17.3481V24.6816C17.3482 23.3808 18.4023 22.3252 19.7046 22.3252H24.6665C25.9688 22.3252 27.0229 23.3808 27.0229 24.6816V29.6436C27.0229 30.9444 25.9688 32 24.6665 32H19.7046C18.4023 32 17.3481 30.9444 17.3481 29.6436V29.0234H15.4878C14.0472 29.0234 12.8834 27.8566 12.8833 26.4189L12.8833 17.1162H10.6519L10.6519 18.4814C10.6518 19.7822 9.59767 20.8369 8.29541 20.8369H3.3335C2.03122 20.8369 0.977124 19.7822 0.977051 18.4814L0.977051 13.5195ZM19.5806 29.6436C19.5806 29.712 19.6361 29.7676 19.7046 29.7676H24.6665C24.735 29.7676 24.7896 29.712 24.7896 29.6436V24.6816C24.7895 24.6132 24.7349 24.5586 24.6665 24.5586H19.7046C19.6361 24.5586 19.5806 24.6132 19.5806 24.6816V29.6436ZM19.5806 18.4814C19.5806 18.5498 19.6362 18.6045 19.7046 18.6045H24.6665C24.7349 18.6045 24.7895 18.5498 24.7896 18.4814V13.5195C24.7896 13.4511 24.735 13.3955 24.6665 13.3955H19.7046C19.6361 13.3955 19.5806 13.4511 19.5806 13.5195V15.9805C19.5807 15.9869 19.5815 15.9935 19.5815 16C19.5815 16.0065 19.5807 16.013 19.5806 16.0195V18.4814ZM19.5806 7.31836C19.5806 7.38676 19.6362 7.44141 19.7046 7.44141H24.6665C24.7349 7.44139 24.7895 7.38675 24.7896 7.31836L24.7896 2.35645C24.7896 2.28799 24.735 2.23244 24.6665 2.23242H19.7046C19.6361 2.23242 19.5806 2.28798 19.5806 2.35645L19.5806 7.31836ZM3.20947 18.4814C3.20955 18.5498 3.26508 18.6045 3.3335 18.6045H8.29541C8.36381 18.6045 8.41838 18.5498 8.41846 18.4814V13.5195C8.41846 13.4511 8.36386 13.3955 8.29541 13.3955H3.3335C3.26503 13.3955 3.20947 13.4511 3.20947 13.5195L3.20947 18.4814Z" fill="url(#paint0_linear_13_2102)"/>
<defs>
<linearGradient id="paint0_linear_13_2102" x1="19.403" y1="29.2763" x2="3.00123" y2="8.36134" gradientUnits="userSpaceOnUse">
<stop stop-color="#E7D2F6"/>
<stop offset="1" stop-color="#FF734A"/>
</linearGradient>
</defs>
</svg>
