<svg viewBox="0 0 76 89" fill="none" xmlns="http://www.w3.org/2000/svg">
<path d="M53.7132 50.1033H52.1805V37.771H56.5849C59.0866 37.771 60.7603 39.2509 60.7603 41.5588C60.7603 43.2853 59.6856 44.6242 58.0648 45.0647L60.8836 50.1033H59.1571L56.4968 45.3642H53.7132V50.1033ZM53.7132 39.1804V43.9548H56.4616C58.1176 43.9548 59.1923 43.0034 59.1923 41.5588C59.1923 40.1141 58.1176 39.1804 56.4792 39.1804H53.7132Z" fill="#F4EBE8"/>
<path d="M42.1008 50.1033H40.568V37.771H45.0781C47.5798 37.771 49.2359 39.2509 49.2359 41.5588C49.2359 43.8667 47.5798 45.3642 45.0781 45.3642H42.1008V50.1033ZM42.1008 39.1804V43.9548H44.9372C46.5932 43.9548 47.6679 43.021 47.6679 41.5588C47.6679 40.0965 46.6109 39.1804 44.9548 39.1804H42.1008Z" fill="#F4EBE8"/>
<path d="M31.8843 50.1033H28.0437V37.771H31.8843C35.5488 37.771 37.5219 40.2375 37.5219 43.9372C37.5219 47.6192 35.5488 50.1033 31.8843 50.1033ZM29.5764 39.1804V48.6939H31.8843C34.6855 48.6939 35.954 46.8088 35.954 43.9372C35.954 41.0479 34.6855 39.1804 31.8843 39.1804H29.5764Z" fill="#F4EBE8"/>
<path d="M19.9123 50.2093C16.7059 50.2093 14.7856 47.778 14.7856 43.9374C14.7856 40.0439 16.6002 37.6655 19.9299 37.6655C22.4492 37.6655 24.1582 39.0045 24.6338 41.7881H22.9954C22.6254 39.9382 21.586 39.0749 19.8947 39.0749C17.5339 39.0749 16.3536 40.8543 16.3536 43.9374C16.3536 47.0205 17.5868 48.7999 19.9299 48.7999C21.9736 48.7999 23.1892 47.4433 23.1892 45.2587V44.8359H20.159V43.4265H24.6867V50.1036H23.3654L23.2597 48.4299C22.6959 49.5046 21.6212 50.2093 19.9123 50.2093Z" fill="#F4EBE8"/>
<path fill-rule="evenodd" clip-rule="evenodd" d="M75.9355 66.3999V22.3999L37.9677 0.399902L0 22.3999V66.3999L37.9677 88.3999L75.9355 66.3999ZM0.709677 65.9883V22.8115L37.9677 1.22313L75.2258 22.8115V65.9883L37.9677 87.5767L0.709677 65.9883ZM37.9677 14.5934L38.7626 17.0489H41.3458L39.2593 18.5676L40.0542 21.0231L37.9677 19.5044L35.8813 21.0231L36.6761 18.5676L34.5897 17.0489H37.1729L37.9677 14.5934ZM38.7626 70.2747L37.9677 67.8193L37.1729 70.2747H34.5897L36.6761 71.7934L35.8813 74.2489L37.9677 72.7302L40.0542 74.2489L39.2593 71.7934L41.3458 70.2747H38.7626ZM51.0968 17.0773L51.8916 19.5328H54.4748L52.3884 21.0515L53.1832 23.507L51.0968 21.9883L49.0103 23.507L49.8052 21.0515L47.7187 19.5328H50.3019L51.0968 17.0773ZM51.8916 67.7909L51.0968 65.3354L50.3019 67.7909H47.7187L49.8052 69.3096L49.0103 71.7651L51.0968 70.2463L53.1832 71.7651L52.3884 69.3096L54.4748 67.7909H51.8916ZM24.8387 17.0773L25.6335 19.5328H28.2168L26.1303 21.0515L26.9252 23.507L24.8387 21.9883L22.7523 23.507L23.5471 21.0515L21.4606 19.5328H24.0439L24.8387 17.0773ZM25.6335 67.7909L24.8387 65.3354L24.0439 67.7909H21.4606L23.5471 69.3096L22.7523 71.7651L24.8387 70.2463L26.9252 71.7651L26.1303 69.3096L28.2168 67.7909H25.6335ZM13.129 23.8193L13.9239 26.2747H16.5071L14.4206 27.7934L15.2155 30.2489L13.129 28.7302L11.0426 30.2489L11.8374 27.7934L9.75097 26.2747H12.3342L13.129 23.8193ZM13.9239 61.0489L13.129 58.5934L12.3342 61.0489H9.75097L11.8374 62.5676L11.0426 65.0231L13.129 63.5044L15.2155 65.0231L14.4206 62.5676L16.5071 61.0489H13.9239ZM62.8065 23.8193L63.6013 26.2747H66.1845L64.0981 27.7934L64.8929 30.2489L62.8065 28.7302L60.72 30.2489L61.5148 27.7934L59.4284 26.2747H62.0116L62.8065 23.8193ZM63.6013 61.0489L62.8065 58.5934L62.0116 61.0489H59.4284L61.5148 62.5676L60.72 65.0231L62.8065 63.5044L64.8929 65.0231L64.0981 62.5676L66.1845 61.0489H63.6013Z" fill="white"/>
</svg>
