<svg viewBox="0 0 76 89" fill="none" xmlns="http://www.w3.org/2000/svg">
<path fill-rule="evenodd" clip-rule="evenodd" d="M75.9355 66.3999V22.3999L37.9677 0.399902L0 22.3999V66.3999L37.9677 88.3999L75.9355 66.3999ZM0.709677 65.9883V22.8115L37.9677 1.22313L75.2258 22.8115V65.9883L37.9677 87.5767L0.709677 65.9883Z" fill="white"/>
<path d="M31.8794 39.7611C32.8403 39.7109 33.7512 40.0562 34.2491 40.8751H34.2499C34.7012 41.6177 34.6832 42.5415 34.3645 43.3991C34.044 44.2611 33.4064 45.1013 32.5367 45.733V45.7338C32.0851 46.0611 31.6093 46.3015 31.1354 46.4579C31.3121 46.7464 31.5782 47.0284 31.9089 47.2902C32.3798 47.6631 32.9398 47.9661 33.4295 48.171L34.3875 48.5721L33.4128 48.9294L33.3953 48.9365L33.3865 48.9397V48.9389C32.083 49.3834 30.9403 49.9964 29.9864 50.7364L29.7334 50.933L29.4827 50.7333C27.2621 48.9636 26.8839 46.9038 26.8839 45.7314C26.8839 44.9374 26.9728 44.1366 27.2842 43.3442C27.5963 42.5499 28.1229 41.7861 28.9679 41.0526L29.1382 40.9069C29.9979 40.1982 30.9788 39.8082 31.8794 39.7611ZM27.6987 45.7314C27.6987 46.6776 27.9839 48.3668 29.7517 49.8962C30.4966 49.353 31.3344 48.8831 32.2542 48.4989C31.9633 48.333 31.6722 48.1425 31.4028 47.9291C30.8673 47.5051 30.3765 46.9599 30.1766 46.3107L30.0445 45.8834L30.4829 45.7926C30.9944 45.6863 31.5388 45.4508 32.0585 45.0741L32.329 44.8625C32.9368 44.3514 33.3728 43.7284 33.6006 43.1159C33.846 42.4557 33.8388 41.8458 33.6037 41.3884L33.5536 41.2984C33.2528 40.8033 32.6722 40.5359 31.9216 40.5751C31.2175 40.612 30.3998 40.9233 29.6578 41.5348L29.5106 41.6613L29.5058 41.6645C28.7479 42.3215 28.3024 42.9804 28.0425 43.6418C27.7813 44.3065 27.6987 44.9971 27.6987 45.7314Z" fill="white"/>
<path d="M29.0971 57.0299C29.0971 54.4133 31.0588 52.2661 34.1523 51.2108L34.1547 51.2092L36.8625 50.3116C39.2507 49.5244 40.7296 49.0487 41.7363 48.7067C43.067 48.2545 43.5229 48.0523 44.1187 47.6953L44.4314 47.494C44.9261 47.1537 45.2742 46.7972 45.4817 46.4588C45.0873 46.3287 44.6917 46.1399 44.3096 45.8914L44.0797 45.7339C43.2099 45.1022 42.5728 44.2612 42.2527 43.3992C41.9343 42.5417 41.9163 41.6184 42.3665 40.876L42.4652 40.728C42.9792 40.0141 43.8372 39.7136 44.7385 39.7612C45.6991 39.8119 46.7504 40.2527 47.6485 41.0527C48.4947 41.7865 49.0212 42.5497 49.3338 43.3443C49.6455 44.1368 49.7355 44.9381 49.738 45.7323V45.7339L49.7317 45.9988C49.6653 47.389 49.0414 49.6883 46.0841 51.463C45.581 51.7644 45.1626 51.9818 44.5913 52.2174C46.4291 53.3886 47.5227 55.0841 47.5227 57.0331C47.5227 59.9675 45.2778 61.6855 42.7819 62.7185C43.8548 63.6815 44.4464 64.8747 44.4465 66.1321C44.4465 66.5721 44.4196 67.073 44.1895 67.6073C43.9594 68.1416 43.5422 68.6719 42.8256 69.2187L42.8264 69.2195C42.0554 69.838 41.0561 68.9138 41.527 68.1007L41.5294 68.0967L41.6098 67.9543C41.7823 67.6274 41.8531 67.3484 41.858 67.1108C41.8636 66.8438 41.7868 66.6008 41.6328 66.3692C41.3832 65.9938 40.9319 65.652 40.3199 65.3395V67.3973C40.3197 68.5077 39.4222 69.4112 38.3123 69.4112C37.2023 69.4112 36.3041 68.5077 36.3039 67.3973V65.3348C35.6684 65.6501 35.2348 65.9699 35.0013 66.3278C34.7361 66.7347 34.6808 67.2718 35.1048 68.1238C35.5581 68.9556 34.5476 69.7951 33.8117 69.2338C33.0575 68.7024 32.6285 68.1493 32.3954 67.5946C32.1643 67.0447 32.1407 66.5281 32.1407 66.1114C32.1407 64.5475 32.9583 63.2433 34.3854 62.2498L34.3862 62.249L34.6703 62.062C35.3559 61.6303 36.2 61.2324 37.0782 60.8533C37.5825 60.6355 38.1055 60.4205 38.6218 60.208C39.1395 59.9949 39.6515 59.7843 40.1409 59.5706C41.1259 59.1405 41.9919 58.7119 42.6076 58.2624C43.2386 57.8017 43.5019 57.3952 43.502 57.0299C43.502 56.833 43.4063 56.6241 43.1757 56.3957C42.9435 56.1656 42.6051 55.9481 42.2018 55.7464C41.5943 55.4426 40.9003 55.2024 40.3167 55.0103V56.7617L40.0764 56.8699L36.3015 58.56V55.0079C35.718 55.1995 35.0226 55.44 34.4141 55.744C34.0101 55.9458 33.6713 56.1636 33.4385 56.3941C33.2074 56.623 33.1115 56.8324 33.1115 57.0299C33.1115 57.3711 33.187 57.6032 33.3701 57.8224C33.5711 58.063 33.9237 58.3148 34.5446 58.6301L35.2711 58.9993L34.5406 59.3589C33.4787 59.8821 32.5764 60.5317 31.8582 61.2742L31.6012 61.5408L31.3116 61.3092C30.0453 60.2973 29.0972 58.882 29.0971 57.0299ZM44.3168 57.0299C44.3167 57.807 43.7655 58.4259 43.0882 58.9205C42.3952 59.4265 41.4581 59.8843 40.4671 60.317C39.9686 60.5346 39.4483 60.7487 38.9314 60.9615C38.4132 61.1748 37.8978 61.3869 37.4012 61.6013C36.403 62.0322 35.5077 62.4635 34.8501 62.919C33.5861 63.7992 32.9555 64.8762 32.9555 66.1114C32.9555 66.4982 32.9798 66.882 33.1465 67.2787C33.2906 67.6215 33.5534 68.0009 34.0528 68.3975L34.2812 68.5686L34.2916 68.5757L34.3019 68.5837L34.3258 68.598C34.3296 68.5992 34.3334 68.5998 34.3369 68.5996C34.3451 68.5991 34.3597 68.5944 34.3751 68.5813C34.3904 68.5683 34.3966 68.5549 34.3982 68.5479C34.3988 68.5449 34.3988 68.5417 34.3982 68.5375C34.3975 68.5334 34.3958 68.5232 34.387 68.5081L34.3807 68.4978L34.3751 68.4866C33.8706 67.4727 33.8444 66.6104 34.3186 65.883C34.7608 65.2048 35.5901 64.7312 36.5538 64.325L37.1187 64.0863V67.3973C37.1189 68.0608 37.6555 68.5964 38.3123 68.5964C38.9691 68.5964 39.5049 68.0608 39.5051 67.3973V64.0879L40.0708 64.3266C41.0071 64.721 41.851 65.2268 42.3108 65.918C42.5472 66.2735 42.6822 66.6776 42.6728 67.1275C42.6635 67.5731 42.5139 68.0353 42.2304 68.5129C42.2243 68.5243 42.2222 68.5317 42.2217 68.5351C42.2211 68.5389 42.2218 68.542 42.2225 68.5455C42.2242 68.5539 42.2309 68.5686 42.2463 68.5821C42.2618 68.5956 42.2759 68.5992 42.2821 68.5996C42.2847 68.5997 42.2874 68.5999 42.2909 68.5988C42.2944 68.5977 42.3032 68.5943 42.3164 68.5837L42.5495 68.3975C43.0398 67.9849 43.2983 67.6156 43.4407 67.2851C43.6043 66.9054 43.6317 66.5389 43.6317 66.1321C43.6316 64.9887 43.0095 63.8371 41.7427 62.9261L41.1164 62.475L41.8413 62.2124C44.5425 61.2324 46.7078 59.6611 46.7079 57.0331C46.7079 55.2177 45.5633 53.5763 43.4598 52.5094L42.6187 52.0829L43.5052 51.7622C44.5114 51.3986 45.004 51.1602 45.6647 50.7644L45.9257 50.6021C48.5489 48.9122 48.9229 46.8217 48.9232 45.7347L48.9176 45.4609C48.8966 44.8266 48.8044 44.2248 48.5755 43.6427C48.3152 42.981 47.8697 42.3223 47.1114 41.6654L47.1066 41.6614C46.3273 40.9671 45.447 40.6149 44.6956 40.5752C43.9916 40.5381 43.4376 40.7709 43.1232 41.2086L43.0635 41.2985C42.7809 41.7646 42.755 42.4116 43.0166 43.1159C43.2766 43.816 43.8082 44.5296 44.5579 45.0742L44.7536 45.2087C45.2131 45.5076 45.6859 45.6996 46.1334 45.7927L46.5719 45.8835L46.4398 46.3116C46.199 47.093 45.4989 47.8171 44.5388 48.3939C43.8695 48.7951 43.3496 49.0187 41.9989 49.4777C40.659 49.933 38.4509 50.6361 34.4125 51.9826C31.5154 52.9718 29.9119 54.8867 29.9119 57.0299C29.912 58.4397 30.5654 59.5647 31.5447 60.4387C32.1164 59.8953 32.7771 59.4086 33.5141 58.9849C33.1938 58.7823 32.9373 58.575 32.7447 58.3444C32.4161 57.951 32.2967 57.5224 32.2967 57.0299C32.2967 56.5392 32.5428 56.1337 32.8648 55.8148C33.1853 55.4975 33.6114 55.2345 34.0504 55.0151C34.927 54.5772 35.9657 54.264 36.5808 54.0602L37.1163 53.8828V57.302L39.5019 56.2334V53.8836L40.0382 54.0618C40.654 54.2666 41.6913 54.58 42.5662 55.0175C43.0045 55.2367 43.4296 55.4995 43.7495 55.8164C44.0709 56.1349 44.3168 56.5399 44.3168 57.0299Z" fill="white"/>
<path d="M41.0901 25.614C41.09 24.0624 39.8376 22.8076 38.2964 22.8075C36.7551 22.8075 35.5028 24.0624 35.5026 25.614C35.5026 26.6473 36.0659 27.5423 36.9015 28.0306L37.1028 28.1491V46.9766C37.8574 46.7346 38.6598 46.4769 39.4892 46.2095V38.2054L39.7136 38.0924C40.3286 37.7825 40.8247 37.2819 41.1291 36.6617L41.4641 35.979L41.8469 36.6363C42.3365 37.4766 43.2665 38.0669 44.2897 38.067C45.3289 38.067 46.229 37.4883 46.7111 36.6315L46.9753 36.162L47.3548 36.5432C48.2048 37.3966 49.436 37.8452 50.6865 37.8537C51.7955 37.8612 52.8863 37.5215 53.7102 36.8511L51.2928 34.4234L51.7384 33.7597L52.9861 34.2794L53.197 34.3605C55.2589 35.0976 57.543 34.1902 58.5538 32.2582L55.0828 30.8148L55.2388 30.031C57.0217 30.031 58.2777 29.4717 59.0869 28.6632C59.8018 27.9489 60.1941 27.0138 60.2781 26.0246H49.7428C47.8594 26.0246 46.4092 26.8021 45.1324 28.0067L44.8794 28.2534C44.5383 28.5959 44.2269 29.0552 43.9062 29.5798C43.5954 30.0882 43.265 30.6766 42.9179 31.1991C42.2247 32.2427 41.3215 33.2537 39.8966 33.2537H39.4892V28.1491L39.6913 28.0306C40.5267 27.5424 41.0901 26.6473 41.0901 25.614ZM41.905 25.614C41.905 26.8683 41.2634 27.96 40.304 28.6075V32.3951C41.0724 32.2342 41.6611 31.619 42.2392 30.7488C42.5768 30.2405 42.8754 29.7035 43.2107 29.1549C43.5362 28.6226 43.8887 28.0927 44.3017 27.6781L44.5746 27.4123C45.9556 26.1102 47.5945 25.2098 49.7428 25.2098H61.1112V25.6172C61.1112 26.9426 60.6471 28.2568 59.663 29.2401C58.9743 29.9281 58.0473 30.4365 56.8843 30.6819L59.6343 31.8254L59.48 32.2009C58.4577 34.6785 55.7566 35.9481 53.2463 35.2302L54.8768 36.867L54.5903 37.1551C53.5628 38.1867 52.1105 38.6782 50.6809 38.6685C49.4144 38.6599 48.1334 38.2569 47.1448 37.4495C46.4901 38.3135 45.4626 38.8818 44.2897 38.8818C43.1898 38.8817 42.1921 38.3621 41.5254 37.5816C41.2018 38.0345 40.7861 38.4142 40.304 38.6972V46.8032L40.0215 46.8947C38.8925 47.2587 37.8083 47.6071 36.8203 47.9235L36.288 48.0938V28.6067C35.329 27.9591 34.6878 26.8679 34.6878 25.614C34.688 23.6156 36.3019 21.9927 38.2964 21.9927C40.2908 21.9927 41.9048 23.6156 41.905 25.614Z" fill="white"/>
<path d="M34.6901 32.4192C34.0687 31.8535 33.582 31.0695 33.144 30.3376C32.7152 29.6208 32.3332 28.9555 31.9019 28.4565L31.7134 28.2536C30.3748 26.9094 28.859 26.0248 26.8499 26.0248H16.3138C16.3979 27.0138 16.7903 27.9492 17.505 28.6634C18.3142 29.4719 19.5704 30.0311 21.3531 30.0312L21.5099 30.815L18.0381 32.2576C19.0833 34.2561 21.4914 35.1583 23.6066 34.2788L24.8543 33.7599L25.2999 34.4236L22.8809 36.8505C23.705 37.5215 24.7967 37.8614 25.9062 37.8539C27.1566 37.8454 28.388 37.3969 29.2379 36.5434L29.6174 36.1622L29.8816 36.6309C30.3637 37.4879 31.2637 38.0664 32.303 38.0664H32.3332L32.455 38.0616C33.7015 37.9765 34.69 36.8107 34.6901 35.4676V32.4192ZM35.5049 35.4676C35.5048 37.221 34.168 38.8586 32.3444 38.8804L32.3451 38.8812C32.3295 38.8815 32.3143 38.8812 32.303 38.8812C31.1298 38.8812 30.101 38.314 29.4464 37.4497C28.4579 38.2566 27.1778 38.6601 25.9118 38.6687C24.4821 38.6784 23.0299 38.1863 22.0024 37.1545L21.716 36.8672L23.3456 35.2304C20.8356 35.9478 18.1348 34.6785 17.1127 32.2011L16.9576 31.8256L19.7068 30.6821C18.5444 30.4366 17.6182 29.9274 16.9297 29.2395C15.9456 28.2562 15.4815 26.9428 15.4815 25.6174V25.21H26.8499C29.1415 25.21 30.8533 26.2345 32.291 27.6783L32.5107 27.9154C33.0122 28.4945 33.4364 29.2399 33.8427 29.919C34.3248 30.7249 34.7882 31.4515 35.3561 31.9195L35.5049 32.042V35.4676Z" fill="white"/>
</svg>
