<svg width="30" height="30" viewBox="0 0 30 30" fill="none" xmlns="http://www.w3.org/2000/svg">
<g clip-path="url(#clip0_1688_5027)">
<path d="M5 21.5C7.27817 21.5 9.125 23.3468 9.125 25.625C9.125 27.9032 7.27817 29.75 5 29.75C2.72183 29.75 0.875 27.9032 0.875 25.625C0.875 23.3468 2.72183 21.5 5 21.5ZM5 0.25C7.27812 0.25 9.12492 2.0969 9.125 4.375C9.125 6.30822 7.79484 7.9299 6 8.37695V10.9971C7.47475 11.3643 8.6347 12.5253 9.00195 14H10.998C11.445 12.2051 13.0667 10.875 15 10.875C17.2782 10.875 19.125 12.7218 19.125 15C19.125 15.8208 18.884 16.5849 18.4707 17.2275L22.9854 22.0254C23.5812 21.6912 24.2682 21.5 25 21.5C27.2782 21.5 29.125 23.3468 29.125 25.625C29.125 27.9032 27.2782 29.75 25 29.75C23.0668 29.75 21.4451 28.4199 20.998 26.625H19.002C18.5549 28.4199 16.9332 29.75 15 29.75C12.7218 29.75 10.875 27.9032 10.875 25.625C10.875 23.3468 12.7218 21.5 15 21.5C16.9332 21.5 18.5549 22.8301 19.002 24.625H20.998C21.1082 24.1826 21.2892 23.7685 21.5293 23.3955L17.0137 18.5986C16.4179 18.9327 15.7316 19.125 15 19.125C13.0668 19.125 11.4451 17.7948 10.998 16H9.00195C8.55486 17.7948 6.93319 19.125 5 19.125C2.72188 19.125 0.875082 17.2781 0.875 15C0.875 13.0667 2.20505 11.444 4 10.9971V8.37695C2.20516 7.9299 0.875 6.30822 0.875 4.375C0.875082 2.0969 2.72188 0.25 5 0.25ZM5 23.5C3.82639 23.5 2.875 24.4514 2.875 25.625C2.875 26.7986 3.82639 27.75 5 27.75C6.1736 27.75 7.125 26.7986 7.125 25.625C7.125 24.4514 6.1736 23.5 5 23.5ZM15 23.5C13.8264 23.5 12.875 24.4514 12.875 25.625C12.875 26.7986 13.8264 27.75 15 27.75C16.1736 27.75 17.125 26.7986 17.125 25.625C17.125 24.4514 16.1736 23.5 15 23.5ZM25 23.5C23.8264 23.5 22.875 24.4514 22.875 25.625C22.875 26.7986 23.8264 27.75 25 27.75C26.1736 27.75 27.125 26.7986 27.125 25.625C27.125 24.4514 26.1736 23.5 25 23.5ZM25 10.875C27.2782 10.875 29.125 12.7218 29.125 15C29.1249 17.2781 27.2781 19.125 25 19.125C22.7219 19.125 20.8751 17.2781 20.875 15C20.875 12.7218 22.7218 10.875 25 10.875ZM5 12.875C3.82639 12.875 2.875 13.8264 2.875 15C2.87508 16.1735 3.82645 17.125 5 17.125C6.17355 17.125 7.12492 16.1735 7.125 15C7.125 13.8264 6.1736 12.875 5 12.875ZM15 12.875C13.8264 12.875 12.875 13.8264 12.875 15C12.8751 16.1735 13.8265 17.125 15 17.125C16.1736 17.125 17.1249 16.1735 17.125 15C17.125 13.8264 16.1736 12.875 15 12.875ZM25 12.875C23.8264 12.875 22.875 13.8264 22.875 15C22.8751 16.1735 23.8264 17.125 25 17.125C26.1735 17.125 27.1249 16.1735 27.125 15C27.125 13.8264 26.1736 12.875 25 12.875ZM15 0.25C17.2781 0.25 19.1249 2.0969 19.125 4.375C19.125 6.65317 17.2782 8.5 15 8.5C12.7218 8.49999 10.875 6.65317 10.875 4.375C10.8751 2.0969 12.7219 0.25001 15 0.25ZM25 0.25C27.2781 0.25001 29.1249 2.0969 29.125 4.375C29.125 6.65317 27.2782 8.49999 25 8.5C22.7218 8.5 20.875 6.65317 20.875 4.375C20.8751 2.0969 22.7219 0.25 25 0.25ZM5 2.25C3.82645 2.25 2.87508 3.20146 2.875 4.375C2.875 5.5486 3.82639 6.5 5 6.5C6.1736 6.5 7.125 5.5486 7.125 4.375C7.12492 3.20146 6.17355 2.25 5 2.25ZM15 2.25C13.8265 2.25001 12.8751 3.20147 12.875 4.375C12.875 5.5486 13.8264 6.49999 15 6.5C16.1736 6.5 17.125 5.5486 17.125 4.375C17.1249 3.20146 16.1736 2.25 15 2.25ZM25 2.25C23.8264 2.25 22.8751 3.20146 22.875 4.375C22.875 5.5486 23.8264 6.5 25 6.5C26.1736 6.49999 27.125 5.5486 27.125 4.375C27.1249 3.20147 26.1735 2.25001 25 2.25Z" fill="url(#paint0_linear_1688_5027)"/>
</g>
<defs>
<linearGradient id="paint0_linear_1688_5027" x1="5.18823" y1="19.5806" x2="25.7995" y2="19.5806" gradientUnits="userSpaceOnUse">
<stop stop-color="#E7D2F6"/>
<stop offset="1" stop-color="#FF734A"/>
</linearGradient>
<clipPath id="clip0_1688_5027">
<rect width="30" height="30" fill="white"/>
</clipPath>
</defs>
</svg>
