<svg width="34" height="34" viewBox="0 0 34 34" fill="none" xmlns="http://www.w3.org/2000/svg">
<path d="M28.7285 22.7921C31.6355 22.7922 34 25.1731 34 28.0822C33.9999 30.9911 31.6354 33.3721 28.7285 33.3722C25.8216 33.3721 23.4571 30.9911 23.457 28.0822C23.457 25.1731 25.8215 22.7922 28.7285 22.7921ZM8.54297 22.8097C9.64748 22.8098 10.543 23.7052 10.543 24.8097V31.3527C10.5429 32.4571 9.64744 33.3526 8.54297 33.3527H2C0.895481 33.3527 7.83423e-05 32.4572 0 31.3527V24.8097C7.4094e-07 23.7051 0.895429 22.8097 2 22.8097H8.54297ZM28.7285 24.7921C26.9342 24.7922 25.457 26.2696 25.457 28.0822C25.4571 29.8946 26.9343 31.3721 28.7285 31.3722C30.5228 31.3721 31.9999 29.8946 32 28.0822C32 26.2696 30.5228 24.7922 28.7285 24.7921ZM2 31.3527H8.54297V24.8097H2V31.3527ZM18.6953 24.5773C18.881 24.5826 19.0579 24.6601 19.1875 24.7931L20.9102 26.5157C20.9976 26.582 21.0691 26.6676 21.1182 26.7657C21.1673 26.864 21.1929 26.9732 21.1934 27.0831C21.1938 27.1928 21.1692 27.301 21.1211 27.3995C21.0728 27.4982 21.002 27.5844 20.915 27.6515H20.9131L19.1875 29.3781C19.1212 29.445 19.042 29.4979 18.9551 29.5343C18.8682 29.5707 18.7749 29.5897 18.6807 29.59C18.5866 29.5902 18.4932 29.5721 18.4062 29.5363C18.3191 29.5003 18.2395 29.4467 18.1729 29.38C18.1064 29.3134 18.0534 29.2346 18.0176 29.1476C17.9817 29.0606 17.9636 28.9673 17.9639 28.8732C17.9642 28.779 17.9832 28.6856 18.0195 28.5988C18.056 28.5119 18.1088 28.4325 18.1758 28.3663L18.7432 27.799H13.5312C13.4367 27.8004 13.3427 27.7833 13.2549 27.7482C13.1668 27.7129 13.0861 27.6604 13.0186 27.5939C12.9511 27.5274 12.8979 27.4478 12.8613 27.3605C12.8247 27.273 12.8057 27.179 12.8057 27.0841C12.8057 26.9893 12.8247 26.8952 12.8613 26.8077C12.898 26.7204 12.9511 26.6408 13.0186 26.5743C13.0861 26.5078 13.1669 26.4553 13.2549 26.42C13.3427 26.3849 13.4367 26.3678 13.5312 26.3693H18.7422L18.1758 25.8029C18.0726 25.7025 18.0022 25.5729 17.9736 25.4318C17.9452 25.2908 17.9596 25.1443 18.0156 25.0118C18.0717 24.8793 18.167 24.7664 18.2881 24.6886C18.4093 24.6108 18.5514 24.5711 18.6953 24.5753V24.5773ZM11.1084 12.7863C11.6507 12.8072 11.9732 13.4012 11.6953 13.8673L9.08984 18.1124L9.86426 17.9054C10.7852 17.659 11.1552 19.0404 10.2344 19.2872C10.2344 19.2872 8.60591 19.7235 7.79199 19.9415C7.43315 20.0374 6.99649 19.7325 6.91699 19.4357C6.69891 18.6216 6.48078 17.8075 6.2627 16.9933C6.14356 16.5486 6.45709 16.1058 6.91699 16.0841C7.25646 16.0682 7.5602 16.2937 7.64355 16.6232L7.85059 17.3976L10.457 13.1525C10.5882 12.9178 10.8397 12.776 11.1084 12.7863ZM23.3633 12.5988C24.2315 12.7714 25.1261 13.0506 26.002 13.2853C26.9375 13.5238 26.5601 14.9293 25.6309 14.6671L24.8564 14.4591L27.4619 18.7042C27.9743 19.5387 26.6917 20.2802 26.2246 19.42L23.6182 15.174L23.4111 15.9484C23.1644 16.8696 21.7826 16.4995 22.0293 15.5782L22.6621 13.2179C22.7097 12.8661 23.0083 12.6025 23.3633 12.5988ZM15.3359 1.51868C16.1275 0.331253 17.8723 0.33141 18.6641 1.51868C19.7616 3.16505 20.8595 4.81175 21.957 6.45813C22.8429 7.78719 21.8902 9.56741 20.293 9.5675H13.707C12.1099 9.56728 11.157 7.78715 12.043 6.45813L15.3359 1.51868ZM13.707 7.5675H20.293C19.1954 5.92111 18.0976 4.27443 17 2.62805L13.707 7.5675Z" fill="url(#paint0_linear_13_2673)"/>
<defs>
<linearGradient id="paint0_linear_13_2673" x1="2.89391" y1="23.7925" x2="27.829" y2="7.26602" gradientUnits="userSpaceOnUse">
<stop stop-color="#E7D2F6"/>
<stop offset="1" stop-color="#FF734A"/>
</linearGradient>
</defs>
</svg>
