<svg width="34" height="30" viewBox="0 0 34 30" fill="none" xmlns="http://www.w3.org/2000/svg">
<path d="M16.9993 0.536133C17.8135 0.536133 18.4757 1.19842 18.4758 2.0127V27.9863C18.4756 28.8005 17.8135 29.4639 16.9993 29.4639C16.1853 29.4636 15.5229 28.8004 15.5227 27.9863V2.0127C15.5228 1.19858 16.1852 0.536351 16.9993 0.536133ZM26.6575 9.90332C27.2336 9.32455 28.1713 9.32535 28.7473 9.90137L32.8157 13.9697L32.8245 13.9795C32.8432 13.9999 32.8712 14.0297 32.9016 14.0664L32.9963 14.1953L33.0042 14.208L33.011 14.2197C33.0224 14.2393 33.0314 14.2569 33.0374 14.2686C33.0391 14.272 33.0406 14.2761 33.0422 14.2793L33.05 14.292L33.0637 14.3184L33.0686 14.3271C33.0778 14.3434 33.0978 14.3788 33.1174 14.4229L33.1301 14.4521L33.1409 14.4824C33.1517 14.515 33.1612 14.5501 33.1682 14.5752C33.1685 14.5763 33.1693 14.5785 33.1711 14.584C33.1726 14.5884 33.1757 14.599 33.179 14.6094L33.2063 14.7129L33.2073 14.7168C33.2438 14.9049 33.2431 15.0941 33.2073 15.2822L33.2083 15.2832C33.1994 15.3302 33.1876 15.3691 33.179 15.3965C33.1777 15.4005 33.1762 15.4046 33.175 15.4082C33.1741 15.4123 33.1702 15.425 33.1672 15.4365C33.1588 15.4693 33.144 15.5211 33.1174 15.5811C33.0996 15.6211 33.0813 15.6543 33.0706 15.6738C33.0657 15.6825 33.0599 15.6935 33.0579 15.6973C33.0564 15.6999 33.0553 15.7016 33.0549 15.7021L33.0491 15.7129L33.0432 15.7246C33.0423 15.7263 33.0407 15.7289 33.0393 15.7314C33.0371 15.7356 33.035 15.7402 33.0334 15.7432L33.0315 15.7451L33.0295 15.752L33.0129 15.7842L32.9934 15.8154C32.9373 15.9027 32.87 15.9836 32.803 16.0508L28.7444 20.1094C28.4596 20.3941 28.0831 20.5439 27.7014 20.5439C27.3198 20.5439 26.9442 20.3941 26.6594 20.1094V20.1084C26.082 19.5322 26.0838 18.5971 26.6594 18.0215L28.1975 16.4824H22.0227C21.2086 16.4823 20.5464 15.8199 20.5461 15.0059C20.5462 14.1917 21.2085 13.5284 22.0227 13.5283H28.1975L26.6604 11.9902V11.9912C26.082 11.4157 26.0831 10.4796 26.6575 9.90332ZM5.25317 9.89551C5.82895 9.31801 6.76425 9.32001 7.34009 9.89453C7.91898 10.4706 7.91713 11.4073 7.34106 11.9834L5.80298 13.5225H10.9036L10.9006 13.5166H11.9749C12.789 13.5168 13.4513 14.179 13.4514 14.9932C13.4513 15.8073 12.789 16.4696 11.9749 16.4697H5.79907L7.33716 18.0078C7.91605 18.5839 7.9142 19.5216 7.33813 20.0977C7.05339 20.3821 6.67767 20.5312 6.29614 20.5312C5.91449 20.5312 5.53802 20.3824 5.25317 20.0977L1.18481 16.0293L1.17603 16.0186C1.13851 15.9778 1.06655 15.8998 1.00415 15.8027L0.996338 15.791L0.989502 15.7783C0.978057 15.7587 0.969056 15.7412 0.963135 15.7295C0.960635 15.7246 0.958349 15.719 0.956299 15.7148L0.950439 15.707L0.940674 15.6875C0.938036 15.6828 0.938479 15.6836 0.931885 15.6719C0.922731 15.6556 0.902654 15.6193 0.883057 15.5752L0.870361 15.5459L0.859619 15.5156C0.848721 15.4829 0.839299 15.448 0.832275 15.4229C0.831928 15.4217 0.831082 15.4193 0.829346 15.4141C0.827873 15.4096 0.824688 15.3996 0.821533 15.3896C0.814552 15.3675 0.803237 15.3303 0.794189 15.2852L0.793213 15.2812C0.756474 15.0916 0.756452 14.9006 0.793213 14.7109H0.795166C0.803794 14.6662 0.813218 14.6289 0.821533 14.6025C0.823989 14.5948 0.826376 14.587 0.828369 14.5811C0.829709 14.5755 0.831574 14.568 0.833252 14.5615C0.841724 14.5287 0.856471 14.4769 0.883057 14.417C0.900876 14.3769 0.919173 14.3436 0.929932 14.3242C0.934731 14.3156 0.940584 14.3054 0.942627 14.3018C0.94408 14.2992 0.945129 14.2976 0.945557 14.2969L0.951416 14.2852L0.957275 14.2744C0.965563 14.2579 0.979282 14.2305 0.997314 14.2012L1.00415 14.1895C1.06027 14.1022 1.12748 14.0213 1.19458 13.9541L5.25317 9.89551Z" fill="url(#paint0_linear_13_2729)"/>
<defs>
<linearGradient id="paint0_linear_13_2729" x1="3.52945" y1="21.0008" x2="26.1772" y2="4.77529" gradientUnits="userSpaceOnUse">
<stop stop-color="#E7D2F6"/>
<stop offset="1" stop-color="#FF734A"/>
</linearGradient>
</defs>
</svg>
