<svg width="96" height="92" viewBox="0 0 96 92" fill="none" xmlns="http://www.w3.org/2000/svg">
<path d="M81.7048 14.3775C72.7048 5.3775 60.7358 0.416504 48.0058 0.416504C35.2758 0.42041 23.3068 5.3774 14.3068 14.3775C5.30676 23.3776 0.345764 35.3465 0.345764 48.0765C0.345764 57.4046 3.03716 66.4355 8.13486 74.1975C13.1037 81.7678 20.0759 87.7365 28.2829 91.4785C28.8219 91.7285 29.4743 91.5176 29.7712 90.998L40.8652 71.799C41.037 71.4983 41.0644 71.1389 40.9433 70.8186C40.8222 70.4983 40.5644 70.2404 40.2441 70.1272C30.9043 66.8381 24.6351 57.9792 24.6351 48.0762C24.6351 35.1892 35.1151 24.6972 48.0061 24.6972C60.8971 24.6972 71.3771 35.1772 71.3771 48.0682C71.3771 57.9666 65.1076 66.8382 55.7681 70.1192C55.4399 70.2285 55.1899 70.4902 55.0688 70.8106C54.9477 71.1309 54.979 71.502 55.147 71.791L66.225 90.998C66.4359 91.3691 66.8265 91.5762 67.2367 91.5762C67.3968 91.5762 67.5648 91.5449 67.7171 91.4746C75.9359 87.7363 82.9081 81.7637 87.8652 74.1936C92.9668 66.4319 95.6543 57.3926 95.6543 48.0726C95.6543 35.3496 90.7046 23.3775 81.7048 14.3775ZM67.7048 88.9085L57.8337 71.8185C67.3845 67.8693 73.7047 58.4985 73.7047 48.0685C73.7047 33.8965 62.1737 22.3695 48.0057 22.3695C33.8337 22.3695 22.3067 33.9005 22.3067 48.0685C22.3067 58.4905 28.627 67.8575 38.1657 71.8185L28.3063 88.9085C12.7043 81.3694 2.67726 65.4595 2.67726 48.0685C2.67726 23.0765 23.0173 2.7485 48.0053 2.7485C72.9933 2.7485 93.3333 23.0765 93.3333 48.0765C93.3333 65.4595 83.3068 81.3695 67.7048 88.9085ZM58.697 54.1385L64.7673 48.0682L58.697 41.9979C58.2477 41.5487 58.2477 40.8065 58.697 40.3573C59.1462 39.9081 59.8884 39.9081 60.3376 40.3573L67.2282 47.2479C67.4469 47.4667 67.568 47.7596 67.568 48.0682C67.568 48.3768 67.4469 48.6698 67.2282 48.8885L60.3376 55.7791C60.1071 56.0096 59.818 56.119 59.5173 56.119C59.2165 56.119 58.9274 56.0096 58.6969 55.7791C58.2438 55.326 58.2438 54.5994 58.697 54.1385ZM37.314 41.9975L31.2437 48.0678L37.314 54.1381C37.7632 54.5873 37.7632 55.3295 37.314 55.7787C37.0835 56.0092 36.7944 56.1185 36.4937 56.1185C36.1929 56.1185 35.9038 56.0092 35.6733 55.7787L28.7827 48.8881C28.564 48.6694 28.4429 48.3764 28.4429 48.0678C28.4429 47.7592 28.564 47.4662 28.7827 47.2475L35.6733 40.3569C36.1226 39.9077 36.8647 39.9077 37.3139 40.3569C37.7671 40.8061 37.7671 41.5483 37.314 41.9975ZM53.525 40.8373L44.4938 56.4783C44.275 56.8494 43.8844 57.0564 43.4821 57.0564C43.2828 57.0564 43.0836 57.0056 42.9039 56.8963C42.3454 56.576 42.1539 55.8651 42.4743 55.3065L51.5055 39.6655C51.8258 39.1069 52.5367 38.9155 53.0953 39.2358C53.6538 39.5678 53.8453 40.2787 53.525 40.8373Z" fill="url(#paint0_linear_13_457)"/>
<defs>
<linearGradient id="paint0_linear_13_457" x1="8.45795" y1="64.9119" x2="78.0655" y2="18.4632" gradientUnits="userSpaceOnUse">
<stop stop-color="#E7D2F6"/>
<stop offset="1" stop-color="#FF734A"/>
</linearGradient>
</defs>
</svg>
