<svg width="32" height="34" viewBox="0 0 32 34" fill="none" xmlns="http://www.w3.org/2000/svg">
<path d="M15.9983 21.6529C17.5938 21.6529 18.8915 20.3409 18.8915 18.7278C18.8915 17.1146 17.5938 15.8026 15.9983 15.8026C14.4029 15.8026 13.1052 17.1146 13.1052 18.7278C13.1052 20.3409 14.4029 21.6529 15.9983 21.6529ZM14.2949 18.7278C14.2949 17.7776 15.0585 17.0055 15.9983 17.0055C16.9381 17.0055 17.7017 17.7776 17.7017 18.7278C17.7017 19.6779 16.9381 20.45 15.9983 20.45C15.0585 20.45 14.2949 19.6779 14.2949 18.7278ZM28.7597 29.6244H18.6965C18.4657 28.5748 17.6324 27.7406 16.5929 27.5155V26.1179C17.1161 26.0985 17.5368 25.7049 17.672 25.1041L17.8715 24.2202C18.0914 24.1443 18.3072 24.0531 18.5162 23.9496L19.2744 24.4329C19.5121 24.5835 19.7675 24.6636 20.0161 24.6636C20.3098 24.6636 20.5721 24.5545 20.7756 24.3487L21.5597 23.5573C21.9422 23.1706 21.975 22.574 21.643 22.0395L21.1649 21.2716C21.2674 21.0603 21.3562 20.8421 21.4327 20.6197L22.3069 20.4181C22.9011 20.2813 23.2904 19.856 23.3095 19.327H24.8394C28.2367 19.327 31 16.5331 31 13.0984C31 9.66369 28.2366 6.86977 24.8394 6.86977H24.7752C24.5895 3.57174 21.9039 1 18.6241 1C16.2337 1 14.0536 2.4032 13.0441 4.58402C12.4458 4.31194 11.8065 4.17382 11.1453 4.17382C9.10454 4.17382 7.28785 5.5411 6.70176 7.50776C3.55179 7.58649 1 10.223 1 13.4175C1 16.6769 3.62271 19.3286 6.84654 19.3286H8.69061C8.70974 19.8576 9.09905 20.2829 9.69325 20.4197L10.5675 20.6199C10.6426 20.8423 10.7328 21.0605 10.8352 21.2718L10.3571 22.0383C10.0238 22.5728 10.0566 23.1694 10.4404 23.5562L11.2232 24.3489C11.4267 24.5547 11.689 24.6638 11.9827 24.6638C12.2299 24.6638 12.4867 24.5837 12.7244 24.4331L13.4839 23.9498C13.6929 24.0533 13.9087 24.1431 14.1287 24.2205L14.3281 25.1043C14.4647 25.7148 14.8772 26.0987 15.4072 26.1181V27.5254C14.3745 27.7657 13.5768 28.5792 13.3487 29.6247H3.28134C2.9535 29.6247 2.68577 29.894 2.68577 30.2268C2.68577 30.5583 2.95214 30.8289 3.28134 30.8289H13.3445C13.6218 32.0913 14.7351 33 16.0204 33C17.3058 33 18.4191 32.0913 18.6964 30.8289H28.7596C29.0874 30.8289 29.3551 30.5596 29.3551 30.2268C29.3551 29.8953 29.0889 29.6244 28.7597 29.6244ZM16.0203 31.7955C15.1652 31.7955 14.4686 31.0925 14.4686 30.2279C14.4686 29.362 15.1652 28.6576 16.0203 28.6576C16.8754 28.6576 17.5721 29.362 17.5721 30.2266C17.5721 31.0911 16.8754 31.7955 16.0203 31.7955ZM11.361 22.6818L12.0208 21.6211C12.1383 21.4333 12.1437 21.1958 12.0344 21.0024C11.8487 20.6709 11.7039 20.3188 11.6041 19.9514C11.5454 19.7373 11.376 19.573 11.1629 19.5246L9.95404 19.247C9.91989 19.2388 9.8953 19.2305 9.87754 19.2222V18.2333C9.8953 18.225 9.91988 18.2167 9.95404 18.2085L11.1629 17.9309C11.3774 17.8811 11.5468 17.7182 11.6041 17.5041C11.7039 17.1381 11.8486 16.7845 12.0344 16.4545C12.1437 16.2611 12.1383 16.025 12.0208 15.8357L11.3596 14.7751C11.3405 14.7447 11.3296 14.7212 11.3228 14.7019L12.014 14.003C12.0317 14.0099 12.0563 14.021 12.0864 14.0403L13.1354 14.7088C13.2311 14.7695 13.3403 14.8013 13.4524 14.8013C13.5548 14.8013 13.6573 14.7737 13.746 14.7226C14.0739 14.5347 14.4222 14.3883 14.7842 14.2875C14.9959 14.2281 15.1585 14.0569 15.2063 13.8414L15.4809 12.6192C15.4891 12.5846 15.4973 12.5598 15.5055 12.5418H16.4835C16.4917 12.5598 16.4999 12.5846 16.5081 12.6192L16.7827 13.8414C16.8318 14.0583 16.993 14.2295 17.2047 14.2875C17.5667 14.3883 17.9164 14.5347 18.2429 14.7226C18.3331 14.7737 18.4342 14.8013 18.5366 14.8013C18.6486 14.8013 18.7579 14.7695 18.8535 14.7088L19.9026 14.0403C19.9326 14.021 19.9559 14.0099 19.975 14.003L20.6662 14.7019C20.6594 14.7198 20.6484 14.7447 20.6293 14.7751L19.9695 15.8357C19.8521 16.0236 19.8466 16.2611 19.9559 16.4545C20.1417 16.7859 20.2865 17.1381 20.3862 17.5055C20.4449 17.7196 20.6143 17.8839 20.8274 17.9322L22.0363 18.2098C22.0704 18.2181 22.095 18.2264 22.1128 18.2347V19.2236C22.095 19.2318 22.0704 19.2401 22.0363 19.2484L20.8274 19.526C20.6129 19.5757 20.4435 19.7387 20.3862 19.9528C20.2865 20.3188 20.1417 20.6723 19.9559 21.0024C19.8466 21.1958 19.8521 21.4319 19.9695 21.6198L20.6307 22.6804C20.6498 22.7108 20.6607 22.7343 20.6676 22.7536L19.9764 23.4525C19.9586 23.4456 19.934 23.4345 19.904 23.4152L18.8549 22.7481C18.7593 22.6873 18.65 22.6556 18.538 22.6556C18.4355 22.6556 18.3331 22.6832 18.2443 22.7343C17.9164 22.9221 17.5667 23.0685 17.2047 23.1694C16.993 23.2287 16.8305 23.4 16.7827 23.6154L16.5081 24.8377C16.4999 24.8722 16.4917 24.8971 16.4835 24.915H15.5055C15.4973 24.8971 15.4891 24.8722 15.4809 24.8377L15.2063 23.6154C15.1571 23.3986 14.9959 23.2273 14.7842 23.1694C14.4222 23.0685 14.0739 22.9221 13.746 22.7343C13.6559 22.6832 13.5548 22.6556 13.4524 22.6556C13.3403 22.6556 13.2311 22.6873 13.1354 22.7481L12.0864 23.4166C12.0563 23.4359 12.0331 23.4469 12.014 23.4538L11.3228 22.755C11.3296 22.737 11.3405 22.7122 11.3596 22.6818H11.361ZM23.7751 7.95117C23.8858 8.05613 24.0306 8.11275 24.1809 8.11275C24.2041 8.11275 24.2273 8.11137 24.2505 8.10861C24.4459 8.08513 24.6439 8.07408 24.8365 8.07408C27.5781 8.07408 29.8074 10.3294 29.8074 13.0999C29.8074 15.8717 27.5768 18.1257 24.8365 18.1257H23.3066C23.2875 17.5968 22.8982 17.1714 22.304 17.0347L21.4298 16.8344C21.3546 16.6121 21.2645 16.3939 21.162 16.1825L21.6401 15.416C21.9734 14.8816 21.9406 14.2849 21.5568 13.8982L20.7727 13.1068C20.5692 12.9011 20.3069 12.7919 20.0132 12.7919C19.766 12.7919 19.5092 12.872 19.2715 13.0226L18.512 13.506C18.303 13.4024 18.0872 13.3126 17.8672 13.2353L17.6678 12.3514C17.5298 11.7354 17.09 11.3377 16.5477 11.3377H15.4398C14.8894 11.3377 14.4604 11.7258 14.3197 12.3514L14.1203 13.2353C13.9004 13.3112 13.6846 13.4024 13.4755 13.506L12.716 13.0226C12.4784 12.872 12.2229 12.7919 11.9743 12.7919C11.6806 12.7919 11.4184 12.9011 11.2134 13.1068L10.4307 13.8996C10.0482 14.2863 10.0155 14.8829 10.3474 15.4174L10.8255 16.1853C10.723 16.3966 10.6343 16.6148 10.5578 16.8372L9.68353 17.0388C9.08933 17.1756 8.70001 17.6009 8.68088 18.1299H6.83681C4.26872 18.1299 2.18028 16.0182 2.18028 13.4219C2.18028 10.8256 4.2689 8.71391 6.83681 8.71391C6.92833 8.71391 7.02121 8.71668 7.1223 8.72358C7.13459 8.72496 7.14689 8.72496 7.15918 8.72496C7.44604 8.72496 7.69191 8.5178 7.74384 8.23331C8.04572 6.58152 9.47318 5.38274 11.137 5.38274C11.8063 5.38274 12.4565 5.57748 13.0152 5.94345C13.1122 6.00698 13.2242 6.04013 13.3389 6.04013C13.4059 6.04013 13.4714 6.02908 13.5343 6.00698C13.7091 5.94484 13.843 5.80811 13.9031 5.63133C14.5847 3.58455 16.478 2.20899 18.6159 2.20899C21.3575 2.20899 23.5868 4.4643 23.5868 7.23482C23.5868 7.31769 23.5841 7.40193 23.58 7.48618C23.5718 7.66296 23.6401 7.83421 23.7685 7.95574L23.7751 7.95117Z" fill="url(#paint0_linear_13_2120)" stroke="url(#paint1_linear_13_2120)" stroke-width="0.7"/>
<defs>
<linearGradient id="paint0_linear_13_2120" x1="3.55345" y1="23.6382" x2="26.8703" y2="9.68524" gradientUnits="userSpaceOnUse">
<stop stop-color="#E7D2F6"/>
<stop offset="1" stop-color="#FF734A"/>
</linearGradient>
<linearGradient id="paint1_linear_13_2120" x1="3.55345" y1="23.6382" x2="26.8703" y2="9.68524" gradientUnits="userSpaceOnUse">
<stop stop-color="#E7D2F6"/>
<stop offset="1" stop-color="#FF734A"/>
</linearGradient>
</defs>
</svg>
