<svg width="34" height="34" viewBox="0 0 34 34" fill="none" xmlns="http://www.w3.org/2000/svg">
<path d="M32.1241 16.1251H29.3816C28.9951 14.6812 27.676 13.6154 26.1118 13.6154C24.5477 13.6154 23.2293 14.6819 22.8421 16.1251H20.2697C19.9575 14.9606 19.0396 14.0426 17.8752 13.7303V11.8585H19.4527C21.0931 11.8585 22.4283 10.5232 22.4283 8.88254V3.976C22.4283 2.33535 21.0931 1 19.4527 1H14.5466C12.9062 1 11.571 2.33535 11.571 3.976V8.88254C11.571 10.5232 12.9062 11.8585 14.5466 11.8585H16.1241V13.7303C14.9597 14.0426 14.0418 14.9606 13.7296 16.1251H11.1572C10.7707 14.6812 9.4516 13.6154 7.88745 13.6154C6.3233 13.6154 5.0049 14.6819 4.61771 16.1251H1.8752C1.39209 16.1251 1 16.5172 1 17.0004C1 17.4835 1.39209 17.8756 1.8752 17.8756H4.61771C4.92998 19.0401 5.84789 19.9581 7.01225 20.2704V22.1415H5.4348C3.79433 22.1415 2.45913 23.4768 2.45913 25.1175V30.024C2.45913 31.6647 3.79433 33 5.4348 33H10.3408C11.9813 33 13.3165 31.6647 13.3165 30.024V25.1175C13.3165 23.4768 11.9813 22.1415 10.3408 22.1415H8.76335V20.2704C9.92771 19.9581 10.8456 19.0401 11.1579 17.8756H13.7303C14.1167 19.3195 15.4358 20.3853 17 20.3853C18.5642 20.3853 19.8825 19.3188 20.2697 17.8756H22.8421C23.1544 19.0401 24.0723 19.9581 25.2367 20.2704V22.1415H23.6592C22.0187 22.1415 20.6835 23.4768 20.6835 25.1175V30.024C20.6835 31.6647 22.0187 33 23.6592 33H28.5652C30.2057 33 31.5409 31.6647 31.5409 30.024V25.1175C31.5409 23.4768 30.2057 22.1415 28.5652 22.1415H26.9877V20.2704C28.1521 19.9581 29.07 19.0401 29.3823 17.8756H32.1248C32.6079 17.8756 33 17.4835 33 17.0004C33 16.5172 32.6079 16.1251 32.1248 16.1251H32.1241ZM13.3228 8.88254V3.976C13.3228 3.30027 13.8724 2.75059 14.548 2.75059H19.4541C20.1297 2.75059 20.6793 3.30027 20.6793 3.976V8.88254C20.6793 9.55826 20.1297 10.1079 19.4541 10.1079H14.548C13.8724 10.1079 13.3228 9.55826 13.3228 8.88254ZM11.5675 25.1168V30.0233C11.5675 30.699 11.0179 31.2487 10.3422 31.2487H5.4362C4.76055 31.2487 4.21092 30.699 4.21092 30.0233V25.1168C4.21092 24.441 4.76055 23.8914 5.4362 23.8914H10.3422C11.0179 23.8914 11.5675 24.441 11.5675 25.1168ZM29.7905 25.1168V30.0233C29.7905 30.699 29.2409 31.2487 28.5652 31.2487H23.6592C22.9835 31.2487 22.4339 30.699 22.4339 30.0233V25.1168C22.4339 24.441 22.9835 23.8914 23.6592 23.8914H28.5652C29.2409 23.8914 29.7905 24.441 29.7905 25.1168ZM7.90005 18.634C7.89655 18.634 7.89305 18.634 7.88955 18.634C7.88605 18.634 7.88255 18.634 7.87905 18.634C6.98285 18.6284 6.25538 17.8974 6.25538 16.9997C6.25538 16.102 6.98845 15.3653 7.88955 15.3653C8.79065 15.3653 9.52372 16.0984 9.52372 16.9997C9.52372 17.9009 8.79625 18.6284 7.90005 18.634ZM17.0007 18.634C16.0996 18.634 15.3665 17.9009 15.3665 16.9997C15.3665 16.0984 16.0996 15.3653 17.0007 15.3653C17.9018 15.3653 18.6349 16.0984 18.6349 16.9997C18.6349 17.9009 17.9018 18.634 17.0007 18.634ZM26.1231 18.634C26.1196 18.634 26.1161 18.634 26.1126 18.634C26.109 18.634 26.1055 18.634 26.102 18.634C25.2058 18.6284 24.4784 17.8974 24.4784 16.9997C24.4784 16.102 25.2114 15.3653 26.1126 15.3653C27.0137 15.3653 27.7467 16.0984 27.7467 16.9997C27.7467 17.9009 27.0193 18.6284 26.1231 18.634Z" fill="url(#paint0_linear_13_2092)" stroke="url(#paint1_linear_13_2092)" stroke-width="0.55"/>
<defs>
<linearGradient id="paint0_linear_13_2092" x1="3.72368" y1="23.6382" x2="27.7232" y2="8.31933" gradientUnits="userSpaceOnUse">
<stop stop-color="#E7D2F6"/>
<stop offset="1" stop-color="#FF734A"/>
</linearGradient>
<linearGradient id="paint1_linear_13_2092" x1="3.72368" y1="23.6382" x2="27.7232" y2="8.31933" gradientUnits="userSpaceOnUse">
<stop stop-color="#E7D2F6"/>
<stop offset="1" stop-color="#FF734A"/>
</linearGradient>
</defs>
</svg>
