<svg width="100" height="98" viewBox="0 0 100 98" fill="none" xmlns="http://www.w3.org/2000/svg">
<path d="M11.5461 11.4585C10.9602 11.4585 10.4719 10.9827 10.4719 10.3946C10.4719 9.80663 10.9373 9.33081 11.5254 9.33081H11.5461C12.1342 9.33081 12.61 9.80663 12.61 10.3946C12.61 10.9827 12.1342 11.4585 11.5461 11.4585Z" fill="url(#paint0_linear_13_495)"/>
<path d="M11.5026 11.4615C11.2262 11.4615 10.9478 11.3556 10.7566 11.1426C10.6507 11.0574 10.5655 10.9296 10.5239 10.8018C10.4595 10.6741 10.4387 10.5255 10.4387 10.3977C10.4387 10.1214 10.5447 9.84399 10.7566 9.63205C11.033 9.35467 11.5233 9.2487 11.9056 9.41908C12.0345 9.46167 12.1612 9.54686 12.2464 9.63205C12.4583 9.84399 12.5664 10.1214 12.5664 10.3977C12.5664 10.5255 12.5435 10.6741 12.4812 10.8018C12.4376 10.9296 12.3524 11.0574 12.2464 11.1426C12.1612 11.2486 12.0345 11.3338 11.9056 11.3764C11.7789 11.4397 11.6501 11.4615 11.5026 11.4615Z" fill="url(#paint1_linear_13_495)"/>
<path d="M25.2472 11.4616C24.9708 11.4616 24.6924 11.3556 24.5013 11.1426C24.2893 10.9504 24.1833 10.6741 24.1833 10.3977C24.1833 10.1214 24.2893 9.844 24.5013 9.65284C24.7776 9.35468 25.2472 9.24871 25.6503 9.41909C25.7791 9.46168 25.9058 9.54687 25.991 9.65284C26.097 9.73803 26.1614 9.86581 26.2258 9.9936C26.2674 10.1214 26.311 10.2492 26.311 10.3977C26.311 10.5255 26.2674 10.6741 26.2258 10.8019C26.1614 10.9296 26.097 11.0574 25.991 11.1426C25.9058 11.2486 25.7791 11.313 25.6503 11.3764C25.5235 11.4397 25.3739 11.4616 25.2472 11.4616Z" fill="url(#paint2_linear_13_495)"/>
<path d="M38.9917 11.4615C38.7153 11.4615 38.439 11.3337 38.2458 11.1426C38.0338 10.9504 37.9279 10.674 37.9279 10.3977C37.9279 10.2491 37.9486 10.1213 38.013 9.99353C38.0546 9.86575 38.1398 9.73796 38.2458 9.632C38.6302 9.24864 39.3532 9.24864 39.7355 9.632C39.8415 9.73796 39.9059 9.86575 39.9703 9.99353C40.0119 10.1213 40.0555 10.2491 40.0555 10.3977C40.0555 10.674 39.9267 10.9504 39.7355 11.1426C39.6503 11.2485 39.5236 11.3129 39.3948 11.3763C39.268 11.4189 39.1184 11.4615 38.9917 11.4615Z" fill="url(#paint3_linear_13_495)"/>
<path d="M67.9769 11.4585H57.4238C56.8358 11.4585 56.36 10.9827 56.36 10.3946C56.36 9.80663 56.8358 9.33081 57.4238 9.33081H67.9769C68.5649 9.33081 69.0408 9.80663 69.0408 10.3946C69.0408 10.9827 68.5649 11.4585 67.9769 11.4585Z" fill="url(#paint4_linear_13_495)"/>
<path d="M29.3839 66.6257C24.3993 66.6257 19.7264 64.4077 16.564 60.5398C16.192 60.0848 16.2585 59.4147 16.7136 59.0428C17.1665 58.6719 17.8376 58.7384 18.2096 59.1934C20.9668 62.5647 25.0393 64.498 29.3839 64.498C33.7244 64.498 37.8011 62.5636 40.5708 59.1914C40.9468 58.7374 41.618 58.6709 42.0689 59.0449C42.5218 59.4178 42.5883 60.0879 42.2164 60.5419C39.0394 64.4087 34.3623 66.6257 29.3839 66.6257Z" fill="url(#paint5_linear_13_495)"/>
<path d="M13.8903 51.4703C13.3479 51.4703 12.8888 51.0599 12.8327 50.5145L12.8264 50.4605C12.8181 50.3836 12.8181 50.3078 12.8264 50.234C12.895 43.7658 16.7036 37.6706 22.351 35.0287C22.8788 34.7825 23.5167 35.0079 23.766 35.5419C24.0153 36.0738 23.7847 36.7076 23.2528 36.9569C18.2889 39.2788 14.9541 44.6842 14.9541 50.4065C14.9541 50.9727 14.5094 51.4402 13.9443 51.4692C13.9256 51.4703 13.9069 51.4703 13.8903 51.4703Z" fill="url(#paint6_linear_13_495)"/>
<path d="M44.8914 51.4434C44.8748 51.4434 44.8582 51.4434 44.8395 51.4424C44.3034 51.4143 43.8754 51.0174 43.8317 50.4938C43.8276 50.4627 43.8276 50.4294 43.8276 50.3972C43.8234 44.6885 40.4886 39.2873 35.5247 36.956C34.9928 36.7056 34.7642 36.0719 35.0156 35.541C35.265 35.008 35.8946 34.7826 36.4306 35.0299C42.0781 37.6832 45.8887 43.7795 45.9552 50.2362C45.9594 50.2746 45.9615 50.3131 45.9615 50.3525C45.9615 50.3879 45.9594 50.4242 45.9552 50.4606C45.9448 50.5707 45.9157 50.6767 45.8742 50.7743C45.8742 50.7754 45.8742 50.7775 45.8721 50.7785C45.7059 51.166 45.3236 51.4434 44.8914 51.4434Z" fill="url(#paint7_linear_13_495)"/>
<path d="M29.3906 43.2495C25.1581 43.2495 21.7131 39.8056 21.7131 35.5731C21.7131 31.3407 25.1581 27.8967 29.3906 27.8967C33.623 27.8967 37.0659 31.3407 37.0659 35.5731C37.0659 39.8056 33.623 43.2495 29.3906 43.2495ZM29.3906 30.0244C26.33 30.0244 23.8408 32.5136 23.8408 35.5731C23.8408 38.6327 26.33 41.1219 29.3906 41.1219C32.4491 41.1219 34.9383 38.6327 34.9383 35.5731C34.9383 32.5136 32.4491 30.0244 29.3906 30.0244Z" fill="url(#paint8_linear_13_495)"/>
<path d="M43.0147 61.1923C39.6466 61.1923 36.906 58.4517 36.906 55.0836C36.906 51.7155 39.6466 48.9749 43.0147 48.9749C46.3828 48.9749 49.1234 51.7155 49.1234 55.0836C49.1234 58.4517 46.3828 61.1923 43.0147 61.1923ZM43.0147 51.1025C40.8206 51.1025 39.0337 52.8884 39.0337 55.0836C39.0337 57.2788 40.8206 59.0646 43.0147 59.0646C45.2089 59.0646 46.9958 57.2788 46.9958 55.0836C46.9958 52.8884 45.2089 51.1025 43.0147 51.1025Z" fill="url(#paint9_linear_13_495)"/>
<path d="M15.7642 61.1923C12.3961 61.1923 9.65552 58.4517 9.65552 55.0836C9.65552 51.7155 12.3961 48.9749 15.7642 48.9749C19.1323 48.9749 21.8729 51.7155 21.8729 55.0836C21.8729 58.4517 19.1323 61.1923 15.7642 61.1923ZM15.7642 51.1025C13.5701 51.1025 11.7832 52.8884 11.7832 55.0836C11.7832 57.2788 13.5701 59.0646 15.7642 59.0646C17.9584 59.0646 19.7453 57.2788 19.7453 55.0836C19.7453 52.8884 17.9584 51.1025 15.7642 51.1025Z" fill="url(#paint10_linear_13_495)"/>
<path d="M78.258 19.6272H1.06383C0.475814 19.6272 0 19.1514 0 18.5634V1.62731C0 1.03929 0.475814 0.563477 1.06383 0.563477H78.258C78.846 0.563477 79.3218 1.03929 79.3218 1.62731V18.5634C79.3218 19.1514 78.846 19.6272 78.258 19.6272ZM2.12766 17.4996H77.1941V2.69114H2.12766V17.4996Z" fill="url(#paint11_linear_13_495)"/>
<path d="M57.5715 77.0106H1.06383C0.475814 77.0106 0 76.5348 0 75.9468V18.5758C0 17.9878 0.475814 17.512 1.06383 17.512H78.2642C78.8522 17.512 79.328 17.9878 79.328 18.5758V42.0216C79.328 42.6096 78.8522 43.0854 78.2642 43.0854C77.6762 43.0854 77.2004 42.6096 77.2004 42.0216V19.6396H2.12766V74.8829H57.5715C58.1595 74.8829 58.6353 75.3587 58.6353 75.9468C58.6353 76.5348 58.1595 77.0106 57.5715 77.0106Z" fill="url(#paint12_linear_13_495)"/>
<path d="M63.0069 66.4483C62.4189 66.4483 61.9431 65.9725 61.9431 65.3845V57.2645C61.9431 48.2687 69.2611 40.9507 78.2579 40.9507C87.2527 40.9507 94.5707 48.2687 94.5707 57.2645C94.5707 57.8525 94.0949 58.3283 93.5069 58.3283C92.9188 58.3283 92.443 57.8525 92.443 57.2645C92.443 49.4426 86.0788 43.0783 78.2579 43.0783C70.4351 43.0783 64.0708 49.4426 64.0708 57.2645V65.3845C64.0708 65.9725 63.595 66.4483 63.0069 66.4483Z" fill="url(#paint13_linear_13_495)"/>
<path d="M93.5067 66.4481C92.9187 66.4481 92.4429 65.9723 92.4429 65.3843V57.2643C92.4429 56.6763 92.9187 56.2004 93.5067 56.2004C94.0947 56.2004 94.5705 56.6763 94.5705 57.2643V65.3843C94.5705 65.9723 94.0947 66.4481 93.5067 66.4481Z" fill="url(#paint14_linear_13_495)"/>
<path d="M98.9363 97.4364H57.5799C56.9919 97.4364 56.5161 96.9606 56.5161 96.3726V65.3844C56.5161 64.7964 56.9919 64.3206 57.5799 64.3206H98.9363C99.5243 64.3206 100 64.7964 100 65.3844V96.3726C100 96.9606 99.5243 97.4364 98.9363 97.4364ZM58.6438 95.3088H97.8725V66.4482H58.6438V95.3088Z" fill="url(#paint15_linear_13_495)"/>
<path d="M78.2476 81.9506C78.1188 81.9506 77.9692 81.908 77.8425 81.8654C77.7157 81.802 77.6077 81.7168 77.5017 81.6316C77.3106 81.4405 77.2046 81.1631 77.2046 80.8868C77.2046 80.5886 77.3106 80.3341 77.5017 80.1211C77.6077 80.0359 77.7157 79.9507 77.8425 79.8873C78.2476 79.7377 78.7151 79.8447 79.0123 80.1211C79.2034 80.3341 79.3322 80.5886 79.3322 80.8868C79.3322 81.1631 79.2034 81.4405 79.0123 81.6316C78.8211 81.8228 78.5448 81.9506 78.2476 81.9506Z" fill="url(#paint16_linear_13_495)"/>
<defs>
<linearGradient id="paint0_linear_13_495" x1="10.6539" y1="10.836" x2="12.2529" y2="9.8104" gradientUnits="userSpaceOnUse">
<stop stop-color="#E7D2F6"/>
<stop offset="1" stop-color="#FF734A"/>
</linearGradient>
<linearGradient id="paint1_linear_13_495" x1="10.6198" y1="10.84" x2="12.2142" y2="9.82082" gradientUnits="userSpaceOnUse">
<stop stop-color="#E7D2F6"/>
<stop offset="1" stop-color="#FF734A"/>
</linearGradient>
<linearGradient id="paint2_linear_13_495" x1="24.3644" y1="10.8402" x2="25.9585" y2="9.8209" gradientUnits="userSpaceOnUse">
<stop stop-color="#E7D2F6"/>
<stop offset="1" stop-color="#FF734A"/>
</linearGradient>
<linearGradient id="paint3_linear_13_495" x1="38.109" y1="10.8421" x2="39.7" y2="9.82146" gradientUnits="userSpaceOnUse">
<stop stop-color="#E7D2F6"/>
<stop offset="1" stop-color="#FF734A"/>
</linearGradient>
<linearGradient id="paint4_linear_13_495" x1="57.4393" y1="10.836" x2="58.3044" y2="7.54493" gradientUnits="userSpaceOnUse">
<stop stop-color="#E7D2F6"/>
<stop offset="1" stop-color="#FF734A"/>
</linearGradient>
<linearGradient id="paint5_linear_13_495" x1="18.5477" y1="64.337" x2="23.5212" y2="53.7323" gradientUnits="userSpaceOnUse">
<stop stop-color="#E7D2F6"/>
<stop offset="1" stop-color="#FF734A"/>
</linearGradient>
<linearGradient id="paint6_linear_13_495" x1="13.7604" y1="46.6311" x2="23.6275" y2="42.4251" gradientUnits="userSpaceOnUse">
<stop stop-color="#E7D2F6"/>
<stop offset="1" stop-color="#FF734A"/>
</linearGradient>
<linearGradient id="paint7_linear_13_495" x1="35.8538" y1="46.6122" x2="45.7169" y2="42.4003" gradientUnits="userSpaceOnUse">
<stop stop-color="#E7D2F6"/>
<stop offset="1" stop-color="#FF734A"/>
</linearGradient>
<linearGradient id="paint8_linear_13_495" x1="23.0199" y1="38.758" x2="34.5343" y2="31.4084" gradientUnits="userSpaceOnUse">
<stop stop-color="#E7D2F6"/>
<stop offset="1" stop-color="#FF734A"/>
</linearGradient>
<linearGradient id="paint9_linear_13_495" x1="37.9459" y1="57.618" x2="47.1088" y2="51.7693" gradientUnits="userSpaceOnUse">
<stop stop-color="#E7D2F6"/>
<stop offset="1" stop-color="#FF734A"/>
</linearGradient>
<linearGradient id="paint10_linear_13_495" x1="10.6954" y1="57.618" x2="19.8583" y2="51.7693" gradientUnits="userSpaceOnUse">
<stop stop-color="#E7D2F6"/>
<stop offset="1" stop-color="#FF734A"/>
</linearGradient>
<linearGradient id="paint11_linear_13_495" x1="6.75148" y1="14.05" x2="17.1477" y2="-13.5611" gradientUnits="userSpaceOnUse">
<stop stop-color="#E7D2F6"/>
<stop offset="1" stop-color="#FF734A"/>
</linearGradient>
<linearGradient id="paint12_linear_13_495" x1="6.75201" y1="59.6038" x2="55.3149" y2="18.2755" gradientUnits="userSpaceOnUse">
<stop stop-color="#E7D2F6"/>
<stop offset="1" stop-color="#FF734A"/>
</linearGradient>
<linearGradient id="paint13_linear_13_495" x1="64.7202" y1="58.9888" x2="85.3783" y2="42.1156" gradientUnits="userSpaceOnUse">
<stop stop-color="#E7D2F6"/>
<stop offset="1" stop-color="#FF734A"/>
</linearGradient>
<linearGradient id="paint14_linear_13_495" x1="92.624" y1="63.4501" x2="94.831" y2="63.1576" gradientUnits="userSpaceOnUse">
<stop stop-color="#E7D2F6"/>
<stop offset="1" stop-color="#FF734A"/>
</linearGradient>
<linearGradient id="paint15_linear_13_495" x1="60.2173" y1="87.7481" x2="87.1776" y2="65.1516" gradientUnits="userSpaceOnUse">
<stop stop-color="#E7D2F6"/>
<stop offset="1" stop-color="#FF734A"/>
</linearGradient>
<linearGradient id="paint16_linear_13_495" x1="77.3857" y1="81.3271" x2="78.9828" y2="80.3093" gradientUnits="userSpaceOnUse">
<stop stop-color="#E7D2F6"/>
<stop offset="1" stop-color="#FF734A"/>
</linearGradient>
</defs>
</svg>
