<svg width="32" height="33" viewBox="0 0 32 33" fill="none" xmlns="http://www.w3.org/2000/svg">
<path d="M13 30.9331H1.66699V19.6001H13V30.9331ZM30.333 30.9331H19V19.6001H30.333V30.9331ZM3.66699 28.9331H11V21.6001H3.66699V28.9331ZM21 28.9331H28.333V21.6001H21V28.9331ZM13 13.6001H1.66699V2.26611H13V13.6001ZM30.7471 4.6001L30.04 5.30713L23.374 11.9741L22.667 12.6812L18.5859 8.6001L20 7.18604L22.666 9.85205L28.626 3.89307L29.333 3.18604L30.7471 4.6001ZM3.66699 11.6001H11V4.26709H3.66699V11.6001Z" fill="url(#paint0_linear_1688_5058)"/>
<defs>
<linearGradient id="paint0_linear_1688_5058" x1="6.10696" y1="21.0509" x2="27.3239" y2="21.0509" gradientUnits="userSpaceOnUse">
<stop stop-color="#E7D2F6"/>
<stop offset="1" stop-color="#FF734A"/>
</linearGradient>
</defs>
</svg>
