<svg width="82" height="63" viewBox="0 0 82 63" fill="none" xmlns="http://www.w3.org/2000/svg">
<path d="M34.5596 1.3374C36.3862 1.21496 37.8633 2.68817 37.8633 4.4624V12.2866C37.8633 14.0218 36.4849 15.3735 34.833 15.4976C29.0138 15.9344 24.9031 17.7582 22.2861 20.8013L22.2686 20.8208C19.2909 24.133 17.7881 28.1981 17.7881 33.0913C17.7881 33.2085 17.8171 33.2662 17.8389 33.2974C17.8649 33.3344 17.9173 33.3851 18.0176 33.4282C18.2331 33.5208 18.587 33.5363 18.9355 33.3726C20.6766 32.5545 22.706 32.1685 24.9873 32.1685C29.0538 32.1685 32.4042 33.376 34.8975 35.897C37.5609 38.4277 38.8193 41.9829 38.8193 46.3833C38.8193 50.7235 37.2591 54.413 34.1572 57.3755L34.1553 57.3774C31.1679 60.2204 27.0201 61.5649 21.8809 61.5649C15.7705 61.5649 10.8074 59.0495 7.08691 54.0903L7.07324 54.0728L7.06055 54.0542C3.55728 48.9933 1.83496 42.8707 1.83496 35.7495C1.83504 25.208 4.85553 16.8227 11.0254 10.7524L11.0312 10.7476L11.0371 10.7417C16.929 5.09759 24.8065 1.99121 34.5596 1.3374ZM75.9062 1.3374C77.7327 1.21525 79.209 2.68833 79.209 4.4624V12.2866C79.209 14.0218 77.8306 15.3736 76.1787 15.4976C70.3595 15.9344 66.2488 17.7581 63.6318 20.8013L63.623 20.811L63.6152 20.8208C60.6374 24.1331 59.1338 28.1979 59.1338 33.0913C59.1338 33.2086 59.1637 33.2663 59.1855 33.2974C59.2116 33.3344 59.2633 33.3852 59.3633 33.4282C59.5788 33.5208 59.9327 33.5364 60.2812 33.3726C62.0223 32.5545 64.0517 32.1685 66.333 32.1685C70.2578 32.1685 73.5831 33.3859 76.2148 35.8696C78.898 38.402 80.165 41.9672 80.165 46.3833C80.165 50.7236 78.6049 54.413 75.5029 57.3755L75.501 57.3774C72.5136 60.2204 68.3658 61.5649 63.2266 61.5649C57.1162 61.5649 52.1531 59.0495 48.4326 54.0903L48.4199 54.0728L48.4072 54.0542C44.9038 48.9932 43.1807 42.8708 43.1807 35.7495C43.1807 25.208 46.2022 16.8227 52.3721 10.7524L52.3828 10.7417C58.2748 5.09747 66.153 1.99117 75.9062 1.3374Z" stroke="url(#paint0_linear_13_584)" stroke-width="2.33"/>
<defs>
<linearGradient id="paint0_linear_13_584" x1="9.46874" y1="43.4316" x2="56.6704" y2="3.95257" gradientUnits="userSpaceOnUse">
<stop stop-color="#E7D2F6"/>
<stop offset="1" stop-color="#FF734A"/>
</linearGradient>
</defs>
</svg>
