<svg width="32" height="32" viewBox="0 0 32 32" fill="none" xmlns="http://www.w3.org/2000/svg">
<path d="M15.667 0.399902C17.5491 0.39997 19.3839 0.990831 20.9121 2.08936C22.2149 3.02595 23.2375 4.29234 23.8828 5.75049C24.0301 5.73993 24.1784 5.73307 24.3262 5.73193H24.333L24.6807 5.74072C26.4106 5.8266 28.0526 6.55118 29.2832 7.78174C30.596 9.09449 31.333 10.8754 31.333 12.7319L31.3252 13.0786C31.2394 14.8088 30.5139 16.4514 29.2832 17.6821C28.0526 18.9125 26.4105 19.6373 24.6807 19.7231L24.333 19.7319H23.334V22.3179L25.8799 24.8638C26.4087 24.5678 27.018 24.398 27.667 24.3979C29.6918 24.3981 31.3328 26.0402 31.333 28.0649C31.3328 30.0897 29.6918 31.7308 27.667 31.731C25.6422 31.7308 24.0002 30.0897 24 28.0649C24.0001 27.4159 24.1699 26.8067 24.4658 26.2778L21.334 23.146V19.7319H16.667V24.5366C18.2058 24.972 19.3329 26.3868 19.333 28.0649C19.3328 30.0897 17.6918 31.7308 15.667 31.731C13.6422 31.7308 12.0002 30.0897 12 28.0649C12.0001 26.3869 13.1283 24.9731 14.667 24.5376V19.7319H10.001V23.146L6.86816 26.2778C7.16398 26.8067 7.33295 27.4159 7.33301 28.0649C7.33283 30.0897 5.69178 31.7308 3.66699 31.731C1.64221 31.7308 0.000175861 30.0897 0 28.0649C0.000175172 26.0402 1.64221 24.3981 3.66699 24.3979C4.31597 24.398 4.92536 24.5679 5.4541 24.8638L8.00098 22.3179V19.7319H7C5.14361 19.7318 3.36248 18.9948 2.0498 17.6821C0.737131 16.3695 8.59227e-05 14.5883 0 12.7319C0 10.8756 0.737254 9.09446 2.0498 7.78174C3.36248 6.46906 5.1436 5.73202 7 5.73193H7.00781L7.33008 5.7417C7.37007 5.74387 7.41025 5.74762 7.4502 5.75049C8.09543 4.29243 9.11825 3.02595 10.4209 2.08936C11.9492 0.990701 13.7848 0.39997 15.667 0.399902ZM3.66699 26.3979C2.74677 26.3981 2.00018 27.1447 2 28.0649C2.00018 28.9852 2.74678 29.7308 3.66699 29.731C4.58721 29.7308 5.33283 28.9852 5.33301 28.0649C5.33283 27.1447 4.58721 26.3981 3.66699 26.3979ZM15.667 26.3979C14.7468 26.3981 14.0002 27.1447 14 28.0649C14.0002 28.9852 14.7468 29.7308 15.667 29.731C16.5872 29.7308 17.3328 28.9852 17.333 28.0649C17.3328 27.1447 16.5872 26.3981 15.667 26.3979ZM27.667 26.3979C26.7468 26.3981 26.0002 27.1447 26 28.0649C26.0002 28.9852 26.7468 29.7308 27.667 29.731C28.5872 29.7308 29.3328 28.9852 29.333 28.0649C29.3328 27.1447 28.5872 26.3981 27.667 26.3979ZM15.667 2.3999C14.2036 2.39997 12.7761 2.85917 11.5879 3.71338C10.4 4.56754 9.51008 5.77377 9.04395 7.16064L8.76465 7.99268L7.90332 7.82373C7.60417 7.7651 7.29995 7.73443 6.99512 7.73193C5.67091 7.73331 4.4013 8.26032 3.46484 9.19678C2.52737 10.1344 2 11.406 2 12.7319C2.00009 14.0579 2.52724 15.3295 3.46484 16.2671C4.40245 17.2047 5.67404 17.7318 7 17.7319H24.333L24.5811 17.7261C25.8168 17.6648 26.99 17.146 27.8691 16.2671C28.8065 15.3295 29.3329 14.0577 29.333 12.7319L29.3271 12.4839C29.2658 11.2483 28.748 10.0758 27.8691 9.19678C26.9323 8.25994 25.6617 7.73288 24.3369 7.73193C24.0325 7.73453 23.7285 7.76514 23.4297 7.82373L22.5693 7.99268L22.2891 7.16064C21.8229 5.77361 20.9332 4.56754 19.7451 3.71338C18.557 2.85923 17.1303 2.39997 15.667 2.3999Z" fill="url(#paint0_linear_1688_5086)"/>
<defs>
<linearGradient id="paint0_linear_1688_5086" x1="-0.333005" y1="28.5649" x2="28.167" y2="7.06494" gradientUnits="userSpaceOnUse">
<stop stop-color="#E7D2F6"/>
<stop offset="1" stop-color="#FF734A"/>
</linearGradient>
</defs>
</svg>
