<svg width="34" height="34" viewBox="0 0 34 34" fill="none" xmlns="http://www.w3.org/2000/svg">
<path d="M22.5927 4.98018C22.2642 4.65236 22.2642 4.12033 22.5927 3.79251L25.1447 1.24586C25.3023 1.08867 25.5163 1 25.7398 1C25.9633 1 26.1774 1.08867 26.3349 1.24586L28.8869 3.79251C29.2154 4.12033 29.2154 4.65236 28.8869 4.98018C28.7227 5.14409 28.5072 5.22605 28.2918 5.22605C28.0764 5.22605 27.861 5.14409 27.6967 4.98018L26.5813 3.86708V8.2174C26.5813 8.68091 26.2043 9.0571 25.7398 9.0571C25.2753 9.0571 24.8983 8.68091 24.8983 8.2174V3.8664L23.7829 4.97951C23.4544 5.30733 22.9219 5.30733 22.5927 4.97951V4.98018ZM26.4594 11.5164C26.1309 11.8442 26.1309 12.3763 26.4594 12.7041C26.788 13.0319 27.3211 13.0319 27.6496 12.7041L28.7651 11.591V15.9413C28.7651 16.4048 29.142 16.781 29.6065 16.781C30.071 16.781 30.448 16.4048 30.448 15.9413V11.591L31.5634 12.7041C31.7277 12.868 31.9431 12.95 32.1585 12.95C32.3739 12.95 32.5894 12.868 32.7536 12.7041C33.0821 12.3763 33.0821 11.8442 32.7536 11.5164L30.2016 8.96977C30.0441 8.81258 29.83 8.72391 29.6065 8.72391C29.383 8.72391 29.169 8.81258 29.0114 8.96977L26.4594 11.5164ZM18.5557 18.0762C18.5557 20.8008 16.3342 23.0176 13.6038 23.0176C10.8734 23.0176 8.65197 20.8008 8.65197 18.0762C8.65197 15.3515 10.8734 13.1347 13.6038 13.1347C16.3342 13.1347 18.5557 15.3515 18.5557 18.0762ZM16.8728 18.0762C16.8728 16.2779 15.4066 14.8141 13.6038 14.8141C11.8011 14.8141 10.3349 16.2772 10.3349 18.0762C10.3349 19.8751 11.8011 21.3382 13.6038 21.3382C15.4066 21.3382 16.8728 19.8751 16.8728 18.0762ZM33 25.3822C33 29.5828 29.5756 33 25.3662 33C21.6765 33 18.5894 30.3741 17.8839 26.8964L17.7546 26.7674C17.451 26.9118 17.1407 27.0408 16.8236 27.1523V28.2379C16.8236 29.572 15.7358 30.6576 14.3989 30.6576H12.8081C11.4712 30.6576 10.3834 29.572 10.3834 28.2379V27.1523C10.067 27.0401 9.75597 26.9118 9.45237 26.7674L8.68294 27.5352C8.22518 27.992 7.61595 28.2439 6.96836 28.2439C6.32077 28.2439 5.71155 27.992 5.25379 27.5352L4.12891 26.4127C3.18378 25.4696 3.18378 23.9339 4.12891 22.9908L4.89835 22.2229C4.75362 21.92 4.62437 21.6103 4.51262 21.2939H3.42477C2.08785 21.2939 1 20.2083 1 18.8742V17.2868C1 15.9527 2.08785 14.8672 3.42477 14.8672H4.51262C4.62504 14.5514 4.75362 14.2411 4.89835 13.9381L4.12891 13.1703C3.18378 12.2271 3.18378 10.6915 4.12891 9.74834L5.25379 8.62583C5.71155 8.16903 6.32077 7.91712 6.96836 7.91712C7.61595 7.91712 8.22518 8.16903 8.68294 8.62583L9.45237 9.39365C9.75597 9.24922 10.0663 9.12024 10.3834 9.00873V7.92317C10.3834 6.58905 11.4712 5.50349 12.8081 5.50349H14.3989C15.7358 5.50349 16.8236 6.58905 16.8236 7.92317V9.00873C17.14 9.12092 17.451 9.24922 17.7546 9.39365L18.5241 8.62583C18.9818 8.16903 19.591 7.91712 20.2386 7.91712C20.8862 7.91712 21.4955 8.16903 21.9532 8.62583L23.0781 9.74834C23.5358 10.2051 23.7883 10.8131 23.7883 11.4593C23.7883 12.1056 23.5358 12.7135 23.0781 13.1703L22.3086 13.9381C22.4534 14.2411 22.5826 14.5508 22.6951 14.8672H23.7829C25.1198 14.8672 26.2077 15.9527 26.2077 17.2868V17.8108C30.0226 18.23 33 21.4652 33 25.3822ZM17.5015 25.0074C17.5796 24.9637 17.6624 24.9335 17.7465 24.9167C17.9714 21.2119 20.862 18.2132 24.5241 17.8108V17.2868C24.5241 16.8784 24.1915 16.5466 23.7822 16.5466H22.0791C21.7014 16.5466 21.3702 16.296 21.2686 15.9332C21.099 15.3273 20.8553 14.7415 20.5443 14.1914C20.3591 13.8629 20.4157 13.4518 20.6823 13.1857L21.8872 11.9833C22.0273 11.8436 22.1047 11.6575 22.1047 11.46C22.1047 11.2625 22.0273 11.0764 21.8872 10.9367L20.7624 9.81417C20.6224 9.67445 20.4359 9.5972 20.238 9.5972C20.0401 9.5972 19.8536 9.67445 19.7136 9.81417L18.5086 11.0166C18.242 11.2826 17.83 11.3397 17.5008 11.1543C16.9488 10.8447 16.3618 10.6015 15.7553 10.4315C15.3918 10.3301 15.1407 9.99958 15.1407 9.62272V7.92317C15.1407 7.51474 14.8081 7.18289 14.3989 7.18289H12.8081C12.3989 7.18289 12.0663 7.51474 12.0663 7.92317V9.62272C12.0663 9.99891 11.8152 10.3294 11.4517 10.4315C10.8452 10.6015 10.2575 10.844 9.70616 11.1543C9.37698 11.3391 8.96499 11.2826 8.69842 11.0166L7.49344 9.81417C7.35342 9.67445 7.16695 9.5972 6.96903 9.5972C6.77112 9.5972 6.58465 9.67445 6.44463 9.81417L5.31976 10.9367C5.03029 11.2255 5.03029 11.6951 5.31976 11.984L6.52474 13.1864C6.79132 13.4524 6.84786 13.8635 6.66274 14.192C6.35241 14.7429 6.10872 15.3287 5.9384 15.9339C5.83676 16.2967 5.50555 16.5472 5.1279 16.5472H3.42477C3.01548 16.5472 2.68294 16.8791 2.68294 17.2875V18.8749C2.68294 19.2833 3.01548 19.6152 3.42477 19.6152H5.1279C5.50555 19.6152 5.83676 19.8657 5.9384 20.2285C6.10804 20.8337 6.35173 21.4195 6.66274 21.9704C6.84786 22.2988 6.79132 22.71 6.52474 22.976L5.31976 24.1784C5.03029 24.4673 5.03029 24.9369 5.31976 25.2257L6.44463 26.3482C6.58465 26.488 6.77112 26.5652 6.96903 26.5652C7.16695 26.5652 7.35342 26.488 7.49344 26.3482L8.69842 25.1458C8.86065 24.9839 9.07607 24.8999 9.2935 24.8999C9.43487 24.8999 9.57691 24.9355 9.70616 25.0081C10.2575 25.3177 10.8452 25.5609 11.4517 25.7309C11.8152 25.8323 12.0663 26.1628 12.0663 26.5397V28.2392C12.0663 28.6477 12.3989 28.9795 12.8081 28.9795H14.3989C14.8081 28.9795 15.1407 28.6477 15.1407 28.2392V26.5397C15.1407 26.1635 15.3918 25.833 15.7553 25.7309C16.3618 25.5616 16.9495 25.3184 17.5008 25.0081L17.5015 25.0074ZM31.3171 25.3822C31.3171 22.1074 28.6473 19.4439 25.3662 19.4439C22.0852 19.4439 19.4153 22.1081 19.4153 25.3822C19.4153 28.6564 22.0852 31.3206 25.3662 31.3206C28.6473 31.3206 31.3171 28.6564 31.3171 25.3822ZM27.4557 23.1379L26.2077 23.8923V21.1548C26.2077 20.6913 25.8307 20.3151 25.3662 20.3151C24.9017 20.3151 24.5247 20.6913 24.5247 21.1548V25.3829C24.5247 25.6859 24.6883 25.966 24.9529 26.1145C25.0815 26.1863 25.2235 26.2226 25.3662 26.2226C25.517 26.2226 25.6685 26.1823 25.8024 26.101L28.3275 24.5748C28.7253 24.3343 28.8519 23.8184 28.6116 23.4214C28.3706 23.025 27.8536 22.8981 27.4557 23.1379Z" fill="url(#paint0_linear_13_2131)" stroke="url(#paint1_linear_13_2131)" stroke-width="0.5"/>
<defs>
<linearGradient id="paint0_linear_13_2131" x1="3.72368" y1="23.6382" x2="27.7232" y2="8.31933" gradientUnits="userSpaceOnUse">
<stop stop-color="#E7D2F6"/>
<stop offset="1" stop-color="#FF734A"/>
</linearGradient>
<linearGradient id="paint1_linear_13_2131" x1="3.72368" y1="23.6382" x2="27.7232" y2="8.31933" gradientUnits="userSpaceOnUse">
<stop stop-color="#E7D2F6"/>
<stop offset="1" stop-color="#FF734A"/>
</linearGradient>
</defs>
</svg>
