<svg width="100" height="78" viewBox="0 0 100 78" fill="none" xmlns="http://www.w3.org/2000/svg">
<path d="M77 55.5C77.5523 55.5 78 55.0523 78 54.5C78 53.9477 77.5523 53.5 77 53.5C76.4477 53.5 76 53.9477 76 54.5C76 55.0523 76.4477 55.5 77 55.5Z" fill="url(#paint0_linear_13_464)"/>
<path d="M85 71.5C85.5523 71.5 86 71.0523 86 70.5C86 69.9477 85.5523 69.5 85 69.5C84.4477 69.5 84 69.9477 84 70.5C84 71.0523 84.4477 71.5 85 71.5Z" fill="url(#paint1_linear_13_464)"/>
<path d="M77 71.5C77.5523 71.5 78 71.0523 78 70.5C78 69.9477 77.5523 69.5 77 69.5C76.4477 69.5 76 69.9477 76 70.5C76 71.0523 76.4477 71.5 77 71.5Z" fill="url(#paint2_linear_13_464)"/>
<path d="M81 71.5C81.5523 71.5 82 71.0523 82 70.5C82 69.9477 81.5523 69.5 81 69.5C80.4477 69.5 80 69.9477 80 70.5C80 71.0523 80.4477 71.5 81 71.5Z" fill="url(#paint3_linear_13_464)"/>
<path d="M85 63.5C85.5523 63.5 86 63.0523 86 62.5C86 61.9477 85.5523 61.5 85 61.5C84.4477 61.5 84 61.9477 84 62.5C84 63.0523 84.4477 63.5 85 63.5Z" fill="url(#paint4_linear_13_464)"/>
<path d="M81 63.5C81.5523 63.5 82 63.0523 82 62.5C82 61.9477 81.5523 61.5 81 61.5C80.4477 61.5 80 61.9477 80 62.5C80 63.0523 80.4477 63.5 81 63.5Z" fill="url(#paint5_linear_13_464)"/>
<path d="M81 30.5H80C80 22.5435 76.8393 14.9129 71.2132 9.2868C65.5871 3.66071 57.9565 0.5 50 0.5C42.0435 0.5 34.4129 3.66071 28.7868 9.2868C23.1607 14.9129 20 22.5435 20 30.5H19C13.9609 30.5 9.12816 32.5018 5.56497 36.065C2.00178 39.6282 0 44.4609 0 49.5C0 54.5391 2.00178 59.3718 5.56497 62.935C9.12816 66.4982 13.9609 68.5 19 68.5H58.1C58.2191 67.7958 58.4629 67.1185 58.82 66.5H19C14.4913 66.5 10.1673 64.7089 6.97919 61.5208C3.79107 58.3327 2 54.0087 2 49.5C2 44.9913 3.79107 40.6673 6.97919 37.4792C10.1673 34.2911 14.4913 32.5 19 32.5H22V30.5C22 23.0739 24.95 15.952 30.201 10.701C35.452 5.44999 42.5739 2.5 50 2.5C57.4261 2.5 64.548 5.44999 69.799 10.701C75.05 15.952 78 23.0739 78 30.5V32.5H81C84.4655 32.5075 87.8459 33.574 90.6883 35.5565C93.5307 37.539 95.6994 40.3428 96.9037 43.5923C98.1079 46.8418 98.2904 50.3818 97.4265 53.7379C96.5625 57.0939 94.6936 60.1058 92.07 62.37L92.13 63.24H92V63.5C91.9984 64.0586 91.9176 64.6141 91.76 65.15C94.2995 63.4051 96.3765 61.0687 97.812 58.3423C99.2476 55.6158 99.9984 52.5812 100 49.5C100 44.4609 97.9982 39.6282 94.435 36.065C90.8718 32.5018 86.0391 30.5 81 30.5Z" fill="url(#paint6_linear_13_464)"/>
<path d="M59.9999 71.5C60.0109 72.4585 60.3658 73.3811 60.9999 74.1L62.4199 72.68C62.1571 72.3418 62.0099 71.9282 61.9999 71.5V69.5C61.9999 68.9696 62.2106 68.4609 62.5857 68.0858C62.9607 67.7107 63.4694 67.5 63.9999 67.5H67.5899L69.5899 65.5H63.9999C63.4694 65.5 62.9607 65.2893 62.5857 64.9142C62.2106 64.5391 61.9999 64.0304 61.9999 63.5V61.5C61.9999 60.9696 62.2106 60.4609 62.5857 60.0858C62.9607 59.7107 63.4694 59.5 63.9999 59.5H75.5899L77.5899 57.5H63.9999C63.4694 57.5 62.9607 57.2893 62.5857 56.9142C62.2106 56.5391 61.9999 56.0304 61.9999 55.5V53.5C61.9999 52.9696 62.2106 52.4609 62.5857 52.0858C62.9607 51.7107 63.4694 51.5 63.9999 51.5H83.5899L85.5899 49.5H63.9999C62.939 49.5 61.9216 49.9214 61.1714 50.6716C60.4213 51.4217 59.9999 52.4391 59.9999 53.5V55.5C60.0031 56.0695 60.1279 56.6317 60.3659 57.1491C60.6038 57.6664 60.9496 58.127 61.3799 58.5C61.2441 58.614 61.1202 58.7413 61.0099 58.88C60.8829 59.0084 60.769 59.1491 60.6699 59.3C60.2816 59.8774 60.0507 60.5461 59.9999 61.24C59.9948 61.2832 59.9948 61.3268 59.9999 61.37C59.9949 61.4132 59.9949 61.4568 59.9999 61.5V63.5C60.0031 64.0695 60.1279 64.6317 60.3659 65.1491C60.6038 65.6664 60.9496 66.127 61.3799 66.5C60.9496 66.873 60.6038 67.3336 60.3659 67.8509C60.1279 68.3683 60.0031 68.9305 59.9999 69.5V71.5Z" fill="url(#paint7_linear_13_464)"/>
<path d="M87.8802 52.8601C87.9549 53.0655 87.9955 53.2817 88.0002 53.5001V55.5001C88.0002 56.0305 87.7895 56.5393 87.4145 56.9143C87.0394 57.2894 86.5307 57.5001 86.0002 57.5001H83.2402L81.2402 59.5001H86.0002C86.5307 59.5001 87.0394 59.7108 87.4145 60.0859C87.7895 60.461 88.0002 60.9697 88.0002 61.5001V63.5001C88.0002 64.0305 87.7895 64.5393 87.4145 64.9143C87.0394 65.2894 86.5307 65.5001 86.0002 65.5001H75.2402L73.2402 67.5001H86.0002C86.5307 67.5001 87.0394 67.7108 87.4145 68.0859C87.7895 68.461 88.0002 68.9697 88.0002 69.5001V71.5001C88.0002 72.0305 87.7895 72.5393 87.4145 72.9143C87.0394 73.2894 86.5307 73.5001 86.0002 73.5001H67.2402L65.2402 75.5001H86.0002C87.0611 75.5001 88.0785 75.0787 88.8287 74.3285C89.5788 73.5784 90.0002 72.561 90.0002 71.5001V69.5001C89.997 68.9306 89.8722 68.3684 89.6343 67.8511C89.3963 67.3337 89.0506 66.8731 88.6202 66.5001C89.0506 66.1271 89.3963 65.6665 89.6343 65.1492C89.8722 64.6318 89.997 64.0696 90.0002 63.5001V61.5001C90.0052 61.4569 90.0052 61.4133 90.0002 61.3701C90.0002 61.3701 90.0002 61.2901 90.0002 61.2501C89.9524 60.5571 89.725 59.8885 89.3402 59.3101C89.2402 59.1601 89.1302 59.0201 89.0202 58.8801C88.9099 58.7414 88.786 58.6141 88.6502 58.5001C89.0806 58.1271 89.4263 57.6665 89.6643 57.1492C89.9022 56.6318 90.027 56.0696 90.0302 55.5001V53.5001C90.0255 52.7449 89.8071 52.0064 89.4002 51.3701L87.8802 52.8601Z" fill="url(#paint8_linear_13_464)"/>
<path d="M77.9401 62.8L77.3101 63.43C77.4566 63.3809 77.5898 63.2984 77.6991 63.1891C77.8084 63.0798 77.8909 62.9466 77.9401 62.8Z" fill="url(#paint9_linear_13_464)"/>
<path d="M85.9401 54.8L85.3101 55.43C85.4566 55.3809 85.5898 55.2984 85.6991 55.1891C85.8084 55.0798 85.8909 54.9466 85.9401 54.8Z" fill="url(#paint10_linear_13_464)"/>
<path d="M80 54.5C80.0055 54.6616 80.0501 54.8194 80.13 54.96L81.46 53.63C81.3194 53.5501 81.1616 53.5055 81 53.5C80.7348 53.5 80.4804 53.6054 80.2929 53.7929C80.1054 53.9804 80 54.2348 80 54.5Z" fill="url(#paint11_linear_13_464)"/>
<path d="M89 47.5L59 77.5H61.83L91.83 47.5H89Z" fill="url(#paint12_linear_13_464)"/>
<defs>
<linearGradient id="paint0_linear_13_464" x1="76.1702" y1="54.9149" x2="77.6702" y2="53.9575" gradientUnits="userSpaceOnUse">
<stop stop-color="#E7D2F6"/>
<stop offset="1" stop-color="#FF734A"/>
</linearGradient>
<linearGradient id="paint1_linear_13_464" x1="84.1702" y1="70.9149" x2="85.6702" y2="69.9575" gradientUnits="userSpaceOnUse">
<stop stop-color="#E7D2F6"/>
<stop offset="1" stop-color="#FF734A"/>
</linearGradient>
<linearGradient id="paint2_linear_13_464" x1="76.1702" y1="70.9149" x2="77.6702" y2="69.9575" gradientUnits="userSpaceOnUse">
<stop stop-color="#E7D2F6"/>
<stop offset="1" stop-color="#FF734A"/>
</linearGradient>
<linearGradient id="paint3_linear_13_464" x1="80.1702" y1="70.9149" x2="81.6702" y2="69.9575" gradientUnits="userSpaceOnUse">
<stop stop-color="#E7D2F6"/>
<stop offset="1" stop-color="#FF734A"/>
</linearGradient>
<linearGradient id="paint4_linear_13_464" x1="84.1702" y1="62.9149" x2="85.6702" y2="61.9575" gradientUnits="userSpaceOnUse">
<stop stop-color="#E7D2F6"/>
<stop offset="1" stop-color="#FF734A"/>
</linearGradient>
<linearGradient id="paint5_linear_13_464" x1="80.1702" y1="62.9149" x2="81.6702" y2="61.9575" gradientUnits="userSpaceOnUse">
<stop stop-color="#E7D2F6"/>
<stop offset="1" stop-color="#FF734A"/>
</linearGradient>
<linearGradient id="paint6_linear_13_464" x1="8.5115" y1="48.6061" x2="64.6245" y2="-4.06569" gradientUnits="userSpaceOnUse">
<stop stop-color="#E7D2F6"/>
<stop offset="1" stop-color="#FF734A"/>
</linearGradient>
<linearGradient id="paint7_linear_13_464" x1="62.1745" y1="66.9031" x2="80.9221" y2="54.4531" gradientUnits="userSpaceOnUse">
<stop stop-color="#E7D2F6"/>
<stop offset="1" stop-color="#FF734A"/>
</linearGradient>
<linearGradient id="paint8_linear_13_464" x1="67.3502" y1="68.4407" x2="85.6486" y2="56.4414" gradientUnits="userSpaceOnUse">
<stop stop-color="#E7D2F6"/>
<stop offset="1" stop-color="#FF734A"/>
</linearGradient>
<linearGradient id="paint9_linear_13_464" x1="77.3637" y1="63.2457" x2="77.8362" y2="62.9441" gradientUnits="userSpaceOnUse">
<stop stop-color="#E7D2F6"/>
<stop offset="1" stop-color="#FF734A"/>
</linearGradient>
<linearGradient id="paint10_linear_13_464" x1="85.3637" y1="55.2457" x2="85.8362" y2="54.9441" gradientUnits="userSpaceOnUse">
<stop stop-color="#E7D2F6"/>
<stop offset="1" stop-color="#FF734A"/>
</linearGradient>
<linearGradient id="paint11_linear_13_464" x1="80.1243" y1="54.5329" x2="81.2192" y2="53.8339" gradientUnits="userSpaceOnUse">
<stop stop-color="#E7D2F6"/>
<stop offset="1" stop-color="#FF734A"/>
</linearGradient>
<linearGradient id="paint12_linear_13_464" x1="61.7943" y1="68.7233" x2="85.0843" y2="52.455" gradientUnits="userSpaceOnUse">
<stop stop-color="#E7D2F6"/>
<stop offset="1" stop-color="#FF734A"/>
</linearGradient>
</defs>
</svg>
