<svg width="32" height="32" viewBox="0 0 32 32" fill="none" xmlns="http://www.w3.org/2000/svg">
<path d="M3.99902 14.667C4.73526 14.6665 5.33229 15.2628 5.33301 15.999C5.33498 18.0571 5.93302 20.0716 7.05371 21.7979C8.17439 23.5238 9.77049 24.8892 11.6494 25.7285C13.5286 26.5678 15.611 26.8456 17.6445 26.5283C19.6781 26.2109 21.5772 25.3115 23.1113 23.9395L24.5254 22.667H20C19.2639 22.667 18.6674 22.07 18.667 21.334C18.667 20.5976 19.2636 20 20 20H28C28.7364 20 29.333 20.5976 29.333 21.334V29.334C29.3326 30.07 28.7361 30.667 28 30.667C27.2639 30.667 26.6674 30.07 26.667 29.334V24.3262L24.8916 25.9248L24.8887 25.9277C22.9711 27.6427 20.5975 28.7664 18.0557 29.1631C15.5138 29.5597 12.9115 29.2122 10.5625 28.1631C8.2135 27.1139 6.21736 25.4078 4.81641 23.25C3.4156 21.0923 2.66951 18.5745 2.66699 16.002C2.66632 15.2656 3.26265 14.6677 3.99902 14.667ZM16.9131 11.3018C17.2501 10.7527 17.9446 10.514 18.5586 10.7686C19.1721 11.0232 19.4927 11.6825 19.3428 12.3086C19.4042 12.363 19.4652 12.4184 19.5234 12.4766C19.5815 12.5346 19.6371 12.5949 19.6914 12.6562C20.3174 12.5065 20.9769 12.8279 21.2314 13.4414C21.4859 14.0554 21.2465 14.749 20.6973 15.0859C20.7023 15.1681 20.7061 15.2505 20.7061 15.333C20.706 15.4152 20.7023 15.4973 20.6973 15.5791C21.2467 15.9159 21.486 16.6104 21.2314 17.2246C20.977 17.8383 20.3176 18.1587 19.6914 18.0088C19.6369 18.0704 19.5808 18.1311 19.5225 18.1895C19.4642 18.2477 19.4033 18.303 19.3418 18.3574C19.4923 18.9844 19.1703 19.6443 18.5557 19.8984C17.9413 20.1524 17.2474 19.913 16.9111 19.3633C16.8296 19.3682 16.7479 19.3721 16.666 19.3721C16.5835 19.3721 16.5011 19.3683 16.4189 19.3633C16.082 19.9125 15.3885 20.1521 14.7744 19.8975C14.161 19.6429 13.8395 18.9834 13.9893 18.3574C13.9279 18.3031 13.8676 18.2475 13.8096 18.1895C13.7514 18.1313 13.696 18.0703 13.6416 18.0088C13.0155 18.1588 12.3562 17.8383 12.1016 17.2246C11.8469 16.6106 12.0856 15.9161 12.6348 15.5791C12.6298 15.4973 12.626 15.4152 12.626 15.333C12.626 15.2503 12.6297 15.1673 12.6348 15.085C12.0862 14.7479 11.8472 14.0551 12.1016 13.4414C12.3559 12.8279 13.0147 12.5068 13.6406 12.6562C13.695 12.5947 13.7513 12.5348 13.8096 12.4766C13.8675 12.4186 13.928 12.3628 13.9893 12.3086C13.8394 11.6826 14.1609 11.0232 14.7744 10.7686C15.3883 10.5139 16.0818 10.7529 16.4189 11.3018C16.5013 11.2967 16.5843 11.293 16.667 11.293C16.7492 11.293 16.8312 11.2967 16.9131 11.3018ZM4 1.33301C4.73638 1.33301 5.33301 1.93061 5.33301 2.66699V7.67383L7.1084 6.07617L7.11133 6.07324C9.02899 4.35806 11.4023 3.23465 13.9443 2.83789C16.4862 2.44124 19.0885 2.78777 21.4375 3.83691C23.7866 4.88622 25.7827 6.59304 27.1836 8.75098C28.5844 10.9088 29.3306 13.4264 29.333 15.999C29.3334 16.7352 28.7372 17.3333 28.001 17.334C27.265 17.3345 26.6681 16.7378 26.667 16.002C26.6651 13.9438 26.0669 11.9294 24.9463 10.2031C23.8256 8.477 22.2296 7.1119 20.3506 6.27246C18.4713 5.43306 16.3891 5.15532 14.3555 5.47266C12.3218 5.79007 10.4228 6.68837 8.88867 8.06055L7.47363 9.33398H12C12.7364 9.33398 13.333 9.93061 13.333 10.667C13.3327 11.4031 12.7362 12 12 12H4C3.26378 12 2.66726 11.4031 2.66699 10.667V2.66699C2.66699 1.93061 3.26362 1.33301 4 1.33301ZM16.666 13.96C16.4858 13.96 16.3071 13.9955 16.1406 14.0645C15.9741 14.1335 15.8228 14.2349 15.6953 14.3623C15.5678 14.4898 15.4665 14.6411 15.3975 14.8076C15.3285 14.9741 15.293 15.1528 15.293 15.333C15.293 15.5132 15.3285 15.6919 15.3975 15.8584C15.4664 16.0249 15.5679 16.1763 15.6953 16.3037C15.8226 16.431 15.974 16.5325 16.1406 16.6016C16.307 16.6705 16.4856 16.706 16.666 16.7061C16.8462 16.7061 17.0249 16.6704 17.1914 16.6016C17.358 16.5326 17.5102 16.4312 17.6377 16.3037C17.7652 16.1762 17.8666 16.0249 17.9355 15.8584C18.0045 15.6919 18.04 15.5132 18.04 15.333C18.0401 15.1528 18.0045 14.9741 17.9355 14.8076C17.8666 14.6411 17.7651 14.4898 17.6377 14.3623C17.5103 14.2349 17.3589 14.1335 17.1924 14.0645C17.0258 13.9954 16.8464 13.96 16.666 13.96Z" fill="url(#paint0_linear_13_1019)"/>
<defs>
<linearGradient id="paint0_linear_13_1019" x1="4.93667" y1="22.0854" x2="25.9938" y2="9.86671" gradientUnits="userSpaceOnUse">
<stop stop-color="#E7D2F6"/>
<stop offset="1" stop-color="#FF734A"/>
</linearGradient>
</defs>
</svg>
