<svg width="32" height="32" viewBox="0 0 32 32" fill="none" xmlns="http://www.w3.org/2000/svg">
<path d="M11.0667 13.3333C10.8948 13.3427 10.7237 13.3044 10.5722 13.2226C10.4208 13.1407 10.2949 13.0186 10.2085 12.8697C10.1221 12.7209 10.0786 12.551 10.0827 12.3789C10.0869 12.2068 10.1385 12.0392 10.232 11.8947L15.2 3.99999C15.2781 3.85941 15.3911 3.74139 15.5282 3.65736C15.6653 3.57333 15.8218 3.52614 15.9825 3.52038C16.1432 3.51461 16.3026 3.55045 16.4454 3.62444C16.5882 3.69842 16.7094 3.80804 16.7973 3.94265L21.7333 11.8667C21.8306 12.0064 21.8878 12.17 21.8988 12.34C21.9097 12.5099 21.874 12.6795 21.7955 12.8306C21.7169 12.9816 21.5985 13.1083 21.4532 13.197C21.3078 13.2856 21.1409 13.3327 20.9707 13.3333H11.0667Z" stroke="url(#paint0_linear_13_404)" stroke-width="2.33" stroke-linecap="round" stroke-linejoin="round"/>
<path d="M12 18.6667H5.33333C4.59695 18.6667 4 19.2636 4 20V26.6667C4 27.403 4.59695 28 5.33333 28H12C12.7364 28 13.3333 27.403 13.3333 26.6667V20C13.3333 19.2636 12.7364 18.6667 12 18.6667Z" stroke="url(#paint1_linear_13_404)" stroke-width="2.33" stroke-linecap="round" stroke-linejoin="round"/>
<path d="M23.3333 28C25.9107 28 28 25.9106 28 23.3333C28 20.756 25.9107 18.6667 23.3333 18.6667C20.756 18.6667 18.6667 20.756 18.6667 23.3333C18.6667 25.9106 20.756 28 23.3333 28Z" stroke="url(#paint2_linear_13_404)" stroke-width="2.33" stroke-linecap="round" stroke-linejoin="round"/>
<defs>
<linearGradient id="paint0_linear_13_404" x1="6.04276" y1="20.8381" x2="24.2471" y2="9.44626" gradientUnits="userSpaceOnUse">
<stop stop-color="#E7D2F6"/>
<stop offset="1" stop-color="#FF734A"/>
</linearGradient>
<linearGradient id="paint1_linear_13_404" x1="6.04276" y1="20.8381" x2="24.2471" y2="9.44626" gradientUnits="userSpaceOnUse">
<stop stop-color="#E7D2F6"/>
<stop offset="1" stop-color="#FF734A"/>
</linearGradient>
<linearGradient id="paint2_linear_13_404" x1="6.04276" y1="20.8381" x2="24.2471" y2="9.44626" gradientUnits="userSpaceOnUse">
<stop stop-color="#E7D2F6"/>
<stop offset="1" stop-color="#FF734A"/>
</linearGradient>
</defs>
</svg>
