<svg width="19" height="19" viewBox="0 0 19 19" fill="none" xmlns="http://www.w3.org/2000/svg">
<g clip-path="url(#clip0_1688_5194)">
<path d="M17.958 6.80563L12.6472 6.03388L10.275 1.22488C10.206 1.10777 10.1077 1.0107 9.9897 0.943252C9.87171 0.875808 9.73815 0.840332 9.60225 0.840332C9.46634 0.840332 9.33279 0.875808 9.2148 0.943252C9.09681 1.0107 8.99847 1.10777 8.9295 1.22488L6.55275 6.03388L1.242 6.80563C1.1035 6.82562 0.973363 6.88396 0.86629 6.97404C0.759217 7.06413 0.679482 7.18238 0.636099 7.31541C0.592717 7.44845 0.587417 7.59097 0.620798 7.72686C0.65418 7.86274 0.724912 7.98659 0.824998 8.08438L4.66875 11.8299L3.762 17.1196C3.73837 17.2576 3.75379 17.3993 3.80653 17.529C3.85927 17.6586 3.94723 17.7709 4.06044 17.8531C4.17366 17.9353 4.30763 17.9843 4.44721 17.9943C4.58678 18.0044 4.72639 17.9752 4.85025 17.9101L9.6 15.4134L14.3497 17.9101C14.4736 17.9752 14.6132 18.0044 14.7528 17.9943C14.8924 17.9843 15.0263 17.9353 15.1395 17.8531C15.2528 17.7709 15.3407 17.6586 15.3935 17.529C15.4462 17.3993 15.4616 17.2576 15.438 17.1196L14.5312 11.8299L18.375 8.08438C18.4751 7.98668 18.5458 7.86296 18.5793 7.72718C18.6127 7.5914 18.6075 7.44897 18.5643 7.31598C18.5211 7.18298 18.4416 7.06472 18.3347 6.97453C18.2278 6.88435 18.0979 6.82585 17.9595 6.80563H17.958Z" fill="#FF734A"/>
</g>
<defs>
<clipPath id="clip0_1688_5194">
<rect width="18" height="18" fill="white" transform="translate(0.599998 0.399902)"/>
</clipPath>
</defs>
</svg>
