<svg width="40" height="40" viewBox="0 0 40 40" fill="none" xmlns="http://www.w3.org/2000/svg">
<path d="M8.33203 20.8333L14.9987 1.66667C14.9987 1.66667 19.1654 1.66667 19.1654 6.66667V15.8333H34.1654C34.8016 15.8299 35.4255 16.0096 35.9624 16.351C36.4994 16.6924 36.9267 17.1811 37.1936 17.7587C37.4604 18.3363 37.5553 18.9785 37.4672 19.6087C37.379 20.2388 37.1113 20.8303 36.6962 21.3125C37.2429 21.633 37.6861 22.1037 37.9732 22.6687C38.2603 23.2336 38.3793 23.8691 38.3159 24.4996C38.2526 25.1302 38.0096 25.7293 37.6158 26.2258C37.2221 26.7224 36.6941 27.0955 36.0945 27.3008C36.3904 27.7378 36.5779 28.2389 36.6414 28.7628C36.7049 29.2866 36.6427 29.8181 36.4598 30.3131C36.2769 30.8081 35.9786 31.2523 35.5898 31.609C35.2009 31.9657 34.7326 32.2246 34.2237 32.3642C34.5853 32.7083 34.8354 33.1529 34.9417 33.6407C35.0479 34.1284 35.0054 34.6368 34.8196 35.1002C34.6339 35.5635 34.3134 35.9604 33.8996 36.2397C33.4859 36.519 32.9979 36.6677 32.4987 36.6667H19.1654C15.4025 36.7476 11.6789 35.8883 8.33203 34.1667" stroke="#FF734A" stroke-width="2" stroke-miterlimit="10"/>
<path d="M6.66602 17.5H3.33268C2.41221 17.5 1.66602 18.2462 1.66602 19.1667V34.1667C1.66602 35.0871 2.41221 35.8333 3.33268 35.8333H6.66602C7.58649 35.8333 8.33268 35.0871 8.33268 34.1667V19.1667C8.33268 18.2462 7.58649 17.5 6.66602 17.5Z" stroke="#E7D2F6" stroke-width="2" stroke-miterlimit="10" stroke-linecap="square"/>
</svg>
