<svg width="32" height="32" viewBox="0 0 32 32" fill="none" xmlns="http://www.w3.org/2000/svg">
<path d="M15.667 0.399902C19.1644 0.400078 22.0006 3.23551 22.001 6.73291C22.001 9.89029 19.6895 12.5081 16.667 12.9878V16.895L21.2627 20.2866C22.3102 19.5197 23.6023 19.067 25 19.0669C28.4977 19.0669 31.3338 21.9022 31.334 25.3999C31.334 28.8977 28.4978 31.7339 25 31.7339C21.5023 31.7337 18.667 28.8976 18.667 25.3999C18.6671 24.0296 19.103 22.7614 19.8428 21.7251L15.667 18.6431L11.4902 21.7251C12.2304 22.7615 12.6669 24.0294 12.667 25.3999C12.667 28.8977 9.83081 31.7339 6.33301 31.7339C2.8355 31.7335 3.22102e-07 28.8975 0 25.3999C0.000175996 21.9025 2.83561 19.0672 6.33301 19.0669C7.73081 19.0669 9.02261 19.5206 10.0703 20.2876L14.667 16.895V12.9878C11.6444 12.5082 9.33398 9.8904 9.33398 6.73291C9.33434 3.23551 12.1696 0.400078 15.667 0.399902ZM6.33301 21.0669C3.94018 21.0672 2.00018 23.007 2 25.3999C2 27.7929 3.94007 29.7335 6.33301 29.7339C8.72624 29.7339 10.667 27.7931 10.667 25.3999C10.6668 23.0068 8.72613 21.0669 6.33301 21.0669ZM25 21.0669C22.607 21.0671 20.6672 23.0069 20.667 25.3999C20.667 27.793 22.6069 29.7337 25 29.7339C27.3932 29.7339 29.334 27.7931 29.334 25.3999C29.3338 23.0068 27.3931 21.0669 25 21.0669ZM15.667 2.3999C13.2741 2.40008 11.3343 4.34008 11.334 6.73291C11.334 9.12604 13.2739 11.0667 15.667 11.0669C18.0601 11.0667 20.001 9.12604 20.001 6.73291C20.0006 4.34008 18.0599 2.40008 15.667 2.3999Z" fill="url(#paint0_linear_1688_4993)"/>
<defs>
<linearGradient id="paint0_linear_1688_4993" x1="2.66699" y1="22.5669" x2="26.167" y2="7.5669" gradientUnits="userSpaceOnUse">
<stop stop-color="#E7D2F6"/>
<stop offset="1" stop-color="#FF734A"/>
</linearGradient>
</defs>
</svg>
