<svg width="32" height="32" viewBox="0 0 32 32" fill="none" xmlns="http://www.w3.org/2000/svg">
<path d="M11.5156 23.3192C13.9558 20.2724 18.6501 20.1976 21.1143 23.2743C22.4929 24.9951 25.0431 25.1825 26.6592 23.6825L29.2109 21.3143C29.6825 20.8766 30.4197 20.9034 30.8574 21.3749C31.295 21.8464 31.2673 22.5836 30.7959 23.0214L28.2441 25.3905C25.6359 27.8115 21.5197 27.508 19.2949 24.7303C17.7873 22.8484 14.8654 22.8632 13.334 24.7753C11.1439 27.5091 7.07669 27.941 4.40137 25.6346L1.4043 23.0507C0.917189 22.6307 0.862678 21.8944 1.28223 21.4071C1.70229 20.9199 2.43847 20.8651 2.92578 21.285L5.92285 23.87C7.57633 25.2954 10.1323 25.0456 11.5156 23.3192ZM11.5059 14.7841C14.057 11.9526 18.5518 11.8907 21.124 14.745C22.5669 16.3463 25.0012 16.5647 26.7061 15.246L29.29 13.246C29.7989 12.8523 30.5311 12.9461 30.9248 13.455C31.3183 13.9638 31.2246 14.6961 30.7158 15.0897L28.1318 17.0887C25.4628 19.1534 21.6526 18.8122 19.3936 16.3055C17.7677 14.5011 14.8841 14.5162 13.2373 16.3436C11.0155 18.8091 7.25427 19.2584 4.54004 17.3085L1.48535 15.1141C0.962999 14.7389 0.843822 14.0107 1.21875 13.4882C1.59413 12.9657 2.3222 12.8462 2.84473 13.2216L5.89941 15.4169C7.63051 16.6604 10.0634 16.3845 11.5059 14.7841ZM11.5156 6.31921C13.9558 3.27238 18.6501 3.19755 21.1143 6.27429C22.4929 7.9951 25.0431 8.18251 26.6592 6.6825L29.2109 4.31433C29.6825 3.87662 30.4197 3.90338 30.8574 4.37488C31.295 4.84636 31.2673 5.58362 30.7959 6.02136L28.2441 8.3905C25.6359 10.8115 21.5197 10.508 19.2949 7.73035C17.7873 5.84839 14.8654 5.86317 13.334 7.77527C11.1439 10.5091 7.07669 10.941 4.40137 8.63464L1.4043 6.05066C0.917189 5.63071 0.862678 4.89442 1.28223 4.4071C1.70229 3.91986 2.43847 3.8651 2.92578 4.28503L5.92285 6.87C7.57633 8.29543 10.1323 8.04562 11.5156 6.31921Z" fill="url(#paint0_linear_13_986)"/>
<defs>
<linearGradient id="paint0_linear_13_986" x1="3.56779" y1="20.3601" x2="22.3732" y2="4.70125" gradientUnits="userSpaceOnUse">
<stop stop-color="#E7D2F6"/>
<stop offset="1" stop-color="#FF734A"/>
</linearGradient>
</defs>
</svg>
