<svg width="24" height="25" viewBox="0 0 24 25" fill="none" xmlns="http://www.w3.org/2000/svg">
<g clip-path="url(#clip0_1_6196)">
<path d="M9.32792 10.4687C8.99458 10.4976 8.68419 10.6504 8.45805 10.897C8.2319 11.1436 8.10645 11.4661 8.10645 11.8007C8.10645 12.1352 8.2319 12.4577 8.45805 12.7043C8.68419 12.9509 8.99458 13.1037 9.32792 13.1327C9.4958 13.1257 9.66066 13.0857 9.81307 13.015C9.96548 12.9443 10.1025 12.8442 10.2161 12.7205C10.3298 12.5968 10.418 12.4518 10.4756 12.294C10.5332 12.1362 10.5592 11.9685 10.5519 11.8007C10.5601 11.6326 10.5348 11.4645 10.4776 11.3063C10.4203 11.1481 10.3322 11.0028 10.2183 10.8788C10.1044 10.7549 9.9671 10.6549 9.81425 10.5845C9.66141 10.514 9.4961 10.4747 9.32792 10.4687ZM13.7079 10.4687C13.4396 10.4459 13.1707 10.5047 12.9364 10.6373C12.702 10.7699 12.5132 10.9702 12.3946 11.212C12.276 11.4537 12.2332 11.7256 12.2717 11.9921C12.3102 12.2586 12.4283 12.5073 12.6105 12.7055C12.7926 12.9038 13.0305 13.0424 13.2927 13.1033C13.555 13.1641 13.8296 13.1444 14.0805 13.0466C14.3314 12.9488 14.5469 12.7775 14.6988 12.5552C14.8507 12.3329 14.932 12.0699 14.9319 11.8007C14.9392 11.6328 14.9132 11.4651 14.8556 11.3073C14.798 11.1495 14.7098 11.0046 14.5961 10.8808C14.4825 10.7571 14.3455 10.657 14.1931 10.5863C14.0407 10.5156 13.8758 10.4756 13.7079 10.4687Z" fill="currentColor"/>
<path d="M19.54 0.400391H3.46001C3.13617 0.401178 2.81565 0.465742 2.51677 0.590398C2.21788 0.715054 1.94647 0.897359 1.71804 1.12691C1.4896 1.35645 1.30862 1.62874 1.18542 1.92824C1.06222 2.22773 0.999218 2.54855 1.00001 2.87239V19.1004C0.999218 19.4242 1.06222 19.7451 1.18542 20.0445C1.30862 20.344 1.4896 20.6163 1.71804 20.8459C1.94647 21.0754 2.21788 21.2577 2.51677 21.3824C2.81565 21.507 3.13617 21.5716 3.46001 21.5724H17.068L16.432 19.3524L17.968 20.7804L19.42 22.1204L22 24.4004V2.87239C22.0008 2.54855 21.9378 2.22773 21.8146 1.92824C21.6914 1.62874 21.5104 1.35645 21.282 1.12691C21.0535 0.897359 20.7821 0.715054 20.4832 0.590398C20.1844 0.465742 19.8638 0.401178 19.54 0.400391ZM14.908 16.0724C14.908 16.0724 14.476 15.5564 14.116 15.1004C14.9858 14.8956 15.7552 14.3897 16.288 13.6724C15.8562 13.9597 15.3933 14.1973 14.908 14.3804C14.3498 14.6187 13.7659 14.7918 13.168 14.8964C12.1403 15.0856 11.0863 15.0815 10.06 14.8844C9.45887 14.7663 8.86976 14.5936 8.30001 14.3684C7.81882 14.1846 7.35992 13.9471 6.93201 13.6604C7.44554 14.3628 8.18835 14.8636 9.03201 15.0764C8.67201 15.5324 8.23201 16.0764 8.23201 16.0764C7.51919 16.0956 6.81258 15.9392 6.17437 15.6212C5.53616 15.3031 4.9859 14.8331 4.57201 14.2524C4.61037 11.8183 5.20124 9.42472 6.30001 7.25239C7.26643 6.49337 8.44466 6.05311 9.67201 5.99239L9.79201 6.13639C8.63452 6.4212 7.55416 6.95796 6.62801 7.70839C6.62801 7.70839 6.89201 7.56439 7.33601 7.36039C8.19835 6.96528 9.11767 6.70879 10.06 6.60039C10.1259 6.58671 10.1928 6.57869 10.26 6.57639C11.0641 6.47161 11.8779 6.46356 12.684 6.55239C13.9533 6.69789 15.1817 7.09062 16.3 7.70839C15.4231 6.99459 14.4047 6.47514 13.312 6.18439L13.48 5.99239C14.7074 6.05311 15.8856 6.49337 16.852 7.25239C17.9508 9.42472 18.5416 11.8183 18.58 14.2524C18.1624 14.8318 17.6096 15.3005 16.9697 15.6177C16.3297 15.9348 15.622 16.0909 14.908 16.0724Z" fill="currentColor"/>
</g>
<defs>
<clipPath id="clip0_1_6196">
<rect width="24" height="24" fill="currentColor" transform="translate(0 0.400391)"/>
</clipPath>
</defs>
</svg>
