<svg width="20" height="21" viewBox="0 0 20 21" fill="none" xmlns="http://www.w3.org/2000/svg">
<path d="M19.0002 19.4003V12.8078C19.0002 9.56777 18.3027 7.09277 14.5227 7.09277C12.7002 7.09277 11.4852 8.08277 10.9902 9.02777H10.9452V7.38527H7.36768V19.4003H11.1027V13.4378C11.1027 11.8628 11.3952 10.3553 13.3302 10.3553C15.2427 10.3553 15.2652 12.1328 15.2652 13.5278V19.3778H19.0002V19.4003Z" fill="currentColor"/>
<path d="M1.29248 7.38574H5.02747V19.4007H1.29248V7.38574Z" fill="currentColor"/>
<path d="M3.16 1.40039C1.9675 1.40039 1 2.36789 1 3.56039C1 4.75289 1.9675 5.74288 3.16 5.74288C4.35249 5.74288 5.31999 4.75289 5.31999 3.56039C5.31999 2.36789 4.35249 1.40039 3.16 1.40039Z" fill="currentColor"/>
</svg>
