<svg width="279" height="280" viewBox="0 0 279 280" fill="none" xmlns="http://www.w3.org/2000/svg">
<rect x="-0.479115" y="0.479115" width="138.62" height="138.62" transform="matrix(-1 0 0 1 277.923 140.196)" fill="#1E1B19" stroke="#302A25" stroke-width="0.958231"/>
<circle cx="6.75027" cy="6.75027" r="6.75027" transform="matrix(-1 0 0 1 237.586 203.198)" fill="#FF734A"/>
<circle cx="6.75027" cy="6.75027" r="6.75027" transform="matrix(-1 0 0 1 194.775 203.198)" fill="#E7D2F6"/>
<rect x="-0.479115" y="0.479115" width="138.62" height="138.62" transform="matrix(-1 0 0 1 138.62 0)" fill="#1E1B19"/>
<rect x="-0.479115" y="0.479115" width="138.62" height="138.62" transform="matrix(-1 0 0 1 138.62 0)" fill="url(#paint0_linear_318_595)"/>
<rect x="-0.479115" y="0.479115" width="138.62" height="138.62" transform="matrix(-1 0 0 1 138.62 0)" stroke="#302A25" stroke-width="0.958231"/>
<circle cx="6.75027" cy="6.75027" r="6.75027" transform="matrix(-1 0 0 1 98.2832 63.0029)" fill="#4C443F"/>
<circle cx="6.75027" cy="6.75027" r="6.75027" transform="matrix(-1 0 0 1 55.4727 63.002)" fill="#FF734A"/>
<defs>
<linearGradient id="paint0_linear_318_595" x1="69.621" y1="0" x2="69.621" y2="139.578" gradientUnits="userSpaceOnUse">
<stop stop-color="#2A2624"/>
<stop offset="1" stop-color="#1E1B19"/>
</linearGradient>
</defs>
</svg>
