<svg width="484" height="484" viewBox="0 0 484 484" fill="none" xmlns="http://www.w3.org/2000/svg">
<path d="M349.123 0C364.426 0 376.868 12.44 376.868 27.7168C376.868 43.0174 364.425 55.457 349.123 55.457C342.821 55.457 337.077 53.2715 332.426 49.7373L263.752 117.865C267.426 122.562 269.728 128.422 269.729 134.839C269.729 140.838 267.774 146.372 264.519 150.906L296.17 182.32L327.054 151.441C323.565 146.791 321.403 141.094 321.403 134.839C321.403 119.562 333.845 107.122 349.124 107.122C364.427 107.122 376.868 119.562 376.868 134.839C376.868 150.139 364.426 162.579 349.124 162.579C342.868 162.579 337.17 160.44 332.519 156.929L301.682 187.785L333.355 219.222C337.844 216.106 343.263 214.246 349.123 214.246C355.565 214.246 361.425 216.548 366.123 220.222L434.285 151.534C430.75 146.86 428.564 141.14 428.564 134.839C428.564 119.562 441.006 107.122 456.285 107.122C471.564 107.122 484.006 119.562 484.006 134.839C484.006 150.139 471.564 162.579 456.285 162.579C450.076 162.579 444.401 160.464 439.773 156.999L371.54 225.758C374.866 230.339 376.89 235.92 376.89 241.988C376.89 247.778 375.098 253.15 372.052 257.591L441.029 325.975C445.402 323.091 450.657 321.37 456.285 321.37L456.289 321.375C471.568 321.375 484.01 333.815 483.964 349.092C483.964 364.369 471.521 376.809 456.242 376.809C440.963 376.808 428.521 364.368 428.521 349.092C428.522 342.233 431.126 336.024 435.266 331.188L366.729 263.221C361.916 267.22 355.822 269.708 349.102 269.708C343.102 269.708 337.59 267.754 333.055 264.499L301.637 296.146L332.521 327.025C337.172 323.538 342.869 321.375 349.125 321.375C364.428 321.375 376.87 333.815 376.87 349.115C376.87 364.392 364.427 376.832 349.125 376.832C333.846 376.832 321.404 364.392 321.404 349.115C321.404 342.86 323.544 337.163 327.056 332.513L296.218 301.656L264.776 333.35C267.893 337.837 269.753 343.255 269.753 349.114C269.753 356.02 267.125 362.252 262.939 367.111L331.125 435.335C335.985 431.15 342.242 428.521 349.125 428.521C364.428 428.522 376.869 440.962 376.869 456.238C376.869 471.539 364.427 483.979 349.125 483.979C333.846 483.979 321.404 471.538 321.404 456.238C321.404 450.635 323.102 445.449 325.962 441.078L257.146 372.271C252.773 375.131 247.587 376.829 241.982 376.829C236.215 376.829 230.843 375.062 226.401 372.016L157.959 440.982C160.866 445.377 162.587 450.609 162.587 456.26C162.587 471.56 150.145 484 134.866 484C119.563 484 107.122 471.56 107.122 456.26C107.122 440.983 119.564 428.543 134.866 428.543C141.726 428.543 147.936 431.124 152.773 435.263L220.774 366.76C216.798 361.97 214.286 355.878 214.286 349.158C214.286 343.554 215.984 338.369 218.845 333.997L187.17 302.351L156.961 332.556C160.449 337.206 162.612 342.903 162.612 349.158C162.612 364.435 150.17 376.875 134.892 376.875C119.589 376.875 107.147 364.435 107.146 349.158C107.146 333.858 119.589 321.418 134.892 321.418C141.147 321.418 146.868 323.557 151.496 327.068L181.705 296.84L150.031 265.193C145.659 268.053 140.45 269.751 134.868 269.751C128.124 269.751 122.054 267.263 117.24 263.264L48.7031 331.23C52.8425 336.067 55.4472 342.276 55.4473 349.135C55.4473 364.412 43.0057 376.852 27.7266 376.852C12.4475 376.852 0.00585938 364.412 0.00585938 349.135C0.00604205 333.834 12.4476 321.395 27.7266 321.395C33.3776 321.395 38.6103 323.092 42.9824 325.999L111.96 257.591C108.913 253.126 107.123 247.778 107.123 241.988C107.123 236.385 108.821 231.199 111.728 226.851L42.9111 158.045C38.539 160.905 33.3526 162.602 27.748 162.603C12.4689 162.603 0.0273438 150.161 0.0273438 134.861C0.0275077 119.585 12.469 107.145 27.748 107.145C43.0269 107.145 55.4686 119.585 55.4688 134.861C55.4688 141.767 52.8403 147.999 48.6543 152.858L116.888 221.105C121.748 216.92 127.98 214.293 134.888 214.293C140.725 214.293 146.143 216.13 150.632 219.246L182.33 187.809L151.492 156.952C146.841 160.44 141.143 162.602 134.888 162.603C119.585 162.603 107.143 150.162 107.143 134.862C107.143 119.586 119.585 107.146 134.888 107.146C150.167 107.146 162.608 119.586 162.608 134.862C162.608 141.117 160.469 146.814 156.957 151.465L187.817 182.345L219.469 150.931C216.213 146.373 214.26 140.862 214.26 134.863C214.26 128.445 216.562 122.586 220.236 117.889L151.562 49.7607C146.888 53.2951 141.167 55.4805 134.864 55.4805C119.561 55.4803 107.12 43.0402 107.12 27.7402C107.12 12.4636 119.562 0.0235599 134.864 0.0234375C150.143 0.0234375 162.585 12.4635 162.585 27.7402C162.585 33.9481 160.469 39.6219 157.004 44.249L225.772 112.473C230.354 109.148 235.936 107.124 242.006 107.124C248.099 107.124 253.657 109.148 258.238 112.473L326.984 44.2256C323.519 39.5986 321.402 33.9253 321.402 27.7168C321.402 12.44 333.844 0.000117226 349.123 0ZM349.144 436.253C338.12 436.253 329.144 445.228 329.167 456.25C329.167 467.272 338.12 476.247 349.144 476.247C360.167 476.247 369.144 467.272 369.145 456.25C369.145 445.228 360.167 436.253 349.144 436.253ZM134.865 436.248C123.842 436.248 114.864 445.223 114.864 456.245C114.864 467.267 123.842 476.242 134.865 476.242C145.889 476.242 154.865 467.267 154.842 456.245C154.842 445.223 145.889 436.248 134.865 436.248ZM142 448.375C143.45 448.375 144.625 449.55 144.625 451V465C144.625 466.45 143.45 467.625 142 467.625H128C126.55 467.625 125.375 466.45 125.375 465V451C125.375 449.55 126.55 448.375 128 448.375H142ZM351.996 445.375C352.162 445.375 352.321 445.44 352.438 445.558L357.438 450.558C357.556 450.675 357.621 450.834 357.621 451V464C357.621 464.696 357.345 465.364 356.853 465.856C356.36 466.349 355.692 466.625 354.996 466.625H342.996C342.3 466.625 341.632 466.349 341.14 465.856C340.647 465.364 340.371 464.696 340.371 464V448C340.371 447.304 340.647 446.636 341.14 446.144C341.632 445.651 342.3 445.375 342.996 445.375H351.996ZM128 449.625C127.241 449.625 126.625 450.241 126.625 451V465C126.625 465.759 127.241 466.375 128 466.375H128.74L137.645 457.472L137.837 457.298C138.304 456.915 138.891 456.703 139.5 456.703C140.196 456.703 140.863 456.98 141.355 457.472L143.375 459.49V451C143.375 450.241 142.759 449.625 142 449.625H128ZM139.5 457.953C139.135 457.953 138.786 458.099 138.528 458.356L138.527 458.355L130.51 466.375H142C142.759 466.375 143.375 465.759 143.375 465V461.259L140.472 458.355V458.356C140.214 458.099 139.865 457.953 139.5 457.953ZM342.996 446.625C342.631 446.625 342.281 446.769 342.023 447.027C341.766 447.285 341.621 447.635 341.621 448V464C341.621 464.365 341.766 464.715 342.023 464.973C342.281 465.231 342.631 465.375 342.996 465.375H354.996C355.361 465.375 355.711 465.231 355.969 464.973C356.227 464.715 356.371 464.365 356.371 464V452.625H352.996C352.3 452.625 351.632 452.349 351.14 451.856C350.647 451.364 350.371 450.696 350.371 450V446.625H342.996ZM344.996 460.375C345.341 460.375 345.621 460.655 345.621 461V462C345.621 462.345 345.341 462.625 344.996 462.625C344.651 462.625 344.371 462.345 344.371 462V461C344.371 460.655 344.651 460.375 344.996 460.375ZM348.996 455.375C349.341 455.375 349.621 455.655 349.621 456V462C349.621 462.345 349.341 462.625 348.996 462.625C348.651 462.625 348.371 462.345 348.371 462V456C348.371 455.655 348.651 455.375 348.996 455.375ZM352.996 458.375C353.341 458.375 353.621 458.655 353.621 459V462C353.621 462.345 353.341 462.625 352.996 462.625C352.651 462.625 352.371 462.345 352.371 462V459C352.371 458.655 352.651 458.375 352.996 458.375ZM132 452.375C133.45 452.375 134.625 453.55 134.625 455C134.625 456.45 133.45 457.625 132 457.625C130.55 457.625 129.375 456.45 129.375 455C129.375 453.55 130.55 452.375 132 452.375ZM132 453.625C131.241 453.625 130.625 454.241 130.625 455C130.625 455.759 131.241 456.375 132 456.375C132.759 456.375 133.375 455.759 133.375 455C133.375 454.241 132.759 453.625 132 453.625ZM351.621 450C351.621 450.365 351.766 450.715 352.023 450.973C352.281 451.231 352.631 451.375 352.996 451.375H356.371V451.26L351.736 446.625H351.621V450ZM456.285 329.132C445.285 329.132 436.308 338.107 436.308 349.129C436.308 360.151 445.262 369.127 456.285 369.127C467.309 369.127 476.262 360.151 476.262 349.129C476.262 338.107 467.309 329.132 456.285 329.132ZM241.983 329.127C230.983 329.127 222.007 338.102 222.007 349.124C222.007 360.146 230.983 369.121 241.983 369.121C253.007 369.121 261.983 360.146 261.983 349.124C261.983 338.102 253.007 329.127 241.983 329.127ZM27.7227 329.122C16.7225 329.122 7.74609 338.097 7.74609 349.119C7.74613 360.141 16.6993 369.116 27.7227 369.116C38.7462 369.116 47.7234 360.141 47.7002 349.119C47.7002 338.097 38.7462 329.122 27.7227 329.122ZM134.867 329.114C123.844 329.114 114.866 338.09 114.866 349.112C114.866 360.134 123.844 369.109 134.867 369.109C145.89 369.109 154.867 360.134 154.844 349.112C154.844 338.091 145.891 329.115 134.867 329.114ZM349.146 329.114C338.122 329.114 329.146 338.091 329.169 349.112C329.169 360.134 338.122 369.109 349.146 369.109C360.169 369.109 369.146 360.134 369.146 349.112C369.146 338.09 360.169 329.114 349.146 329.114ZM21.9932 348.394C22.403 348.396 22.806 348.494 23.1699 348.679L23.3242 348.763L23.3262 348.765L26.3555 350.584C26.7566 350.825 27.0857 351.168 27.3096 351.579C27.5054 351.938 27.615 352.338 27.6289 352.745V356.131C27.6354 356.598 27.5169 357.059 27.2861 357.465C27.0578 357.867 26.7269 358.199 26.3281 358.433L26.3291 358.434L23.3594 360.244L23.3486 360.25C22.9864 360.461 22.5793 360.58 22.1621 360.602C22.1114 360.615 22.0588 360.625 22.0039 360.625C21.9451 360.625 21.8889 360.614 21.835 360.599C21.4294 360.569 21.0354 360.446 20.6846 360.237L20.6826 360.235L17.6523 358.416C17.2512 358.175 16.9221 357.832 16.6982 357.421C16.5024 357.062 16.393 356.662 16.3789 356.255V352.86C16.3739 352.396 16.4923 351.939 16.7217 351.535C16.9524 351.129 17.287 350.792 17.6914 350.559L20.6484 348.756L20.6592 348.75C21.064 348.514 21.5247 348.391 21.9932 348.394ZM30.0039 339.375C30.1696 339.375 30.3291 339.44 30.4463 339.558L35.4463 344.558C35.5635 344.675 35.6289 344.834 35.6289 345V358C35.6289 358.696 35.3526 359.364 34.8604 359.856C34.3681 360.349 33.7001 360.625 33.0039 360.625H29.5039C29.1588 360.625 28.8789 360.345 28.8789 360C28.8789 359.655 29.1588 359.375 29.5039 359.375H33.0039C33.3686 359.375 33.7187 359.23 33.9766 358.973C34.2344 358.715 34.3789 358.365 34.3789 358V346.625H31.0039C30.3077 346.625 29.6397 346.349 29.1475 345.856C28.6552 345.364 28.3789 344.696 28.3789 344V340.625H21.0039C20.6393 340.625 20.2891 340.77 20.0312 341.027C19.7734 341.285 19.6289 341.635 19.6289 342V346C19.6289 346.345 19.3491 346.625 19.0039 346.625C18.6588 346.625 18.3789 346.345 18.3789 346V342C18.3789 341.304 18.6552 340.636 19.1475 340.144C19.6397 339.651 20.3077 339.375 21.0039 339.375H30.0039ZM22.6289 355.355V359.214C22.659 359.199 22.6906 359.187 22.7197 359.17L25.6787 357.366C25.6829 357.364 25.6871 357.361 25.6914 357.358C25.9033 357.236 26.0784 357.059 26.1992 356.847C26.32 356.634 26.3823 356.393 26.3789 356.148V353.121L22.6289 355.355ZM17.6289 356.12C17.6209 356.365 17.6787 356.608 17.7959 356.823C17.9131 357.038 18.0859 357.218 18.2959 357.344L21.3242 359.163L21.3789 359.19V355.354L17.6289 353.121V356.12ZM249 339.375C250.45 339.375 251.625 340.55 251.625 342V356C251.625 357.45 250.45 358.625 249 358.625H235C233.55 358.625 232.375 357.45 232.375 356V342C232.375 340.55 233.55 339.375 235 339.375H249ZM233.625 356C233.625 356.759 234.241 357.375 235 357.375H241.375V352.625H233.625V356ZM242.625 357.375H249C249.759 357.375 250.375 356.759 250.375 356V352.625H242.625V357.375ZM21.9873 349.644C21.7419 349.642 21.5002 349.707 21.2881 349.83L18.3291 351.634C18.3249 351.636 18.3207 351.639 18.3164 351.642C18.2003 351.709 18.0961 351.793 18.0049 351.89L22.0039 354.271L26.0029 351.89C25.9175 351.8 25.8203 351.721 25.7129 351.656H25.7119L22.6826 349.836V349.835C22.4723 349.71 22.2319 349.645 21.9873 349.644ZM233.625 351.375H241.375V346.625H233.625V351.375ZM242.625 351.375H250.375V346.625H242.625V351.375ZM29.6289 344C29.6289 344.365 29.7734 344.715 30.0312 344.973C30.2891 345.23 30.6393 345.375 31.0039 345.375H34.3789V345.259L29.7451 340.625H29.6289V344ZM235 340.625C234.241 340.625 233.625 341.241 233.625 342V345.375H241.375V340.625H235ZM242.625 345.375H250.375V342C250.375 341.241 249.759 340.625 249 340.625H242.625V345.375ZM258.611 264.071C253.983 267.559 248.263 269.722 242.007 269.722C235.751 269.722 230.03 267.582 225.402 264.071L192.635 296.834L224.007 328.201C228.867 324.016 235.123 321.388 242.006 321.388C248.657 321.388 254.658 323.83 259.448 327.736L290.751 296.205L258.611 264.071ZM156.26 224.559C160.167 229.325 162.609 235.348 162.609 241.998C162.609 248.904 159.981 255.135 155.795 259.995L187.167 291.363L219.935 258.601C216.446 253.95 214.283 248.253 214.283 241.998C214.283 235.743 216.423 230.046 219.935 225.396L187.795 193.261L156.26 224.559ZM264.1 225.403C267.588 230.054 269.751 235.751 269.751 242.006C269.751 248.261 267.611 253.981 264.1 258.608L296.192 290.72L327.519 259.166C323.751 254.422 321.402 248.517 321.402 242.006C321.402 235.356 323.844 229.356 327.751 224.566L296.216 193.269L264.1 225.403ZM349.146 222.009C338.145 222.009 329.168 230.984 329.168 242.006C329.168 253.028 338.122 262.003 349.146 262.003C360.169 262.003 369.145 253.028 369.146 242.006C369.146 230.984 360.169 222.009 349.146 222.009ZM134.865 222.001C123.842 222.001 114.864 230.976 114.864 241.998C114.864 253.02 123.842 261.995 134.865 261.995C145.865 261.995 154.842 253.02 154.842 241.998C154.842 230.976 145.889 222.001 134.865 222.001ZM242.005 221.992C231.005 221.992 222.029 230.968 222.028 241.989C222.028 253.011 230.981 261.987 242.005 261.987C253.028 261.987 262.005 253.011 262.005 241.989C262.005 230.968 253.028 221.992 242.005 221.992ZM357 232.375C358.45 232.375 359.625 233.55 359.625 235V249C359.625 250.45 358.45 251.625 357 251.625H343C341.55 251.625 340.375 250.45 340.375 249V235C340.375 233.55 341.55 232.375 343 232.375H357ZM131.126 243.388C131.411 243.446 131.625 243.698 131.625 244V249.375H133C133.345 249.375 133.625 249.655 133.625 250C133.625 250.345 133.345 250.625 133 250.625H129C128.655 250.625 128.375 250.345 128.375 250C128.375 249.655 128.655 249.375 129 249.375H130.375V244.625H129C128.655 244.625 128.375 244.345 128.375 244C128.375 243.655 128.655 243.375 129 243.375H131L131.126 243.388ZM139 243.375C140.45 243.375 141.625 244.55 141.625 246V248C141.625 249.45 140.45 250.625 139 250.625C137.55 250.625 136.375 249.45 136.375 248V246C136.375 244.55 137.55 243.375 139 243.375ZM343 233.625C342.241 233.625 341.625 234.241 341.625 235V249C341.625 249.759 342.241 250.375 343 250.375H357C357.759 250.375 358.375 249.759 358.375 249V235C358.375 234.241 357.759 233.625 357 233.625H343ZM139 244.625C138.241 244.625 137.625 245.241 137.625 246V248C137.625 248.759 138.241 249.375 139 249.375C139.759 249.375 140.375 248.759 140.375 248V246C140.375 245.241 139.759 244.625 139 244.625ZM348.022 237.375C348.31 237.379 348.591 237.46 348.838 237.608H348.839L353.836 240.605H353.835C354.076 240.75 354.276 240.953 354.415 241.197C354.554 241.442 354.627 241.719 354.627 242L354.613 242.21C354.586 242.418 354.519 242.619 354.415 242.803C354.276 243.047 354.076 243.25 353.835 243.394L353.836 243.395L348.839 246.392L348.838 246.391C348.591 246.539 348.31 246.621 348.022 246.625C347.734 246.629 347.449 246.556 347.198 246.414C346.947 246.272 346.739 246.065 346.595 245.815C346.45 245.566 346.374 245.282 346.375 244.993V239.003C346.374 238.715 346.45 238.432 346.595 238.184C346.74 237.934 346.948 237.728 347.199 237.586C347.45 237.444 347.734 237.371 348.022 237.375ZM348.005 238.625C347.939 238.624 347.873 238.641 347.815 238.674C347.758 238.707 347.709 238.754 347.676 238.812C347.642 238.869 347.625 238.934 347.625 239.001V244.998C347.625 245.065 347.642 245.131 347.676 245.188C347.709 245.246 347.758 245.293 347.815 245.326C347.873 245.359 347.939 245.376 348.005 245.375C348.071 245.374 348.137 245.356 348.194 245.321L348.195 245.32L353.192 242.323L353.194 242.322C353.25 242.289 353.296 242.242 353.328 242.186C353.36 242.129 353.377 242.065 353.377 242L353.364 241.904C353.356 241.873 353.344 241.843 353.328 241.814C353.296 241.758 353.25 241.711 353.194 241.678L353.192 241.677L348.195 238.68L348.194 238.679C348.137 238.644 348.071 238.626 348.005 238.625ZM131 233.375C132.45 233.375 133.625 234.55 133.625 236V238C133.625 239.45 132.45 240.625 131 240.625C129.55 240.625 128.375 239.45 128.375 238V236C128.375 234.55 129.55 233.375 131 233.375ZM139 233.375C139.345 233.375 139.625 233.655 139.625 234V239.375H141C141.345 239.375 141.625 239.655 141.625 240C141.625 240.345 141.345 240.625 141 240.625H137C136.655 240.625 136.375 240.345 136.375 240C136.375 239.655 136.655 239.375 137 239.375H138.375V234.625H137C136.655 234.625 136.375 234.345 136.375 234C136.375 233.655 136.655 233.375 137 233.375H139ZM131 234.625C130.241 234.625 129.625 235.241 129.625 236V238C129.625 238.759 130.241 239.375 131 239.375C131.759 239.375 132.375 238.759 132.375 238V236C132.375 235.241 131.759 234.625 131 234.625ZM259.145 156.465C254.4 160.231 248.493 162.58 241.981 162.58C235.493 162.58 229.586 160.255 224.842 156.488L193.284 187.786L225.4 219.897C230.052 216.41 235.749 214.247 242.005 214.247C248.261 214.247 253.959 216.386 258.61 219.897L290.727 187.786L259.145 156.465ZM27.7227 114.871C16.7226 114.871 7.74627 123.847 7.74609 134.868C7.74609 145.89 16.6993 154.866 27.7227 154.866C38.723 154.866 47.7002 145.89 47.7002 134.868C47.7 123.846 38.7461 114.871 27.7227 114.871ZM134.867 114.867C123.844 114.867 114.866 123.843 114.866 134.865C114.866 145.887 123.844 154.862 134.867 154.862C145.89 154.862 154.867 145.887 154.844 134.865C154.844 123.843 145.891 114.867 134.867 114.867ZM349.146 114.867C338.122 114.867 329.146 123.843 329.169 134.865C329.169 145.887 338.122 154.862 349.146 154.862C360.169 154.862 369.146 145.887 369.146 134.865C369.146 123.843 360.169 114.867 349.146 114.867ZM456.285 114.867C445.262 114.867 436.285 123.843 436.309 134.865C436.309 145.887 445.262 154.862 456.285 154.862C467.285 154.862 476.263 145.887 476.263 134.865C476.263 123.843 467.309 114.867 456.285 114.867ZM242.004 114.865C231.004 114.865 222.026 123.841 222.026 134.862C222.026 145.884 230.98 154.859 242.004 154.859C253.027 154.859 262.004 145.884 262.004 134.862C262.004 123.841 253.027 114.865 242.004 114.865ZM460 124.375C460.166 124.375 460.325 124.44 460.442 124.558L465.442 129.558C465.56 129.675 465.625 129.834 465.625 130V143C465.625 143.696 465.349 144.364 464.856 144.856C464.364 145.349 463.696 145.625 463 145.625H451C450.304 145.625 449.636 145.349 449.144 144.856C448.651 144.364 448.375 143.696 448.375 143V127C448.375 126.304 448.651 125.636 449.144 125.144C449.636 124.651 450.304 124.375 451 124.375H460ZM250.897 125.384C251.079 125.354 251.264 125.405 251.404 125.523C251.544 125.642 251.625 125.816 251.625 126V139C251.625 141.002 250.002 142.625 248 142.625C245.998 142.625 244.375 141.002 244.375 139C244.375 136.998 245.998 135.375 248 135.375C248.909 135.375 249.739 135.71 250.375 136.263V126.737L239.625 128.528V141C239.625 143.002 238.002 144.625 236 144.625C233.998 144.625 232.375 143.002 232.375 141C232.375 138.998 233.998 137.375 236 137.375C236.909 137.375 237.739 137.71 238.375 138.263V128C238.375 127.694 238.596 127.434 238.897 127.384L250.897 125.384ZM451 125.625C450.635 125.625 450.285 125.769 450.027 126.027C449.769 126.285 449.625 126.635 449.625 127V143C449.625 143.365 449.769 143.715 450.027 143.973C450.285 144.231 450.635 144.375 451 144.375H463C463.365 144.375 463.715 144.231 463.973 143.973C464.231 143.715 464.375 143.365 464.375 143V131.625H461C460.304 131.625 459.636 131.349 459.144 130.856C458.651 130.364 458.375 129.696 458.375 129V125.625H451ZM31.6904 126.403C32.0199 126.506 32.2035 126.857 32.1006 127.187L27.1006 143.187C26.9976 143.516 26.6468 143.7 26.3174 143.597C25.988 143.494 25.8043 143.143 25.9072 142.813L30.9072 126.813C31.0102 126.484 31.361 126.3 31.6904 126.403ZM236 138.625C234.688 138.625 233.625 139.688 233.625 141C233.625 142.312 234.688 143.375 236 143.375C237.312 143.375 238.375 142.312 238.375 141C238.375 139.688 237.312 138.625 236 138.625ZM248 136.625C246.688 136.625 245.625 137.688 245.625 139C245.625 140.312 246.688 141.375 248 141.375C249.312 141.375 250.375 140.312 250.375 139C250.375 137.688 249.312 136.625 248 136.625ZM461 139.375C461.345 139.375 461.625 139.655 461.625 140C461.625 140.345 461.345 140.625 461 140.625H453C452.655 140.625 452.375 140.345 452.375 140C452.375 139.655 452.655 139.375 453 139.375H461ZM22.5615 130.558C22.8056 130.314 23.2022 130.314 23.4463 130.558C23.6904 130.802 23.6904 131.198 23.4463 131.442L19.8887 135L23.4463 138.558C23.6904 138.802 23.6904 139.198 23.4463 139.442C23.2022 139.686 22.8056 139.686 22.5615 139.442L18.5615 135.442C18.3174 135.198 18.3174 134.802 18.5615 134.558L22.5615 130.558ZM34.5615 130.558C34.8056 130.314 35.2022 130.314 35.4463 130.558L39.4463 134.558C39.6904 134.802 39.6904 135.198 39.4463 135.442L35.4463 139.442C35.2022 139.686 34.8056 139.686 34.5615 139.442C34.3174 139.198 34.3174 138.802 34.5615 138.558L38.1191 135L34.5615 131.442C34.3174 131.198 34.3174 130.802 34.5615 130.558ZM461 135.375C461.345 135.375 461.625 135.655 461.625 136C461.625 136.345 461.345 136.625 461 136.625H453C452.655 136.625 452.375 136.345 452.375 136C452.375 135.655 452.655 135.375 453 135.375H461ZM455 131.375C455.345 131.375 455.625 131.655 455.625 132C455.625 132.345 455.345 132.625 455 132.625H453C452.655 132.625 452.375 132.345 452.375 132C452.375 131.655 452.655 131.375 453 131.375H455ZM459.625 129C459.625 129.365 459.769 129.715 460.027 129.973C460.285 130.231 460.635 130.375 461 130.375H464.375V130.26L459.74 125.625H459.625V129ZM349.146 7.74414C338.122 7.7443 329.146 16.7195 329.169 27.7412C329.169 38.763 338.122 47.7381 349.146 47.7383C360.169 47.7383 369.146 38.7631 369.146 27.7412C369.146 16.7194 360.169 7.74414 349.146 7.74414ZM134.867 7.73926C123.844 7.73926 114.866 16.7146 114.866 27.7363C114.866 38.7582 123.844 47.7344 134.867 47.7344C145.891 47.7341 154.867 38.7581 154.844 27.7363C154.844 16.7147 145.89 7.73949 134.867 7.73926ZM142.008 20.375C143.458 20.375 144.633 21.5503 144.633 23V37C144.633 38.4497 143.458 39.625 142.008 39.625H128.008C126.558 39.625 125.383 38.4497 125.383 37V23C125.383 21.5503 126.558 20.375 128.008 20.375H142.008ZM128.008 21.625C127.248 21.625 126.633 22.2406 126.633 23V37C126.633 37.7594 127.248 38.375 128.008 38.375H142.008C142.767 38.375 143.383 37.7594 143.383 37V23C143.383 22.2406 142.767 21.625 142.008 21.625H128.008ZM139.008 33.375C139.353 33.375 139.633 33.6548 139.633 34C139.633 34.3452 139.353 34.625 139.008 34.625H134.008C133.663 34.625 133.383 34.3452 133.383 34C133.383 33.6548 133.663 33.375 134.008 33.375H139.008ZM137.008 29.375C137.353 29.375 137.633 29.6548 137.633 30C137.633 30.3452 137.353 30.625 137.008 30.625H131.008C130.663 30.625 130.383 30.3452 130.383 30C130.383 29.6548 130.663 29.375 131.008 29.375H137.008ZM139.008 25.375C139.353 25.375 139.633 25.6548 139.633 26C139.633 26.3452 139.353 26.625 139.008 26.625H132.008C131.663 26.625 131.383 26.3452 131.383 26C131.383 25.6548 131.663 25.375 132.008 25.375H139.008Z" fill="url(#paint0_linear_13_835)"/>
<defs>
<linearGradient id="paint0_linear_13_835" x1="41.2015" y1="342.402" x2="404.194" y2="110.705" gradientUnits="userSpaceOnUse">
<stop stop-color="#E7D2F6"/>
<stop offset="1" stop-color="#FF734A"/>
</linearGradient>
</defs>
</svg>
