<svg width="677" height="480" viewBox="0 0 677 480" fill="none" xmlns="http://www.w3.org/2000/svg">
<path d="M425 117.276C425 112.765 421.333 109.091 416.815 109.091H351.358C346.847 109.091 343.173 112.758 343.173 117.276V128.184C343.173 130.286 343.994 132.188 345.298 133.638C343.986 135.088 343.173 136.99 343.173 139.092V150C343.173 152.102 343.994 154.005 345.298 155.454C343.986 156.904 343.173 158.807 343.173 160.908V171.817C343.173 176.327 346.84 180.002 351.358 180.002H416.815C421.325 180.002 425 176.335 425 171.817V160.908C425 158.807 424.179 156.904 422.875 155.454C424.187 154.005 425 152.102 425 150V139.092C425 136.99 424.179 135.088 422.875 133.638C424.187 132.188 425 130.286 425 128.184V117.276ZM348.634 117.276C348.634 115.772 349.862 114.545 351.365 114.545H416.822C418.325 114.545 419.553 115.772 419.553 117.276V128.184C419.553 129.688 418.325 130.915 416.822 130.915H351.365C349.861 130.915 348.634 129.688 348.634 128.184V117.276ZM419.544 139.091V150C419.544 151.503 418.317 152.731 416.814 152.731H351.357C349.853 152.731 348.626 151.503 348.626 150V139.091C348.626 137.588 349.853 136.361 351.357 136.361H416.814C418.317 136.361 419.544 137.588 419.544 139.091ZM419.544 171.824C419.544 173.327 418.317 174.555 416.814 174.555H351.357C349.853 174.555 348.626 173.327 348.626 171.824V160.916C348.626 159.412 349.853 158.185 351.357 158.185H416.814C418.317 158.185 419.544 159.412 419.544 160.916V171.824Z" fill="#AA8AC1"/>
<path d="M356.811 125.453H359.542C361.045 125.453 362.273 124.233 362.273 122.722C362.273 121.219 361.053 119.991 359.542 119.991H356.811C355.307 119.991 354.08 121.211 354.08 122.722C354.08 124.226 355.3 125.453 356.811 125.453Z" fill="#AA8AC1"/>
<path d="M394.999 128.183C396.503 128.183 397.73 126.963 397.73 125.452V119.998C397.73 118.495 396.511 117.267 394.999 117.267C393.496 117.267 392.269 118.487 392.269 119.998V125.452C392.269 126.956 393.488 128.183 394.999 128.183Z" fill="#AA8AC1"/>
<path d="M403.184 128.183C404.688 128.183 405.915 126.963 405.915 125.452V119.998C405.915 118.495 404.695 117.267 403.184 117.267C401.681 117.267 400.453 118.487 400.453 119.998V125.452C400.453 126.956 401.673 128.183 403.184 128.183Z" fill="#AA8AC1"/>
<path d="M411.369 128.183C412.873 128.183 414.1 126.963 414.1 125.452V119.998C414.1 118.495 412.88 117.267 411.369 117.267C409.866 117.267 408.638 118.487 408.638 119.998V125.452C408.638 126.956 409.858 128.183 411.369 128.183Z" fill="#AA8AC1"/>
<path d="M356.811 147.276H359.542C361.045 147.276 362.273 146.056 362.273 144.545C362.273 143.042 361.053 141.814 359.542 141.814H356.811C355.307 141.814 354.08 143.034 354.08 144.545C354.08 146.049 355.3 147.276 356.811 147.276Z" fill="#AA8AC1"/>
<path d="M394.999 150C396.503 150 397.73 148.781 397.73 147.269V141.815C397.73 140.312 396.511 139.085 394.999 139.085C393.496 139.085 392.269 140.304 392.269 141.815V147.269C392.269 148.773 393.488 150 394.999 150Z" fill="#AA8AC1"/>
<path d="M403.184 150C404.688 150 405.915 148.781 405.915 147.269V141.815C405.915 140.312 404.695 139.085 403.184 139.085C401.681 139.085 400.453 140.304 400.453 141.815V147.269C400.453 148.773 401.673 150 403.184 150Z" fill="#AA8AC1"/>
<path d="M411.369 150C412.873 150 414.1 148.781 414.1 147.269V141.815C414.1 140.312 412.88 139.085 411.369 139.085C409.866 139.085 408.638 140.304 408.638 141.815V147.269C408.638 148.773 409.858 150 411.369 150Z" fill="#AA8AC1"/>
<path d="M359.543 163.639H356.812C355.308 163.639 354.081 164.858 354.081 166.369C354.081 167.873 355.301 169.1 356.812 169.1H359.543C361.046 169.1 362.273 167.881 362.273 166.369C362.273 164.866 361.054 163.639 359.543 163.639Z" fill="#AA8AC1"/>
<path d="M394.999 160.907C393.496 160.907 392.269 162.126 392.269 163.637V169.092C392.269 170.595 393.488 171.822 394.999 171.822C396.503 171.822 397.73 170.603 397.73 169.092V163.637C397.73 162.134 396.511 160.907 394.999 160.907Z" fill="#AA8AC1"/>
<path d="M403.184 160.907C401.681 160.907 400.453 162.126 400.453 163.637V169.092C400.453 170.595 401.673 171.822 403.184 171.822C404.688 171.822 405.915 170.603 405.915 169.092V163.637C405.915 162.134 404.695 160.907 403.184 160.907Z" fill="#AA8AC1"/>
<path d="M411.369 160.907C409.866 160.907 408.638 162.126 408.638 163.637V169.092C408.638 170.595 409.858 171.822 411.369 171.822C412.873 171.822 414.1 170.603 414.1 169.092V163.637C414.1 162.134 412.88 160.907 411.369 160.907Z" fill="#AA8AC1"/>
<path d="M384.55 95.4501C383.568 95.4501 382.67 94.7981 382.425 93.8392C381.305 89.5587 379.617 85.4625 377.408 81.673C376.917 80.8291 377.055 79.7092 377.761 79.0034C380.76 76.0041 380.76 71.1176 377.761 68.1181L373.235 63.5922C370.236 60.5929 365.349 60.5929 362.35 63.5922C361.644 64.2979 360.524 64.436 359.68 63.9451C355.891 61.7358 351.794 60.0481 347.514 58.9282C346.563 58.6827 345.903 57.7852 345.903 56.7725C345.903 52.5459 342.436 49.0784 338.209 49.0784H331.773C327.546 49.0784 324.079 52.5457 324.079 56.7955C324.079 57.7774 323.427 58.6749 322.468 58.9203C318.188 60.0403 314.091 61.7279 310.302 63.9372C309.458 64.4281 308.369 64.2901 307.632 63.5843C304.633 60.585 299.746 60.585 296.747 63.5843L292.221 68.1103C289.222 71.1096 289.222 75.996 292.221 78.9955C292.927 79.7013 293.065 80.8212 292.574 81.6651C290.365 85.4546 288.677 89.5509 287.557 93.8313C287.311 94.7826 286.414 95.4422 285.401 95.4422C281.175 95.4422 277.707 98.9095 277.707 103.136V109.572C277.707 113.799 281.174 117.266 285.424 117.266C286.406 117.266 287.304 117.918 287.549 118.877C288.669 123.158 290.357 127.254 292.566 131.044C293.057 131.887 292.919 133.007 292.213 133.713C289.214 136.712 289.214 141.599 292.213 144.598L296.739 149.124C299.738 152.124 304.625 152.124 307.624 149.124C308.361 148.419 309.45 148.28 310.294 148.771C314.083 150.981 318.18 152.668 322.46 153.788C323.411 154.034 324.071 154.931 324.071 155.944C324.071 160.171 327.538 163.638 331.765 163.638H337.71V160.907C337.71 159.028 338.117 157.172 338.853 155.453C338.117 153.735 337.71 151.879 337.71 149.999V139.091C337.71 137.212 338.117 135.355 338.853 133.637C338.117 131.919 337.71 130.062 337.71 128.183V122.483C336.836 122.645 335.907 122.729 334.979 122.729C325.95 122.729 318.617 115.395 318.617 106.367C318.617 97.3377 325.951 90.0044 334.979 90.0044C343.08 90.0044 349.815 95.9264 351.096 103.666C351.18 103.636 351.257 103.636 351.342 103.636H392.251V103.145C392.251 98.9181 388.784 95.4507 384.534 95.4507L384.55 95.4501Z" fill="url(#paint0_linear_13_333)"/>
<path d="M345.796 104.833C341.132 106.905 337.857 111.515 337.749 116.915C336.875 117.13 335.947 117.268 334.996 117.268C328.966 117.268 324.087 112.389 324.087 106.36C324.087 100.33 328.966 95.4516 334.996 95.4516C340.503 95.4516 345.06 99.5174 345.796 104.833Z" fill="url(#paint1_linear_13_333)"/>
<path d="M304.258 24.5395C303.959 24.5395 303.66 24.3784 303.576 24.1329C303.169 22.9055 302.678 21.6782 302.103 20.5352C301.965 20.2898 302.049 19.9599 302.264 19.7451C304.688 17.344 304.688 13.4164 302.264 10.9925L299.456 8.18491C297.055 5.76081 293.105 5.76081 290.673 8.18491C290.481 8.39971 290.151 8.48407 289.936 8.37669C288.763 7.77834 287.535 7.28739 286.308 6.87317C286.062 6.78879 285.901 6.48962 285.901 6.19044C285.901 2.78445 283.117 0 279.711 0H275.73C272.324 0 269.539 2.78465 269.539 6.19044C269.539 6.4896 269.378 6.78879 269.133 6.87317C267.905 7.27973 266.678 7.77068 265.535 8.34601C265.29 8.48409 264.96 8.39971 264.745 8.18492C262.344 5.76082 258.416 5.76082 255.992 8.18492L253.185 10.9925C250.761 13.4166 250.761 17.3442 253.185 19.776C253.4 19.9677 253.484 20.2976 253.377 20.5124C252.778 21.6861 252.287 22.9135 251.873 24.1409C251.789 24.3863 251.49 24.5474 251.19 24.5474C247.784 24.5474 245 27.3321 245 30.7379V34.7191C245 38.1251 247.785 40.9095 251.19 40.9095C251.489 40.9095 251.789 41.0706 251.873 41.3161C252.28 42.5434 252.771 43.7708 253.346 44.9137C253.484 45.1592 253.4 45.4891 253.185 45.7038C250.761 48.105 250.761 52.0325 253.185 54.4564L255.992 57.264C258.417 59.6881 262.344 59.6881 264.776 57.264C264.968 57.0493 265.297 56.9649 265.512 57.0723C266.686 57.6706 267.913 58.1616 269.141 58.5758C269.386 58.6602 269.547 58.9593 269.547 59.2585C269.547 62.6645 272.332 65.449 275.738 65.449H279.719C283.125 65.449 285.909 62.6643 285.909 59.2585C285.909 58.9594 286.07 58.6602 286.316 58.5758C287.543 58.1692 288.771 57.6783 289.914 57.103C290.159 56.9649 290.489 57.0493 290.704 57.264C293.105 59.6881 297.055 59.6881 299.456 57.264L302.264 54.4564C304.688 52.0323 304.688 48.1047 302.264 45.673C302.049 45.4812 301.965 45.1513 302.072 44.9366C302.67 43.7629 303.161 42.5354 303.576 41.3081C303.66 41.0626 303.959 40.9015 304.258 40.9015C307.664 40.9015 310.449 38.1169 310.449 34.7111V30.7299C310.449 27.3239 307.664 24.5395 304.258 24.5395ZM277.716 43.6328C271.686 43.6328 266.808 38.7539 266.808 32.7245C266.808 26.6951 271.686 21.8163 277.716 21.8163C283.745 21.8163 288.624 26.6951 288.624 32.7245C288.624 38.7539 283.745 43.6328 277.716 43.6328Z" fill="#FF734A"/>
<path d="M283.169 32.7169C283.169 39.989 272.261 39.989 272.261 32.7169C272.261 25.4448 283.169 25.4448 283.169 32.7169Z" fill="#FF734A"/>
<path d="M327.149 168.593C295.858 164.681 272.263 137.925 272.263 106.359C272.263 100.076 273.176 93.924 274.978 88.0709C275.423 86.6288 274.61 85.1023 273.176 84.6649C271.741 84.2123 270.207 85.0255 269.77 86.4676C267.806 92.8423 266.809 99.539 266.809 106.359C266.809 140.672 292.46 169.752 326.474 174.009C326.59 174.025 326.705 174.032 326.82 174.032C328.177 174.032 329.351 173.02 329.52 171.647C329.704 170.151 328.645 168.785 327.15 168.601L327.149 168.593Z" fill="url(#paint2_linear_13_333)"/>
<path d="M315.902 32.7166C315.902 36.9971 315.158 41.2776 313.677 45.4429C313.171 46.8621 313.915 48.4193 315.334 48.9255C315.634 49.0329 315.94 49.0866 316.247 49.0866C317.367 49.0866 318.426 48.3885 318.817 47.2686C320.497 42.5201 321.356 37.626 321.356 32.7165C321.356 23.2199 318.318 14.168 312.573 6.52749C311.668 5.3308 309.957 5.08533 308.753 5.99051C307.548 6.8957 307.31 8.60628 308.216 9.81067C313.248 16.4921 315.902 24.4167 315.902 32.7166Z" fill="#FF734A"/>
<path d="M397.728 38.1702C397.728 41.814 392.274 41.814 392.274 38.1702C392.274 34.534 397.728 34.534 397.728 38.1702Z" fill="#FA876F"/>
<path d="M419.547 35.4487H416.655C416.133 31.4675 414.553 27.8391 412.205 24.8089L414.277 22.7377C415.343 21.6715 415.343 19.9531 414.277 18.8946C413.21 17.8283 411.492 17.8283 410.433 18.8946L408.362 20.9658C405.332 18.6185 401.704 17.0382 397.722 16.5167V13.6246C397.722 12.1211 396.495 10.8938 394.992 10.8938C393.488 10.8938 392.261 12.1211 392.261 13.6246V16.5167C388.28 17.0383 384.651 18.6185 381.621 20.9658L379.55 18.8946C378.484 17.8283 376.765 17.8283 375.707 18.8946C374.64 19.9609 374.64 21.6793 375.707 22.7377L377.778 24.8089C375.431 27.8391 373.85 31.4674 373.329 35.4487H370.437C368.933 35.4487 367.706 36.6761 367.706 38.1796C367.706 39.683 368.933 40.9104 370.437 40.9104H373.329C373.85 44.8916 375.431 48.5201 377.778 51.5502L375.707 53.6214C374.64 54.6877 374.64 56.4061 375.707 57.4645C376.228 58.0092 376.934 58.2546 377.64 58.2546C378.323 58.2546 379.028 58.0092 379.55 57.4645L381.621 55.3933C384.651 57.7406 388.279 59.3209 392.261 59.8425V62.7345C392.261 64.2381 393.488 65.4654 394.992 65.4654C396.495 65.4654 397.723 64.238 397.723 62.7345V59.8425C401.704 59.3209 405.332 57.7406 408.362 55.3933L410.434 57.4645C410.955 58.0092 411.661 58.2546 412.344 58.2546C413.049 58.2546 413.763 58.0092 414.277 57.4645C415.343 56.3983 415.343 54.6799 414.277 53.6214L412.206 51.5502C414.553 48.5201 416.133 44.8918 416.655 40.9104H419.547C421.05 40.9104 422.278 39.683 422.278 38.1796C422.278 36.6761 421.05 35.4487 419.547 35.4487ZM394.999 46.357C390.496 46.357 386.814 42.6749 386.814 38.1719C386.814 33.669 390.496 29.9869 394.999 29.9869C399.502 29.9869 403.184 33.669 403.184 38.1719C403.184 42.6749 399.502 46.357 394.999 46.357Z" fill="#FA876F"/>
<path d="M395.874 391.873C392.773 391.873 390.249 394.397 390.249 397.498C390.249 400.599 392.773 403.123 395.874 403.123C398.975 403.123 401.499 400.599 401.499 397.498C401.499 394.397 398.975 391.873 395.874 391.873Z" fill="#FF734A"/>
<path d="M409.937 375H258.062C250.3 375 244 381.3 244 389.063V411.562C244 419.325 250.3 425.625 258.062 425.625H409.937C417.7 425.625 424 419.325 424 411.562V389.063C424 381.3 417.7 375 409.937 375ZM411.927 413.552C411.379 414.101 410.662 414.375 409.937 414.375C409.213 414.375 408.503 414.101 407.947 413.552L401.584 407.189C399.911 408.18 397.956 408.75 395.875 408.75C389.673 408.75 384.625 403.702 384.625 397.5C384.625 391.298 389.673 386.25 395.875 386.25C402.076 386.25 407.125 391.298 407.125 397.5C407.125 399.581 406.548 401.536 405.564 403.209L411.927 409.573C413.024 410.67 413.024 412.456 411.927 413.552Z" fill="url(#paint3_linear_13_333)"/>
<path d="M85.6497 371.647C78.3981 371.647 72.5013 365.745 72.5013 358.498C72.5013 357.148 71.3998 356 70.0029 356C68.6529 356 67.5045 357.148 67.5045 358.498C67.5045 359.347 67.4061 360.2 67.2561 360.997C67.2045 361.395 67.1061 361.798 66.9561 362.197C66.8577 362.595 66.7077 362.998 66.5577 363.345C65.9577 364.944 65.0061 366.397 63.8577 367.597C62.6061 368.947 61.0593 369.997 59.3061 370.695C59.0061 370.845 58.6545 370.944 58.3076 371.047C58.1576 371.098 58.0076 371.145 57.8576 371.197C57.2061 371.398 56.5076 371.497 55.7576 371.595C55.3076 371.647 54.8576 371.647 54.4076 371.647C53.006 371.647 51.9092 372.748 51.9092 374.145C51.9092 375.495 53.0108 376.644 54.4076 376.644C61.6592 376.644 67.5092 382.494 67.5092 389.745C67.5092 391.147 68.6577 392.244 70.0076 392.244C71.4092 392.244 72.506 391.142 72.506 389.745C72.506 389.295 72.506 388.845 72.5576 388.395C72.656 387.645 72.7592 386.947 72.956 386.295C73.0076 386.145 73.0545 385.995 73.106 385.845C73.2045 385.494 73.3076 385.147 73.5045 384.847C74.156 383.098 75.2061 381.547 76.5561 380.295C77.7561 379.147 79.2045 378.195 80.8077 377.595C81.1592 377.445 81.5577 377.295 81.9561 377.197C82.3545 377.047 82.7577 376.948 83.1561 376.897C83.9577 376.747 84.8061 376.648 85.6545 376.648C87.0045 376.648 88.1529 375.5 88.1529 374.15C88.1482 372.748 86.9997 371.647 85.6497 371.647Z" fill="#E7D2F6"/>
<path d="M79.0499 385.048C78.0514 386.398 77.4983 387.997 77.4983 389.75C77.4983 393.898 74.1467 397.25 69.9983 397.25C65.8967 397.25 62.4983 393.898 62.4983 389.75C62.4983 385.302 58.8467 381.65 54.3983 381.65C50.2499 381.65 46.8983 378.252 46.8983 374.15C46.8983 370.002 50.2499 366.65 54.3983 366.65C56.1467 366.65 57.7499 366.102 59.0999 365.098C60.5015 364.1 61.5983 362.647 62.0999 360.95C56.4983 358.297 50.2499 356.848 43.6499 356.848C19.5983 356.848 -0.00012207 376.447 -0.00012207 400.498C-0.00012207 424.55 19.5983 444.148 43.6499 444.148C67.7015 444.148 87.2999 424.55 87.2999 400.498C87.2999 393.898 85.8515 387.65 83.1983 382.048C81.5014 382.55 80.0483 383.647 79.0499 385.048ZM67.2515 398.398C68.6531 398.398 69.7499 399.547 69.7499 400.897C69.7499 402.298 68.6483 403.395 67.2515 403.395C55.4015 403.395 45.7499 413.047 45.7499 424.944C45.7499 426.294 44.6014 427.442 43.2515 427.442C41.8499 427.442 40.7531 426.294 40.7531 424.944C40.7531 413.042 31.1015 403.395 19.2047 403.395C17.8547 403.395 16.7063 402.294 16.7063 400.897C16.7063 399.547 17.8547 398.398 19.2047 398.398C31.1063 398.398 40.7531 388.747 40.7531 376.897C40.7531 375.495 41.8546 374.398 43.2515 374.398C44.6015 374.398 45.7499 375.5 45.7499 376.897C45.7499 388.747 55.4015 398.398 67.2515 398.398Z" fill="#F3997F"/>
<path d="M30.4499 400.897C36.0515 403.545 40.5983 408.097 43.2515 413.698C45.8531 408.097 50.3999 403.55 56.0015 400.897C50.3999 398.295 45.8531 393.748 43.2515 388.147C40.5984 393.748 36.0515 398.3 30.4499 400.897Z" fill="#FF734A"/>
<path d="M279 231C278.319 238.958 250.982 257.04 147.08 265.705C43.1781 274.371 29.1829 316.179 35.1731 336" stroke="#AD9E95" stroke-opacity="0.5" stroke-width="4" stroke-linecap="round" stroke-dasharray="6 30"/>
<path d="M389 231C389.681 238.958 417.018 257.04 520.92 265.705C624.822 274.371 638.817 316.179 632.827 336" stroke="#AD9E95" stroke-opacity="0.5" stroke-width="4" stroke-linecap="round" stroke-dasharray="6 30"/>
<path d="M332 231L329.979 336" stroke="#AD9E95" stroke-opacity="0.5" stroke-width="4" stroke-linecap="round" stroke-dasharray="6 30"/>
<path d="M666.758 358H597.055C591.505 358 587.005 362.5 587.005 368.05V413.852C587.806 413.552 588.603 413.402 589.503 413.402C590.351 413.402 591.205 413.303 592.001 413.102C596.951 412 600.701 407.552 600.701 402.203C600.701 398.055 604.053 394.703 608.201 394.703C612.35 394.703 615.701 398.055 615.701 402.203C615.701 408.405 620.703 413.402 626.9 413.402C630.898 413.402 634.1 416.5 634.348 420.4C634.4 420.55 634.4 420.752 634.4 420.902C634.4 422.603 633.851 424.15 632.848 425.402H642.2C645.8 425.402 649.25 426.452 652.25 428.453L661.601 434.753C663.2 435.855 665.103 436.403 667.053 436.403C668.605 436.403 670.203 436.052 671.605 435.255C674.806 433.553 676.803 430.253 676.803 426.653L676.808 368.05C676.808 362.5 672.308 358 666.758 358ZM608.806 383.95C607.405 383.95 606.308 382.849 606.308 381.452C606.308 380.102 607.409 378.953 608.806 378.953H655.006C656.408 378.953 657.505 380.102 657.505 381.452C657.505 382.853 656.403 383.95 655.006 383.95H608.806ZM621.908 405.4C620.506 405.4 619.409 404.252 619.409 402.902C619.409 401.5 620.511 400.403 621.908 400.403H641.909C643.311 400.403 644.408 401.505 644.408 402.902C644.408 404.252 643.306 405.4 641.909 405.4H621.908Z" fill="#E7D2F6"/>
<path d="M629.004 419.5L628.503 418.998C628.451 418.947 628.353 418.9 628.301 418.848C628.151 418.75 627.95 418.647 627.753 418.548H627.701C627.453 418.45 627.2 418.398 626.9 418.398C617.951 418.398 610.7 411.147 610.7 402.198C610.7 400.848 609.598 399.7 608.201 399.7C606.8 399.7 605.703 400.848 605.703 402.198C605.703 403.3 605.605 404.397 605.351 405.447C605.253 405.995 605.15 406.497 604.953 406.998C604.705 407.847 604.405 408.648 604.001 409.398C603.851 409.75 603.65 410.148 603.401 410.5C603.153 410.898 602.9 411.348 602.6 411.7C601.751 412.9 600.701 414.002 599.548 414.902C598.897 415.45 598.147 415.9 597.397 416.303C596.998 416.552 596.595 416.805 596.145 416.955C595.297 417.353 594.397 417.705 593.445 417.855C592.995 418.056 592.494 418.155 591.997 418.155C591.195 418.356 590.347 418.403 589.498 418.403C588.097 418.403 587 419.552 587 420.902C587 422.303 588.101 423.4 589.498 423.4C590.6 423.4 591.697 423.498 592.747 423.752C593.295 423.85 593.797 423.953 594.298 424.15C594.748 424.248 595.147 424.398 595.498 424.548C596.098 424.797 596.647 425.05 597.2 425.35C597.251 425.35 597.298 425.402 597.298 425.402C597.397 425.453 597.448 425.5 597.5 425.552C598.001 425.8 598.498 426.1 598.948 426.452C600.148 427.3 601.25 428.35 602.15 429.503C602.548 430.005 602.951 430.502 603.251 431.055C603.35 431.153 603.401 431.303 603.5 431.406C603.8 431.955 604.1 432.555 604.348 433.155C604.597 433.656 604.798 434.153 604.897 434.706C604.897 434.706 604.948 434.758 604.948 434.805C605.098 435.255 605.248 435.705 605.3 436.155C605.351 436.253 605.398 436.403 605.398 436.553C605.497 436.952 605.548 437.402 605.6 437.852C605.651 438.4 605.698 439 605.698 439.6C605.698 441.002 606.8 442.098 608.197 442.098C609.598 442.098 610.695 440.997 610.695 439.6C610.695 439 610.747 438.4 610.794 437.852C610.845 437.402 610.892 436.952 610.995 436.553C610.995 436.403 611.047 436.253 611.094 436.155C611.145 435.705 611.295 435.255 611.445 434.805C611.445 434.753 611.497 434.706 611.497 434.706C611.595 434.158 611.797 433.656 612.045 433.155C612.294 432.555 612.594 431.955 612.894 431.406C612.992 431.308 613.044 431.158 613.142 431.055C613.442 430.506 613.84 430.005 614.244 429.503C615.144 428.355 616.245 427.305 617.445 426.452C617.905 426.1 618.406 425.8 618.908 425.552C618.959 425.5 619.006 425.453 619.109 425.402C619.109 425.402 619.161 425.35 619.208 425.35C619.756 425.05 620.305 424.802 620.905 424.553C621.256 424.403 621.655 424.253 622.105 424.155C622.606 423.953 623.103 423.855 623.656 423.756C624.706 423.508 625.808 423.405 626.905 423.405C628.306 423.405 629.403 422.303 629.403 420.906C629.403 420.756 629.403 420.555 629.351 420.405C629.305 420.1 629.154 419.8 629.004 419.5Z" fill="#BC9DD2"/>
<path d="M267.348 205.208C266.788 205.784 265.988 206.072 264.948 206.072C263.908 206.072 263.108 205.784 262.548 205.208C261.996 204.632 261.72 203.82 261.72 202.772V197.6H262.764V202.832C262.764 203.552 262.948 204.112 263.316 204.512C263.692 204.912 264.236 205.112 264.948 205.112C265.676 205.112 266.224 204.912 266.592 204.512C266.968 204.112 267.156 203.552 267.156 202.832V197.6H268.2V202.772C268.2 203.82 267.916 204.632 267.348 205.208ZM269.822 206V197.6H270.782L275.294 204.08V197.6H276.314V206H275.354L270.842 199.52V206H269.822ZM277.993 206V197.6H279.037V206H277.993ZM280.714 206V197.6H285.934V198.56H281.758V201.368H285.214V202.328H281.758V206H280.714ZM287.162 206V197.6H288.206V206H287.162ZM289.884 206V197.6H295.236V198.56H290.928V201.248H294.516V202.208H290.928V205.04H295.392V206H289.884ZM296.625 206V197.6H299.313C300.617 197.6 301.645 197.984 302.397 198.752C303.157 199.512 303.537 200.528 303.537 201.8C303.537 203.064 303.157 204.08 302.397 204.848C301.645 205.616 300.617 206 299.313 206H296.625ZM297.669 205.04H299.313C300.297 205.04 301.069 204.756 301.629 204.188C302.189 203.612 302.469 202.816 302.469 201.8C302.469 200.784 302.189 199.992 301.629 199.424C301.077 198.848 300.305 198.56 299.313 198.56H297.669V205.04ZM308.033 206V197.6H311.249C312.089 197.6 312.765 197.836 313.277 198.308C313.789 198.772 314.045 199.396 314.045 200.18C314.045 200.764 313.881 201.272 313.553 201.704C313.233 202.128 312.801 202.416 312.257 202.568L314.141 206H312.965L311.189 202.772H309.077V206H308.033ZM309.077 201.812H311.165C311.717 201.812 312.157 201.664 312.485 201.368C312.813 201.072 312.977 200.676 312.977 200.18C312.977 199.692 312.813 199.3 312.485 199.004C312.157 198.708 311.721 198.56 311.177 198.56H309.077V201.812ZM315.454 206V197.6H320.806V198.56H316.498V201.248H320.086V202.208H316.498V205.04H320.962V206H315.454ZM324.344 206V198.56H321.62V197.6H328.112V198.56H325.388V206H324.344ZM329.276 206V197.6H332.492C333.332 197.6 334.008 197.836 334.52 198.308C335.032 198.772 335.288 199.396 335.288 200.18C335.288 200.764 335.124 201.272 334.796 201.704C334.476 202.128 334.044 202.416 333.5 202.568L335.384 206H334.208L332.432 202.772H330.32V206H329.276ZM330.32 201.812H332.408C332.96 201.812 333.4 201.664 333.728 201.368C334.056 201.072 334.22 200.676 334.22 200.18C334.22 199.692 334.056 199.3 333.728 199.004C333.4 198.708 332.964 198.56 332.42 198.56H330.32V201.812ZM336.696 206V197.6H337.74V206H336.696ZM339.418 206V197.6H344.77V198.56H340.462V201.248H344.05V202.208H340.462V205.04H344.926V206H339.418ZM348.44 206L345.416 197.6H346.52L349.088 204.764L351.644 197.6H352.724L349.7 206H348.44ZM352.1 206L355.304 197.6H356.54L359.732 206H358.616L357.728 203.732H354.068L353.18 206H352.1ZM354.38 202.784H357.416L355.892 198.74L354.38 202.784ZM360.778 206V197.6H361.822V205.04H365.65V206H360.778ZM369.959 206V197.6H375.311V198.56H371.003V201.248H374.591V202.208H371.003V205.04H375.467V206H369.959ZM376.701 206V197.6H377.661L382.173 204.08V197.6H383.193V206H382.233L377.721 199.52V206H376.701ZM388.495 206.072C387.327 206.072 386.375 205.68 385.639 204.896C384.911 204.104 384.547 203.072 384.547 201.8C384.547 200.52 384.911 199.488 385.639 198.704C386.367 197.92 387.339 197.528 388.555 197.528C389.491 197.528 390.279 197.784 390.919 198.296C391.567 198.8 391.963 199.48 392.107 200.336H391.003C390.859 199.752 390.567 199.3 390.127 198.98C389.695 198.652 389.163 198.488 388.531 198.488C387.659 198.488 386.955 198.796 386.419 199.412C385.883 200.028 385.615 200.824 385.615 201.8C385.615 202.776 385.879 203.572 386.407 204.188C386.943 204.804 387.643 205.112 388.507 205.112C389.291 205.112 389.931 204.896 390.427 204.464C390.923 204.024 391.171 203.436 391.171 202.7V202.412H388.651V201.452H392.191V206H391.291L391.219 204.776C390.995 205.128 390.651 205.432 390.187 205.688C389.723 205.944 389.159 206.072 388.495 206.072ZM393.816 206V197.6H394.86V206H393.816ZM396.537 206V197.6H397.497L402.009 204.08V197.6H403.029V206H402.069L397.557 199.52V206H396.537ZM404.708 206V197.6H410.06V198.56H405.752V201.248H409.34V202.208H405.752V205.04H410.216V206H404.708Z" fill="#F4EBE8"/>
<path d="M313.732 457.072C312.724 457.072 311.928 456.816 311.344 456.304C310.76 455.784 310.452 455.1 310.42 454.252H311.5C311.54 454.82 311.764 455.276 312.172 455.62C312.58 455.956 313.104 456.124 313.744 456.124C314.32 456.124 314.784 456 315.136 455.752C315.496 455.496 315.676 455.144 315.676 454.696C315.676 454.496 315.632 454.32 315.544 454.168C315.464 454.008 315.364 453.884 315.244 453.796C315.124 453.7 314.948 453.612 314.716 453.532C314.492 453.452 314.288 453.396 314.104 453.364C313.928 453.324 313.684 453.276 313.372 453.22C312.98 453.156 312.64 453.08 312.352 452.992C312.072 452.896 311.788 452.768 311.5 452.608C311.22 452.44 311.004 452.216 310.852 451.936C310.7 451.648 310.624 451.308 310.624 450.916C310.624 450.204 310.888 449.628 311.416 449.188C311.944 448.748 312.636 448.528 313.492 448.528C314.412 448.528 315.148 448.764 315.7 449.236C316.26 449.7 316.564 450.316 316.612 451.084H315.532C315.468 450.596 315.252 450.208 314.884 449.92C314.524 449.624 314.06 449.476 313.492 449.476C312.932 449.476 312.488 449.596 312.16 449.836C311.832 450.076 311.668 450.416 311.668 450.856C311.668 451.048 311.708 451.22 311.788 451.372C311.876 451.524 311.976 451.644 312.088 451.732C312.208 451.82 312.38 451.904 312.604 451.984C312.836 452.056 313.04 452.112 313.216 452.152C313.392 452.184 313.636 452.228 313.948 452.284C314.34 452.348 314.68 452.428 314.968 452.524C315.256 452.612 315.544 452.74 315.832 452.908C316.12 453.076 316.34 453.304 316.492 453.592C316.644 453.872 316.72 454.208 316.72 454.6C316.72 455.328 316.44 455.924 315.88 456.388C315.328 456.844 314.612 457.072 313.732 457.072ZM318.095 457V448.6H323.447V449.56H319.139V452.248H322.727V453.208H319.139V456.04H323.603V457H318.095ZM324.259 457L327.463 448.6H328.699L331.891 457H330.775L329.887 454.732H326.227L325.339 457H324.259ZM326.539 453.784H329.575L328.051 449.74L326.539 453.784ZM332.937 457V448.6H336.153C336.993 448.6 337.669 448.836 338.181 449.308C338.693 449.772 338.949 450.396 338.949 451.18C338.949 451.764 338.785 452.272 338.457 452.704C338.137 453.128 337.705 453.416 337.161 453.568L339.045 457H337.869L336.093 453.772H333.981V457H332.937ZM333.981 452.812H336.069C336.621 452.812 337.061 452.664 337.389 452.368C337.717 452.072 337.881 451.676 337.881 451.18C337.881 450.692 337.717 450.3 337.389 450.004C337.061 449.708 336.625 449.56 336.081 449.56H333.981V452.812ZM343.864 457.072C342.664 457.072 341.708 456.684 340.996 455.908C340.292 455.124 339.94 454.088 339.94 452.8C339.94 451.52 340.304 450.488 341.032 449.704C341.76 448.92 342.732 448.528 343.948 448.528C344.876 448.528 345.656 448.78 346.288 449.284C346.928 449.788 347.324 450.476 347.476 451.348H346.372C346.212 450.764 345.916 450.308 345.484 449.98C345.052 449.652 344.524 449.488 343.9 449.488C343.028 449.488 342.328 449.796 341.8 450.412C341.272 451.02 341.008 451.816 341.008 452.8C341.008 453.784 341.264 454.584 341.776 455.2C342.288 455.808 342.98 456.112 343.852 456.112C344.5 456.112 345.04 455.952 345.472 455.632C345.904 455.304 346.2 454.844 346.36 454.252H347.464C347.312 455.124 346.912 455.812 346.264 456.316C345.616 456.82 344.816 457.072 343.864 457.072ZM348.798 457V448.6H349.842V452.248H354.186V448.6H355.23V457H354.186V453.208H349.842V457H348.798Z" fill="#F4EBE8"/>
<path d="M19.1439 467L22.3479 458.6H23.5839L26.7759 467H25.6599L24.7719 464.732H21.1119L20.2239 467H19.1439ZM21.4239 463.784H24.4599L22.9359 459.74L21.4239 463.784ZM30.9653 467.072C29.7973 467.072 28.8453 466.68 28.1093 465.896C27.3813 465.104 27.0173 464.072 27.0173 462.8C27.0173 461.52 27.3813 460.488 28.1093 459.704C28.8373 458.92 29.8093 458.528 31.0253 458.528C31.9613 458.528 32.7493 458.784 33.3893 459.296C34.0373 459.8 34.4333 460.48 34.5773 461.336H33.4733C33.3293 460.752 33.0373 460.3 32.5973 459.98C32.1653 459.652 31.6333 459.488 31.0013 459.488C30.1293 459.488 29.4253 459.796 28.8893 460.412C28.3533 461.028 28.0853 461.824 28.0853 462.8C28.0853 463.776 28.3493 464.572 28.8773 465.188C29.4133 465.804 30.1133 466.112 30.9773 466.112C31.7613 466.112 32.4013 465.896 32.8973 465.464C33.3933 465.024 33.6413 464.436 33.6413 463.7V463.412H31.1213V462.452H34.6613V467H33.7613L33.6893 465.776C33.4653 466.128 33.1213 466.432 32.6573 466.688C32.1933 466.944 31.6293 467.072 30.9653 467.072ZM36.2855 467V458.6H41.6375V459.56H37.3295V462.248H40.9175V463.208H37.3295V466.04H41.7935V467H36.2855ZM43.0266 467V458.6H43.9866L48.4986 465.08V458.6H49.5186V467H48.5586L44.0466 460.52V467H43.0266ZM53.4054 467V459.56H50.6814V458.6H57.1734V459.56H54.4494V467H53.4054Z" fill="#F4EBE8"/>
<path d="M628.38 467.072C627.18 467.072 626.224 466.684 625.512 465.908C624.808 465.124 624.456 464.088 624.456 462.8C624.456 461.52 624.82 460.488 625.548 459.704C626.276 458.92 627.248 458.528 628.464 458.528C629.392 458.528 630.172 458.78 630.804 459.284C631.444 459.788 631.84 460.476 631.992 461.348H630.888C630.728 460.764 630.432 460.308 630 459.98C629.568 459.652 629.04 459.488 628.416 459.488C627.544 459.488 626.844 459.796 626.316 460.412C625.788 461.02 625.524 461.816 625.524 462.8C625.524 463.784 625.78 464.584 626.292 465.2C626.804 465.808 627.496 466.112 628.368 466.112C629.016 466.112 629.556 465.952 629.988 465.632C630.42 465.304 630.716 464.844 630.876 464.252H631.98C631.828 465.124 631.428 465.812 630.78 466.316C630.132 466.82 629.332 467.072 628.38 467.072ZM633.314 467V458.6H634.358V462.248H638.702V458.6H639.746V467H638.702V463.208H634.358V467H633.314ZM640.79 467L643.994 458.6H645.23L648.422 467H647.306L646.418 464.732H642.758L641.87 467H640.79ZM643.07 463.784H646.106L644.582 459.74L643.07 463.784ZM650.352 467V459.56H647.628V458.6H654.12V459.56H651.396V467H650.352Z" fill="#F4EBE8"/>
<defs>
<linearGradient id="paint0_linear_13_333" x1="287.457" y1="130.123" x2="373.37" y2="75.2923" gradientUnits="userSpaceOnUse">
<stop stop-color="#E7D2F6"/>
<stop offset="1" stop-color="#FF734A"/>
</linearGradient>
<linearGradient id="paint1_linear_13_333" x1="325.935" y1="110.885" x2="342.263" y2="100.515" gradientUnits="userSpaceOnUse">
<stop stop-color="#E7D2F6"/>
<stop offset="1" stop-color="#FF734A"/>
</linearGradient>
<linearGradient id="paint2_linear_13_333" x1="272.148" y1="147.851" x2="327.32" y2="123.165" gradientUnits="userSpaceOnUse">
<stop stop-color="#E7D2F6"/>
<stop offset="1" stop-color="#FF734A"/>
</linearGradient>
<linearGradient id="paint3_linear_13_333" x1="259.321" y1="410.814" x2="290.211" y2="340.708" gradientUnits="userSpaceOnUse">
<stop stop-color="#E7D2F6"/>
<stop offset="1" stop-color="#FF734A"/>
</linearGradient>
</defs>
</svg>
