<svg width="1294" height="379" viewBox="0 0 1294 379" fill="none" xmlns="http://www.w3.org/2000/svg">
<path d="M156.255 208.424C185.021 208.424 208.34 231.707 208.34 260.429C208.34 289.066 185.157 312.295 156.507 312.431C185.157 312.566 208.34 335.797 208.34 364.435C208.34 393.156 185.021 416.438 156.255 416.438C127.489 416.438 104.17 393.156 104.17 364.435C104.17 335.798 127.353 312.567 156.002 312.431C127.353 312.295 104.17 289.066 104.17 260.429C104.17 231.707 127.489 208.424 156.255 208.424ZM364.595 312.43C393.36 312.43 416.68 335.713 416.68 364.435C416.68 393.156 393.36 416.438 364.595 416.438C335.829 416.438 312.51 393.156 312.51 364.435C312.51 335.713 335.829 312.43 364.595 312.43ZM52.085 208.424C80.8506 208.424 104.17 231.707 104.17 260.429C104.17 289.15 80.8505 312.432 52.085 312.433C23.3193 312.433 0.000155656 289.15 0 260.429C0 231.707 23.3192 208.424 52.085 208.424ZM260.425 208.424C289.191 208.424 312.51 231.707 312.51 260.429C312.51 289.15 289.19 312.433 260.425 312.433C231.659 312.432 208.34 289.15 208.34 260.429C208.34 231.707 231.659 208.424 260.425 208.424ZM658.195 175.467C683.196 175.467 700.196 188.048 700.196 211.412V255.346C700.196 261.337 700.196 270.323 701.196 277.312H676.796C676.196 274.317 675.796 269.724 675.596 265.131C669.596 273.718 658.995 279.31 645.994 279.31C627.994 279.309 613.193 267.927 613.193 249.954C613.193 228.387 629.994 218.601 649.795 217.004L674.995 214.808V212.411C674.995 203.425 668.795 196.436 658.995 196.436H657.395C647.594 196.436 641.794 202.626 641.194 208.417H615.193C617.193 189.645 633.195 175.467 658.195 175.467ZM877.426 175.467C903.426 175.467 920.427 187.449 922.427 212.411H896.426C894.826 202.626 889.026 196.436 878.226 196.436H876.625C861.825 196.436 855.425 210.415 855.425 227.389C855.425 244.363 861.825 258.342 876.625 258.342H878.226C889.026 258.342 894.826 252.15 896.426 242.365H922.427C920.427 267.327 903.426 279.309 877.426 279.31C850.425 279.31 829.424 259.34 829.424 227.389C829.424 195.437 850.425 175.467 877.426 175.467ZM980.842 175.467C1010.84 175.467 1026.44 197.234 1026.44 226.19C1026.44 229.186 1026.24 232.381 1026.04 235.576H958.441C959.442 249.355 970.242 258.342 981.042 258.342H982.642C992.442 258.342 998.442 252.55 1000.24 245.761H1026.04C1021.24 265.331 1005.84 279.31 980.842 279.31C955.841 279.31 933.24 260.339 933.24 227.389C933.24 197.434 950.841 175.467 980.842 175.467ZM527.017 253.355H606.019V277.318H500.016V137.53H527.017V253.355ZM1093.85 137.53C1135.85 137.53 1164.86 161.494 1164.86 207.425C1164.86 253.355 1136.85 277.318 1094.85 277.318H1045.85V137.53H1093.85ZM1248 137.53C1275 137.53 1291 153.706 1291 173.676C1291 190.65 1281 202.432 1267.4 206.426C1282 209.421 1294 221.204 1294 240.175C1294 261.143 1276 277.318 1250 277.318H1186V137.53H1248ZM778.426 175.467C802.427 175.467 813.227 191.443 813.227 213.409V277.312H787.227V216.405C787.227 203.425 781.426 196.436 771.426 196.436H769.825C757.825 196.436 748.225 207.818 748.225 221.797V277.312H722.224V177.464H748.225V192.042C754.225 182.057 765.425 175.467 778.426 175.467ZM653.395 235.976C646.794 236.575 638.794 239.97 638.794 248.157C638.794 254.347 644.194 258.342 651.194 258.342H652.795C664.395 258.342 674.995 249.555 674.995 236.574V233.778L653.395 235.976ZM1072.85 253.355H1091.85C1118.85 253.355 1137.85 242.372 1137.85 207.425C1137.85 172.478 1118.85 161.494 1091.85 161.494H1072.85V253.355ZM1213 253.355H1246C1259 253.355 1267 247.564 1267 235.582C1267 223.6 1259 218.009 1246 218.009H1213V253.355ZM979.042 196.436C968.242 196.436 959.041 203.625 958.441 215.606H1001.24C1000.64 203.625 991.442 196.436 980.642 196.436H979.042ZM156.255 0.400391C185.021 0.400391 208.34 23.6839 208.34 52.4053C208.34 81.1265 185.021 104.409 156.255 104.409C127.539 104.409 104.251 81.2066 104.171 52.5537C104.091 81.1512 80.8933 104.319 52.2539 104.408C80.9419 104.499 104.17 127.747 104.17 156.412C104.17 185.133 80.8505 208.416 52.085 208.416C23.3194 208.416 0.000263039 185.133 0 156.412C0 127.747 23.2284 104.498 51.917 104.407C23.2296 104.316 0.00210847 81.0699 0.00195312 52.4053C0.00195312 23.684 23.3213 0.400512 52.0869 0.400391C80.8025 0.400391 104.09 23.6025 104.171 52.2549C104.252 23.6026 127.539 0.400499 156.255 0.400391ZM260.425 0.400391C289.191 0.400391 312.51 23.6839 312.51 52.4053C312.51 81.0707 289.281 104.317 260.593 104.407C289.281 104.497 312.51 127.747 312.51 156.412C312.51 185.133 289.19 208.416 260.425 208.416C231.659 208.416 208.34 185.133 208.34 156.412C208.34 127.747 231.568 104.499 260.256 104.408C231.568 104.317 208.34 81.0701 208.34 52.4053C208.34 23.684 231.659 0.400614 260.425 0.400391ZM364.595 104.407C393.36 104.407 416.68 127.691 416.68 156.412C416.68 185.133 393.36 208.416 364.595 208.416C335.829 208.416 312.51 185.133 312.51 156.412C312.51 127.691 335.829 104.407 364.595 104.407ZM1213 194.844H1244C1257 194.844 1264 189.052 1264 178.069C1264 167.086 1257 161.494 1244 161.494H1213V194.844Z" fill="url(#paint0_linear_5798_1976)"/>
<defs>
<linearGradient id="paint0_linear_5798_1976" x1="389.212" y1="64.3014" x2="389.212" y2="316.067" gradientUnits="userSpaceOnUse">
<stop stop-color="#2E2A27"/>
<stop offset="1" stop-color="#2E2A27" stop-opacity="0"/>
</linearGradient>
</defs>
</svg>
