<svg width="274" height="89" viewBox="0 0 274 89" fill="none" xmlns="http://www.w3.org/2000/svg">
<path d="M33.3574 66.1001C39.4325 66.1001 44.3574 71.025 44.3574 77.1001C44.3574 83.1752 39.4325 88.1001 33.3574 88.1001C27.2823 88.1001 22.3574 83.1752 22.3574 77.1001C22.3574 71.025 27.2823 66.1001 33.3574 66.1001ZM77.3574 66.1001C83.4325 66.1001 88.3574 71.025 88.3574 77.1001C88.3574 83.1752 83.4325 88.1001 77.3574 88.1001C71.2823 88.1001 66.3574 83.1752 66.3574 77.1001C66.3574 71.025 71.2823 66.1001 77.3574 66.1001ZM11.3574 44.1001C17.4325 44.1001 22.3574 49.025 22.3574 55.1001C22.3574 61.1752 17.4325 66.1001 11.3574 66.1001C5.2823 66.1001 0.357427 61.1752 0.357422 55.1001C0.357422 49.025 5.28229 44.1001 11.3574 44.1001ZM33.3574 44.1001C39.4325 44.1001 44.3574 49.025 44.3574 55.1001C44.3574 61.1752 39.4325 66.1001 33.3574 66.1001C27.2823 66.1001 22.3574 61.1752 22.3574 55.1001C22.3574 49.025 27.2823 44.1001 33.3574 44.1001ZM55.3574 44.1001C61.4325 44.1001 66.3574 49.025 66.3574 55.1001C66.3574 61.1752 61.4325 66.1001 55.3574 66.1001C49.2823 66.1001 44.3574 61.1752 44.3574 55.1001C44.3574 49.025 49.2823 44.1001 55.3574 44.1001ZM11.3574 22.1001C17.4325 22.1001 22.3574 27.025 22.3574 33.1001C22.3574 39.1752 17.4325 44.1001 11.3574 44.1001C5.2823 44.1001 0.357427 39.1752 0.357422 33.1001C0.357422 27.025 5.28229 22.1001 11.3574 22.1001ZM55.3574 22.1001C61.4325 22.1001 66.3574 27.025 66.3574 33.1001C66.3574 39.1752 61.4325 44.1001 55.3574 44.1001C49.2823 44.1001 44.3574 39.1752 44.3574 33.1001C44.3574 27.025 49.2823 22.1001 55.3574 22.1001ZM77.3574 22.1001C83.4325 22.1001 88.3574 27.025 88.3574 33.1001C88.3574 39.1752 83.4325 44.1001 77.3574 44.1001C71.2823 44.1001 66.3574 39.1752 66.3574 33.1001C66.3574 27.025 71.2823 22.1001 77.3574 22.1001ZM11.3574 0.100098C17.4325 0.100102 22.3574 5.02497 22.3574 11.1001C22.3574 17.1752 17.4325 22.1001 11.3574 22.1001C5.2823 22.1001 0.357427 17.1752 0.357422 11.1001C0.357422 5.02497 5.28229 0.100098 11.3574 0.100098ZM33.3574 0.100098C39.4325 0.100102 44.3574 5.02497 44.3574 11.1001C44.3574 17.1752 39.4325 22.1001 33.3574 22.1001C27.2823 22.1001 22.3574 17.1752 22.3574 11.1001C22.3574 5.02497 27.2823 0.100098 33.3574 0.100098ZM55.3574 0.100098C61.4325 0.100102 66.3574 5.02497 66.3574 11.1001C66.3574 17.1752 61.4325 22.1001 55.3574 22.1001C49.2823 22.1001 44.3574 17.1752 44.3574 11.1001C44.3574 5.02497 49.2823 0.100098 55.3574 0.100098Z" fill="url(#paint0_linear_1468_2878)"/>
<path d="M250.832 58.673V29.105H263.926C269.629 29.105 273.008 32.5264 273.008 36.7504C273.008 40.3408 270.896 42.833 268.024 43.6778C271.107 44.3114 273.642 46.8035 273.642 50.8163C273.642 55.2515 269.84 58.673 264.349 58.673H250.832ZM256.534 53.6042H263.504C266.25 53.6042 267.939 52.3792 267.939 49.8448C267.939 47.3104 266.25 46.1277 263.504 46.1277H256.534V53.6042ZM256.534 41.2279H263.082C265.827 41.2279 267.306 40.0029 267.306 37.6797C267.306 35.3565 265.827 34.1738 263.082 34.1738H256.534V41.2279Z" fill="#F4EBE8"/>
<path d="M221.234 58.673V29.105H231.372C240.242 29.105 246.367 34.1738 246.367 43.889C246.367 53.6042 240.454 58.673 231.583 58.673H221.234ZM226.937 53.6042H230.95C236.652 53.6042 240.665 51.281 240.665 43.889C240.665 36.497 236.652 34.1738 230.95 34.1738H226.937V53.6042Z" fill="#F4EBE8"/>
<path d="M207.504 59.0954C202.224 59.0954 197.451 55.0826 197.451 48.113C197.451 41.777 201.168 37.1306 207.504 37.1306C213.84 37.1306 217.135 41.7348 217.135 47.8596C217.135 48.4932 217.093 49.169 217.051 49.8448H202.773C202.985 52.7594 205.266 54.6602 207.547 54.6602H207.884C209.954 54.6602 211.221 53.4352 211.602 51.9991H217.051C216.037 56.1386 212.784 59.0954 207.504 59.0954ZM202.773 45.6208H211.813C211.686 43.0865 209.743 41.5658 207.462 41.5658H207.124C204.843 41.5658 202.9 43.0865 202.773 45.6208Z" fill="#F4EBE8"/>
<path d="M185.664 59.0954C179.962 59.0954 175.526 54.8714 175.526 48.113C175.526 41.3546 179.962 37.1306 185.664 37.1306C191.155 37.1306 194.746 39.665 195.168 44.945H189.677C189.339 42.8753 188.114 41.5658 185.833 41.5658H185.495C182.369 41.5658 181.018 44.5226 181.018 48.113C181.018 51.7034 182.369 54.6602 185.495 54.6602H185.833C188.114 54.6602 189.339 53.3508 189.677 51.281H195.168C194.746 56.561 191.155 59.0954 185.664 59.0954Z" fill="#F4EBE8"/>
<path d="M152.887 58.673V37.553H158.378V40.6365C159.645 38.5245 162.011 37.1306 164.756 37.1306C169.825 37.1306 172.106 40.5098 172.106 45.1562V58.673H166.615V45.7898C166.615 43.0442 165.39 41.5658 163.278 41.5658H162.94C160.405 41.5658 158.378 43.9735 158.378 46.9303V58.673H152.887Z" fill="#F4EBE8"/>
<path d="M136.787 59.0954C132.985 59.0954 129.859 56.6877 129.859 52.8861C129.859 48.3242 133.408 46.2545 137.589 45.9165L142.912 45.4519V44.945C142.912 43.0442 141.602 41.5658 139.532 41.5658H139.194C137.125 41.5658 135.9 42.8753 135.773 44.1002H130.282C130.704 40.1297 134.083 37.1306 139.363 37.1306C144.643 37.1306 148.234 39.7917 148.234 44.7338V54.0266C148.234 55.2938 148.234 57.1946 148.445 58.673H143.292C143.165 58.0394 143.08 57.0679 143.038 56.0964C141.771 57.9127 139.532 59.0954 136.787 59.0954ZM135.266 52.506C135.266 53.8154 136.407 54.6602 137.885 54.6602H138.223C140.673 54.6602 142.912 52.8016 142.912 50.056V49.4647L138.35 49.9293C136.956 50.056 135.266 50.7741 135.266 52.506Z" fill="#F4EBE8"/>
<path d="M105.957 58.673V29.105H111.659V53.6042H128.344V58.673H105.957Z" fill="#F4EBE8"/>
<defs>
<linearGradient id="paint0_linear_1468_2878" x1="16.5" y1="68.6001" x2="88.5" y2="19.6001" gradientUnits="userSpaceOnUse">
<stop stop-color="#E7D2F6"/>
<stop offset="1" stop-color="#FF734A"/>
</linearGradient>
</defs>
</svg>
