<svg width="66" height="34" viewBox="0 0 66 34" fill="none" xmlns="http://www.w3.org/2000/svg">
<g clip-path="url(#clip0_13_1046)">
<path fill-rule="evenodd" clip-rule="evenodd" d="M59.7185 17.1387C59.6628 17.0197 59.6378 16.9599 59.6078 16.9028C58.803 15.3718 58.0002 13.8407 57.1871 12.3097C57.1056 12.1562 57.1159 12.0656 57.2274 11.9331C58.5081 10.4373 59.7723 8.93314 61.055 7.44348C61.1003 7.39093 61.1407 7.33528 61.1577 7.24155C60.7852 7.33859 60.4128 7.43459 60.0383 7.53328C58.4928 7.94293 56.9349 8.35052 55.4039 8.76638C55.2601 8.80507 55.1949 8.76307 55.1225 8.64349C54.2452 7.17659 53.3618 5.70555 52.4742 4.25727C52.4289 4.18134 52.3794 4.10769 52.2826 4.04417C52.2114 4.43521 52.1394 4.82417 52.0695 5.21521C51.8233 6.59521 51.5771 7.96693 51.333 9.35314C51.3063 9.5019 51.2699 9.65107 51.257 9.80004C51.2448 9.94238 51.1714 9.99494 51.0419 10.0359C49.2191 10.609 47.4005 11.1862 45.5798 11.7635C45.4999 11.7885 45.4215 11.8216 45.3356 11.8992C46.8253 12.4909 48.315 13.0827 49.8253 13.6847C49.7703 13.7284 49.7339 13.7623 49.6935 13.7882C48.7625 14.3903 47.8294 14.9923 46.9004 15.5965C46.7889 15.6693 46.7007 15.6796 46.5756 15.6231C45.4625 15.1225 44.3411 14.63 43.2238 14.1335C42.7232 13.91 42.2742 13.6142 41.9245 13.1838C41.1321 12.2156 41.2894 11.1149 42.3445 10.4321C42.6901 10.2107 43.0832 10.0473 43.4742 9.919C45.2597 9.33762 47.0535 8.77693 48.8328 8.21418C48.983 8.16638 49.0521 8.09935 49.0811 7.93693C49.3211 6.55486 49.5673 5.16452 49.8176 3.799C49.9509 3.06038 50.0212 2.3052 50.3804 1.62658C50.518 1.36589 50.6825 1.11141 50.8811 0.894168C51.5928 0.103823 52.5839 0.0748571 53.3432 0.826306C53.5976 1.08079 53.8149 1.37872 54.0032 1.687C54.8308 3.03803 55.6459 4.39734 56.4652 5.76286C56.5614 5.92362 56.6479 5.9559 56.8252 5.90914C58.8218 5.37328 60.8183 4.84569 62.8252 4.3181C63.239 4.20907 63.6549 4.16955 64.079 4.24879C64.9997 4.42093 65.4032 5.1219 65.0908 6.01362C64.9495 6.41914 64.7039 6.76052 64.4287 7.08535C63.0342 8.72604 61.6356 10.375 60.2494 12.0095C60.1354 12.1436 60.1331 12.2391 60.2121 12.3902C61.048 13.9647 61.8756 15.535 62.7156 17.1281C62.9144 17.5047 63.0673 17.8978 63.0714 18.3302C63.0812 19.315 62.3597 20.1219 61.3811 20.2667C60.8328 20.3468 60.3239 20.2297 59.8087 20.0712C58.557 19.6843 57.3052 19.3036 56.0432 18.925C55.9267 18.8903 55.8822 18.8441 55.8613 18.7189C55.7173 17.8355 55.5592 16.9541 55.4061 16.0707C55.4022 16.0465 55.4094 16.0206 55.4136 15.9664C56.8432 16.3616 58.2688 16.7505 59.7377 17.1581" fill="white"/>
<path fill-rule="evenodd" clip-rule="evenodd" d="M57.236 30.0695C56.1064 30.0678 54.9809 30.0622 53.8429 30.0672C53.6933 30.0672 53.6091 30.0244 53.5264 29.8973C52.1898 27.8615 50.8367 25.8215 49.5126 23.7939C49.4697 23.7293 49.4244 23.6671 49.3485 23.558C49.0609 25.7511 48.7775 27.9029 48.494 30.0546H45.5354C45.5702 29.767 45.601 29.4877 45.6374 29.2104C45.925 26.9966 46.2167 24.8035 46.5064 22.5897C46.7836 20.4794 47.0588 18.3691 47.3402 16.2587C47.3482 16.1964 47.3902 16.1164 47.4411 16.0833C48.4591 15.4191 49.4811 14.7612 50.5032 14.1033C50.5179 14.0935 50.5388 14.0927 50.5913 14.0774C50.2831 16.436 49.9769 18.7739 49.6686 21.1119C49.6808 21.12 49.6928 21.1288 49.705 21.1369C51.3084 19.3617 52.9119 17.5783 54.5464 15.7783C54.5933 16.0514 54.6345 16.2852 54.6749 16.519C54.7897 17.1873 54.9004 17.8597 55.0224 18.5279C55.0475 18.6628 55.0111 18.7452 54.9215 18.8404C53.8849 19.9245 52.8525 21.0128 51.818 22.1093C51.7727 22.1571 51.7299 22.2064 51.6782 22.2631C51.7113 22.3154 51.7396 22.3665 51.7727 22.4133C53.5541 24.9167 55.3313 27.4202 57.1107 29.9236C57.1429 29.9689 57.1897 30.0045 57.2294 30.0449V30.0844" fill="white"/>
<path fill-rule="evenodd" clip-rule="evenodd" d="M22.2702 23.4493C22.2249 23.2197 22.1926 22.8804 22.09 22.5638C21.5934 21.0349 20.0272 20.2052 18.4072 20.5756C16.6258 20.9893 15.3451 22.39 15.1796 24.2169C15.0431 25.5618 15.7672 26.8652 17.112 27.3411C18.1962 27.7321 19.2431 27.5687 20.2155 26.9873C21.5003 26.2176 22.1955 25.0735 22.2844 23.4493H22.2702ZM14.4495 29.139C14.3622 29.7969 14.2782 30.4156 14.1971 31.0363C14.0889 31.8597 13.9798 32.6852 13.8764 33.519C13.8644 33.6152 13.8352 33.658 13.7318 33.6572C12.9186 33.6541 12.1055 33.6549 11.2904 33.6533C11.2717 33.6533 11.2531 33.6436 11.2095 33.6307C11.2587 33.2418 11.3065 32.8507 11.3574 32.4618C11.5368 31.0963 11.7153 29.7307 11.8974 28.3652C12.1064 26.8011 12.2698 25.2411 12.5367 23.6893C13.0084 20.9376 15.3505 18.579 18.0815 17.979C19.6684 17.6355 21.185 17.7947 22.5712 18.6887C23.9533 19.5783 24.7436 20.8818 24.9298 22.4956C25.1864 24.7921 24.3402 26.6956 22.716 28.2887C21.6443 29.3252 20.3574 29.9831 18.8884 30.2066C17.3636 30.4363 15.9298 30.1824 14.6471 29.2838C14.6001 29.2507 14.5492 29.2218 14.4685 29.1709" fill="white"/>
<path fill-rule="evenodd" clip-rule="evenodd" d="M13.0836 16.1042C12.1732 16.7828 11.2939 17.4366 10.4146 18.0925C10.2725 17.869 10.1456 17.6456 9.99667 17.4366C9.61392 16.9007 9.13805 16.5014 8.44702 16.4538C7.87184 16.4133 7.37943 16.6024 6.9884 17.0269C6.63874 17.4056 6.59322 17.9456 6.91971 18.3738C7.27971 18.8456 7.67281 19.2925 8.07626 19.729C8.74454 20.4531 9.44178 21.1483 10.1038 21.8807C10.7059 22.5428 11.188 23.2835 11.337 24.198C11.5141 25.2738 11.2991 26.2876 10.7907 27.2394C9.84936 28.9876 8.37005 30.0118 6.40453 30.3221C5.5397 30.4618 4.67901 30.4345 3.83901 30.1862C2.7197 29.8572 1.9397 29.1227 1.43901 28.0965C1.26211 27.7303 1.1266 27.3434 0.967285 26.9503C1.94591 26.4269 2.8997 25.9158 3.86384 25.4007C3.89694 25.4807 3.92115 25.5478 3.95198 25.6117C4.11687 25.9407 4.25198 26.2903 4.45474 26.5945C5.06094 27.4945 6.0375 27.7676 7.02026 27.3227C7.27474 27.2079 7.52095 27.0476 7.72991 26.8614C8.36716 26.2945 8.48716 25.5041 8.01543 24.7924C7.7444 24.3827 7.40509 24.0145 7.07405 23.6483C6.28371 22.771 5.46026 21.9207 4.69474 21.0207C4.16301 20.4041 3.80094 19.6883 3.68508 18.8689C3.55991 17.9669 3.74012 17.1186 4.20853 16.3655C5.37336 14.4807 7.06371 13.5103 9.29819 13.5724C10.5747 13.6185 11.5947 14.2158 12.381 15.2089C12.6147 15.5027 12.8341 15.8069 13.072 16.1255" fill="white"/>
<path fill-rule="evenodd" clip-rule="evenodd" d="M34.6836 26.1388C34.5349 27.2747 34.394 28.3526 34.2492 29.4285C34.2411 29.4835 34.1983 29.5578 34.1521 29.5789C31.9383 30.601 29.0418 30.4582 27.2418 28.4017C26.2694 27.2968 25.8618 25.981 25.9218 24.5327C26.0631 21.1603 28.8597 18.2017 32.2114 17.7879C34.1666 17.5479 35.8735 18.0755 37.1976 19.5961C38.0997 20.6306 38.5176 21.872 38.4556 23.2375C38.4152 24.1396 38.2737 25.0355 38.1618 25.9272C38.0025 27.1975 37.8287 28.472 37.6611 29.7341C37.6547 29.7784 37.6458 29.8237 37.6352 29.8812H35.0076C35.0424 29.5895 35.0747 29.3039 35.1119 29.0184C35.3027 27.5515 35.5133 26.0805 35.6809 24.6115C35.7852 23.697 35.7196 22.7888 35.3002 21.9426C34.8554 21.0426 34.1105 20.5646 33.1278 20.4612C31.096 20.246 29.1554 21.657 28.7416 23.6474C28.456 24.9674 28.9065 26.2336 29.9581 26.9371C30.9823 27.6177 32.0685 27.6198 33.1857 27.1791C33.7526 26.9557 34.2326 26.5998 34.6919 26.1219" fill="white"/>
<path fill-rule="evenodd" clip-rule="evenodd" d="M45.8559 18.1318C45.7355 19.0463 45.6159 19.9463 45.4959 20.8628C44.9373 20.8628 44.3911 20.8597 43.8449 20.8636C43.4021 20.867 42.9987 21.1533 42.8642 21.5671C42.8125 21.7287 42.7933 21.9023 42.7705 22.0719C42.4933 24.1823 42.2181 26.2719 41.9429 28.3616C41.8734 28.8912 41.8064 29.4209 41.7368 29.9588H38.9851C39.036 29.5554 39.0844 29.1643 39.1353 28.7733C39.3139 27.4119 39.4932 26.0423 39.6732 24.6974C39.8292 23.5202 39.9691 22.3388 40.1532 21.1595C40.3995 19.5871 41.9636 18.1802 43.5464 18.1181C44.3036 18.085 45.0629 18.1125 45.8429 18.1125" fill="white"/>
<path d="M60.5459 30.0699V28.9113H60.5395L60.0843 30.0699H59.9397L59.4845 28.9113H59.4773V30.0699H59.2497V28.6816H59.6035L60.0173 29.7368L60.4249 28.6816H60.7766V30.0699H60.5459ZM58.5307 28.8678V30.0699H58.3031V28.8678H57.8687V28.6818H58.9673V28.8678H58.5328" fill="white"/>
<path d="M16.746 14.1593H17.4266L17.2657 13.129L16.746 14.1593ZM17.5342 14.8255H16.4025L16.0425 15.5311H15.2397L17.0087 12.2207H17.7825L18.3846 15.5311H17.6418L17.5351 14.8255" fill="white"/>
<path d="M21.5871 12.8978H21.1836L21.0479 13.6612H21.4514C21.6955 13.6612 21.8879 13.5013 21.8879 13.1998C21.8879 13.0002 21.7667 12.8978 21.5858 12.8978H21.5871ZM20.6105 12.2315H21.6698C22.2243 12.2315 22.6112 12.5626 22.6112 13.1295C22.6112 13.8453 22.1064 14.3253 21.3864 14.3253H20.9292L20.714 15.5357H20.0229L20.6064 12.2253" fill="white"/>
<path d="M24.9599 14.1593H25.6406L25.4799 13.129L24.9599 14.1593ZM25.7461 14.8255H24.6144L24.2544 15.5311H23.4517L25.2206 12.2207H25.9944L26.5965 15.5311H25.8537L25.747 14.8255" fill="white"/>
<path d="M30.1319 15.4214C29.8981 15.5282 29.6415 15.5919 29.3829 15.5919C28.5078 15.5919 27.9595 14.936 27.9595 14.1147C27.9595 13.0636 28.8429 12.1802 29.894 12.1802C30.1567 12.1802 30.3946 12.2433 30.5891 12.3498L30.4921 13.1422C30.3466 12.9815 30.1114 12.8691 29.8218 12.8691C29.2197 12.8691 28.6838 13.4133 28.6838 14.0443C28.6838 14.5243 28.9859 14.9009 29.4618 14.9009C29.7535 14.9009 30.0349 14.7885 30.2252 14.634L30.1331 15.4202" fill="white"/>
<path d="M34.4769 14.2007H33.039L32.8052 15.5311H32.1162L32.6997 12.2207H33.3907L33.159 13.5283H34.5969L34.8307 12.2207H35.5217L34.9383 15.5311H34.2472L34.479 14.2007" fill="white"/>
<path d="M36.9595 15.5249L37.5429 12.2146H39.376L39.2595 12.8808H38.1175L38.001 13.5222H39.05L38.9335 14.1884H37.8845L37.768 14.8546H38.9101L38.7936 15.5208H36.9605" fill="white"/>
</g>
<defs>
<clipPath id="clip0_13_1046">
<rect width="64.4025" height="33.4457" fill="white" transform="translate(0.958984 0.2771)"/>
</clipPath>
</defs>
</svg>
