<svg width="126" height="22" viewBox="0 0 126 22" fill="none" xmlns="http://www.w3.org/2000/svg">
<g clip-path="url(#clip0_1912_2867)">
<path d="M39.1715 9.77468C39.5785 9.49039 39.9084 9.14209 40.147 8.74411C40.4558 8.23946 40.6102 7.678 40.6102 7.06677C40.6102 6.3418 40.4417 5.68084 40.1119 5.09802C39.782 4.51522 39.2978 4.03192 38.6732 3.65523C38.3013 3.4349 37.8381 3.27144 37.2837 3.17193C36.7363 3.07954 35.9924 3.02979 35.0661 3.02979H31.5923V17.607H36.8697C38.203 17.607 39.3399 17.2018 40.2382 16.4129C41.1435 15.6169 41.6067 14.6148 41.6067 13.4421C41.6067 12.5039 41.3681 11.7008 40.8909 11.0611C40.4909 10.5067 39.9084 10.0732 39.1715 9.77468ZM37.8381 8.60194C37.417 8.96443 36.8065 9.14921 36.0135 9.14921H33.7818V4.99852H35.8942C36.7644 4.99852 37.417 5.17621 37.8452 5.53155C38.2662 5.87985 38.4697 6.39157 38.4697 7.08808C38.4557 7.74909 38.2522 8.24657 37.8381 8.60194ZM33.7748 11.1535H36.4346C37.417 11.1535 38.1679 11.3454 38.6592 11.7221C39.1434 12.0917 39.375 12.6247 39.375 13.3497C39.375 14.0888 39.1364 14.629 38.6381 14.9986C38.1329 15.3753 37.3679 15.5672 36.3644 15.5672H33.7818V11.1535H33.7748Z" fill="#F4EBE8"/>
<path d="M56.2738 5.09802H54.1965V7.47901H52.5405H51.0107H50.2668L47.6981 13.769C47.656 13.8756 47.5718 14.103 47.4525 14.4655C47.3823 14.6787 47.3051 14.9275 47.2139 15.1976C47.1297 14.9062 47.0595 14.6503 46.9893 14.4371C46.8419 13.9609 46.7858 13.8259 46.7648 13.769L44.2384 7.47901H41.9365L46.0419 17.4222L44.2735 21.6581H46.3928L51.7546 9.29846H54.2038V15.3966C54.2038 16.2637 54.4071 16.8962 54.8074 17.28C55.2071 17.6567 55.8667 17.8557 56.772 17.8557H57.9088V15.8443H56.8285C56.6248 15.8443 56.4844 15.8017 56.4 15.7093C56.3162 15.6098 56.2738 15.4392 56.2738 15.1976V9.30558H57.9088V7.47901H56.2738V5.09802Z" fill="#F4EBE8"/>
<path d="M64.0215 7.2373C62.4986 7.2373 61.2496 7.74196 60.3019 8.72986C59.3547 9.71777 58.8774 11.0256 58.8774 12.6176C58.8774 13.2928 58.9896 13.9467 59.2211 14.5579C59.4459 15.1762 59.7827 15.7235 60.2108 16.1926C60.6948 16.7256 61.2915 17.1379 61.9653 17.4293C62.639 17.7135 63.3829 17.8628 64.1619 17.8628C65.1023 17.8628 65.9652 17.6851 66.7164 17.3298C67.4672 16.9744 68.1692 16.42 68.8005 15.6738L68.9199 15.5316L67.4111 14.302L67.299 14.4371C66.8705 14.9346 66.3937 15.3184 65.874 15.5743C65.3617 15.8301 64.8074 15.9581 64.2112 15.9581C63.2918 15.9581 62.5196 15.6951 61.9233 15.1691C61.3686 14.6858 61.0532 14.0746 60.9688 13.3141H69.25V13.0014C69.25 11.2885 68.7654 9.88836 67.8109 8.84356C66.8427 7.77038 65.5723 7.2373 64.0215 7.2373ZM61.937 9.86706C62.5054 9.37664 63.2006 9.12789 64.0006 9.12789C64.7864 9.12789 65.467 9.36952 66.0144 9.85282C66.5127 10.2935 66.8286 10.8621 66.9621 11.5444H60.9756C61.0951 10.8763 61.4178 10.3148 61.937 9.86706Z" fill="#F4EBE8"/>
<path d="M80.745 4.8848C79.3488 3.65523 77.2852 3.02979 74.6254 3.02979H71.5376V17.607H74.6254C77.2852 17.607 79.3488 16.9815 80.745 15.7519C82.1485 14.5153 82.8647 12.6887 82.8647 10.3219C82.8647 7.95517 82.1485 6.12859 80.745 4.8848ZM74.8994 15.5743H73.7343V5.0767H74.8994C76.808 5.0767 78.2539 5.51736 79.2152 6.39869C80.1698 7.27286 80.647 8.58776 80.647 10.3291C80.647 12.0561 80.1629 13.3781 79.2152 14.2523C78.2607 15.1265 76.808 15.5743 74.8994 15.5743Z" fill="#F4EBE8"/>
<path d="M92.2754 8.75831C91.8893 8.3461 91.4472 8.01203 90.9563 7.76329C90.3176 7.44346 89.6088 7.28711 88.8439 7.28711C87.3278 7.28711 86.093 7.77041 85.1662 8.72989C84.24 9.68937 83.7769 10.9616 83.7769 12.511C83.7769 13.2288 83.8963 13.8969 84.1279 14.5081C84.3594 15.1194 84.7172 15.6809 85.1804 16.1713C85.6649 16.6759 86.2334 17.0668 86.8579 17.3369C87.4823 17.5999 88.1492 17.7349 88.8439 17.7349C89.623 17.7349 90.3245 17.5856 90.928 17.2871C91.3843 17.0597 91.7982 16.747 92.1492 16.3489V17.6141H94.2123V7.47901H92.2754V8.75831ZM91.3492 10.1229C91.9386 10.7484 92.2403 11.5586 92.2403 12.5323C92.2403 13.5131 91.9386 14.3234 91.3492 14.9488C90.7598 15.5672 89.9949 15.8799 89.0755 15.8799C88.1561 15.8799 87.3912 15.5672 86.8018 14.9488C86.2119 14.3305 85.9102 13.5202 85.9102 12.5323C85.9102 11.5515 86.2119 10.7412 86.8018 10.1158C87.3912 9.49748 88.1561 9.18477 89.0755 9.18477C89.9949 9.18477 90.7598 9.49748 91.3492 10.1229Z" fill="#F4EBE8"/>
<path d="M100.563 7.28711C100.002 7.28711 99.4688 7.4008 98.9774 7.62824C98.6054 7.79883 98.2403 8.04046 97.8898 8.35317V7.47901H95.8403V17.607H97.8898V12.0135C97.8898 11.054 98.0931 10.329 98.486 9.85996C98.8721 9.39797 99.4756 9.16341 100.261 9.16341C100.956 9.16341 101.448 9.36955 101.763 9.80307C102.086 10.2438 102.255 10.9616 102.255 11.9424V17.6141H104.318V11.7718C104.318 10.393 103.981 9.29846 103.314 8.50245C102.648 7.69933 101.721 7.28711 100.563 7.28711Z" fill="#F4EBE8"/>
<path d="M112.592 14.9346C112.332 15.2687 112.023 15.5245 111.659 15.688C111.293 15.8586 110.865 15.9439 110.381 15.9439C109.49 15.9439 108.781 15.6382 108.227 15.0057C107.672 14.3802 107.392 13.5487 107.392 12.5465C107.392 11.5444 107.679 10.7128 108.241 10.0732C108.802 9.43352 109.504 9.12081 110.388 9.12081C110.837 9.12081 111.244 9.19897 111.595 9.34825C111.939 9.49749 112.255 9.73205 112.529 10.0519L112.662 10.2082L114.003 8.64458L113.869 8.52377C113.399 8.09025 112.873 7.7633 112.297 7.55005C111.728 7.33685 111.083 7.23022 110.381 7.23022C109.644 7.23022 108.956 7.35816 108.339 7.59983C107.722 7.84857 107.167 8.21818 106.711 8.70148C106.22 9.19897 105.848 9.78177 105.602 10.4357C105.349 11.0824 105.223 11.7932 105.223 12.5465C105.223 13.2999 105.349 14.0107 105.602 14.6503C105.854 15.2971 106.226 15.8799 106.711 16.3774C107.167 16.8536 107.722 17.2232 108.346 17.4719C108.971 17.7207 109.651 17.8486 110.388 17.8486C111.097 17.8486 111.75 17.7349 112.325 17.5146C112.901 17.2943 113.448 16.9389 113.967 16.4556L114.101 16.3348L112.739 14.7498L112.592 14.9346Z" fill="#F4EBE8"/>
<path d="M125.294 12.9872C125.294 11.2743 124.81 9.87417 123.855 8.82937C122.894 7.7775 121.624 7.2373 120.065 7.2373C118.543 7.2373 117.294 7.74196 116.346 8.72986C115.399 9.71777 114.921 11.0256 114.921 12.6176C114.921 13.2928 115.034 13.9467 115.266 14.5579C115.49 15.1762 115.827 15.7235 116.255 16.1926C116.739 16.7256 117.335 17.1379 118.009 17.4293C118.683 17.7135 119.427 17.8628 120.206 17.8628C121.146 17.8628 122.01 17.6851 122.76 17.3298C123.511 16.9744 124.213 16.42 124.845 15.6738L124.964 15.5316L123.455 14.302L123.343 14.4371C122.915 14.9346 122.431 15.3184 121.918 15.5743C121.406 15.8301 120.852 15.9581 120.255 15.9581C119.336 15.9581 118.564 15.6951 117.967 15.1691C117.413 14.6787 117.097 14.0746 117.013 13.3141H125.287V12.9872H125.294ZM117.981 9.86706C118.55 9.37664 119.245 9.12789 120.045 9.12789C120.83 9.12789 121.511 9.36952 122.059 9.85282C122.557 10.2935 122.873 10.8621 123.006 11.5444H117.02C117.146 10.8763 117.469 10.3148 117.981 9.86706Z" fill="#F4EBE8"/>
<path d="M6.61597 17.4436L2.93164 18.3959V1.39514L6.61597 2.35463V17.4436Z" fill="#F4EBE8"/>
<path d="M24.4204 18.4385L20.729 19.3909V0.400024L24.4204 1.35952V18.4385Z" fill="#F4EBE8"/>
<path d="M12.4617 17.9553L8.77734 18.9148V8.90051L12.4617 9.85999V17.9553Z" fill="#F4EBE8"/>
<path d="M14.8691 7.42218L18.5605 6.46265V16.4769L14.8691 15.5174V7.42218Z" fill="#F4EBE8"/>
</g>
<defs>
<clipPath id="clip0_1912_2867">
<rect width="124.8" height="21.6" fill="white" transform="translate(0.494141 0.400024)"/>
</clipPath>
</defs>
</svg>
