<svg width="115" height="32" viewBox="0 0 115 32" fill="none" xmlns="http://www.w3.org/2000/svg">
<g clip-path="url(#clip0_1912_2864)">
<path fill-rule="evenodd" clip-rule="evenodd" d="M19.1076 13.7775C18.4732 13.4443 17.7679 13.2704 17.0519 13.2704C16.3361 13.2704 15.6309 13.4443 14.9963 13.7775C14.6897 13.9507 14.409 14.1671 14.1632 14.4201V8.39722H11.4004V23.711H14.1632V17.8436C14.1551 17.4667 14.2457 17.0941 14.4262 16.7634C14.5967 16.4597 14.8488 16.2103 15.154 16.0437C15.4786 15.8707 15.8417 15.7831 16.2091 15.7892C16.4818 15.7752 16.7543 15.8187 17.009 15.917C17.2638 16.0152 17.4952 16.1659 17.6884 16.3595C17.8815 16.5532 18.0323 16.7852 18.1304 17.0408C18.229 17.2964 18.2726 17.5699 18.2593 17.8436V23.711H21.0237V17.2299C21.0376 16.5122 20.8629 15.8035 20.5166 15.1755C20.1842 14.588 19.6966 14.1042 19.1076 13.7775ZM7.0834 21.0951C6.68619 21.2625 6.25876 21.3453 5.82806 21.3386C5.35144 21.3466 4.88143 21.2259 4.4672 20.9891C4.06794 20.7576 3.73954 20.4206 3.51751 20.0149C3.28011 19.5767 3.16016 19.084 3.1694 18.5853C3.15695 18.0861 3.27708 17.5927 3.51751 17.1555C3.74496 16.7593 4.07254 16.4304 4.4672 16.2021C4.8818 15.9663 5.35165 15.846 5.82806 15.8538C6.25046 15.8487 6.66966 15.9278 7.06146 16.0864C7.42735 16.2377 7.75508 16.4689 8.02077 16.7634L9.79278 14.9636C9.30717 14.4179 8.70965 13.9841 8.04131 13.6921C7.34191 13.3909 6.58762 13.2396 5.82665 13.2476C4.849 13.2353 3.88515 13.4801 3.03097 13.9577C2.2029 14.4126 1.51465 15.0863 1.04068 15.9059C0.566725 16.7255 0.325116 17.6596 0.342151 18.6072C0.328085 19.5487 0.57023 20.4762 1.04235 21.2898C1.51447 22.1032 2.19873 22.7719 3.02138 23.2238C3.88012 23.6975 4.84695 23.9385 5.82665 23.9228C6.58762 23.931 7.34191 23.7795 8.04131 23.4784C8.72209 23.1773 9.33299 22.7373 9.8352 22.1863L8.04131 20.3851C7.78003 20.692 7.4524 20.9348 7.0834 21.0951ZM29.475 13.7142C29.8456 13.9024 30.181 14.1539 30.4659 14.4572V13.4816H33.2067V23.711H30.4659V22.7203C30.179 23.0225 29.844 23.2749 29.475 23.4673C28.8679 23.7784 28.194 23.935 27.5126 23.9228C26.6269 23.935 25.7563 23.6924 25.0034 23.2238C24.2588 22.7591 23.6536 22.1003 23.252 21.318C22.8354 20.4717 22.6186 19.5403 22.6186 18.5963C22.6186 17.6522 22.8354 16.7209 23.252 15.8745C23.6534 15.0919 24.2586 14.4332 25.0034 13.9687C25.7563 13.5 26.6269 13.2576 27.5126 13.2697C28.1929 13.2574 28.8659 13.4099 29.475 13.7142ZM28.0196 21.3607C28.7936 21.3599 29.4194 21.102 29.8972 20.5873C30.3749 20.0719 30.6138 19.4044 30.6138 18.5853C30.6235 18.0891 30.5116 17.598 30.2876 17.1555C30.0811 16.7526 29.767 16.4152 29.3805 16.1813C28.9673 15.9419 28.4967 15.821 28.0196 15.8319C27.5494 15.8223 27.0855 15.9433 26.6793 16.1813C26.2929 16.4149 25.9791 16.7524 25.7734 17.1555C25.5486 17.5978 25.4361 18.0889 25.4459 18.5853C25.4347 19.0888 25.5472 19.5875 25.7734 20.037C25.9795 20.4399 26.2932 20.7773 26.6793 21.0111C27.0855 21.2492 27.5494 21.3701 28.0196 21.3607ZM42.3792 13.5133C41.9562 13.3452 41.5045 13.2626 41.0498 13.2697C39.9104 13.2697 39.0389 13.633 38.435 14.3595L38.4131 14.3884V13.4816H35.6503V23.711H38.4131V18.0554C38.4131 17.2932 38.5995 16.7249 38.9723 16.3506C39.1626 16.1631 39.3887 16.0165 39.6374 15.92C39.8859 15.8235 40.1516 15.779 40.4179 15.7892C40.6731 15.7849 40.9269 15.8282 41.1663 15.9171C41.3797 15.9986 41.5712 16.1291 41.7255 16.2983L43.4549 14.3072C43.1622 13.9627 42.7941 13.6909 42.3792 13.5133ZM50.3798 13.7142C50.7507 13.9024 51.0864 14.1538 51.372 14.4572L51.376 13.4816H54.1169V23.711H51.376V22.7203C51.0884 23.0225 50.7533 23.2749 50.3839 23.4673C49.7773 23.7784 49.1037 23.9347 48.4228 23.9228C47.5367 23.935 46.6656 23.6924 45.9121 23.2238C45.1677 22.7591 44.5625 22.1003 44.1608 21.318C43.7443 20.4717 43.5277 19.5403 43.5277 18.5963C43.5277 17.6522 43.7443 16.7209 44.1608 15.8745C44.561 15.0923 45.1648 14.4338 45.908 13.9687C46.6615 13.5001 47.5325 13.2576 48.4186 13.2697C49.0984 13.2576 49.771 13.41 50.3798 13.7142ZM48.9245 21.3607C49.6983 21.3599 50.324 21.102 50.8019 20.5874C51.2798 20.0719 51.5187 19.4044 51.5187 18.5853C51.5282 18.0891 51.4162 17.598 51.1925 17.1555C50.9865 16.7523 50.6721 16.4149 50.2852 16.1813C49.872 15.9419 49.4013 15.821 48.9245 15.8319C48.4546 15.8225 47.9913 15.9435 47.5856 16.1813C47.1983 16.4144 46.8839 16.752 46.6782 17.1555C46.4534 17.5978 46.3409 18.0889 46.3507 18.5853C46.3394 19.0888 46.4519 19.5875 46.6782 20.037C46.8844 20.4402 47.1985 20.7778 47.5856 21.0111C47.9913 21.249 48.4546 21.3699 48.9245 21.3607ZM62.6262 21.0951C62.2288 21.2622 61.8015 21.3453 61.3708 21.3386C60.8942 21.347 60.4239 21.2264 60.0098 20.9891C59.6104 20.758 59.2818 20.421 59.0601 20.0149C58.8227 19.5767 58.7029 19.084 58.712 18.5853C58.6996 18.0861 58.8199 17.5927 59.0601 17.1555C59.2873 16.7591 59.6149 16.43 60.0098 16.2021C60.4243 15.9659 60.8944 15.8458 61.3708 15.8538C61.7931 15.8485 62.2124 15.9275 62.604 16.0864C62.9701 16.2375 63.2979 16.4688 63.5633 16.7634L65.334 14.9636C64.8488 14.4179 64.2519 13.9841 63.5839 13.6921C62.8845 13.3913 62.1303 13.2399 61.3692 13.2476C60.3916 13.2353 59.4277 13.4801 58.5736 13.9577C57.7455 14.4126 57.0572 15.0863 56.5833 15.9059C56.1092 16.7255 55.8678 17.6596 55.8847 18.6072C55.8709 19.5486 56.1129 20.4758 56.5848 21.2893C57.0565 22.1025 57.7404 22.7715 58.5626 23.2238C59.422 23.6975 60.3891 23.9383 61.3692 23.9228C62.1303 23.9307 62.8845 23.7793 63.5839 23.4784C64.2644 23.1777 64.8751 22.7376 65.3764 22.1863L63.5839 20.3851C63.3224 20.6916 62.995 20.9345 62.6262 21.0951ZM68.2681 9.22284H71.0324V13.4802H73.4155V15.9158H71.0324V23.711H68.2681V15.9158H65.885V13.4802H68.2681V9.22284ZM82.0108 13.9151C81.2191 13.4602 80.3193 13.2296 79.407 13.2476C78.4534 13.2364 77.5143 13.4815 76.6868 13.9577C75.8887 14.4132 75.2232 15.0702 74.7559 15.8635C74.3923 16.4757 74.1551 17.1552 74.0587 17.8614C73.9622 18.5677 74.0082 19.2862 74.1944 19.9741C74.3806 20.6621 74.7028 21.3054 75.1417 21.8656C75.5808 22.4258 76.1276 22.8914 76.7498 23.2348C77.625 23.7048 78.6055 23.9414 79.5977 23.9228C80.3891 23.9301 81.1741 23.7789 81.9068 23.4784C82.6034 23.1911 83.2216 22.7409 83.7103 22.1657L82.0863 20.5337C81.7867 20.8798 81.4114 21.152 80.9899 21.329C80.5407 21.5104 80.0598 21.6002 79.5756 21.5932C79.046 21.6044 78.5226 21.477 78.0572 21.223C77.6234 20.9802 77.2729 20.6113 77.0514 20.1649C76.9575 19.9784 76.8835 19.7823 76.8306 19.5801L84.2762 19.5608C84.3274 19.3481 84.3661 19.1327 84.3928 18.9155C84.5102 17.8188 84.297 16.7118 83.7802 15.7383C83.3649 14.9815 82.7537 14.3516 82.0108 13.9151ZM76.8335 17.5023C76.8822 17.3172 76.9491 17.1374 77.0336 16.9657C77.2383 16.5346 77.5647 16.1733 77.9724 15.9268C78.407 15.673 78.9032 15.5448 79.4056 15.5567C79.8671 15.5415 80.3235 15.6554 80.724 15.8855C81.0868 16.1091 81.3734 16.4377 81.5462 16.8281C81.6418 17.0394 81.7144 17.2604 81.7628 17.4872L76.8335 17.5023ZM93.9408 14.3072L92.2099 16.2983C92.0561 16.1292 91.8651 15.9986 91.652 15.9171C91.4122 15.8281 91.1578 15.7846 90.9025 15.7892C90.6362 15.7788 90.3707 15.8233 90.1225 15.9198C89.8739 16.0164 89.6478 16.1629 89.4581 16.3506C89.0852 16.7249 88.8987 17.2932 88.8987 18.0554V23.711H86.1346V13.4816H88.8987V14.3884L88.9193 14.3595C89.5253 13.633 90.3972 13.2697 91.5357 13.2697C91.9902 13.2628 92.4418 13.3455 92.865 13.5133C93.2795 13.6912 93.6477 13.963 93.9408 14.3072ZM92.9388 20.4071C92.7072 20.3989 92.4767 20.4398 92.2619 20.5274C92.0474 20.6148 91.8533 20.7468 91.6931 20.9148C91.3811 21.2559 91.2082 21.7018 91.2082 22.165C91.2082 22.628 91.3811 23.0742 91.6931 23.415C91.8533 23.5831 92.0474 23.715 92.2619 23.8026C92.4767 23.8902 92.7072 23.9312 92.9388 23.9228C93.1667 23.9292 93.3933 23.8873 93.6041 23.7999C93.8146 23.7123 94.0046 23.5813 94.1613 23.415C94.4732 23.0742 94.6463 22.628 94.6463 22.165C94.6463 21.7018 94.4732 21.2559 94.1613 20.9148C94.0046 20.7486 93.8146 20.6175 93.6041 20.53C93.3933 20.4426 93.1667 20.4007 92.9388 20.4071ZM103.195 13.7142C103.566 13.9024 103.901 14.1539 104.186 14.4572L104.182 13.4816H106.923V23.715H104.182V22.7243C103.895 23.0265 103.56 23.2789 103.191 23.4715C102.584 23.7824 101.91 23.9388 101.229 23.9269C100.342 23.939 99.4715 23.6964 98.718 23.2278C97.9739 22.7631 97.3691 22.1045 96.9679 21.3222C96.5515 20.4758 96.3347 19.5445 96.3347 18.6004C96.3347 17.6563 96.5515 16.725 96.9679 15.8786C97.3689 15.096 97.9736 14.4374 98.718 13.9728C99.4722 13.5021 100.345 13.2582 101.233 13.2697C101.913 13.2576 102.586 13.41 103.195 13.7142ZM101.739 21.3607C102.511 21.3599 103.137 21.102 103.616 20.5873H103.612C104.091 20.0719 104.331 19.4044 104.334 18.5853C104.343 18.089 104.231 17.5979 104.007 17.1555C103.8 16.7523 103.486 16.4149 103.099 16.1813C102.686 15.9419 102.215 15.821 101.739 15.8319C101.269 15.8225 100.805 15.9435 100.4 16.1813C100.013 16.4149 99.6983 16.7523 99.4923 17.1555C99.2686 17.598 99.1565 18.0891 99.1661 18.5853C99.1552 19.0886 99.267 19.587 99.4923 20.037C99.6988 20.44 100.013 20.7773 100.4 21.0111C100.805 21.249 101.269 21.3699 101.739 21.3607ZM112.156 13.4802H109.372V23.711H112.156V13.4802ZM111.377 11.7226C111.183 11.8011 110.974 11.8374 110.764 11.829C110.557 11.8353 110.35 11.798 110.158 11.7195C109.965 11.6411 109.792 11.5233 109.647 11.3736C109.362 11.0677 109.204 10.6646 109.204 10.2459C109.204 9.82718 109.362 9.4241 109.647 9.11826C109.945 8.81953 110.349 8.65174 110.77 8.65174C111.192 8.65174 111.595 8.81953 111.894 9.11826C112.173 9.42722 112.326 9.82911 112.326 10.2459C112.326 10.6627 112.173 11.0646 111.894 11.3736C111.748 11.5251 111.572 11.6441 111.377 11.7226Z" fill="#F4EBE8"/>
</g>
<defs>
<clipPath id="clip0_1912_2864">
<rect width="114.4" height="31.2" fill="white" transform="translate(0.0942383 0.599976)"/>
</clipPath>
</defs>
</svg>
