<svg width="65" height="38" viewBox="0 0 65 38" fill="none" xmlns="http://www.w3.org/2000/svg">
<g clip-path="url(#clip0_13_1062)">
<path d="M7.34244 18.999L3.77246 25.1837H10.9124L14.4824 18.999H7.34244Z" fill="white" fill-opacity="0.9" stroke="#DCE0DF" stroke-width="0.142799" stroke-linejoin="round"/>
<path d="M0.202637 31.367L3.77262 25.1838H10.9126L7.3426 31.367H0.202637Z" fill="white" fill-opacity="0.9" stroke="#DCE0DF" stroke-width="0.142799" stroke-linejoin="round"/>
<path d="M18.0525 25.1838H10.9125L7.34253 31.367H14.4825L18.0525 25.1838Z" fill="white" fill-opacity="0.9" stroke="#DCE0DF" stroke-width="0.142799" stroke-linejoin="round"/>
<path d="M25.1919 25.1838H18.0519L14.4819 31.367H21.6219L25.1919 25.1838Z" fill="white" fill-opacity="0.9" stroke="#DCE0DF" stroke-width="0.142799" stroke-linejoin="round"/>
<path d="M21.6222 18.999L18.0522 25.1837H25.1922L28.7622 18.999H21.6222Z" fill="white" fill-opacity="0.9" stroke="#DCE0DF" stroke-width="0.142799" stroke-linejoin="round"/>
<path d="M25.1918 12.8162L21.6218 18.9994H28.7618L32.3318 12.8162H25.1918Z" fill="white" fill-opacity="0.9" stroke="#DCE0DF" stroke-width="0.142799" stroke-linejoin="round"/>
<path d="M28.7621 6.63306L25.1921 12.8163H32.3321L35.9021 6.63306H28.7621Z" fill="white" fill-opacity="0.9" stroke="#DCE0DF" stroke-width="0.142799" stroke-linejoin="round"/>
<path d="M32.3324 0.449463L28.7625 6.63267H35.9024L39.4724 0.449463H32.3324Z" fill="white" fill-opacity="0.9" stroke="#DCE0DF" stroke-width="0.142799" stroke-linejoin="round"/>
<path d="M0.202637 31.3672L3.77262 37.5504H10.9126L7.3426 31.3672H0.202637Z" fill="white" fill-opacity="0.2" stroke="#DCE0DF" stroke-width="0.142799" stroke-linejoin="round"/>
<path d="M18.0525 37.5504H10.9125L7.34253 31.3672H14.4825L18.0525 37.5504Z" fill="white" fill-opacity="0.2" stroke="#DCE0DF" stroke-width="0.142799" stroke-linejoin="round"/>
<path d="M25.1919 37.5504H18.0519L14.4819 31.3672H21.6219L25.1919 37.5504Z" fill="white" fill-opacity="0.2" stroke="#DCE0DF" stroke-width="0.142799" stroke-linejoin="round"/>
<path d="M28.7618 31.367L25.1918 25.1838L21.6218 31.367L25.1918 37.5503L28.7618 31.367Z" fill="white" fill-opacity="0.5" stroke="#DCE0DF" stroke-width="0.142799" stroke-linejoin="round"/>
<path d="M35.9024 18.9994L32.3324 12.8162L28.7625 18.9994H35.9024Z" fill="white" fill-opacity="0.5" stroke="#DCE0DF" stroke-width="0.142799" stroke-linejoin="round"/>
<path d="M35.9025 6.63306L32.3325 12.8163L35.9025 18.9995L39.4725 12.8163L35.9025 6.63306Z" fill="white" fill-opacity="0.5" stroke="#DCE0DF" stroke-width="0.142799" stroke-linejoin="round"/>
<path d="M18.0523 25.1837L14.4823 18.999L10.9124 25.1837H18.0523Z" fill="white" fill-opacity="0.9" stroke="#DCE0DF" stroke-width="0.142799" stroke-linejoin="round"/>
<path d="M35.9021 18.999H28.7621L25.1921 25.1837H32.3321L35.9021 18.999Z" fill="white" fill-opacity="0.8" stroke="#DCE0DF" stroke-width="0.142799" stroke-linejoin="round"/>
<path d="M43.0425 18.999H35.9025L32.3325 25.1837H39.4725L43.0425 18.999Z" fill="white" fill-opacity="0.8" stroke="#DCE0DF" stroke-width="0.142799" stroke-linejoin="round"/>
<path d="M50.1822 6.63267L46.6122 0.449463L43.0422 6.63267L46.6122 12.8159L50.1822 6.63267Z" fill="white" fill-opacity="0.5" stroke="#DCE0DF" stroke-width="0.142799" stroke-linejoin="round"/>
<path d="M53.7518 12.8163L50.1818 6.63306L46.6118 12.8163L50.1818 18.9995L53.7518 12.8163Z" fill="white" fill-opacity="0.5" stroke="#DCE0DF" stroke-width="0.142799" stroke-linejoin="round"/>
<path d="M57.3221 18.9994L53.7521 12.8162L50.1821 18.9994L53.7521 25.184L57.3221 18.9994Z" fill="white" fill-opacity="0.5" stroke="#DCE0DF" stroke-width="0.142799" stroke-linejoin="round"/>
<path d="M60.8919 25.1837L57.3219 18.999L53.752 25.1837L57.3219 31.3669L60.8919 25.1837Z" fill="white" fill-opacity="0.5" stroke="#DCE0DF" stroke-width="0.142799" stroke-linejoin="round"/>
<path d="M64.462 31.367L60.892 25.1838L57.322 31.367L60.892 37.5503L64.462 31.367Z" fill="white" fill-opacity="0.5" stroke="#DCE0DF" stroke-width="0.142799" stroke-linejoin="round"/>
<path d="M60.892 0.449463L57.322 6.63267L60.892 12.8159L64.462 6.63267L60.892 0.449463Z" fill="white" fill-opacity="0.5" stroke="#DCE0DF" stroke-width="0.142799" stroke-linejoin="round"/>
<path d="M53.752 12.8163L57.3219 6.63306L60.8919 12.8163L57.3219 18.9995L53.752 12.8163Z" fill="white" fill-opacity="0.5" stroke="#DCE0DF" stroke-width="0.142799" stroke-linejoin="round"/>
<path d="M50.1818 18.999L46.6118 25.1837L50.1818 31.3669L53.7518 25.1837L50.1818 18.999Z" fill="white" fill-opacity="0.5" stroke="#DCE0DF" stroke-width="0.142799" stroke-linejoin="round"/>
<path d="M46.6122 37.5503L43.0422 31.367L46.6122 25.1838L50.1822 31.367L46.6122 37.5503Z" fill="white" fill-opacity="0.5" stroke="#DCE0DF" stroke-width="0.142799" stroke-linejoin="round"/>
<path d="M39.4723 37.5504L35.9023 31.3672H43.0423L46.6123 37.5504H39.4723Z" fill="white" fill-opacity="0.2" stroke="#DCE0DF" stroke-width="0.142799" stroke-linejoin="round"/>
<path d="M32.3321 25.1838H25.1921L28.7621 31.367H35.9021L32.3321 25.1838Z" fill="white" fill-opacity="0.2" stroke="#DCE0DF" stroke-width="0.142799" stroke-linejoin="round"/>
<path d="M39.4725 25.1838H32.3325L35.9025 31.367L39.4725 25.1838Z" fill="white" fill-opacity="0.2" stroke="#DCE0DF" stroke-width="0.142799" stroke-linejoin="round"/>
<path d="M39.4719 12.8162L43.0419 18.9994H50.1819L46.6119 12.8162H39.4719Z" fill="white" fill-opacity="0.2" stroke="#DCE0DF" stroke-width="0.142799" stroke-linejoin="round"/>
<path d="M43.0423 6.63306H35.9023L39.4723 12.8163H46.6123L43.0423 6.63306Z" fill="white" fill-opacity="0.2" stroke="#DCE0DF" stroke-width="0.142799" stroke-linejoin="round"/>
<path d="M60.8921 37.5504L57.3221 31.3672H50.1821L53.7521 37.5504H60.8921Z" fill="white" fill-opacity="0.2" stroke="#DCE0DF" stroke-width="0.142799" stroke-linejoin="round"/>
<path d="M53.7521 25.1838L50.1821 31.367H57.3221L53.7521 25.1838Z" fill="white" fill-opacity="0.2" stroke="#DCE0DF" stroke-width="0.142799" stroke-linejoin="round"/>
<path d="M46.6123 0.449463H39.4723L35.9023 6.63267H43.0423L46.6123 0.449463Z" fill="white" fill-opacity="0.85" stroke="#DCE0DF" stroke-width="0.142799" stroke-linejoin="round"/>
<path d="M46.6123 25.1838H39.4723L35.9023 31.367H43.0423L46.6123 25.1838Z" fill="white" fill-opacity="0.85" stroke="#DCE0DF" stroke-width="0.142799" stroke-linejoin="round"/>
<path d="M50.1819 18.999H43.0419L39.4719 25.1837H46.6119L50.1819 18.999Z" fill="white" fill-opacity="0.85" stroke="#DCE0DF" stroke-width="0.142799" stroke-linejoin="round"/>
<path d="M60.8921 0.449463H53.7521L50.1821 6.63267H57.3221L60.8921 0.449463Z" fill="white" fill-opacity="0.85" stroke="#DCE0DF" stroke-width="0.142799" stroke-linejoin="round"/>
<path d="M53.7521 12.8163L50.1821 6.63306H57.3221L53.7521 12.8163Z" fill="white" fill-opacity="0.85" stroke="#DCE0DF" stroke-width="0.142799" stroke-linejoin="round"/>
</g>
<defs>
<clipPath id="clip0_13_1062">
<rect width="64.4025" height="37.2435" fill="white" transform="translate(0.131348 0.378174)"/>
</clipPath>
</defs>
</svg>
