<svg width="94" height="29" viewBox="0 0 94 29" fill="none" xmlns="http://www.w3.org/2000/svg">
<g clip-path="url(#clip0_1912_2880)">
<path d="M13.5418 21.5476L16.1479 19.7993V11.2111H5.94059V19.7993L8.54671 21.5476V21.6702H0.293945V21.5476L2.90007 19.7993V2.07093L0.293945 0.322639V0.199951H8.54671V0.322639L5.94059 2.07093V9.86155H16.1479V2.07093L13.5418 0.322639V0.199951H21.7945V0.322639L19.1884 2.07093V19.7993L21.7945 21.5476V21.6702H13.5418V21.5476ZM27.6583 21.9769C25.1453 21.9769 23.2217 20.2593 23.2217 17.9282C23.2217 15.8119 24.773 14.4623 28.2477 13.6955L32.0947 12.8061V11.2725C32.0947 8.97209 31.009 7.74521 29.2406 7.74521C27.4722 7.74521 25.7037 9.00275 23.8422 11.5178H23.7181V7.71454C25.2694 7.1011 27.6893 6.51833 29.4578 6.51833C32.8395 6.51833 34.9491 7.99057 34.9491 10.9657V19.7379L37.3072 21.5476V21.6702H32.0947V19.7072C30.947 21.0261 29.3027 21.9769 27.6583 21.9769ZM28.651 20.014C29.6439 20.014 30.7919 19.5538 32.0947 18.6337V14.0329L28.9925 14.7384C27.1619 15.1371 26.2312 16.2413 26.2312 17.6215C26.2312 19.0018 27.255 20.014 28.651 20.014ZM49.2829 9.86155C48.3523 9.43217 47.5455 9.27881 46.7079 9.27881C45.4048 9.27881 44.1638 9.80022 43.1398 10.9657V19.7379L46.1183 21.5476V21.6702H37.9276V21.5476L40.2857 19.7379V9.37081L37.9276 8.02126V7.8679L43.1398 6.67169V9.52417C44.6291 7.77587 46.4905 6.88641 49.2829 6.88641H54.1228V6.97841L51.8271 8.66537L56.4189 17.7442L60.6071 8.66537L58.2493 6.97841V6.88641H63.9268V7.00907L62.0654 8.81873L55.9843 22.0996H55.426L49.2829 9.86155ZM70.6593 21.9769C66.7192 21.9769 63.6166 18.787 63.6166 14.401C63.6166 10.0456 66.8743 6.51833 70.8457 6.51833C74.4135 6.51833 76.5852 9.21745 76.5852 12.8367V13.2968H66.2229C66.2229 17.1614 68.4876 19.9219 71.5281 19.9219C73.1104 19.9219 74.3205 19.2778 75.9028 17.8056L76.6783 18.511C75.065 20.2286 73.5137 21.9769 70.6593 21.9769ZM73.4827 11.9779C73.5137 11.8552 73.5137 11.6405 73.5137 11.3645C73.5137 9.15611 72.3036 7.77587 70.3491 7.77587C68.3946 7.77587 66.6882 9.30947 66.3159 11.9779H73.4827ZM85.2102 21.4862L78.7879 8.81873L76.8024 7.00907V6.88641H84.1555V6.97841L81.8595 8.66537L86.5753 17.9589L90.4537 8.66537L88.0646 6.97841V6.88641H93.7423V7.00907L91.8809 8.81873L84.0624 28.0498H80.5566L85.2102 21.4862Z" fill="#F4EBE8"/>
</g>
<defs>
<clipPath id="clip0_1912_2880">
<rect width="93.6" height="28" fill="white" transform="translate(0.293945 0.199951)"/>
</clipPath>
</defs>
</svg>
