<svg width="176" height="33" viewBox="0 0 176 33" fill="none" xmlns="http://www.w3.org/2000/svg">
<g clip-path="url(#clip0_13_605)">
<path d="M16 32.3999C24.8368 32.3999 32 25.2367 32 16.3999V5.1999C32 3.92686 31.4943 2.70596 30.5941 1.80579C29.694 0.905615 28.4731 0.399902 27.2 0.399902L16.8 0.399902V7.4191C16.8 9.0207 16.8976 10.6799 17.7376 12.0431C18.339 13.0201 19.1434 13.8563 20.0964 14.4949C21.0494 15.1336 22.1286 15.5598 23.2608 15.7447L23.5672 15.7943C23.6935 15.8375 23.8032 15.9191 23.8808 16.0277C23.9585 16.1363 24.0002 16.2664 24.0002 16.3999C24.0002 16.5334 23.9585 16.6635 23.8808 16.7721C23.8032 16.8807 23.6935 16.9623 23.5672 17.0055L23.2608 17.0551C21.6066 17.3253 20.079 18.1084 18.8937 19.2936C17.7085 20.4788 16.9255 22.0064 16.6552 23.6607L16.6056 23.9671C16.5624 24.0934 16.4809 24.2031 16.3723 24.2807C16.2637 24.3584 16.1335 24.4001 16 24.4001C15.8665 24.4001 15.7364 24.3584 15.6278 24.2807C15.5192 24.2031 15.4376 24.0934 15.3944 23.9671L15.3448 23.6607C15.1599 22.5285 14.7337 21.4493 14.095 20.4963C13.4563 19.5434 12.6202 18.7389 11.6432 18.1375C10.28 17.2975 8.62083 17.1999 7.01923 17.1999H0.0192261C0.437626 25.6647 7.43203 32.3999 16 32.3999Z" fill="#F4EBE8"/>
<path d="M0 15.5999H7.0192C8.6208 15.5999 10.28 15.5023 11.6432 14.6623C12.7088 14.0057 13.6058 13.1087 14.2624 12.0431C15.1024 10.6799 15.2 9.0207 15.2 7.4191V0.399902H4.8C3.52696 0.399902 2.30606 0.905615 1.40589 1.80579C0.505713 2.70596 0 3.92686 0 5.1999L0 15.5999ZM37.164 1.9999C37.164 2.42425 36.9954 2.83122 36.6954 3.13127C36.3953 3.43133 35.9883 3.5999 35.564 3.5999C35.1397 3.5999 34.7327 3.43133 34.4326 3.13127C34.1326 2.83122 33.964 2.42425 33.964 1.9999C33.964 1.57556 34.1326 1.16859 34.4326 0.868532C34.7327 0.568473 35.1397 0.399902 35.564 0.399902C35.9883 0.399902 36.3953 0.568473 36.6954 0.868532C36.9954 1.16859 37.164 1.57556 37.164 1.9999ZM169.369 10.0831C173.842 10.0831 176 13.2071 176 16.8255V23.6215H171.319V17.6319C171.319 15.9919 170.721 14.6383 169.005 14.6383C167.289 14.6383 166.717 15.9919 166.717 17.6319V23.6207H162.036V17.6319C162.036 15.9919 161.464 14.6383 159.747 14.6383C158.031 14.6383 157.433 15.9919 157.433 17.6319V23.6207H152.753V16.8247C152.753 13.2063 154.91 10.0823 159.383 10.0823C161.828 10.0823 163.596 11.0455 164.402 12.6335C165.26 11.0455 167.133 10.0815 169.369 10.0815V10.0831ZM144.342 19.4559C145.85 19.4559 146.5 18.0759 146.5 16.4351V10.6031H151.18V17.0079C151.18 20.8351 148.944 24.0119 144.342 24.0119C139.738 24.0119 137.502 20.8359 137.502 17.0079V10.6031H142.183V16.4351C142.183 18.0751 142.833 19.4559 144.342 19.4559ZM130.62 24.0375C127.682 24.0375 125.783 23.0223 124.665 21.0439L128.046 19.1431C128.514 19.9759 129.215 20.3927 130.386 20.3927C131.348 20.3927 131.79 20.0543 131.79 19.6375C131.79 18.0495 124.925 19.6639 124.925 14.6135C124.925 12.1655 127.005 10.1871 130.542 10.1871C133.636 10.1871 135.326 11.6967 136.081 13.1551L132.7 15.0815C132.414 14.3007 131.53 13.8319 130.646 13.8319C129.97 13.8319 129.606 14.1183 129.606 14.5087C129.606 16.1231 136.47 14.6391 136.47 19.5335C136.47 22.2671 133.792 24.0375 130.62 24.0375ZM114.266 29.6095H109.586V17.0863C109.586 13.1023 112.576 10.2127 116.737 10.2127C120.794 10.2127 123.888 13.3111 123.888 17.0863C123.888 21.2519 121.131 24.0119 116.997 24.0119C116.034 24.0119 115.073 23.7255 114.266 23.2823V29.6095ZM116.737 19.6119C118.219 19.6119 119.207 18.4663 119.207 17.1119C119.207 15.7327 118.219 14.6127 116.737 14.6127C115.254 14.6127 114.266 15.7327 114.266 17.1127C114.266 18.4663 115.254 19.6119 116.737 19.6119ZM104.897 9.2239C103.362 9.2239 102.089 7.9479 102.089 6.4119C102.089 4.8759 103.362 3.5999 104.897 3.5999C106.431 3.5999 107.706 4.8759 107.706 6.4119C107.706 7.9479 106.431 9.2239 104.897 9.2239ZM102.557 10.6031H107.238V23.6215H102.557V10.6031ZM93.576 24.0119C89.5192 24.0119 86.4248 20.8879 86.4248 17.0863C86.4248 13.3111 89.5192 10.1871 93.576 10.1871C97.6328 10.1871 100.727 13.3111 100.727 17.0863C100.727 20.8879 97.6328 24.0119 93.576 24.0119ZM93.576 19.6119C95.0584 19.6119 96.0464 18.4663 96.0464 17.1119C96.0464 15.7327 95.0584 14.5871 93.576 14.5871C92.0936 14.5871 91.1056 15.7327 91.1056 17.1119C91.1056 18.4663 92.0936 19.6119 93.576 19.6119ZM77.5864 29.9999C74.3624 29.9999 72.0216 28.5679 70.8256 26.0159L74.7 23.9335C75.116 24.8191 75.896 25.7303 77.508 25.7303C79.1992 25.7303 80.3168 24.6623 80.4472 22.7879C79.8232 23.3351 78.8344 23.7511 77.3528 23.7511C73.7376 23.7511 70.8248 20.9655 70.8248 17.0599C70.8248 13.2855 73.92 10.2127 77.9768 10.2127C82.1376 10.2127 85.128 13.1031 85.128 17.0863V22.2415C85.128 26.9279 81.8768 29.9999 77.5864 29.9999ZM77.8984 19.3519C79.3024 19.3519 80.3688 18.3879 80.3688 16.9559C80.3688 15.5503 79.3032 14.6127 77.8984 14.6127C76.52 14.6127 75.428 15.5503 75.428 16.9567C75.428 18.3887 76.52 19.3511 77.8984 19.3511V19.3519ZM62.8856 24.0119C58.8288 24.0119 55.7336 20.8879 55.7336 17.0863C55.7336 13.3111 58.8288 10.1871 62.8856 10.1871C66.9416 10.1871 70.0368 13.3111 70.0368 17.0863C70.0368 20.8879 66.9424 24.0119 62.8856 24.0119ZM62.8856 19.6119C64.368 19.6119 65.356 18.4663 65.356 17.1119C65.356 15.7327 64.368 14.5871 62.8856 14.5871C61.4032 14.5871 60.4152 15.7327 60.4152 17.1119C60.4152 18.4663 61.4032 19.6119 62.8856 19.6119ZM47.2104 6.0479V19.1951H54.96V23.6215H46.56C43.596 23.6215 42.4 22.0591 42.4 19.5855V6.0479H47.2104Z" fill="#F4EBE8"/>
</g>
<defs>
<clipPath id="clip0_13_605">
<rect width="176" height="32" fill="white" transform="translate(0 0.399902)"/>
</clipPath>
</defs>
</svg>
