<svg width="116" height="22" viewBox="0 0 116 22" fill="none" xmlns="http://www.w3.org/2000/svg">
<g clip-path="url(#clip0_1912_2849)">
<path fill-rule="evenodd" clip-rule="evenodd" d="M2.40186 18.0207V3.50833H5.14831L6.91383 9.77086L8.75789 3.50833H11.5231V18.0224H9.65943V11.3621C9.65943 10.6592 9.67309 9.88006 9.6987 9.02553C9.72431 8.17099 9.76102 7.31559 9.80712 6.46019L9.87798 5.24079C9.90274 4.85426 9.9275 4.48939 9.95396 4.14446L7.71719 11.5805H6.06949L3.91296 4.32299C4.03077 5.29019 4.11615 6.36746 4.16823 7.55306C4.2203 8.74039 4.24677 10.0092 4.24677 11.3612V18.0215L2.40186 18.0207ZM13.975 18.0207V16.2319H17.7605V8.87559H14.3678V7.08593H19.7036V16.2319H23.2534V18.0215L13.975 18.0207ZM18.5459 5.15846C18.1011 5.15846 17.7477 5.04233 17.4864 4.81093C17.2243 4.57866 17.0937 4.26406 17.0937 3.86626C17.0937 3.45546 17.2243 3.13046 17.4864 2.89213C17.7477 2.65379 18.1011 2.53419 18.5451 2.53419C18.9899 2.53419 19.3433 2.65379 19.6045 2.89213C19.8666 3.13046 19.9973 3.45546 19.9973 3.86626C19.9973 4.26406 19.8666 4.57866 19.6045 4.81093C19.3433 5.04233 18.9899 5.15846 18.5459 5.15846ZM28.8044 18.22C27.7193 18.22 26.8561 17.8525 26.215 17.1167C25.5747 16.3809 25.2537 15.3834 25.2537 14.1241V10.9833C25.2537 9.72406 25.5747 8.72653 26.215 7.99073C26.8553 7.25493 27.7193 6.88746 28.8044 6.88746C29.6017 6.88746 30.2659 7.09286 30.7953 7.50366C31.2768 7.87719 31.5884 8.37726 31.7292 9.00299L31.7668 9.19366L31.7275 6.64913V3.50746H33.6689V18.0215H31.7472V15.8939C31.6294 16.6227 31.3083 17.193 30.7859 17.6038C30.2625 18.0146 29.6009 18.22 28.8044 18.22ZM29.4711 16.5101C30.1643 16.5101 30.7133 16.2917 31.1188 15.854C31.5243 15.4163 31.7275 14.8001 31.7275 14.0054V11.1021C31.7275 10.3073 31.5243 9.69113 31.1188 9.25346C30.7133 8.81579 30.1643 8.59739 29.4711 8.59739C28.7523 8.59739 28.1931 8.78633 27.7944 9.16419C27.3957 9.54206 27.1968 10.1548 27.1968 11.0033V14.1042C27.1968 14.9535 27.3957 15.5663 27.7944 15.9433C28.1931 16.3211 28.7523 16.5101 29.4711 16.5101ZM36.6314 21.6V19.8103H39.1618C39.9327 19.8103 40.5312 19.5954 40.9564 19.1647C41.3815 18.7339 41.5941 18.1333 41.5941 17.3655V8.87559H36.5332V7.08593H43.5355V17.3854C43.5355 18.6707 43.1428 19.6951 42.359 20.4569C41.5736 21.2195 40.5218 21.6 39.2002 21.6H36.6305H36.6314ZM42.3983 5.15759C41.9535 5.15759 41.6001 5.04146 41.3388 4.81006C41.0776 4.57779 40.9461 4.26319 40.9461 3.86539C40.9461 3.45459 41.0776 3.12959 41.3388 2.89126C41.6001 2.65293 41.9535 2.53333 42.3975 2.53333C42.8431 2.53333 43.1957 2.65293 43.4569 2.89126C43.719 3.12959 43.8497 3.45459 43.8497 3.86539C43.8497 4.26319 43.719 4.57779 43.4569 4.81006C43.1957 5.04146 42.8423 5.15759 42.3983 5.15759ZM52.0685 18.1801C50.7478 18.1801 49.6986 17.7962 48.92 17.0275C48.1422 16.2587 47.7529 15.1849 47.7529 13.8061V11.3014C47.7529 9.92339 48.1422 8.84873 48.92 8.07999C49.6986 7.31126 50.7478 6.92733 52.0685 6.92733C53.3893 6.92733 54.4385 7.31126 55.2171 8.07999C55.9948 8.84873 56.3841 9.92253 56.3841 11.3014V13.8061C56.3841 15.1841 55.9948 16.2587 55.2171 17.0275C54.4385 17.7962 53.3901 18.1801 52.0685 18.1801ZM52.0685 16.4503C52.801 16.4503 53.3799 16.2423 53.8042 15.8245C54.2293 15.4068 54.4419 14.7932 54.4419 13.9855V11.122C54.4419 10.3134 54.2293 9.70066 53.8042 9.28293C53.3799 8.86606 52.801 8.65719 52.0685 8.65719C51.336 8.65719 50.7572 8.86519 50.3329 9.28293C49.9077 9.70066 49.6952 10.3143 49.6952 11.122V13.9855C49.6952 14.7941 49.9077 15.4068 50.3329 15.8245C50.7572 16.2423 51.336 16.4503 52.0685 16.4503ZM63.3275 18.22C62.0597 18.22 61.0464 17.8421 60.2883 17.0864C59.5284 16.3315 59.1494 15.3037 59.1494 14.0054V7.08593H61.0916V14.0054C61.0916 14.7741 61.2914 15.3799 61.6892 15.8245C62.0888 16.2683 62.6352 16.4901 63.3284 16.4901C64.0344 16.4901 64.5902 16.2683 64.9949 15.8245C65.4004 15.3799 65.6036 14.7741 65.6036 14.0045V7.08679H67.545V14.0063C67.545 15.3045 67.1625 16.3324 66.3976 17.0873C65.6326 17.843 64.6098 18.22 63.3275 18.22ZM70.86 18.0207V7.08679H72.7826V9.19453H72.8023C72.9073 8.47866 73.2112 7.91533 73.714 7.50453C74.2177 7.09373 74.8879 6.88833 75.7246 6.88833C76.8361 6.88833 77.6993 7.23586 78.3139 7.93179C78.9286 8.62773 79.236 9.60533 79.236 10.8646V11.8188H77.2946V10.8845C77.2946 9.36006 76.5553 8.59826 75.0774 8.59826C74.3321 8.59826 73.767 8.81666 73.3811 9.25433C72.9952 9.69199 72.8023 10.3143 72.8023 11.1229V18.0215L70.86 18.0207ZM81.7468 18.0207V7.08679H83.6694V9.17546H83.689C83.7804 8.45873 84.0783 7.89886 84.5812 7.49413C85.0849 7.09026 85.7482 6.88833 86.5721 6.88833C87.6444 6.88833 88.5015 7.23326 89.1418 7.92226C89.7821 8.61126 90.1031 9.53946 90.1031 10.706V18.0224H88.1609V11.0241C88.1609 10.2285 87.9645 9.61833 87.5727 9.19539C87.1799 8.77073 86.6447 8.55839 85.9642 8.55839C85.2582 8.55839 84.7024 8.78026 84.2969 9.22399C83.8914 9.66859 83.689 10.2883 83.689 11.083V18.0224H81.7468V18.0207ZM97.1848 18.22C95.8897 18.22 94.8473 17.8291 94.0559 17.0474C93.2645 16.2648 92.8692 15.1979 92.8692 13.8459V11.2615C92.8692 9.90953 93.2645 8.84266 94.0559 8.06006C94.8473 7.27833 95.8897 6.88746 97.1848 6.88746C98.0471 6.88746 98.8026 7.06339 99.4498 7.41439C100.081 7.74945 100.605 8.25985 100.961 8.88599C101.319 9.51519 101.5 10.2467 101.5 11.0821V13.0512H94.7722V14.0045C94.7722 14.8001 94.9873 15.4233 95.4193 15.8739C95.8504 16.3246 96.4387 16.5499 97.1848 16.5499C97.8123 16.5499 98.3288 16.4303 98.7343 16.192C99.1399 15.9537 99.3815 15.6226 99.46 15.1979H101.401C101.271 16.1253 100.82 16.8619 100.048 17.4053C99.2765 17.9487 98.322 18.22 97.1848 18.22ZM94.7713 11.0821V11.5995H99.5975V11.0821C99.5975 10.2475 99.3883 9.60446 98.9691 9.15379C98.5508 8.70313 97.9557 8.47779 97.1848 8.47779C96.4131 8.47779 95.818 8.70313 95.3997 9.15379C94.9813 9.60446 94.7713 10.2475 94.7713 11.0821ZM106.012 21.6L107.581 17.3655L103.56 7.08679H105.619L108.052 13.5478C108.156 13.826 108.261 14.1241 108.365 14.4422C108.47 14.7603 108.542 15.0393 108.581 15.2777C108.631 14.9955 108.696 14.7166 108.778 14.4422C108.869 14.1241 108.967 13.8269 109.071 13.5478L111.327 7.08593H113.387L108.031 21.6H106.012Z" fill="#F4EBE8"/>
</g>
<defs>
<clipPath id="clip0_1912_2849">
<rect width="114.4" height="20.8" fill="white" transform="translate(0.694336 0.800049)"/>
</clipPath>
</defs>
</svg>
