<svg width="108" height="32" viewBox="0 0 108 32" fill="none" xmlns="http://www.w3.org/2000/svg">
<path d="M37.4269 20.8781C35.9525 20.8781 34.4507 20.2612 33.5104 19.0519V25.5844H30.5571V9.45789H33.2275L33.3295 11.2318C34.2454 9.86871 35.8721 9.14868 37.4241 9.14868C40.4003 9.14868 42.5926 11.6702 42.5926 15.0134C42.5926 18.3566 40.4031 20.8796 37.4269 20.8781ZM36.5124 11.3625C34.7824 11.3625 33.384 12.7256 33.384 15.0149C33.384 17.3041 34.7824 18.6701 36.5124 18.6701C38.2424 18.6701 39.6408 17.307 39.6408 15.0178C39.6408 12.7285 38.2424 11.3625 36.5124 11.3625Z" fill="white"/>
<path d="M53.7236 20.5716L53.6217 18.7977C52.7057 20.1608 51.0777 20.8808 49.5257 20.8794C46.5495 20.8794 44.3572 18.3593 44.3572 15.0161C44.3572 11.6729 46.5452 9.15138 49.5257 9.15283C51.0777 9.15283 52.7057 9.87866 53.6217 11.236L53.7236 9.46204H56.3998V20.5716H53.7236ZM50.4431 11.3637C48.7131 11.3637 47.3147 12.7268 47.3133 15.0161C47.3118 17.3054 48.7116 18.6699 50.4417 18.6699C52.1717 18.6699 53.5715 17.3068 53.5715 15.0176C53.5715 12.7283 52.1731 11.3637 50.4431 11.3637Z" fill="white"/>
<path d="M66.718 20.5738V14.4275C66.718 12.2674 65.9815 11.5474 64.6334 11.5474C63.2335 11.5474 61.7074 12.8321 61.7074 14.3752V20.5738H58.7556V9.46278H61.4533L61.5811 11.5212C62.319 10.1059 63.9715 9.15503 65.6513 9.15503C68.5758 9.15503 69.6712 11.2135 69.6712 13.9644V20.5753L66.718 20.5738Z" fill="white"/>
<path d="M80.4864 20.5752L80.3844 18.7998C79.4685 20.163 77.8404 20.883 76.2898 20.883C73.3136 20.883 71.1213 18.3614 71.1213 15.0183C71.1213 11.6751 73.3093 9.15499 76.2898 9.15499C77.7643 9.15499 79.2646 9.7734 80.2064 10.9812V5.14404H83.1582V20.5752H80.4864ZM77.2058 11.3673C75.483 11.3673 74.0774 12.7304 74.0774 15.0183C74.0774 17.3061 75.4758 18.6692 77.2058 18.6692C78.9358 18.6692 80.3342 17.3075 80.3342 15.0183C80.3342 12.729 78.9401 11.3673 77.2058 11.3673Z" fill="white"/>
<path d="M94.2446 20.5772L94.1427 18.8033C93.2267 20.1664 91.5987 20.885 90.0467 20.885C87.0705 20.885 84.8782 18.3649 84.8782 15.0203C84.8782 11.6756 87.0662 9.15698 90.0467 9.15698C91.5987 9.15698 93.2267 9.88281 94.1427 11.2416L94.2446 9.46619H96.915V20.5758L94.2446 20.5772ZM90.9641 11.3693C89.2413 11.3693 87.8357 12.7324 87.8343 15.0217C87.8328 17.311 89.2341 18.6697 90.9626 18.6697C92.6912 18.6697 94.0925 17.3066 94.0925 15.0174C94.0925 12.7281 92.6941 11.3693 90.9641 11.3693Z" fill="white"/>
<path d="M103.452 20.939C101.899 20.9259 100.379 20.4902 99.0513 19.6775L99.5351 17.6205C100.425 18.1605 101.773 18.8558 103.401 18.8558C104.572 18.8558 105.386 18.4958 105.386 17.5697C105.386 16.7727 104.546 16.4896 103.045 16.1296C100.349 15.5373 99.3829 14.0973 99.3829 12.528C99.3829 10.7788 100.731 9.13403 103.707 9.13403C105.513 9.13403 107.091 9.931 107.44 10.1371L106.956 12.0925C105.995 11.5076 104.899 11.1882 103.778 11.1664C102.583 11.1664 101.997 11.5772 101.997 12.2464C101.997 12.9911 102.761 13.3264 103.93 13.6095C106.83 14.2265 108 15.5896 108 17.0819C108.006 19.4728 106.276 20.939 103.452 20.939Z" fill="white"/>
<path d="M9.879 1.89282H6.42041V9.15405H9.879V1.89282Z" fill="white"/>
<path d="M9.879 16.8074H6.42041V24.0686H9.879V16.8074Z" fill="white"/>
<path d="M9.879 11.2729H6.42041V14.6989H9.879V11.2729Z" fill="#DEDEDE"/>
<path d="M4.32407 7.86328H0.865479V32.0001H4.32407V7.86328Z" fill="white"/>
<path d="M15.3202 22.7986H11.8616V30.0598H15.3202V22.7986Z" fill="white"/>
<path d="M15.3202 7.87158H11.8616V15.1328H15.3202V7.87158Z" fill="white"/>
<path d="M15.3202 17.2517H11.8616V20.6776H15.3202V17.2517Z" fill="#FAFAFA"/>
<path d="M20.7599 0H17.3013V24.1368H20.7599V0Z" fill="white"/>
</svg>
