<svg width="133" height="32" viewBox="0 0 133 32" fill="none" xmlns="http://www.w3.org/2000/svg">
<g clip-path="url(#clip0_13_1044)">
<path d="M0.347631 23.7639H1.7749C1.82071 23.7639 1.86607 23.773 1.90838 23.7905C1.95068 23.8081 1.98909 23.8339 2.0214 23.8664C2.0537 23.8989 2.07926 23.9374 2.09662 23.9798C2.11397 24.0222 2.12279 24.0677 2.12254 24.1135V29.4266C2.12279 29.4724 2.11397 29.5178 2.09662 29.5602C2.07926 29.6026 2.0537 29.6411 2.0214 29.6736C1.98909 29.7061 1.95068 29.7319 1.90838 29.7495C1.86607 29.7671 1.82071 29.7761 1.7749 29.7761H0.347631C0.301815 29.7761 0.256451 29.7671 0.214147 29.7495C0.171843 29.7319 0.133438 29.7061 0.101131 29.6736C0.0688242 29.6411 0.0432658 29.6026 0.0259093 29.5602C0.00855276 29.5178 -0.000249165 29.4724 5.36658e-06 29.4266V24.1135C5.36658e-06 23.9203 0.155463 23.7639 0.347631 23.7639ZM3.64732 16.7812H4.76459C4.83069 16.7812 4.89615 16.7942 4.9572 16.8196C5.01825 16.8449 5.07369 16.8821 5.12035 16.9289C5.167 16.9758 5.20394 17.0314 5.22906 17.0925C5.25418 17.1536 5.26699 17.2192 5.26674 17.2853V23.7639C5.26699 23.83 5.25418 23.8955 5.22906 23.9567C5.20394 24.0178 5.167 24.0734 5.12035 24.1202C5.07369 24.1671 5.01825 24.2042 4.9572 24.2296C4.89615 24.2549 4.83069 24.268 4.76459 24.268H3.64732C3.58121 24.268 3.51575 24.2549 3.4547 24.2296C3.39365 24.2042 3.33821 24.1671 3.29156 24.1202C3.2449 24.0734 3.20796 24.0178 3.18284 23.9567C3.15772 23.8955 3.14491 23.83 3.14517 23.7639V17.2853C3.14491 17.2192 3.15772 17.1536 3.18284 17.0925C3.20796 17.0314 3.2449 16.9758 3.29156 16.9289C3.33821 16.8821 3.39365 16.8449 3.4547 16.8196C3.51575 16.7942 3.58121 16.7812 3.64732 16.7812ZM3.49185 25.1255H4.9191C4.96491 25.1255 5.01028 25.1345 5.05258 25.1521C5.09489 25.1697 5.13329 25.1955 5.1656 25.228C5.1979 25.2605 5.22348 25.299 5.24083 25.3414C5.25819 25.3838 5.26699 25.4292 5.26674 25.4751V31.101C5.26699 31.1468 5.25819 31.1923 5.24083 31.2347C5.22348 31.2771 5.1979 31.3156 5.1656 31.3481C5.13329 31.3806 5.09489 31.4064 5.05258 31.424C5.01028 31.4415 4.96491 31.4506 4.9191 31.4506H3.49185C3.44603 31.4506 3.40067 31.4415 3.35836 31.424C3.31606 31.4064 3.27764 31.3806 3.24533 31.3481C3.21303 31.3156 3.18747 31.2771 3.17011 31.2347C3.15276 31.1923 3.14395 31.1468 3.14421 31.101V25.4751C3.14421 25.2819 3.29968 25.1255 3.49185 25.1255ZM6.63798 9.73375H8.06523C8.11105 9.73375 8.15641 9.74281 8.19871 9.7604C8.24102 9.77799 8.27942 9.80377 8.31173 9.83625C8.34404 9.86874 8.36961 9.9073 8.38697 9.9497C8.40432 9.9921 8.41313 10.0375 8.41287 10.0833V20.6187C8.41313 20.6645 8.40432 20.71 8.38697 20.7524C8.36961 20.7948 8.34404 20.8333 8.31173 20.8658C8.27942 20.8983 8.24102 20.9241 8.19871 20.9417C8.15641 20.9592 8.11105 20.9683 8.06523 20.9683H6.63798C6.59217 20.9683 6.5468 20.9592 6.5045 20.9417C6.46219 20.9241 6.42379 20.8983 6.39148 20.8658C6.35917 20.8333 6.3336 20.7948 6.31625 20.7524C6.29889 20.71 6.29009 20.6645 6.29034 20.6187V10.0833C6.29034 9.8902 6.44581 9.73375 6.63798 9.73375ZM6.63798 21.9571H8.06523C8.11105 21.9571 8.15641 21.9662 8.19871 21.9838C8.24102 22.0014 8.27942 22.0272 8.31173 22.0596C8.34404 22.0921 8.36961 22.1307 8.38697 22.1731C8.40432 22.2155 8.41313 22.2609 8.41287 22.3067V25.5736C8.41313 25.6194 8.40432 25.6648 8.38697 25.7072C8.36961 25.7496 8.34404 25.7881 8.31173 25.8206C8.27942 25.8531 8.24102 25.8789 8.19871 25.8965C8.15641 25.9141 8.11105 25.9231 8.06523 25.9231H6.63798C6.59217 25.9231 6.5468 25.9141 6.5045 25.8965C6.46219 25.8789 6.42379 25.8531 6.39148 25.8206C6.35917 25.7881 6.3336 25.7496 6.31625 25.7072C6.29889 25.6648 6.29009 25.6194 6.29034 25.5736V22.3067C6.29034 22.1136 6.44581 21.9571 6.63798 21.9571ZM6.79249 28.5855H7.90976C8.18787 28.5855 8.41191 28.8124 8.41191 29.0895V30.9436C8.41217 31.0097 8.39936 31.0752 8.37424 31.1364C8.34912 31.1975 8.31218 31.2531 8.26552 31.2999C8.21887 31.3468 8.16343 31.3839 8.10238 31.4093C8.04133 31.4346 7.97587 31.4477 7.90976 31.4477H6.79249C6.72639 31.4477 6.66093 31.4346 6.59988 31.4093C6.53883 31.3839 6.48339 31.3468 6.43673 31.2999C6.39008 31.2531 6.35312 31.1975 6.328 31.1364C6.30288 31.0752 6.29009 31.0097 6.29034 30.9436V29.0895C6.29009 29.0234 6.30288 28.9579 6.328 28.8968C6.35312 28.8356 6.39008 28.7801 6.43673 28.7332C6.48339 28.6864 6.53883 28.6492 6.59988 28.6239C6.66093 28.5985 6.72639 28.5855 6.79249 28.5855ZM9.78316 4.73644H11.2104C11.2562 4.73644 11.3016 4.7455 11.3439 4.76309C11.3862 4.78068 11.4246 4.80646 11.4569 4.83894C11.4892 4.87143 11.5148 4.90998 11.5321 4.95238C11.5495 4.99478 11.5583 5.04019 11.558 5.08601V12.5371C11.5583 12.5829 11.5495 12.6283 11.5321 12.6707C11.5148 12.7131 11.4892 12.7517 11.4569 12.7842C11.4246 12.8166 11.3862 12.8424 11.3439 12.86C11.3016 12.8776 11.2562 12.8867 11.2104 12.8867H9.78316C9.73734 12.8867 9.69198 12.8776 9.64967 12.86C9.60737 12.8424 9.56895 12.8166 9.53664 12.7842C9.50433 12.7517 9.47878 12.7131 9.46142 12.6707C9.44406 12.6283 9.43526 12.5829 9.43552 12.5371V5.08311C9.43552 4.88998 9.59099 4.73354 9.78316 4.73354V4.73644ZM9.78316 13.7944H11.2114C11.257 13.7945 11.3022 13.8036 11.3443 13.8212C11.3865 13.8388 11.4247 13.8645 11.4569 13.8969C11.4891 13.9292 11.5146 13.9676 11.532 14.0099C11.5493 14.0521 11.5582 14.0973 11.558 14.143V24.2438C11.5582 24.2895 11.5493 24.3347 11.532 24.377C11.5146 24.4192 11.4891 24.4576 11.4569 24.4899C11.4247 24.5223 11.3865 24.548 11.3443 24.5656C11.3022 24.5832 11.257 24.5923 11.2114 24.5924H9.78316C9.7375 24.5923 9.69232 24.5832 9.65019 24.5656C9.60806 24.548 9.56981 24.5223 9.53761 24.4899C9.50542 24.4576 9.47992 24.4192 9.46257 24.377C9.44522 24.3347 9.43635 24.2895 9.43647 24.2438V14.143C9.43647 13.9498 9.59195 13.7944 9.78316 13.7944ZM12.9283 3.1991H14.3556C14.4014 3.1991 14.4468 3.20815 14.4891 3.22575C14.5314 3.24334 14.5698 3.26911 14.6021 3.3016C14.6344 3.33409 14.6599 3.37264 14.6773 3.41504C14.6947 3.45745 14.7035 3.50285 14.7032 3.54867V8.51798C14.7035 8.5638 14.6947 8.60921 14.6773 8.65161C14.6599 8.69402 14.6344 8.73256 14.6021 8.76505C14.5698 8.79754 14.5314 8.82331 14.4891 8.84091C14.4468 8.8585 14.4014 8.86755 14.3556 8.86755H12.9283C12.8825 8.86755 12.8371 8.8585 12.7948 8.84091C12.7525 8.82331 12.7141 8.79754 12.6818 8.76505C12.6495 8.73256 12.624 8.69402 12.6066 8.65161C12.5892 8.60921 12.5804 8.5638 12.5807 8.51798V3.5477C12.5807 3.35457 12.7361 3.1991 12.9283 3.1991ZM12.9283 9.74051H14.3556C14.4014 9.74051 14.4468 9.74957 14.4891 9.76716C14.5314 9.78475 14.5698 9.81053 14.6021 9.84302C14.6344 9.8755 14.6599 9.91405 14.6773 9.95645C14.6947 9.99885 14.7035 10.0443 14.7032 10.0901V17.2389C14.7035 17.2847 14.6947 17.3301 14.6773 17.3725C14.6599 17.4149 14.6344 17.4535 14.6021 17.486C14.5698 17.5185 14.5314 17.5442 14.4891 17.5618C14.4468 17.5794 14.4014 17.5885 14.3556 17.5885H12.9283C12.8825 17.5885 12.8371 17.5794 12.7948 17.5618C12.7525 17.5442 12.7141 17.5185 12.6818 17.486C12.6495 17.4535 12.624 17.4149 12.6066 17.3725C12.5892 17.3301 12.5804 17.2847 12.5807 17.2389V10.0901C12.5807 9.89695 12.7361 9.74051 12.9283 9.74051ZM12.9283 18.6179H14.3556C14.4014 18.6179 14.4468 18.6269 14.4891 18.6445C14.5314 18.6621 14.5698 18.6879 14.6021 18.7204C14.6344 18.7529 14.6599 18.7914 14.6773 18.8338C14.6947 18.8762 14.7035 18.9216 14.7032 18.9674V25.3911C14.7035 25.4369 14.6947 25.4823 14.6773 25.5247C14.6599 25.5671 14.6344 25.6056 14.6021 25.6381C14.5698 25.6706 14.5314 25.6964 14.4891 25.714C14.4468 25.7316 14.4014 25.7406 14.3556 25.7406H12.9283C12.8825 25.7406 12.8371 25.7316 12.7948 25.714C12.7525 25.6964 12.7141 25.6706 12.6818 25.6381C12.6495 25.6056 12.624 25.5671 12.6066 25.5247C12.5892 25.4823 12.5804 25.4369 12.5807 25.3911V18.9674C12.5807 18.7743 12.7361 18.6179 12.9283 18.6179ZM16.2261 1.95242H17.3433C17.4094 1.95242 17.4749 1.96547 17.536 1.99083C17.597 2.01619 17.6524 2.05335 17.6991 2.10018C17.7458 2.14702 17.7827 2.2026 17.8078 2.26375C17.8329 2.3249 17.8457 2.3904 17.8455 2.4565V11.7858C17.8457 11.8519 17.8329 11.9174 17.8078 11.9786C17.7827 12.0397 17.7458 12.0953 17.6991 12.1421C17.6524 12.1889 17.597 12.2261 17.536 12.2515C17.4749 12.2768 17.4094 12.2899 17.3433 12.2899H16.2261C16.16 12.2899 16.0945 12.2768 16.0335 12.2515C15.9724 12.2261 15.917 12.1889 15.8703 12.1421C15.8237 12.0953 15.7867 12.0397 15.7616 11.9786C15.7365 11.9174 15.7237 11.8519 15.7239 11.7858V2.4565C15.7237 2.3904 15.7365 2.3249 15.7616 2.26375C15.7867 2.2026 15.8237 2.14702 15.8703 2.10018C15.917 2.05335 15.9724 2.01619 16.0335 1.99083C16.0945 1.96547 16.16 1.95242 16.2261 1.95242ZM16.2261 13.3212H17.3433C17.4094 13.3212 17.4749 13.3343 17.536 13.3596C17.597 13.385 17.6524 13.4221 17.6991 13.469C17.7458 13.5158 17.7827 13.5714 17.8078 13.6325C17.8329 13.6937 17.8457 13.7592 17.8455 13.8253V15.9903C17.8457 16.0564 17.8329 16.1219 17.8078 16.1831C17.7827 16.2442 17.7458 16.2998 17.6991 16.3466C17.6524 16.3935 17.597 16.4306 17.536 16.456C17.4749 16.4813 17.4094 16.4944 17.3433 16.4944H16.2261C16.16 16.4944 16.0945 16.4813 16.0335 16.456C15.9724 16.4306 15.917 16.3935 15.8703 16.3466C15.8237 16.2998 15.7867 16.2442 15.7616 16.1831C15.7365 16.1219 15.7237 16.0564 15.7239 15.9903V13.8253C15.7237 13.7592 15.7365 13.6937 15.7616 13.6325C15.7867 13.5714 15.8237 13.5158 15.8703 13.469C15.917 13.4221 15.9724 13.385 16.0335 13.3596C16.0945 13.3343 16.16 13.3212 16.2261 13.3212ZM16.2261 17.2167H17.3424C17.4085 17.2167 17.4739 17.2297 17.535 17.2551C17.596 17.2805 17.6515 17.3176 17.6981 17.3645C17.7448 17.4113 17.7817 17.4669 17.8069 17.528C17.832 17.5892 17.8448 17.6547 17.8445 17.7208V27.362C17.8448 27.4281 17.832 27.4936 17.8069 27.5547C17.7817 27.6159 17.7448 27.6715 17.6981 27.7183C17.6515 27.7651 17.596 27.8023 17.535 27.8276C17.4739 27.853 17.4085 27.866 17.3424 27.866H16.2261C16.16 27.866 16.0945 27.853 16.0335 27.8276C15.9724 27.8023 15.917 27.7651 15.8703 27.7183C15.8237 27.6715 15.7867 27.6159 15.7616 27.5547C15.7365 27.4936 15.7237 27.4281 15.7239 27.362V17.7208C15.7237 17.6547 15.7365 17.5892 15.7616 17.528C15.7867 17.4669 15.8237 17.4113 15.8703 17.3645C15.917 17.3176 15.9724 17.2805 16.0335 17.2551C16.0945 17.2297 16.16 17.2167 16.2261 17.2167ZM19.3722 0.706714H20.4895C20.7676 0.706714 20.9916 0.933649 20.9916 1.21079V3.06487C20.9919 3.13098 20.9791 3.19648 20.954 3.25762C20.9288 3.31877 20.8919 3.37436 20.8452 3.42119C20.7986 3.46802 20.7431 3.50519 20.6821 3.53054C20.621 3.5559 20.5556 3.56895 20.4895 3.56895H19.3722C19.3061 3.56895 19.2406 3.5559 19.1796 3.53054C19.1185 3.50519 19.0631 3.46802 19.0164 3.42119C18.9698 3.37436 18.9329 3.31877 18.9077 3.25762C18.8826 3.19648 18.8698 3.13098 18.8701 3.06487V1.21272C18.8698 1.14662 18.8826 1.08112 18.9077 1.01997C18.9329 0.958824 18.9698 0.903239 19.0164 0.856406C19.0631 0.809573 19.1185 0.772414 19.1796 0.747058C19.2406 0.721703 19.3061 0.708652 19.3722 0.708652V0.706714ZM19.3722 4.44288H20.4895C20.5556 4.44288 20.621 4.45593 20.6821 4.48128C20.7431 4.50664 20.7986 4.5438 20.8452 4.59063C20.8919 4.63746 20.9288 4.69305 20.954 4.75419C20.9791 4.81534 20.9919 4.88085 20.9916 4.94696V19.26C20.9919 19.3261 20.9791 19.3917 20.954 19.4528C20.9288 19.5139 20.8919 19.5695 20.8452 19.6164C20.7986 19.6632 20.7431 19.7004 20.6821 19.7257C20.621 19.7511 20.5556 19.7641 20.4895 19.7641H19.3722C19.3061 19.7641 19.2406 19.7511 19.1796 19.7257C19.1185 19.7004 19.0631 19.6632 19.0164 19.6164C18.9698 19.5695 18.9329 19.5139 18.9077 19.4528C18.8826 19.3917 18.8698 19.3261 18.8701 19.26V4.94792C18.8698 4.88182 18.8826 4.81631 18.9077 4.75516C18.9329 4.69401 18.9698 4.63844 19.0164 4.5916C19.0631 4.54477 19.1185 4.5076 19.1796 4.48225C19.2406 4.45689 19.3061 4.44288 19.3722 4.44288ZM19.3722 20.7964H20.4895C20.7676 20.7964 20.9916 21.0233 20.9916 21.3005V25.1786C20.9919 25.2447 20.9791 25.3102 20.954 25.3714C20.9288 25.4325 20.8919 25.4881 20.8452 25.5349C20.7986 25.5818 20.7431 25.6189 20.6821 25.6443C20.621 25.6696 20.5556 25.6827 20.4895 25.6827H19.3722C19.3061 25.6827 19.2406 25.6696 19.1796 25.6443C19.1185 25.6189 19.0631 25.5818 19.0164 25.5349C18.9698 25.4881 18.9329 25.4325 18.9077 25.3714C18.8826 25.3102 18.8698 25.2447 18.8701 25.1786V21.3005C18.8698 21.2344 18.8826 21.1689 18.9077 21.1077C18.9329 21.0466 18.9698 20.991 19.0164 20.9442C19.0631 20.8973 19.1185 20.8602 19.1796 20.8348C19.2406 20.8095 19.3061 20.7964 19.3722 20.7964ZM19.3722 26.715H20.4895C20.5556 26.715 20.621 26.728 20.6821 26.7534C20.7431 26.7787 20.7986 26.8159 20.8452 26.8627C20.8919 26.9096 20.9288 26.9652 20.954 27.0263C20.9791 27.0874 20.9919 27.1529 20.9916 27.2191V29.696C20.9919 29.7621 20.9791 29.8276 20.954 29.8887C20.9288 29.9499 20.8919 30.0055 20.8452 30.0523C20.7986 30.0991 20.7431 30.1363 20.6821 30.1617C20.621 30.187 20.5556 30.2001 20.4895 30.2001H19.3722C19.3061 30.2001 19.2406 30.187 19.1796 30.1617C19.1185 30.1363 19.0631 30.0991 19.0164 30.0523C18.9698 30.0055 18.9329 29.9499 18.9077 29.8887C18.8826 29.8276 18.8698 29.7621 18.8701 29.696V27.2191C18.8698 27.1529 18.8826 27.0874 18.9077 27.0263C18.9329 26.9652 18.9698 26.9096 19.0164 26.8627C19.0631 26.8159 19.1185 26.7787 19.1796 26.7534C19.2406 26.728 19.3061 26.715 19.3722 26.715ZM22.5174 25.9357H23.6347C23.9128 25.9357 24.1368 26.1626 24.1368 26.4398V30.9427C24.1371 31.0088 24.1242 31.0743 24.0991 31.1354C24.074 31.1966 24.0371 31.2521 23.9904 31.299C23.9438 31.3458 23.8883 31.383 23.8273 31.4083C23.7662 31.4337 23.7008 31.4467 23.6347 31.4467H22.5174C22.4513 31.4467 22.3858 31.4337 22.3248 31.4083C22.2637 31.383 22.2083 31.3458 22.1616 31.299C22.115 31.2521 22.078 31.1966 22.0529 31.1354C22.0278 31.0743 22.015 31.0088 22.0152 30.9427V26.4398C22.015 26.3737 22.0278 26.3082 22.0529 26.247C22.078 26.1859 22.115 26.1303 22.1616 26.0834C22.2083 26.0366 22.2637 25.9995 22.3248 25.9741C22.3858 25.9487 22.4513 25.9357 22.5174 25.9357ZM22.5174 10.3624H23.6347C23.9128 10.3624 24.1368 10.5893 24.1368 10.8665V21.9079C24.1371 21.974 24.1242 22.0395 24.0991 22.1006C24.074 22.1618 24.0371 22.2174 23.9904 22.2642C23.9438 22.311 23.8883 22.3482 23.8273 22.3736C23.7662 22.3989 23.7008 22.412 23.6347 22.412H22.5174C22.4513 22.412 22.3858 22.3989 22.3248 22.3736C22.2637 22.3482 22.2083 22.311 22.1616 22.2642C22.115 22.2174 22.078 22.1618 22.0529 22.1006C22.0278 22.0395 22.015 21.974 22.0152 21.9079V10.8665C22.015 10.8004 22.0278 10.7349 22.0529 10.6737C22.078 10.6126 22.115 10.557 22.1616 10.5102C22.2083 10.4633 22.2637 10.4262 22.3248 10.4008C22.3858 10.3755 22.4513 10.3624 22.5174 10.3624ZM22.5174 0.549316H23.6347C23.7008 0.549316 23.7662 0.562367 23.8273 0.587723C23.8883 0.613079 23.9438 0.650237 23.9904 0.69707C24.0371 0.743904 24.074 0.799489 24.0991 0.860635C24.1242 0.921781 24.1371 0.987284 24.1368 1.05339V8.82507C24.1371 8.89117 24.1242 8.95667 24.0991 9.01782C24.074 9.07897 24.0371 9.13455 23.9904 9.18139C23.9438 9.22822 23.8883 9.26538 23.8273 9.29073C23.7662 9.31609 23.7008 9.32914 23.6347 9.32914H22.5174C22.4513 9.32914 22.3858 9.31609 22.3248 9.29073C22.2637 9.26538 22.2083 9.22822 22.1616 9.18139C22.115 9.13455 22.078 9.07897 22.0529 9.01782C22.0278 8.95667 22.015 8.89117 22.0152 8.82507V1.05435C22.015 0.988249 22.0278 0.922746 22.0529 0.8616C22.078 0.800454 22.115 0.744869 22.1616 0.698036C22.2083 0.651202 22.2637 0.614044 22.3248 0.588688C22.3858 0.563332 22.4513 0.549316 22.5174 0.549316ZM25.6626 28.2716H26.7798C26.8459 28.2716 26.9114 28.2847 26.9724 28.31C27.0335 28.3354 27.0889 28.3726 27.1356 28.4194C27.1822 28.4662 27.2192 28.5218 27.2443 28.5829C27.2694 28.6441 27.2822 28.7096 27.282 28.7757V30.9407C27.2822 31.0068 27.2694 31.0723 27.2443 31.1335C27.2192 31.1946 27.1822 31.2502 27.1356 31.297C27.0889 31.3439 27.0335 31.381 26.9724 31.4064C26.9114 31.4318 26.8459 31.4448 26.7798 31.4448H25.6626C25.5964 31.4448 25.531 31.4318 25.4699 31.4064C25.4089 31.381 25.3534 31.3439 25.3068 31.297C25.2601 31.2502 25.2232 31.1946 25.1981 31.1335C25.1729 31.0723 25.1602 31.0068 25.1604 30.9407V28.7757C25.1602 28.7096 25.1729 28.6441 25.1981 28.5829C25.2232 28.5218 25.2601 28.4662 25.3068 28.4194C25.3534 28.3726 25.4089 28.3354 25.4699 28.31C25.531 28.2847 25.5964 28.2716 25.6626 28.2716ZM25.6626 0.704784H26.7798C27.0579 0.704784 27.282 0.931718 27.282 1.20886V14.4317C27.2822 14.4978 27.2694 14.5633 27.2443 14.6245C27.2192 14.6856 27.1822 14.7412 27.1356 14.788C27.0889 14.8349 27.0335 14.872 26.9724 14.8974C26.9114 14.9227 26.8459 14.9358 26.7798 14.9358H25.6626C25.5964 14.9358 25.531 14.9227 25.4699 14.8974C25.4089 14.872 25.3534 14.8349 25.3068 14.788C25.2601 14.7412 25.2232 14.6856 25.1981 14.6245C25.1729 14.5633 25.1602 14.4978 25.1604 14.4317V1.20983C25.1602 1.14372 25.1729 1.07822 25.1981 1.01708C25.2232 0.955929 25.2601 0.900344 25.3068 0.853511C25.3534 0.806677 25.4089 0.769512 25.4699 0.744156C25.531 0.7188 25.5964 0.704784 25.6626 0.704784ZM25.6626 15.9681H26.7798C27.0579 15.9681 27.282 16.195 27.282 16.4722V21.9079C27.2822 21.974 27.2694 22.0395 27.2443 22.1006C27.2192 22.1618 27.1822 22.2174 27.1356 22.2642C27.0889 22.311 27.0335 22.3482 26.9724 22.3736C26.9114 22.3989 26.8459 22.412 26.7798 22.412H25.6626C25.5964 22.412 25.531 22.3989 25.4699 22.3736C25.4089 22.3482 25.3534 22.311 25.3068 22.2642C25.2601 22.2174 25.2232 22.1618 25.1981 22.1006C25.1729 22.0395 25.1602 21.974 25.1604 21.9079V16.4722C25.1602 16.4061 25.1729 16.3406 25.1981 16.2794C25.2232 16.2183 25.2601 16.1627 25.3068 16.1158C25.3534 16.069 25.4089 16.0318 25.4699 16.0065C25.531 15.9811 25.5964 15.9681 25.6626 15.9681ZM28.8058 1.32861H29.9231C30.2012 1.32861 30.4252 1.55553 30.4252 1.83268V5.55436C30.4255 5.62046 30.4127 5.68597 30.3875 5.74711C30.3624 5.80826 30.3255 5.86384 30.2788 5.91068C30.2322 5.95751 30.1767 5.99467 30.1157 6.02002C30.0546 6.04538 29.9892 6.05843 29.9231 6.05843H28.8058C28.7397 6.05843 28.6742 6.04538 28.6132 6.02002C28.5521 5.99467 28.4967 5.95751 28.45 5.91068C28.4034 5.86384 28.3664 5.80826 28.3413 5.74711C28.3162 5.68597 28.3034 5.62046 28.3036 5.55436V1.83365C28.3034 1.76754 28.3162 1.70204 28.3413 1.64089C28.3664 1.57974 28.4034 1.52416 28.45 1.47733C28.4967 1.43049 28.5521 1.39333 28.6132 1.36798C28.6742 1.34262 28.7397 1.32861 28.8058 1.32861ZM28.8058 7.09073H29.9231C29.9892 7.09073 30.0546 7.10378 30.1157 7.12914C30.1767 7.1545 30.2322 7.19165 30.2788 7.23849C30.3255 7.28532 30.3624 7.34091 30.3875 7.40205C30.4127 7.4632 30.4255 7.5287 30.4252 7.59481V21.9079C30.4255 21.974 30.4127 22.0395 30.3875 22.1006C30.3624 22.1618 30.3255 22.2174 30.2788 22.2642C30.2322 22.311 30.1767 22.3482 30.1157 22.3736C30.0546 22.3989 29.9892 22.412 29.9231 22.412H28.8058C28.7397 22.412 28.6742 22.3989 28.6132 22.3736C28.5521 22.3482 28.4967 22.311 28.45 22.2642C28.4034 22.2174 28.3664 22.1618 28.3413 22.1006C28.3162 22.0395 28.3034 21.974 28.3036 21.9079V7.59577C28.3034 7.52967 28.3162 7.46416 28.3413 7.40302C28.3664 7.34187 28.4034 7.28629 28.45 7.23945C28.4967 7.19262 28.5521 7.15546 28.6132 7.13011C28.6742 7.10475 28.7397 7.09073 28.8058 7.09073ZM31.95 1.64052H33.0673C33.1334 1.64051 33.1988 1.65357 33.2599 1.67892C33.3209 1.70428 33.3764 1.74144 33.423 1.78827C33.4697 1.8351 33.5066 1.89069 33.5317 1.95183C33.5569 2.01298 33.5697 2.07849 33.5694 2.1446V10.3836C33.5697 10.4498 33.5569 10.5153 33.5317 10.5764C33.5066 10.6375 33.4697 10.6931 33.423 10.74C33.3764 10.7868 33.3209 10.824 33.2599 10.8493C33.1988 10.8747 33.1334 10.8877 33.0673 10.8877H31.95C31.8839 10.8877 31.8184 10.8747 31.7574 10.8493C31.6963 10.824 31.6409 10.7868 31.5942 10.74C31.5476 10.6931 31.5106 10.6375 31.4855 10.5764C31.4604 10.5153 31.4476 10.4498 31.4478 10.3836V2.14556C31.4476 2.07946 31.4604 2.01395 31.4855 1.9528C31.5106 1.89165 31.5476 1.83608 31.5942 1.78924C31.6409 1.74241 31.6963 1.70524 31.7574 1.67989C31.8184 1.65453 31.8839 1.64051 31.95 1.64052ZM31.95 11.92H33.0673C33.1334 11.92 33.1988 11.9331 33.2599 11.9584C33.3209 11.9838 33.3764 12.0209 33.423 12.0678C33.4697 12.1146 33.5066 12.1702 33.5317 12.2313C33.5569 12.2925 33.5697 12.358 33.5694 12.4241V19.2629C33.5697 19.329 33.5569 19.3945 33.5317 19.4557C33.5066 19.5168 33.4697 19.5724 33.423 19.6193C33.3764 19.6661 33.3209 19.7032 33.2599 19.7286C33.1988 19.754 33.1334 19.767 33.0673 19.767H31.95C31.8839 19.767 31.8184 19.754 31.7574 19.7286C31.6963 19.7032 31.6409 19.6661 31.5942 19.6193C31.5476 19.5724 31.5106 19.5168 31.4855 19.4557C31.4604 19.3945 31.4476 19.329 31.4478 19.2629V12.4241C31.4476 12.358 31.4604 12.2925 31.4855 12.2313C31.5106 12.1702 31.5476 12.1146 31.5942 12.0678C31.6409 12.0209 31.6963 11.9838 31.7574 11.9584C31.8184 11.9331 31.8839 11.92 31.95 11.92ZM31.95 20.7964H33.0673C33.3454 20.7964 33.5694 21.0233 33.5694 21.3005V24.4003C33.5697 24.4664 33.5569 24.5319 33.5317 24.593C33.5066 24.6542 33.4697 24.7098 33.423 24.7566C33.3764 24.8034 33.3209 24.8406 33.2599 24.8659C33.1988 24.8913 33.1334 24.9044 33.0673 24.9044H31.95C31.8839 24.9044 31.8184 24.8913 31.7574 24.8659C31.6963 24.8406 31.6409 24.8034 31.5942 24.7566C31.5476 24.7098 31.5106 24.6542 31.4855 24.593C31.4604 24.5319 31.4476 24.4664 31.4478 24.4003V21.3005C31.4476 21.2344 31.4604 21.1689 31.4855 21.1077C31.5106 21.0466 31.5476 20.991 31.5942 20.9442C31.6409 20.8973 31.6963 20.8602 31.7574 20.8348C31.8184 20.8095 31.8839 20.7964 31.95 20.7964ZM35.0749 2.1079H36.1922C36.2583 2.1079 36.3237 2.12095 36.3848 2.1463C36.4458 2.17166 36.5013 2.20882 36.5479 2.25565C36.5946 2.30249 36.6315 2.35807 36.6566 2.41922C36.6818 2.48036 36.6946 2.54587 36.6943 2.61197V15.3674C36.6946 15.4336 36.6818 15.4991 36.6566 15.5602C36.6315 15.6213 36.5946 15.6769 36.5479 15.7238C36.5013 15.7706 36.4458 15.8078 36.3848 15.8331C36.3237 15.8585 36.2583 15.8715 36.1922 15.8715H35.0749C35.0088 15.8715 34.9433 15.8585 34.8823 15.8331C34.8212 15.8078 34.7658 15.7706 34.7191 15.7238C34.6725 15.6769 34.6355 15.6213 34.6104 15.5602C34.5853 15.4991 34.5725 15.4336 34.5727 15.3674V2.61294C34.5725 2.54684 34.5853 2.48133 34.6104 2.42018C34.6355 2.35904 34.6725 2.30345 34.7191 2.25662C34.7658 2.20978 34.8212 2.17263 34.8823 2.14727C34.9433 2.12191 35.0088 2.1079 35.0749 2.1079ZM35.0749 16.9038H36.1922C36.2583 16.9038 36.3237 16.9169 36.3848 16.9422C36.4458 16.9676 36.5013 17.0047 36.5479 17.0516C36.5946 17.0984 36.6315 17.154 36.6566 17.2151C36.6818 17.2763 36.6946 17.3418 36.6943 17.4079V27.5155C36.6946 27.5816 36.6818 27.6471 36.6566 27.7083C36.6315 27.7694 36.5946 27.825 36.5479 27.8718C36.5013 27.9187 36.4458 27.9558 36.3848 27.9812C36.3237 28.0065 36.2583 28.0196 36.1922 28.0196H35.0749C35.0088 28.0196 34.9433 28.0065 34.8823 27.9812C34.8212 27.9558 34.7658 27.9187 34.7191 27.8718C34.6725 27.825 34.6355 27.7694 34.6104 27.7083C34.5853 27.6471 34.5725 27.5816 34.5727 27.5155V17.4079C34.5725 17.3418 34.5853 17.2763 34.6104 17.2151C34.6355 17.154 34.6725 17.0984 34.7191 17.0516C34.7658 17.0047 34.8212 16.9676 34.8823 16.9422C34.9433 16.9169 35.0088 16.9038 35.0749 16.9038ZM38.1988 1.64052H39.3161C39.3822 1.64051 39.4477 1.65357 39.5087 1.67892C39.5697 1.70428 39.6252 1.74144 39.6718 1.78827C39.7185 1.8351 39.7555 1.89069 39.7806 1.95183C39.8057 2.01298 39.8185 2.07849 39.8182 2.1446V7.58032C39.8185 7.64643 39.8057 7.71193 39.7806 7.77308C39.7555 7.83422 39.7185 7.88981 39.6718 7.93664C39.6252 7.98347 39.5697 8.02063 39.5087 8.04599C39.4477 8.07134 39.3822 8.0844 39.3161 8.0844H38.1988C38.1327 8.0844 38.0672 8.07134 38.0062 8.04599C37.9451 8.02063 37.8897 7.98347 37.8431 7.93664C37.7964 7.88981 37.7595 7.83422 37.7343 7.77308C37.7092 7.71193 37.6964 7.64643 37.6967 7.58032V2.14556C37.6964 2.07946 37.7092 2.01395 37.7343 1.9528C37.7595 1.89165 37.7964 1.83608 37.8431 1.78924C37.8897 1.74241 37.9451 1.70524 38.0062 1.67989C38.0672 1.65453 38.1327 1.64051 38.1988 1.64052ZM38.1988 9.11573H39.3161C39.5942 9.11573 39.8182 9.34266 39.8182 9.61981V25.4915C39.8185 25.5576 39.8057 25.6231 39.7806 25.6842C39.7555 25.7454 39.7185 25.801 39.6718 25.8478C39.6252 25.8946 39.5697 25.9318 39.5087 25.9571C39.4477 25.9825 39.3822 25.9956 39.3161 25.9956H38.1988C38.1327 25.9956 38.0672 25.9825 38.0062 25.9571C37.9451 25.9318 37.8897 25.8946 37.8431 25.8478C37.7964 25.801 37.7595 25.7454 37.7343 25.6842C37.7092 25.6231 37.6964 25.5576 37.6967 25.4915V9.62077C37.6964 9.55467 37.7092 9.48916 37.7343 9.42802C37.7595 9.36687 37.7964 9.31129 37.8431 9.26445C37.8897 9.21762 37.9451 9.18046 38.0062 9.15511C38.0672 9.12975 38.1327 9.11573 38.1988 9.11573ZM38.1988 27.0269H39.3161C39.5942 27.0269 39.8182 27.2538 39.8182 27.531V30.4743C39.8185 30.5404 39.8057 30.6059 39.7806 30.6671C39.7555 30.7282 39.7185 30.7838 39.6718 30.8306C39.6252 30.8775 39.5697 30.9146 39.5087 30.94C39.4477 30.9653 39.3822 30.9784 39.3161 30.9784H38.1988C38.1327 30.9784 38.0672 30.9653 38.0062 30.94C37.9451 30.9146 37.8897 30.8775 37.8431 30.8306C37.7964 30.7838 37.7595 30.7282 37.7343 30.6671C37.7092 30.6059 37.6964 30.5404 37.6967 30.4743V27.531C37.6964 27.4649 37.7092 27.3994 37.7343 27.3382C37.7595 27.2771 37.7964 27.2215 37.8431 27.1746C37.8897 27.1278 37.9451 27.0906 38.0062 27.0653C38.0672 27.0399 38.1327 27.0269 38.1988 27.0269ZM41.343 26.0931H42.4603C42.5264 26.0931 42.5919 26.1061 42.6529 26.1315C42.714 26.1568 42.7694 26.194 42.816 26.2408C42.8627 26.2877 42.8997 26.3433 42.9248 26.4044C42.9499 26.4656 42.9627 26.5311 42.9624 26.5972V30.9427C42.9627 31.0088 42.9499 31.0743 42.9248 31.1354C42.8997 31.1966 42.8627 31.2521 42.816 31.299C42.7694 31.3458 42.714 31.383 42.6529 31.4083C42.5919 31.4337 42.5264 31.4467 42.4603 31.4467H41.343C41.2769 31.4467 41.2115 31.4337 41.1504 31.4083C41.0894 31.383 41.0339 31.3458 40.9873 31.299C40.9406 31.2521 40.9037 31.1966 40.8785 31.1354C40.8534 31.0743 40.8406 31.0088 40.8409 30.9427V26.5972C40.8406 26.5311 40.8534 26.4656 40.8785 26.4044C40.9037 26.3433 40.9406 26.2877 40.9873 26.2408C41.0339 26.194 41.0894 26.1568 41.1504 26.1315C41.2115 26.1061 41.2769 26.0931 41.343 26.0931ZM41.343 12.8548H42.4603C42.7384 12.8548 42.9624 13.0817 42.9624 13.3589V16.3041C42.9627 16.3702 42.9499 16.4358 42.9248 16.4969C42.8997 16.558 42.8627 16.6136 42.816 16.6605C42.7694 16.7073 42.714 16.7445 42.6529 16.7698C42.5919 16.7952 42.5264 16.8082 42.4603 16.8082H41.343C41.2769 16.8082 41.2115 16.7952 41.1504 16.7698C41.0894 16.7445 41.0339 16.7073 40.9873 16.6605C40.9406 16.6136 40.9037 16.558 40.8785 16.4969C40.8534 16.4358 40.8406 16.3702 40.8409 16.3041V13.3589C40.8406 13.2928 40.8534 13.2273 40.8785 13.1661C40.9037 13.105 40.9406 13.0494 40.9873 13.0025C41.0339 12.9557 41.0894 12.9185 41.1504 12.8932C41.2115 12.8678 41.2769 12.8548 41.343 12.8548ZM41.343 1.48601H42.4603C42.5264 1.48601 42.5919 1.49906 42.6529 1.52442C42.714 1.54978 42.7694 1.58693 42.816 1.63377C42.8627 1.6806 42.8997 1.73619 42.9248 1.79733C42.9499 1.85848 42.9627 1.92398 42.9624 1.99009V11.3194C42.9627 11.3855 42.9499 11.451 42.9248 11.5121C42.8997 11.5733 42.8627 11.6289 42.816 11.6757C42.7694 11.7225 42.714 11.7597 42.6529 11.785C42.5919 11.8104 42.5264 11.8235 42.4603 11.8235H41.343C41.2769 11.8235 41.2115 11.8104 41.1504 11.785C41.0894 11.7597 41.0339 11.7225 40.9873 11.6757C40.9406 11.6289 40.9037 11.5733 40.8785 11.5121C40.8534 11.451 40.8406 11.3855 40.8409 11.3194V1.99009C40.8406 1.92398 40.8534 1.85848 40.8785 1.79733C40.9037 1.73619 40.9406 1.6806 40.9873 1.63377C41.0339 1.58693 41.0894 1.54978 41.1504 1.52442C41.2115 1.49906 41.2769 1.48601 41.343 1.48601ZM44.5297 2.2653H45.647C45.9251 2.2653 46.1491 2.49223 46.1491 2.76938V14.5911C46.1494 14.6572 46.1366 14.7227 46.1115 14.7838C46.0864 14.845 46.0494 14.9005 46.0027 14.9474C45.9561 14.9942 45.9007 15.0314 45.8396 15.0567C45.7785 15.0821 45.7131 15.0951 45.647 15.0951H44.5297C44.4636 15.0951 44.3981 15.0821 44.3371 15.0567C44.2761 15.0314 44.2206 14.9942 44.174 14.9474C44.1273 14.9005 44.0904 14.845 44.0652 14.7838C44.0401 14.7227 44.0273 14.6572 44.0276 14.5911V2.76938C44.0273 2.70327 44.0401 2.63777 44.0652 2.57662C44.0904 2.51548 44.1273 2.45989 44.174 2.41306C44.2206 2.36622 44.2761 2.32907 44.3371 2.30371C44.3981 2.27835 44.4636 2.2653 44.5297 2.2653ZM44.5297 28.5855H45.647C45.9251 28.5855 46.1491 28.8124 46.1491 29.0895V30.9436C46.1494 31.0097 46.1366 31.0752 46.1115 31.1364C46.0864 31.1975 46.0494 31.2531 46.0027 31.2999C45.9561 31.3468 45.9007 31.3839 45.8396 31.4093C45.7785 31.4346 45.7131 31.4477 45.647 31.4477H44.5297C44.4636 31.4477 44.3981 31.4346 44.3371 31.4093C44.2761 31.3839 44.2206 31.3468 44.174 31.2999C44.1273 31.2531 44.0904 31.1975 44.0652 31.1364C44.0401 31.0752 44.0273 31.0097 44.0276 30.9436V29.0895C44.0273 29.0234 44.0401 28.9579 44.0652 28.8968C44.0904 28.8356 44.1273 28.7801 44.174 28.7332C44.2206 28.6864 44.2761 28.6492 44.3371 28.6239C44.3981 28.5985 44.4636 28.5855 44.5297 28.5855ZM47.6305 3.20006H48.7477C49.0258 3.20006 49.2499 3.427 49.2499 3.70414V6.64845C49.2501 6.71456 49.2373 6.78007 49.2122 6.84121C49.1871 6.90236 49.1501 6.95794 49.1035 7.00478C49.0568 7.05161 49.0014 7.08877 48.9403 7.11413C48.8793 7.13948 48.8138 7.15253 48.7477 7.15253H47.6305C47.5644 7.15253 47.4989 7.13948 47.4378 7.11413C47.3768 7.08877 47.3214 7.05161 47.2747 7.00478C47.2281 6.95794 47.1911 6.90236 47.166 6.84121C47.1409 6.78007 47.1281 6.71456 47.1283 6.64845V3.70318C47.1281 3.63707 47.1409 3.57157 47.166 3.51042C47.1911 3.44928 47.2281 3.39369 47.2747 3.34686C47.3214 3.30003 47.3768 3.26286 47.4378 3.2375C47.4989 3.21215 47.5644 3.20006 47.6305 3.20006ZM47.6305 8.1829H48.7477C48.8138 8.1829 48.8793 8.19595 48.9403 8.2213C49.0014 8.24666 49.0568 8.28382 49.1035 8.33065C49.1501 8.37749 49.1871 8.43307 49.2122 8.49422C49.2373 8.55536 49.2501 8.62087 49.2499 8.68697V14.2782C49.2501 14.3443 49.2373 14.4098 49.2122 14.4709C49.1871 14.5321 49.1501 14.5877 49.1035 14.6345C49.0568 14.6813 49.0014 14.7185 48.9403 14.7438C48.8793 14.7692 48.8138 14.7823 48.7477 14.7823H47.6305C47.5644 14.7823 47.4989 14.7692 47.4378 14.7438C47.3768 14.7185 47.3214 14.6813 47.2747 14.6345C47.2281 14.5877 47.1911 14.5321 47.166 14.4709C47.1409 14.4098 47.1281 14.3443 47.1283 14.2782V8.68697C47.1281 8.62087 47.1409 8.55536 47.166 8.49422C47.1911 8.43307 47.2281 8.37749 47.2747 8.33065C47.3214 8.28382 47.3768 8.24666 47.4378 8.2213C47.4989 8.19595 47.5644 8.1829 47.6305 8.1829ZM50.8143 3.97742H51.9315C52.2097 3.97742 52.4337 4.20436 52.4337 4.4815V6.33558C52.4339 6.40168 52.4211 6.46719 52.396 6.52833C52.3709 6.58948 52.3339 6.64506 52.2873 6.6919C52.2406 6.73873 52.1852 6.7759 52.1241 6.80125C52.0631 6.82661 51.9977 6.83966 51.9315 6.83966H50.8143C50.7482 6.83966 50.6827 6.82661 50.6217 6.80125C50.5606 6.7759 50.5052 6.73873 50.4585 6.6919C50.4119 6.64506 50.3749 6.58948 50.3498 6.52833C50.3247 6.46719 50.3119 6.40168 50.3121 6.33558V4.4815C50.3119 4.4154 50.3247 4.3499 50.3498 4.28875C50.3749 4.2276 50.4119 4.17202 50.4585 4.12518C50.5052 4.07835 50.5606 4.04119 50.6217 4.01583C50.6827 3.99047 50.7482 3.97742 50.8143 3.97742ZM50.8143 7.71551H51.9315C51.9977 7.71551 52.0631 7.72857 52.1241 7.75392C52.1852 7.77928 52.2406 7.81644 52.2873 7.86327C52.3339 7.9101 52.3709 7.96569 52.396 8.02683C52.4211 8.08798 52.4339 8.15349 52.4337 8.21959V9.91723C52.4339 9.98334 52.4211 10.0488 52.396 10.11C52.3709 10.1711 52.3339 10.2267 52.2873 10.2735C52.2406 10.3204 52.1852 10.3575 52.1241 10.3829C52.0631 10.4083 51.9977 10.4213 51.9315 10.4213H50.8143C50.7482 10.4213 50.6827 10.4083 50.6217 10.3829C50.5606 10.3575 50.5052 10.3204 50.4585 10.2735C50.4119 10.2267 50.3749 10.1711 50.3498 10.11C50.3247 10.0488 50.3119 9.98334 50.3121 9.91723V8.21959C50.3119 8.15349 50.3247 8.08798 50.3498 8.02683C50.3749 7.96569 50.4119 7.9101 50.4585 7.86327C50.5052 7.81644 50.5606 7.77928 50.6217 7.75392C50.6827 7.72857 50.7482 7.71551 50.8143 7.71551ZM50.8143 11.2972H51.9315C51.9977 11.2972 52.0631 11.3102 52.1241 11.3356C52.1852 11.3609 52.2406 11.3981 52.2873 11.4449C52.3339 11.4918 52.3709 11.5473 52.396 11.6085C52.4211 11.6696 52.4339 11.7351 52.4337 11.8012V14.5891C52.4339 14.6552 52.4211 14.7207 52.396 14.7819C52.3709 14.843 52.3339 14.8986 52.2873 14.9454C52.2406 14.9923 52.1852 15.0294 52.1241 15.0548C52.0631 15.0801 51.9977 15.0932 51.9315 15.0932H50.8143C50.7482 15.0932 50.6827 15.0801 50.6217 15.0548C50.5606 15.0294 50.5052 14.9923 50.4585 14.9454C50.4119 14.8986 50.3749 14.843 50.3498 14.7819C50.3247 14.7207 50.3119 14.6552 50.3121 14.5891V11.8012C50.3119 11.7351 50.3247 11.6696 50.3498 11.6085C50.3749 11.5473 50.4119 11.4918 50.4585 11.4449C50.5052 11.3981 50.5606 11.3609 50.6217 11.3356C50.6827 11.3102 50.7482 11.2972 50.8143 11.2972ZM53.9585 4.91315H55.0757C55.1419 4.91315 55.2073 4.9262 55.2683 4.95156C55.3294 4.97692 55.3848 5.01408 55.4315 5.06092C55.4781 5.10775 55.5151 5.16333 55.5402 5.22447C55.5653 5.28562 55.5781 5.35113 55.5779 5.41723V15.0584C55.5781 15.1245 55.5653 15.19 55.5402 15.2512C55.5151 15.3123 55.4781 15.3679 55.4315 15.4148C55.3848 15.4616 55.3294 15.4987 55.2683 15.5241C55.2073 15.5495 55.1419 15.5625 55.0757 15.5625H53.9585C53.8924 15.5625 53.8269 15.5495 53.7659 15.5241C53.7048 15.4987 53.6494 15.4616 53.6027 15.4148C53.5561 15.3679 53.5191 15.3123 53.494 15.2512C53.4689 15.19 53.4561 15.1245 53.4563 15.0584V5.41627C53.4561 5.35016 53.4689 5.28465 53.494 5.22351C53.5191 5.16236 53.5561 5.10678 53.6027 5.05994C53.6494 5.01311 53.7048 4.97595 53.7659 4.9506C53.8269 4.92524 53.8924 4.91315 53.9585 4.91315ZM57.0834 7.71551H58.2006C58.2667 7.71551 58.3322 7.72857 58.3932 7.75392C58.4543 7.77928 58.5097 7.81644 58.5564 7.86327C58.603 7.9101 58.64 7.96569 58.6651 8.02683C58.6902 8.08798 58.703 8.15349 58.7028 8.21959V14.7456C58.703 14.8117 58.6902 14.8772 58.6651 14.9383C58.64 14.9995 58.603 15.055 58.5564 15.1019C58.5097 15.1487 58.4543 15.1859 58.3932 15.2112C58.3322 15.2366 58.2667 15.2496 58.2006 15.2496H57.0834C57.0173 15.2496 56.9518 15.2366 56.8907 15.2112C56.8297 15.1859 56.7743 15.1487 56.7276 15.1019C56.6809 15.055 56.644 14.9995 56.6189 14.9383C56.5938 14.8772 56.581 14.8117 56.5812 14.7456V8.21959C56.581 8.15349 56.5938 8.08798 56.6189 8.02683C56.644 7.96569 56.6809 7.9101 56.7276 7.86327C56.7743 7.81644 56.8297 7.77928 56.8907 7.75392C56.9518 7.72857 57.0173 7.71551 57.0834 7.71551ZM60.1832 11.2972H61.3004C61.3665 11.2972 61.432 11.3102 61.493 11.3356C61.5541 11.3609 61.6095 11.3981 61.6562 11.4449C61.7028 11.4918 61.7398 11.5473 61.7649 11.6085C61.79 11.6696 61.8028 11.7351 61.8026 11.8012V13.6553C61.8028 13.7214 61.79 13.7869 61.7649 13.8481C61.7398 13.9092 61.7028 13.9648 61.6562 14.0116C61.6095 14.0585 61.5541 14.0956 61.493 14.121C61.432 14.1463 61.3665 14.1594 61.3004 14.1594H60.1832C60.117 14.1594 60.0516 14.1463 59.9905 14.121C59.9295 14.0956 59.874 14.0585 59.8274 14.0116C59.7807 13.9648 59.7438 13.9092 59.7187 13.8481C59.6935 13.7869 59.6807 13.7214 59.681 13.6553V11.8012C59.6807 11.7351 59.6935 11.6696 59.7187 11.6085C59.7438 11.5473 59.7807 11.4918 59.8274 11.4449C59.874 11.3981 59.9295 11.3609 59.9905 11.3356C60.0516 11.3102 60.117 11.2972 60.1832 11.2972ZM90.8855 26.3007C89.6746 26.3007 88.6407 26.0332 87.7838 25.4982C86.9268 24.9629 86.2417 24.1927 85.81 23.2791C85.351 22.3341 85.1214 21.25 85.1214 20.0268C85.1214 18.7811 85.3545 17.6899 85.8206 16.7532C86.2867 15.8165 86.9485 15.0877 87.806 14.5669C88.6712 14.0397 89.6978 13.776 90.8855 13.776C92.1042 13.776 93.142 14.0435 93.9988 14.5785C94.8612 15.1027 95.5482 15.8714 95.9726 16.787C96.4316 17.725 96.6611 18.8052 96.6611 20.0277C96.6611 21.2728 96.4316 22.3679 95.9726 23.3129C95.5386 24.223 94.8486 24.9868 93.9872 25.5108C93.122 26.0387 92.0881 26.3014 90.8855 26.3007ZM90.8855 24.7508C92.2387 24.7508 93.2466 24.315 93.909 23.4433C94.5708 22.5646 94.9017 21.4254 94.9017 20.0258C94.9017 18.5902 94.5669 17.4475 93.8974 16.5977C93.2356 15.7479 92.2317 15.323 90.8855 15.323C89.9759 15.323 89.2239 15.5245 88.6297 15.9275C88.0439 16.3235 87.6039 16.8765 87.3097 17.5865C87.0238 18.2895 86.8809 19.1026 86.8809 20.0258C86.8809 21.4544 87.2192 22.6006 87.8958 23.4645C88.5731 24.3208 89.5696 24.7502 90.8855 24.7508ZM99.336 25.9704C99.2267 25.9704 99.1218 25.927 99.0445 25.8497C98.9672 25.7724 98.9237 25.6675 98.9237 25.5581V10.2311C98.9237 10.0032 99.1081 9.81874 99.336 9.81874H100.17C100.398 9.81874 100.583 10.0032 100.583 10.2311V25.5581C100.583 25.6675 100.539 25.7724 100.462 25.8497C100.385 25.927 100.28 25.9704 100.17 25.9704H99.336ZM106.999 26.3007C106.082 26.3007 105.311 26.1394 104.686 25.8169C104.069 25.495 103.607 25.0666 103.298 24.5316C102.991 24.001 102.831 23.3978 102.836 22.7847C102.836 22.1403 102.967 21.5908 103.23 21.1363C103.499 20.6768 103.874 20.2886 104.325 20.0046C104.824 19.6982 105.368 19.4721 105.937 19.3344C106.612 19.1771 107.293 19.0488 107.979 18.9501C108.71 18.8356 109.443 18.7368 110.179 18.6536C110.645 18.5975 111.11 18.537 111.575 18.4721C111.683 18.4566 111.735 18.6034 111.641 18.6594C111.574 18.7 111.488 18.6497 111.488 18.5715C111.484 17.4906 111.25 16.683 110.787 16.1487C110.298 15.5847 109.448 15.3027 108.238 15.3027C107.403 15.3027 106.696 15.4859 106.117 15.8522C105.643 16.1567 105.286 16.6067 105.044 17.2022C105.005 17.3046 104.93 17.3891 104.833 17.4395C104.736 17.49 104.624 17.5028 104.518 17.4755L103.684 17.237C103.633 17.2237 103.585 17.2 103.543 17.1674C103.502 17.1347 103.467 17.0939 103.442 17.0473C103.417 17.0008 103.401 16.9495 103.397 16.8968C103.392 16.844 103.398 16.7909 103.415 16.7406C103.72 15.8625 104.241 15.1669 104.978 14.6538C105.821 14.068 106.915 13.7751 108.261 13.7751C109.374 13.7751 110.318 13.9801 111.092 14.3902C111.874 14.7932 112.427 15.379 112.75 16.1477C112.907 16.5149 113.005 16.9042 113.043 17.3017C113.088 17.7266 113.11 18.1589 113.11 18.5986V25.5591C113.11 25.6684 113.067 25.7733 112.99 25.8506C112.912 25.928 112.807 25.9714 112.698 25.9714H112.045C111.936 25.9714 111.831 25.928 111.754 25.8506C111.676 25.7733 111.633 25.6684 111.633 25.5591V23.2714C111.633 23.1391 111.767 23.0493 111.89 23.0995C111.984 23.1382 112.031 23.2473 111.988 23.3409C111.574 24.2757 110.955 24.9951 110.132 25.4992C109.26 26.0342 108.214 26.3017 106.996 26.3017L106.999 26.3007ZM107.192 24.9053C107.966 24.9053 108.643 24.7698 109.222 24.4988C109.772 24.2498 110.253 23.8687 110.621 23.3892C110.973 22.9159 111.209 22.3665 111.309 21.7853C111.403 21.3743 111.452 20.9543 111.455 20.5328C111.461 20.2096 111.464 19.9437 111.466 19.7351C111.466 19.7102 111.472 19.6857 111.484 19.6639C111.496 19.6421 111.514 19.6238 111.535 19.6108C111.556 19.5978 111.581 19.5905 111.605 19.5896C111.63 19.5887 111.655 19.5943 111.677 19.6058C111.705 19.6198 111.727 19.6423 111.741 19.6698C111.754 19.6973 111.759 19.7285 111.754 19.7589C111.749 19.7892 111.734 19.8172 111.712 19.8386C111.69 19.86 111.661 19.8738 111.631 19.8781C111.2 19.9315 110.743 19.9849 110.26 20.0384C109.606 20.1118 108.959 20.1961 108.32 20.2914C107.687 20.3867 107.116 20.5003 106.605 20.6322C106.256 20.7297 105.919 20.866 105.6 21.0388C105.277 21.2075 105.01 21.4344 104.8 21.7196C104.597 22.0054 104.495 22.3608 104.495 22.7857C104.495 23.1301 104.581 23.4633 104.754 23.7851C104.935 24.1077 105.22 24.3752 105.611 24.5876C106.01 24.8001 106.537 24.9063 107.191 24.9063L107.192 24.9053ZM116.01 25.9704C115.901 25.9704 115.796 25.927 115.719 25.8497C115.641 25.7724 115.598 25.6675 115.598 25.5581V14.5157C115.598 14.2878 115.782 14.1034 116.01 14.1034H116.676C116.903 14.1034 117.088 14.2878 117.088 14.5157V16.5629C117.088 16.5916 117.079 16.6195 117.063 16.6429C117.046 16.6662 117.023 16.6838 116.996 16.6932C116.969 16.7026 116.939 16.7032 116.912 16.6951C116.884 16.687 116.86 16.6705 116.843 16.6479C116.828 16.6292 116.818 16.607 116.815 16.5834C116.811 16.5598 116.814 16.5358 116.823 16.5137C116.951 16.1952 117.119 15.8946 117.324 15.6195C117.543 15.3188 117.78 15.0736 118.035 14.8836C118.359 14.6068 118.735 14.3976 119.141 14.2685C119.552 14.1234 119.981 14.0382 120.417 14.0155C120.702 13.9939 120.989 14.0027 121.273 14.0416C121.363 14.0563 121.445 14.1033 121.503 14.1738C121.561 14.2444 121.592 14.3336 121.589 14.425V15.0922C121.589 15.3597 121.337 15.5567 121.069 15.5306C120.758 15.5022 120.444 15.5061 120.133 15.5422C119.599 15.6034 119.093 15.8169 118.677 16.1574C118.272 16.4657 117.967 16.8356 117.764 17.2669C117.56 17.6918 117.425 18.146 117.358 18.6295C117.29 19.1059 117.256 19.5784 117.256 20.0471V25.5571C117.256 25.6665 117.212 25.7714 117.135 25.8487C117.058 25.926 116.953 25.9695 116.844 25.9695H116.009L116.01 25.9704ZM127.384 26.2891C125.955 26.2891 124.777 25.9888 123.852 25.3882C123.056 24.868 122.526 24.1708 122.263 23.2965C122.195 23.0735 122.351 22.8523 122.581 22.8147L123.485 22.6679C123.695 22.6341 123.891 22.7654 123.974 22.9605C124.189 23.4723 124.559 23.8933 125.084 24.2236C125.731 24.6188 126.528 24.8165 127.475 24.8165C128.4 24.8165 129.13 24.6298 129.664 24.2564C130.198 23.8759 130.465 23.3596 130.465 22.7075C130.465 22.3418 130.379 22.045 130.205 21.8171C130.039 21.5828 129.697 21.3668 129.179 21.1692C128.66 20.9709 127.886 20.7365 126.856 20.4662C125.75 20.1732 124.885 19.8803 124.261 19.5874C123.636 19.2951 123.193 18.9581 122.93 18.5764C122.666 18.1882 122.535 17.7156 122.535 17.1588C122.535 16.4854 122.731 15.8957 123.121 15.3897C123.512 14.8766 124.054 14.481 124.746 14.2029C125.438 13.917 126.242 13.7741 127.16 13.7741C128.536 13.7741 128.896 13.9209 129.618 14.2135C130.348 14.4993 130.935 14.9023 131.379 15.4225C131.737 15.8435 131.978 16.3196 132.101 16.8507C132.15 17.0641 131.999 17.265 131.783 17.3026L130.887 17.46C130.66 17.4996 130.45 17.3451 130.377 17.1269C130.209 16.6196 129.884 16.2053 129.404 15.8841C128.81 15.474 128.055 15.2615 127.137 15.2467C126.272 15.2249 125.569 15.3861 125.027 15.7305C124.485 16.0672 124.214 16.5175 124.214 17.0815C124.214 17.3969 124.311 17.668 124.507 17.8946C124.703 18.1148 125.057 18.3237 125.568 18.5213C126.087 18.7196 126.823 18.9356 127.779 19.1693C128.899 19.448 129.779 19.7409 130.419 20.048C131.059 20.3551 131.514 20.7176 131.783 21.1354C132.054 21.5525 132.189 22.0688 132.189 22.6843C132.189 23.8051 131.76 24.6877 130.904 25.3321C130.054 25.9695 128.881 26.2891 127.384 26.2891ZM73.3065 25.9704C73.2613 25.9705 73.2178 25.9528 73.1853 25.9213C73.1528 25.8897 73.134 25.8467 73.1327 25.8015V10.318C73.1327 10.2243 73.21 10.149 73.3065 10.149H79.4047C79.5631 10.149 79.7398 10.1564 79.9349 10.1712C80.1377 10.1783 80.3408 10.2002 80.5442 10.2369C81.394 10.3618 82.1121 10.6511 82.6986 11.105C83.2855 11.5427 83.7482 12.1258 84.0409 12.7968C84.3492 13.478 84.5034 14.2325 84.5034 15.0604C84.5034 15.8812 84.3492 16.6318 84.0409 17.3123C83.7392 17.9844 83.2737 18.5701 82.687 19.0157C82.1012 19.4632 81.3866 19.7487 80.5432 19.8723C80.1657 19.9265 79.7851 19.9559 79.4037 19.9601H74.9636C74.9184 19.9601 74.8748 19.9778 74.8424 20.0093C74.8099 20.0409 74.7911 20.0839 74.7898 20.1291V25.8015C74.7898 25.8951 74.7126 25.9704 74.616 25.9704H73.3046H73.3065ZM74.7917 18.2538C74.7917 18.3475 74.869 18.4228 74.9656 18.4228H79.3603C79.4955 18.4228 79.6535 18.4154 79.8344 18.4006C80.1058 18.3784 80.1917 18.36 80.3646 18.3233C80.9208 18.2062 81.376 17.9828 81.73 17.6532C82.0905 17.3236 82.3574 16.9318 82.5306 16.478C82.7108 16.0241 82.801 15.5516 82.801 15.0604C82.801 14.3236 82.7112 14.0976 82.5306 13.6428C82.3623 13.1889 82.0878 12.782 81.73 12.456C81.3766 12.1263 80.9214 11.903 80.3646 11.7858C80.1903 11.7476 80.0128 11.7256 79.8344 11.7201C79.6768 11.7063 79.5186 11.6988 79.3603 11.6979H74.9656C74.9203 11.6979 74.8768 11.7156 74.8443 11.7471C74.8119 11.7787 74.793 11.8217 74.7917 11.8669V18.2538Z" fill="white"/>
</g>
<defs>
<clipPath id="clip0_13_1044">
<rect width="132.189" height="30.9013" fill="white" transform="translate(0 0.549316)"/>
</clipPath>
</defs>
</svg>
