<svg width="34" height="40" viewBox="0 0 34 40" fill="none" xmlns="http://www.w3.org/2000/svg">
<g clip-path="url(#clip0_13_1124)">
<path d="M28.3377 11.852L25.4492 14.7404C30.192 19.4832 30.192 27.1146 25.4492 31.7861C20.7064 36.5289 13.0751 36.5289 8.40357 31.7861C3.66075 27.0432 3.66075 19.4119 8.40357 14.7404L15.9279 7.21612L16.9977 6.14631V0.476318L5.65773 11.8163C-0.654139 18.1282 -0.654139 28.327 5.65773 34.6389C11.9696 40.9507 22.1684 40.9507 28.3733 34.6389C34.6495 28.327 34.6495 18.1995 28.3377 11.852Z" fill="white"/>
<path d="M22.6674 11.1744C23.8294 11.1744 24.7714 10.2325 24.7714 9.07052C24.7714 7.90853 23.8294 6.96655 22.6674 6.96655C21.5055 6.96655 20.5635 7.90853 20.5635 9.07052C20.5635 10.2325 21.5055 11.1744 22.6674 11.1744Z" fill="white"/>
</g>
<defs>
<clipPath id="clip0_13_1124">
<rect width="32.2012" height="38.9054" fill="white" transform="translate(0.87915 0.547363)"/>
</clipPath>
</defs>
</svg>
