<svg width="113" height="23" viewBox="0 0 113 23" fill="none" xmlns="http://www.w3.org/2000/svg">
<path d="M30.8101 5.18006H33.9255L34.2258 6.79614C34.8264 5.51831 36.1401 4.87939 37.5289 4.87939C38.2046 4.87939 38.899 5.04852 39.3494 5.23643L38.6175 8.97597C38.1295 8.69409 37.5289 8.48739 36.797 8.48739C35.5396 8.48739 34.5073 9.33301 34.5073 11.231V17.2631H30.8101V5.18006ZM40.6256 12.7719V5.1049H44.3792V12.0766C44.3792 13.486 45.1862 14.2376 46.3686 14.2376C47.5697 14.2376 48.602 13.3168 48.602 11.2873V5.12369H52.3555V17.2255H49.2213L48.8084 15.6282C48.2078 16.5866 46.7439 17.5074 44.9235 17.5074C42.4649 17.4886 40.6256 15.9477 40.6256 12.7719ZM54.2886 5.18006H57.3853L57.7982 6.77735C58.38 5.81898 59.8251 4.89819 61.6268 4.89819C64.0104 4.89819 65.8121 6.42031 65.8121 9.59609V17.2819H62.1148V10.3665C62.1148 8.93838 61.3829 8.16793 60.163 8.16793C59.0369 8.16793 58.0047 9.08871 58.0047 11.1746V17.3006H54.3074L54.2886 5.18006ZM66.6379 5.1049H70.3351L72.531 13.3544L74.4828 7.92364L73.5256 5.1049H77.2041L79.5877 13.3544L81.7084 5.1049H85.4245L81.4832 17.2819H77.6921L76.0593 12.4336L74.3702 17.2819H70.5979L66.6379 5.1049ZM85.6309 11.1934C85.6309 7.04043 88.6338 4.89819 91.3926 4.89819C93.0817 4.89819 94.3016 5.57468 94.9022 6.26997L95.24 5.18006H98.6558V17.2067H95.4089L94.9022 16.0228C94.3955 16.6242 93.3069 17.4886 91.2237 17.4886C88.2396 17.4886 85.6309 15.0457 85.6309 11.1934ZM95.0336 11.1934C95.0336 9.23905 93.7761 8.03639 92.1809 8.03639C90.5668 8.03639 89.3282 9.25784 89.3282 11.1934C89.3282 13.1289 90.5668 14.3504 92.1809 14.3504C93.7761 14.3504 95.0336 13.1477 95.0336 11.1934ZM102.503 22.1865L104.549 16.6429L99.688 5.1049H103.667L106.369 12.6403L108.809 5.1049H112.694L106.294 22.1865H102.503Z" fill="#F4EBE8"/>
<path d="M16.9407 22.1864C14.2757 22.4307 12.0611 19.3113 10.3532 17.7328C9.48987 23.9528 0.105957 23.3703 0.105957 17.0563C0.105957 14.4067 0.105957 7.92356 0.105957 5.34911C0.105957 4.42832 0.349939 3.48874 0.837902 2.69949C1.73876 1.17737 3.48417 0.181421 5.24834 0.200213C7.91337 0.200213 14.3507 0.200213 16.9407 0.200213C23.2467 0.200213 23.8473 9.59602 17.6163 10.4416L20.5817 13.3919C23.8285 16.455 21.3887 22.3179 16.9407 22.1864ZM15.5143 18.4657C17.3536 20.3636 20.2814 17.4321 18.3858 15.5905L13.2622 10.4604H10.3907C10.3907 10.7423 10.3907 13.1288 10.3907 13.3355L14.8199 17.7704L15.5143 18.4657ZM3.22142 17.0375C3.18388 19.6683 7.33157 19.6683 7.27527 17.0375V5.33032C7.3128 4.01491 5.92398 2.98137 4.66654 3.37599C4.61024 3.39479 4.55393 3.41358 4.5164 3.43237C3.72815 3.73304 3.18388 4.52228 3.20265 5.36791V17.0375H3.22142ZM16.9407 7.35982C19.5682 7.3974 19.5682 3.26325 16.9407 3.30083H9.97784C10.5033 4.40953 10.372 6.15716 10.3907 7.35982C10.7661 7.35982 16.753 7.35982 16.9407 7.35982Z" fill="#F4EBE8"/>
</svg>
