<svg width="86" height="46" viewBox="0 0 86 46" fill="none" xmlns="http://www.w3.org/2000/svg">
<mask id="mask0_13_1103" style="mask-type:luminance" maskUnits="userSpaceOnUse" x="42" y="0" width="12" height="26">
<path d="M53.6134 6.26403L42.9937 0.196289V25.0663L47.2363 22.6043V15.6067L50.4405 17.4615L50.4224 12.6741L47.2363 10.8539V8.07432L53.6283 11.7673L53.6134 6.26403Z" fill="white"/>
</mask>
<g mask="url(#mask0_13_1103)">
<path d="M56.5176 0.105225H30.438V25.097H56.5176V0.105225Z" fill="white"/>
</g>
<mask id="mask1_13_1103" style="mask-type:luminance" maskUnits="userSpaceOnUse" x="31" y="0" width="12" height="26">
<path d="M31.4189 6.26403L42.0387 0.196289V25.0663L37.796 22.6043V8.07432L31.4041 11.7673L31.4189 6.26403Z" fill="white"/>
</mask>
<g mask="url(#mask1_13_1103)">
<path d="M56.3416 0.105469H30.262V25.0973H56.3416V0.105469Z" fill="white"/>
</g>
<path d="M10.0548 35.0642H6.217V45.6346H4.10226V35.0642H0.303955V33.3428H10.0548V35.0642Z" fill="white"/>
<path d="M12.5973 45.8014C11.2972 45.8014 10.2434 45.3921 9.43593 44.5737C8.62844 43.7552 8.22469 42.6646 8.22469 41.302V41.0535C8.21019 40.2092 8.39039 39.373 8.75132 38.6096C9.07644 37.9222 9.59007 37.3412 10.2325 36.9343C10.8689 36.5344 11.6071 36.3264 12.3587 36.3352C13.6029 36.3352 14.564 36.7318 15.242 37.5251C15.92 38.3183 16.258 39.4396 16.2558 40.8889V41.7118H10.2917C10.3542 42.4677 10.6066 43.0646 11.0487 43.5023C11.2672 43.7197 11.5277 43.8902 11.8144 44.0034C12.101 44.1166 12.4078 44.1701 12.7158 44.1606C13.1612 44.1697 13.6023 44.0715 14.0018 43.8745C14.4014 43.6774 14.7477 43.3872 15.0116 43.0283L16.1175 44.0833C15.7514 44.6298 15.2456 45.0685 14.6528 45.3537C14.0117 45.6604 13.308 45.8136 12.5973 45.8014ZM12.3521 37.976C12.0954 37.9669 11.8398 38.0152 11.604 38.1174C11.3683 38.2196 11.1583 38.3731 10.9895 38.5668C10.6417 38.9596 10.4223 39.5082 10.3312 40.2125H14.2398V40.0661C14.1948 39.3804 14.0121 38.8614 13.6917 38.5092C13.5206 38.3283 13.3121 38.1869 13.0808 38.0948C12.8494 38.0027 12.6008 37.9622 12.3521 37.976Z" fill="white"/>
<path d="M19.756 36.4984L19.8152 37.5533C20.1342 37.1582 20.5402 36.8422 21.0016 36.63C21.4629 36.4179 21.9671 36.3154 22.4747 36.3306C24.3771 36.3306 25.3448 37.4195 25.3777 39.5973V45.6338H23.3321V39.7092C23.3321 39.1283 23.207 38.7004 22.9569 38.4206C22.7067 38.1409 22.2986 38.0026 21.7275 38.0026C20.9014 38.0026 20.2853 38.3773 19.8794 39.1266V45.6272H17.8223V36.4984H19.756Z" fill="white"/>
<path d="M32.0351 43.1525C32.0422 42.9855 32.0041 42.8196 31.9247 42.6725C31.8453 42.5253 31.7277 42.4023 31.5842 42.3165C31.2825 42.1234 30.7827 41.9545 30.085 41.8096C29.4822 41.694 28.8955 41.5067 28.3372 41.2517C27.3136 40.7569 26.8018 40.0394 26.8018 39.0991C26.7984 38.7153 26.8861 38.3362 27.0578 37.9929C27.2294 37.6496 27.4801 37.3519 27.7892 37.1243C28.4541 36.5944 29.2983 36.33 30.3219 36.3311C31.4125 36.3311 32.2946 36.601 32.9682 37.1408C33.2919 37.386 33.5529 37.7045 33.7297 38.0701C33.9065 38.4357 33.9941 38.838 33.9853 39.244H31.9347C31.9392 39.0571 31.9021 38.8716 31.8261 38.7008C31.7501 38.5301 31.6371 38.3783 31.4953 38.2565C31.1704 37.9832 30.7543 37.8427 30.3302 37.8632C29.939 37.8456 29.5527 37.9554 29.2292 38.1759C29.0941 38.2688 28.9842 38.3938 28.9095 38.5398C28.8348 38.6857 28.7976 38.848 28.8013 39.0119C28.7972 39.1585 28.8318 39.3036 28.9018 39.4324C28.9717 39.5613 29.0744 39.6695 29.1996 39.7459C29.4629 39.9204 29.9972 40.0965 30.8025 40.2742C31.4596 40.4011 32.097 40.6141 32.6984 40.9078C33.1088 41.1097 33.4606 41.4134 33.7203 41.7899C33.9501 42.165 34.0645 42.5994 34.0495 43.039C34.0565 43.4301 33.9669 43.8169 33.7886 44.1652C33.6103 44.5134 33.3489 44.8122 33.0275 45.0352C32.3484 45.5454 31.4564 45.7999 30.3516 45.7988C29.6635 45.8114 28.981 45.6732 28.352 45.394C27.8033 45.154 27.3304 44.7688 26.9844 44.2799C26.6646 43.8341 26.492 43.2996 26.4907 42.751H28.4837C28.4856 42.9666 28.5359 43.1791 28.6307 43.3727C28.7255 43.5664 28.8626 43.7363 29.0317 43.8701C29.4226 44.148 29.8955 44.2865 30.3746 44.2634C30.9144 44.2634 31.3253 44.1603 31.6072 43.954C31.7399 43.8668 31.8485 43.7478 31.9233 43.6078C31.998 43.4678 32.0365 43.3112 32.0351 43.1525Z" fill="white"/>
<path d="M35.1093 40.9826C35.0958 40.1458 35.2778 39.3174 35.6409 38.5634C35.9662 37.8776 36.4858 37.3025 37.1352 36.9095C37.8052 36.5168 38.5706 36.3169 39.3471 36.3318C40.5802 36.3318 41.5803 36.7284 42.3472 37.5217C43.1141 38.3149 43.5294 39.3671 43.593 40.6782L43.6012 41.1604C43.6152 41.9943 43.4372 42.8203 43.0812 43.5746C42.7593 44.2564 42.2443 44.8286 41.6 45.2203C40.9238 45.6172 40.1508 45.8188 39.3668 45.8029C38.0777 45.8029 37.0464 45.3739 36.2729 44.516C35.4994 43.658 35.1126 42.5142 35.1126 41.0847L35.1093 40.9826ZM37.1566 41.1604C37.1566 42.1006 37.3508 42.8362 37.7392 43.3673C37.9213 43.625 38.1651 43.8331 38.4482 43.9725C38.7314 44.1119 39.0449 44.1782 39.3602 44.1654C39.6761 44.1779 39.9899 44.1103 40.2725 43.9687C40.5551 43.8271 40.7973 43.6162 40.9763 43.3557C41.3625 42.8137 41.5556 42.0227 41.5556 40.9826C41.5556 40.0588 41.357 39.327 40.9599 38.7872C40.7739 38.5369 40.5322 38.3334 40.2539 38.1928C39.9756 38.0522 39.6683 37.9784 39.3565 37.9773C39.0447 37.9761 38.7369 38.0477 38.4576 38.1863C38.1783 38.3249 37.9351 38.5267 37.7474 38.7757C37.3536 39.3078 37.1566 40.1027 37.1566 41.1604Z" fill="white"/>
<path d="M49.7726 38.3743C49.4967 38.3291 49.2177 38.3065 48.9382 38.3068C47.9968 38.3068 47.3632 38.6672 47.0374 39.388V45.6417H44.9868V36.4998H46.9452L46.9962 37.5218C47.491 36.7286 48.1773 36.3319 49.055 36.3319C49.3022 36.3245 49.5485 36.3641 49.7808 36.4488L49.7726 38.3743Z" fill="white"/>
<path d="M58.3496 40.4259H53.4026V45.6346H51.2632V33.3428H59.0721V35.0642H53.4026V38.7193H58.3496V40.4259Z" fill="white"/>
<path d="M62.4033 45.6342H60.3511V33.3193H62.4033V45.6342Z" fill="white"/>
<path d="M63.9057 40.9826C63.8929 40.1459 64.0749 39.3177 64.4372 38.5634C64.763 37.8779 65.2825 37.3029 65.9315 36.9095C66.6015 36.5168 67.367 36.3169 68.1434 36.3318C69.3755 36.3318 70.3761 36.7284 71.1451 37.5217C71.9142 38.3149 72.3295 39.3671 72.391 40.6782V41.1604C72.4088 41.9936 72.2342 42.8198 71.8808 43.5746C71.56 44.2571 71.0447 44.8296 70.3996 45.2203C69.724 45.6173 68.9515 45.819 68.1681 45.8029C66.8778 45.8029 65.846 45.3739 65.0725 44.516C64.299 43.658 63.915 42.5142 63.9205 41.0847L63.9057 40.9826ZM65.9562 41.1604C65.9562 42.1006 66.1504 42.8362 66.5388 43.3673C66.7291 43.6165 66.9745 43.8183 67.2558 43.9568C67.5371 44.0954 67.8467 44.1669 68.1602 44.1658C68.4738 44.1646 68.7828 44.0909 69.0631 43.9504C69.3435 43.8099 69.5874 43.6063 69.7759 43.3557C70.161 42.8137 70.3536 42.0227 70.3536 40.9826C70.3536 40.0588 70.1555 39.327 69.7595 38.7872C69.5782 38.5286 69.3354 38.3192 69.053 38.1778C68.7706 38.0364 68.4574 37.9676 68.1417 37.9775C67.8306 37.9683 67.5221 38.0363 67.2438 38.1756C66.9655 38.3149 66.7261 38.5211 66.547 38.7757C66.1532 39.3078 65.9562 40.1027 65.9562 41.1604Z" fill="white"/>
<path d="M81.6565 42.8054L83.108 36.499H85.1092L82.6193 45.6344H80.9324L78.974 39.3609L77.0485 45.6344H75.3584L72.8684 36.499H74.8696L76.3507 42.7379L78.2252 36.499H79.7705L81.6565 42.8054Z" fill="white"/>
</svg>
