<svg width="85" height="31" viewBox="0 0 85 31" fill="none" xmlns="http://www.w3.org/2000/svg">
<g clip-path="url(#clip0_1912_2882)">
<path d="M50.0372 18.306C50.0372 24.5843 46.5979 25.3773 43.1585 25.3773C37.2719 25.3773 36.0152 22.3373 36.0152 18.0417V5.81561H33.8325V4.62604H42.1002V5.81561H39.7853V17.6452C39.7853 21.8087 40.8435 23.9234 43.8861 23.9234C46.9286 23.9234 48.4498 22.4034 48.4498 18.0417V5.81561H46.2672V4.62604H52.1538V5.81561H50.1695L50.0372 18.306ZM55.7916 23.9234V5.81561H53.4766V4.62604H62.6042C66.5065 4.62604 68.4246 6.80691 68.4246 9.3843C68.4246 12.16 65.9113 13.68 63.7286 14.1426C68.0278 14.5391 69.2183 17.3147 69.2183 19.3634C69.2183 23.5269 65.6467 25.113 62.2073 25.113H53.3443V23.9234H55.7916ZM64.7207 9.64865C64.7207 7.73213 63.7286 5.81561 61.5459 5.81561H59.1648V13.68H61.2813C63.6624 13.68 64.7207 11.7634 64.7207 9.64865ZM65.5144 19.4295C65.5144 16.72 64.3239 14.8695 61.612 14.8695H59.2971V23.9895H61.2152C64.0593 23.9234 65.5144 22.2052 65.5144 19.4295ZM78.412 5.55126C76.2294 5.55126 74.8404 6.80691 74.8404 9.05387C74.8404 11.0365 77.0231 12.0278 79.1396 12.7547C80.3963 13.2173 81.9837 13.8121 83.1081 14.8034C84.2987 15.9269 84.9601 17.4469 84.8939 19.3634C84.8278 22.9321 82.3144 25.3773 77.8829 25.3773C76.2294 25.3773 73.6498 24.9808 72.1286 24.1217L71.9302 18.7687H73.253C73.3853 22.4034 75.0388 24.2539 78.0152 24.2539C80.3963 24.2539 81.7191 22.6678 81.7191 20.2226C81.7191 18.1078 79.9995 17.2487 77.3538 16.3234C76.4939 16.0591 74.7743 15.3982 73.5837 14.2087C72.5254 13.1513 71.9963 11.7634 71.9963 10.3756C71.9963 6.21213 74.9727 4.36169 78.6766 4.36169C80.1317 4.36169 82.3144 4.89039 83.6372 5.61735L83.7695 10.3095H82.4467C82.2483 7.00517 80.7931 5.55126 78.412 5.55126Z" fill="#F4EBE8"/>
<path d="M23.4484 8.78957L22.9192 9.25217L23.5145 11.1687L21.7948 10.2435L21.1996 10.7061L23.1177 11.7635L21.0673 13.4157L20.5381 12.6887L21.2657 12.0939L20.7366 11.433L20.009 12.0278L19.4137 11.2348L20.1413 10.64L19.6122 9.91304L15.9082 13.0191L19.4799 15.8609L20.1413 15.0678C20.6043 15.0678 20.935 15.4643 21.1334 15.8609L20.472 16.6539L20.8688 16.9843C21.7287 16.1913 22.9192 15.6626 24.1098 15.6626C26.6232 15.6626 28.5413 17.7113 28.5413 20.2226C28.5413 21.0157 28.3429 21.9409 27.8799 22.6678L28.5413 23.1965C28.5413 23.6591 28.0783 24.1878 27.6153 24.32L26.9539 23.7913C26.094 24.6504 24.9035 25.113 23.7129 25.113C21.1996 25.113 19.2814 23.1304 19.2814 20.6191C19.2814 19.8261 19.546 18.967 19.8767 18.24L19.4137 17.9096L18.7523 18.7687C18.2893 18.7026 17.8925 18.3722 17.7602 17.9096L18.4216 17.1826L15.4452 14.6713V18.6365H16.4373C16.5696 18.8348 16.6358 19.033 16.6358 19.2313C16.6358 19.4296 16.5696 19.6939 16.4373 19.8922H15.4452V20.3548C17.6279 20.7513 19.4799 22.6017 19.4799 24.8487C19.4799 27.1617 17.694 29.0122 15.4452 29.4087V30.2017C15.2468 30.3339 14.9822 30.4 14.7177 30.4C14.4531 30.4 14.1224 30.3339 13.924 30.2017V29.4087C11.6751 29.0783 9.95546 27.1617 9.95546 24.8487C9.95546 22.6017 11.6751 20.7513 13.924 20.4209V19.8922H12.8657C12.7334 19.6939 12.6673 19.4957 12.6673 19.2313C12.6673 18.967 12.7334 18.7687 12.8657 18.5704H13.924V14.6052L10.8814 17.1165L11.5429 17.8435C11.4106 18.3061 11.0137 18.6365 10.5507 18.7026L9.88932 17.8435L9.49247 18.24C9.88932 18.967 10.1539 19.76 10.1539 20.6191C10.1539 23.1304 8.16963 25.113 5.72239 25.113C4.53184 25.113 3.34129 24.6504 2.48144 23.7913L1.82003 24.32C1.42318 24.1878 0.960185 23.6591 0.894043 23.1965L1.55546 22.6678C1.15861 21.9409 0.894043 21.0817 0.894043 20.2226C0.894043 17.7113 2.81215 15.6626 5.32554 15.6626C6.51609 15.6626 7.70664 16.1913 8.56648 16.9843L8.96333 16.72L8.30192 15.927C8.4342 15.5304 8.83105 15.2 9.29404 15.1339L9.95546 15.927L13.5271 13.0852L9.82318 9.97913L9.29404 10.7061L10.0216 11.3009L9.49247 12.0278L8.76491 11.433L8.23578 12.0939L8.83105 12.5565L8.30192 13.2835L6.31766 11.6313L8.16963 10.5739L7.6405 10.1113L5.92081 11.0365L6.44995 9.25217L5.92081 8.78957L5.2594 10.8383L3.209 9.18609L3.73814 8.52522L4.4657 9.12L5.06097 8.45913L4.33341 7.79826L4.86255 7.13739L5.59011 7.66609L6.11924 7.00522L4.53184 5.81565C4.66412 5.28696 4.99483 4.89043 5.52396 4.56L13.924 11.433V6.87304H13.0641V7.73217H12.2043V6.87304H11.3444V7.73217H10.4846V5.15478L12.4688 6.01391V5.28696L10.6169 4.49391L12.4688 3.76696V3.10609L10.4846 3.89913V1.25565H11.3444V2.18087H12.2043V1.25565H13.0641V2.18087H13.924V0.132174C14.1885 0.066087 14.4531 0 14.7177 0C14.9822 0 15.2468 0.066087 15.4452 0.132174V11.433L23.8452 4.56C24.3082 4.89043 24.6389 5.28696 24.8374 5.81565L23.2499 7.0713L23.7791 7.73217L24.5066 7.20348L25.0358 7.86435L24.3082 8.52522L24.8374 9.18609L25.5649 8.5913L26.094 9.25217L24.0436 10.9043L23.4484 8.78957ZM6.31766 21.2139C6.31766 21.9409 6.8468 22.4035 7.50822 22.4696L6.44995 23.2626C5.72239 22.9983 5.06097 22.1391 5.06097 21.3461C5.06097 21.0817 5.12711 20.9496 5.19326 20.7513H4.99483C4.0027 20.7513 3.209 19.8261 3.01058 18.9009L4.13499 18.0417V18.3722C4.13499 18.967 4.73026 19.4957 5.32554 19.4957C5.98696 19.4957 6.58223 18.967 6.58223 18.3061C6.58223 17.513 5.98696 16.9843 5.19326 16.9843C3.73814 16.9843 2.28302 18.4383 2.28302 20.2887C2.28302 20.8174 2.4153 21.3461 2.61373 21.8087L3.27515 21.28C3.73814 21.4783 4.06885 21.9409 4.20113 22.4696L3.53971 22.9983C4.20113 23.527 4.99483 23.7913 5.78853 23.7913C7.50822 23.7913 8.83105 22.4035 8.83105 21.2139C8.83105 20.487 8.36806 19.8922 7.6405 19.8922C6.8468 20.0243 6.31766 20.553 6.31766 21.2139ZM15.3129 23.8574C15.3129 24.5183 15.8421 25.047 16.5035 25.047C16.9665 25.047 17.1649 24.8487 17.4956 24.5843V25.9722C17.1649 26.1704 16.8342 26.2365 16.4373 26.2365C15.7098 26.2365 15.1145 26.0383 14.7177 25.3774C14.3208 26.0383 13.6594 26.2365 12.9318 26.2365C12.6011 26.2365 12.2043 26.1704 11.8736 25.9722V24.5843C12.2043 24.9148 12.4027 25.047 12.8657 25.047C13.5271 25.047 14.0562 24.5183 14.0562 23.8574C14.0562 23.1965 13.6594 22.6678 12.9318 22.6678C11.6751 22.6678 11.146 23.8574 11.146 24.9809C11.146 26.567 12.3366 27.9548 13.8578 28.2191V27.4261C14.1224 27.2939 14.387 27.2939 14.5854 27.2939C14.8499 27.2939 15.1145 27.2939 15.3791 27.4261V28.2191C16.8342 28.0209 18.0909 26.5009 18.0909 24.9809C18.0909 23.8574 17.6279 22.6678 16.3051 22.6678C15.7759 22.6017 15.3129 23.1965 15.3129 23.8574ZM22.8531 18.3722C22.8531 18.967 23.5145 19.5617 24.1098 19.5617C24.7051 19.5617 25.3003 19.033 25.3003 18.4383V18.1078L26.3586 18.967C26.1602 20.0243 25.2342 20.8835 24.1759 20.8174C24.2421 21.0157 24.2421 21.2139 24.2421 21.4122C24.2421 22.2052 23.5807 23.0643 22.8531 23.3287L21.861 22.4696C22.5224 22.4035 23.0515 21.9409 23.0515 21.2139C23.0515 20.487 22.4562 20.0243 21.7948 20.0243C21.0673 20.0243 20.6043 20.6191 20.6043 21.3461C20.6043 22.2052 21.6625 23.9235 23.7129 23.9235C24.5066 23.9235 25.3003 23.6591 25.8956 23.1304L25.2342 22.6017C25.3665 22.073 25.6972 21.6104 26.1602 21.4122L26.8216 21.9409C27.0862 21.4783 27.2185 20.9496 27.2185 20.4209C27.2185 18.967 26.094 17.1165 24.3082 17.1165C23.5145 17.1165 22.8531 17.5791 22.8531 18.3722Z" fill="#F4EBE8"/>
</g>
<defs>
<clipPath id="clip0_1912_2882">
<rect width="84" height="30.4" fill="white" transform="translate(0.894043)"/>
</clipPath>
</defs>
</svg>
