<svg width="133" height="35" viewBox="0 0 133 35" fill="none" xmlns="http://www.w3.org/2000/svg">
<g clip-path="url(#clip0_1912_2851)">
<path d="M54.3895 13.9387L50.6495 27.4166H48.367L46.2736 19.8521L45.6548 17.3443H45.6376C45.3626 18.4933 45.153 19.3292 45.0017 19.8521L42.9255 27.4166H40.643L36.8823 13.9387H39.1648L41.2239 21.5205C41.4989 22.5456 41.6845 23.354 41.7842 23.9526H41.8014C41.9148 23.4916 42.1211 22.6798 42.4201 21.5205L44.4964 13.9387H46.7789L48.8758 21.5205C49.1748 22.6798 49.3811 23.4916 49.4945 23.9526H49.5117C49.6733 23.1166 49.8623 22.3048 50.072 21.5205L52.1311 13.9387H54.393H54.3895Z" fill="#F4EBE8"/>
<path d="M56.2253 26.8664C55.5034 26.4226 54.9294 25.8241 54.5031 25.0707C54.0803 24.3174 53.8672 23.4883 53.8672 22.5905C53.8672 21.6926 54.0803 20.8636 54.5031 20.1102C54.9259 19.3569 55.5 18.7549 56.2253 18.3146C56.9472 17.8708 57.7481 17.6506 58.6213 17.6506H58.6384C59.5116 17.6506 60.3056 17.8708 61.0241 18.3146C61.7425 18.7583 62.3097 19.3569 62.7256 20.1102C63.145 20.867 63.3513 21.6926 63.3513 22.5905C63.3513 23.4883 63.1416 24.3174 62.7256 25.0707C62.3063 25.8275 61.7391 26.4261 61.0241 26.8664C60.3056 27.3102 59.5116 27.5303 58.6384 27.5303H58.6213C57.7481 27.5303 56.9506 27.3102 56.2253 26.8664ZM58.6384 25.3218C59.0991 25.3218 59.5219 25.2014 59.9 24.9572C60.2816 24.713 60.5806 24.3827 60.7972 23.9665C61.0138 23.5468 61.1238 23.0893 61.1238 22.5905C61.1238 22.0917 61.0138 21.6514 60.7972 21.2317C60.5772 20.812 60.2781 20.4783 59.9 20.2306C59.5184 19.9795 59.0991 19.8557 58.6384 19.8557H58.6213C58.1469 19.8557 57.7206 19.9761 57.3391 20.2203C56.9575 20.4646 56.6584 20.7948 56.4419 21.211C56.2219 21.6307 56.1153 22.0882 56.1153 22.587C56.1153 23.0858 56.2253 23.5434 56.4419 23.963C56.6584 24.3827 56.9575 24.713 57.3391 24.9538C57.7206 25.198 58.1469 25.3184 58.6213 25.3184H58.6384V25.3218Z" fill="#F4EBE8"/>
<path d="M70.7381 17.7228V19.9313C70.2878 19.8556 69.896 19.8177 69.5591 19.8177C68.8097 19.8177 68.2219 20.0379 67.7922 20.4713C67.3625 20.9082 67.146 21.5618 67.146 22.4356V27.4167H64.9185V17.7572H67.146V19.03C67.421 18.5793 67.7785 18.2388 68.2219 18.0014C68.6653 17.7641 69.1741 17.6471 69.7481 17.6471C70.1091 17.6471 70.4391 17.6712 70.7381 17.7228Z" fill="#F4EBE8"/>
<path d="M74.4438 27.4202H72.2163V13.9423H74.4438V27.4202Z" fill="#F4EBE8"/>
<path d="M85.0317 27.4202H82.8042V26.0339C82.1545 27.0315 81.1886 27.5303 79.9029 27.5303C79.1536 27.5303 78.4557 27.3136 77.8095 26.8836C77.1598 26.4536 76.6442 25.8619 76.2557 25.1154C75.8707 24.3655 75.6748 23.5227 75.6748 22.587C75.6748 21.6513 75.8673 20.8085 76.2557 20.0586C76.6407 19.3087 77.1598 18.7205 77.8095 18.2905C78.4592 17.8605 79.157 17.6437 79.9029 17.6437C80.4873 17.6437 81.0373 17.7848 81.5495 18.0634C82.0617 18.3455 82.4776 18.7101 82.8042 19.1573V13.9354H85.0317V27.4133V27.4202ZM82.1339 24.5444C82.5842 24.0146 82.8076 23.361 82.8076 22.587C82.8076 21.813 82.5842 21.1629 82.1339 20.64C81.6836 20.1171 81.1095 19.8522 80.4117 19.8522C79.9511 19.8522 79.5282 19.9726 79.1501 20.2169C78.7686 20.4611 78.4695 20.7913 78.2529 21.2076C78.0329 21.6273 77.9264 22.0848 77.9264 22.5836C77.9264 23.0824 78.0364 23.5433 78.2529 23.9699C78.4695 24.393 78.7686 24.7267 79.1501 24.9709C79.5317 25.2152 79.9511 25.3356 80.4117 25.3356C81.1095 25.3356 81.6836 25.0707 82.1339 24.5409V24.5444Z" fill="#F4EBE8"/>
<path d="M99.2284 25.1911V27.4202H91.0918V13.9423H93.3193V25.1945H99.2318L99.2284 25.1911Z" fill="#F4EBE8"/>
<path d="M109.163 17.7573V27.4168H106.935V26.089C106.175 27.0487 105.196 27.5303 103.999 27.5303C103.24 27.5303 102.538 27.3102 101.896 26.8664C101.253 26.4226 100.744 25.8241 100.369 25.0707C99.9947 24.3174 99.8091 23.4883 99.8091 22.5905C99.8091 21.6926 99.9947 20.8636 100.369 20.1102C100.744 19.3569 101.253 18.7549 101.896 18.3146C102.538 17.8708 103.24 17.6506 103.999 17.6506C104.598 17.6506 105.151 17.7814 105.656 18.0428C106.162 18.3042 106.588 18.662 106.938 19.1092V17.7607H109.166L109.163 17.7573ZM105.739 24.9572C106.113 24.713 106.406 24.3827 106.619 23.9665C106.832 23.5468 106.938 23.0893 106.938 22.5905C106.938 22.0917 106.832 21.6342 106.619 21.2145C106.406 20.7948 106.113 20.4646 105.739 20.2238C105.364 19.9795 104.952 19.8591 104.505 19.8591C104.058 19.8591 103.625 19.9795 103.25 20.2238C102.875 20.468 102.583 20.7982 102.37 21.2145C102.157 21.6342 102.05 22.0917 102.05 22.5905C102.05 23.0893 102.157 23.5468 102.37 23.9665C102.583 24.3862 102.875 24.7164 103.25 24.9572C103.625 25.2014 104.041 25.3218 104.505 25.3218C104.969 25.3218 105.364 25.2014 105.739 24.9572Z" fill="#F4EBE8"/>
<path d="M113.353 13.9388V19.1608C113.676 18.686 114.095 18.3145 114.608 18.0462C115.12 17.7779 115.673 17.6437 116.271 17.6437C117.021 17.6437 117.719 17.8604 118.365 18.2904C119.015 18.7204 119.527 19.3121 119.908 20.0586C120.29 20.8085 120.479 21.6513 120.479 22.587C120.479 23.5227 120.29 24.3655 119.908 25.1154C119.527 25.8653 119.015 26.4536 118.365 26.8836C117.715 27.3136 117.017 27.5303 116.271 27.5303C114.975 27.5303 114.003 27.0315 113.353 26.0339V27.4202H111.125V13.9423H113.353V13.9388ZM117.028 24.9744C117.409 24.7301 117.708 24.3964 117.925 23.9733C118.141 23.5502 118.251 23.0858 118.251 22.587C118.251 22.0882 118.141 21.6307 117.925 21.211C117.705 20.7913 117.406 20.4611 117.028 20.2203C116.646 19.976 116.227 19.8556 115.766 19.8556C115.068 19.8556 114.491 20.1171 114.037 20.6434C113.583 21.1663 113.353 21.8164 113.353 22.5904C113.353 23.3644 113.58 24.0146 114.037 24.5478C114.491 25.0776 115.068 25.3424 115.766 25.3424C116.227 25.3424 116.65 25.222 117.028 24.9778V24.9744Z" fill="#F4EBE8"/>
<path d="M123.903 25.2083C124.188 25.4697 124.556 25.6004 125.006 25.6004C125.405 25.6004 125.731 25.5075 125.989 25.3183C126.244 25.1326 126.374 24.8815 126.374 24.5684C126.374 24.2932 126.271 24.0799 126.065 23.9217C125.859 23.7669 125.518 23.6327 125.044 23.5192L123.903 23.2371C122.256 22.8381 121.434 21.9127 121.434 20.4679C121.434 19.9313 121.586 19.4463 121.885 19.0163C122.184 18.5863 122.603 18.2491 123.139 18.0049C123.676 17.7607 124.281 17.6403 124.954 17.6403C125.628 17.6403 126.199 17.7916 126.704 18.0978C127.209 18.4039 127.601 18.7961 127.883 19.2777C128.165 19.7593 128.303 20.2547 128.303 20.7672H126.281C126.257 20.3819 126.12 20.0655 125.869 19.8212C125.618 19.577 125.302 19.4566 124.913 19.4566C124.525 19.4566 124.219 19.5495 123.989 19.7387C123.758 19.9244 123.641 20.1618 123.641 20.4507C123.641 20.8876 123.934 21.1731 124.521 21.3107L125.776 21.61C126.697 21.8233 127.395 22.1742 127.863 22.6661C128.33 23.158 128.564 23.7566 128.564 24.4549C128.564 25.3803 128.224 26.1199 127.543 26.684C126.862 27.2447 125.986 27.5268 124.913 27.5268C124.14 27.5268 123.473 27.3651 122.913 27.0418C122.352 26.7184 121.926 26.2987 121.641 25.7862C121.355 25.2736 121.204 24.7439 121.19 24.1935H123.435C123.459 24.6063 123.617 24.9434 123.903 25.2048V25.2083Z" fill="#F4EBE8"/>
<path d="M0.115048 1.11795L4.52192 22.8794C4.71099 23.8151 5.75942 24.0146 6.39192 23.3025L8.2963 21.3727C10.0185 19.6286 12.5691 19.7972 14.1366 21.6823L20.1419 27.833C20.5819 28.2974 21.4138 28.1151 21.7129 27.5509L31.1075 10.7912C31.5304 10.0379 30.891 9.32923 30.0557 9.55283L14.9582 14.9055C13.5488 15.504 11.9297 16.1748 10.101 14.0971L1.77192 0.368035C1.17036 -0.412845 -0.0740144 0.147875 0.115048 1.11795Z" fill="#F4EBE8"/>
</g>
<defs>
<clipPath id="clip0_1912_2851">
<rect width="132" height="34.4" fill="white" transform="translate(0.0942383)"/>
</clipPath>
</defs>
</svg>
